<svg width="375" height="296" viewBox="0 0 375 296" fill="none" xmlns="http://www.w3.org/2000/svg">
<g clip-path="url(#clip0)">
<rect width="375" height="296" fill="white"/>
<g filter="url(#filter0_d)">
<path d="M0 0H375V274C375 285.046 366.046 294 355 294H20C8.95431 294 0 285.046 0 274V0Z" fill="#E71D36"/>
</g>

<path d="M356 36H338" stroke="#EFCA48" stroke-width="2" stroke-linecap="round" stroke-linejoin="round"/>
<path d="M356 30H338" stroke="#EFCA48" stroke-width="2" stroke-linecap="round" stroke-linejoin="round"/>
<path d="M356 42H338" stroke="#EFCA48" stroke-width="2" stroke-linecap="round" stroke-linejoin="round"/>
<path d="M166.034 105.478V109.169H171.668V105.478C171.668 104.95 171.785 104.555 172.02 104.291C172.26 104.027 172.573 103.896 172.96 103.896C173.353 103.896 173.669 104.027 173.909 104.291C174.155 104.549 174.278 104.944 174.278 105.478V115.629C174.278 116.162 174.155 116.561 173.909 116.824C173.663 117.088 173.347 117.22 172.96 117.22C172.567 117.22 172.254 117.088 172.02 116.824C171.785 116.555 171.668 116.156 171.668 115.629V111.296H166.034V115.629C166.034 116.162 165.911 116.561 165.665 116.824C165.419 117.088 165.103 117.22 164.716 117.22C164.323 117.22 164.01 117.088 163.775 116.824C163.541 116.555 163.424 116.156 163.424 115.629V105.478C163.424 104.95 163.538 104.555 163.767 104.291C164.001 104.027 164.317 103.896 164.716 103.896C165.108 103.896 165.425 104.027 165.665 104.291C165.911 104.549 166.034 104.944 166.034 105.478ZM185.897 112.342C185.897 113.057 185.786 113.716 185.563 114.319C185.341 114.923 185.019 115.441 184.597 115.875C184.175 116.309 183.671 116.643 183.085 116.877C182.499 117.105 181.84 117.22 181.107 117.22C180.381 117.22 179.728 117.103 179.147 116.868C178.567 116.634 178.063 116.3 177.636 115.866C177.214 115.427 176.892 114.911 176.669 114.319C176.452 113.722 176.344 113.062 176.344 112.342C176.344 111.615 176.455 110.95 176.678 110.347C176.9 109.743 177.22 109.228 177.636 108.8C178.052 108.372 178.556 108.044 179.147 107.815C179.739 107.581 180.393 107.464 181.107 107.464C181.834 107.464 182.493 107.581 183.085 107.815C183.677 108.05 184.184 108.384 184.605 108.817C185.027 109.251 185.347 109.767 185.563 110.364C185.786 110.962 185.897 111.621 185.897 112.342ZM183.489 112.342C183.489 111.363 183.272 110.602 182.839 110.057C182.411 109.512 181.834 109.239 181.107 109.239C180.639 109.239 180.226 109.362 179.868 109.608C179.511 109.849 179.235 110.206 179.042 110.681C178.849 111.155 178.752 111.709 178.752 112.342C178.752 112.969 178.846 113.517 179.033 113.985C179.227 114.454 179.499 114.814 179.851 115.066C180.208 115.312 180.627 115.436 181.107 115.436C181.834 115.436 182.411 115.163 182.839 114.618C183.272 114.067 183.489 113.309 183.489 112.342ZM195.776 112.518V115.708C195.776 116.212 195.662 116.59 195.434 116.842C195.205 117.094 194.903 117.22 194.528 117.22C194.165 117.22 193.869 117.094 193.641 116.842C193.418 116.59 193.307 116.212 193.307 115.708V111.885C193.307 111.281 193.286 110.812 193.245 110.479C193.204 110.145 193.093 109.872 192.911 109.661C192.729 109.444 192.442 109.336 192.05 109.336C191.265 109.336 190.746 109.605 190.494 110.145C190.248 110.684 190.125 111.457 190.125 112.465V115.708C190.125 116.206 190.011 116.584 189.782 116.842C189.56 117.094 189.264 117.22 188.895 117.22C188.531 117.22 188.232 117.094 187.998 116.842C187.77 116.584 187.655 116.206 187.655 115.708V108.844C187.655 108.393 187.758 108.05 187.963 107.815C188.174 107.581 188.449 107.464 188.789 107.464C189.117 107.464 189.39 107.575 189.606 107.798C189.829 108.015 189.94 108.316 189.94 108.703V108.932C190.356 108.434 190.802 108.067 191.276 107.833C191.751 107.599 192.278 107.481 192.858 107.481C193.462 107.481 193.98 107.602 194.414 107.842C194.848 108.082 195.205 108.445 195.486 108.932C195.891 108.439 196.324 108.076 196.787 107.842C197.25 107.602 197.763 107.481 198.325 107.481C198.981 107.481 199.547 107.61 200.021 107.868C200.496 108.126 200.851 108.495 201.085 108.976C201.29 109.409 201.393 110.092 201.393 111.023V115.708C201.393 116.212 201.278 116.59 201.05 116.842C200.821 117.094 200.52 117.22 200.145 117.22C199.781 117.22 199.482 117.094 199.248 116.842C199.02 116.584 198.905 116.206 198.905 115.708V111.674C198.905 111.158 198.882 110.745 198.835 110.435C198.794 110.124 198.677 109.863 198.483 109.652C198.29 109.441 197.997 109.336 197.604 109.336C197.288 109.336 196.986 109.43 196.699 109.617C196.418 109.805 196.198 110.057 196.04 110.373C195.864 110.777 195.776 111.492 195.776 112.518ZM210.419 112.931H205.726C205.731 113.476 205.84 113.956 206.051 114.372C206.268 114.788 206.552 115.102 206.903 115.312C207.261 115.523 207.653 115.629 208.081 115.629C208.368 115.629 208.629 115.597 208.863 115.532C209.104 115.462 209.335 115.356 209.558 115.216C209.78 115.069 209.985 114.914 210.173 114.75C210.36 114.586 210.604 114.363 210.902 114.082C211.025 113.977 211.201 113.924 211.43 113.924C211.676 113.924 211.875 113.991 212.027 114.126C212.18 114.261 212.256 114.451 212.256 114.697C212.256 114.914 212.171 115.169 212.001 115.462C211.831 115.749 211.573 116.027 211.228 116.297C210.888 116.561 210.457 116.78 209.936 116.956C209.42 117.132 208.825 117.22 208.151 117.22C206.61 117.22 205.412 116.78 204.557 115.901C203.701 115.022 203.273 113.83 203.273 112.324C203.273 111.615 203.379 110.959 203.59 110.355C203.801 109.746 204.108 109.225 204.513 108.791C204.917 108.357 205.415 108.026 206.007 107.798C206.599 107.563 207.255 107.446 207.976 107.446C208.913 107.446 209.716 107.646 210.384 108.044C211.058 108.437 211.562 108.946 211.896 109.573C212.229 110.2 212.396 110.839 212.396 111.489C212.396 112.093 212.224 112.485 211.878 112.667C211.532 112.843 211.046 112.931 210.419 112.931ZM205.726 111.568H210.076C210.018 110.748 209.795 110.136 209.408 109.731C209.027 109.321 208.523 109.116 207.896 109.116C207.299 109.116 206.807 109.324 206.42 109.74C206.039 110.15 205.808 110.76 205.726 111.568Z" fill="#EFCA48"/>
<path d="M170.65 152.541L170.035 150.924H164.797L164.182 152.576C163.941 153.221 163.736 153.657 163.566 153.886C163.396 154.108 163.118 154.22 162.731 154.22C162.403 154.22 162.113 154.1 161.861 153.859C161.609 153.619 161.483 153.347 161.483 153.042C161.483 152.866 161.513 152.685 161.571 152.497C161.63 152.31 161.727 152.049 161.861 151.715L165.157 143.348C165.251 143.107 165.362 142.82 165.491 142.486C165.626 142.146 165.767 141.865 165.913 141.643C166.065 141.42 166.262 141.241 166.502 141.106C166.748 140.966 167.05 140.896 167.407 140.896C167.771 140.896 168.072 140.966 168.312 141.106C168.559 141.241 168.755 141.417 168.901 141.634C169.054 141.851 169.18 142.085 169.279 142.337C169.385 142.583 169.517 142.914 169.675 143.33L173.041 151.645C173.305 152.277 173.437 152.737 173.437 153.024C173.437 153.323 173.311 153.599 173.059 153.851C172.812 154.097 172.514 154.22 172.162 154.22C171.957 154.22 171.781 154.182 171.635 154.105C171.488 154.035 171.365 153.938 171.266 153.815C171.166 153.687 171.058 153.493 170.94 153.235C170.829 152.972 170.732 152.74 170.65 152.541ZM165.482 148.964H169.332L167.39 143.646L165.482 148.964ZM177.409 142.267V145.932C177.86 145.463 178.32 145.105 178.789 144.859C179.258 144.607 179.838 144.481 180.529 144.481C181.326 144.481 182.023 144.672 182.621 145.053C183.225 145.428 183.69 145.976 184.019 146.696C184.353 147.411 184.52 148.261 184.52 149.245C184.52 149.972 184.426 150.64 184.238 151.249C184.057 151.853 183.79 152.377 183.438 152.822C183.087 153.268 182.659 153.613 182.155 153.859C181.657 154.1 181.106 154.22 180.503 154.22C180.134 154.22 179.785 154.176 179.457 154.088C179.135 154 178.859 153.886 178.631 153.745C178.402 153.599 178.206 153.449 178.042 153.297C177.884 153.145 177.673 152.916 177.409 152.611V152.849C177.409 153.3 177.301 153.643 177.084 153.877C176.867 154.105 176.592 154.22 176.258 154.22C175.918 154.22 175.646 154.105 175.44 153.877C175.241 153.643 175.142 153.3 175.142 152.849V142.372C175.142 141.886 175.238 141.52 175.432 141.273C175.631 141.021 175.906 140.896 176.258 140.896C176.627 140.896 176.911 141.016 177.11 141.256C177.31 141.49 177.409 141.827 177.409 142.267ZM177.523 149.395C177.523 150.35 177.74 151.085 178.174 151.601C178.613 152.11 179.188 152.365 179.896 152.365C180.5 152.365 181.019 152.104 181.452 151.583C181.892 151.056 182.111 150.303 182.111 149.324C182.111 148.691 182.021 148.146 181.839 147.689C181.657 147.232 181.399 146.881 181.065 146.635C180.731 146.383 180.342 146.257 179.896 146.257C179.439 146.257 179.032 146.383 178.675 146.635C178.317 146.881 178.036 147.241 177.831 147.716C177.626 148.185 177.523 148.744 177.523 149.395ZM195.427 149.342C195.427 150.057 195.315 150.716 195.093 151.319C194.87 151.923 194.548 152.441 194.126 152.875C193.704 153.309 193.2 153.643 192.614 153.877C192.028 154.105 191.369 154.22 190.637 154.22C189.91 154.22 189.257 154.103 188.677 153.868C188.097 153.634 187.593 153.3 187.165 152.866C186.743 152.427 186.421 151.911 186.198 151.319C185.981 150.722 185.873 150.062 185.873 149.342C185.873 148.615 185.984 147.95 186.207 147.347C186.43 146.743 186.749 146.228 187.165 145.8C187.581 145.372 188.085 145.044 188.677 144.815C189.269 144.581 189.922 144.464 190.637 144.464C191.363 144.464 192.022 144.581 192.614 144.815C193.206 145.05 193.713 145.384 194.135 145.817C194.557 146.251 194.876 146.767 195.093 147.364C195.315 147.962 195.427 148.621 195.427 149.342ZM193.019 149.342C193.019 148.363 192.802 147.602 192.368 147.057C191.94 146.512 191.363 146.239 190.637 146.239C190.168 146.239 189.755 146.362 189.397 146.608C189.04 146.849 188.765 147.206 188.571 147.681C188.378 148.155 188.281 148.709 188.281 149.342C188.281 149.969 188.375 150.517 188.562 150.985C188.756 151.454 189.028 151.814 189.38 152.066C189.737 152.312 190.156 152.436 190.637 152.436C191.363 152.436 191.94 152.163 192.368 151.618C192.802 151.067 193.019 150.309 193.019 149.342ZM203.557 152.866V152.559C203.27 152.922 202.968 153.227 202.651 153.473C202.335 153.719 201.989 153.9 201.614 154.018C201.239 154.141 200.812 154.202 200.331 154.202C199.751 154.202 199.229 154.082 198.767 153.842C198.31 153.602 197.955 153.271 197.703 152.849C197.404 152.339 197.255 151.606 197.255 150.651V145.896C197.255 145.416 197.363 145.059 197.58 144.824C197.797 144.584 198.084 144.464 198.441 144.464C198.805 144.464 199.098 144.584 199.32 144.824C199.543 145.064 199.654 145.422 199.654 145.896V149.737C199.654 150.294 199.701 150.763 199.795 151.144C199.889 151.519 200.056 151.814 200.296 152.031C200.542 152.242 200.873 152.348 201.289 152.348C201.693 152.348 202.074 152.228 202.432 151.987C202.789 151.747 203.05 151.434 203.214 151.047C203.349 150.707 203.416 149.963 203.416 148.814V145.896C203.416 145.422 203.527 145.064 203.75 144.824C203.973 144.584 204.263 144.464 204.62 144.464C204.978 144.464 205.265 144.584 205.481 144.824C205.698 145.059 205.807 145.416 205.807 145.896V152.849C205.807 153.306 205.701 153.648 205.49 153.877C205.285 154.105 205.019 154.22 204.69 154.22C204.362 154.22 204.09 154.103 203.873 153.868C203.662 153.628 203.557 153.294 203.557 152.866ZM208.338 144.675H208.602V143.233C208.602 142.847 208.61 142.545 208.628 142.328C208.651 142.105 208.71 141.915 208.804 141.757C208.897 141.593 209.032 141.461 209.208 141.361C209.384 141.256 209.58 141.203 209.797 141.203C210.102 141.203 210.377 141.317 210.623 141.546C210.787 141.698 210.89 141.886 210.931 142.108C210.978 142.325 211.001 142.636 211.001 143.04V144.675H211.88C212.22 144.675 212.478 144.757 212.653 144.921C212.835 145.079 212.926 145.284 212.926 145.536C212.926 145.858 212.797 146.084 212.539 146.213C212.287 146.342 211.924 146.406 211.449 146.406H211.001V150.818C211.001 151.193 211.013 151.483 211.036 151.688C211.065 151.888 211.136 152.052 211.247 152.181C211.364 152.304 211.552 152.365 211.81 152.365C211.95 152.365 212.141 152.342 212.381 152.295C212.621 152.242 212.809 152.216 212.943 152.216C213.137 152.216 213.31 152.295 213.462 152.453C213.62 152.605 213.699 152.796 213.699 153.024C213.699 153.411 213.488 153.707 213.066 153.912C212.645 154.117 212.038 154.22 211.247 154.22C210.497 154.22 209.929 154.094 209.542 153.842C209.155 153.59 208.9 153.241 208.777 152.796C208.66 152.351 208.602 151.756 208.602 151.012V146.406H208.285C207.939 146.406 207.676 146.324 207.494 146.16C207.312 145.996 207.222 145.788 207.222 145.536C207.222 145.284 207.315 145.079 207.503 144.921C207.696 144.757 207.975 144.675 208.338 144.675Z" fill="white"/>
<path d="M164.105 180.128H158.964V183.424H163.262C163.66 183.424 163.956 183.515 164.149 183.696C164.349 183.872 164.448 184.109 164.448 184.408C164.448 184.707 164.349 184.944 164.149 185.12C163.95 185.296 163.654 185.384 163.262 185.384H158.964V189.629C158.964 190.168 158.841 190.569 158.595 190.833C158.354 191.091 158.044 191.22 157.663 191.22C157.276 191.22 156.96 191.088 156.714 190.824C156.474 190.561 156.354 190.162 156.354 189.629V179.715C156.354 179.34 156.409 179.035 156.521 178.801C156.632 178.561 156.805 178.388 157.039 178.282C157.279 178.171 157.584 178.115 157.953 178.115H164.105C164.521 178.115 164.829 178.209 165.028 178.396C165.233 178.578 165.336 178.818 165.336 179.117C165.336 179.422 165.233 179.668 165.028 179.855C164.829 180.037 164.521 180.128 164.105 180.128ZM173.132 186.931H168.438C168.444 187.476 168.553 187.956 168.764 188.372C168.98 188.788 169.265 189.102 169.616 189.312C169.974 189.523 170.366 189.629 170.794 189.629C171.081 189.629 171.342 189.597 171.576 189.532C171.816 189.462 172.048 189.356 172.271 189.216C172.493 189.069 172.698 188.914 172.886 188.75C173.073 188.586 173.316 188.363 173.615 188.082C173.738 187.977 173.914 187.924 174.143 187.924C174.389 187.924 174.588 187.991 174.74 188.126C174.893 188.261 174.969 188.451 174.969 188.697C174.969 188.914 174.884 189.169 174.714 189.462C174.544 189.749 174.286 190.027 173.94 190.297C173.601 190.561 173.17 190.78 172.648 190.956C172.133 191.132 171.538 191.22 170.864 191.22C169.323 191.22 168.125 190.78 167.27 189.901C166.414 189.022 165.986 187.83 165.986 186.324C165.986 185.615 166.092 184.959 166.303 184.355C166.514 183.746 166.821 183.225 167.226 182.791C167.63 182.357 168.128 182.026 168.72 181.798C169.312 181.563 169.968 181.446 170.688 181.446C171.626 181.446 172.429 181.646 173.097 182.044C173.771 182.437 174.274 182.946 174.608 183.573C174.942 184.2 175.109 184.839 175.109 185.489C175.109 186.093 174.937 186.485 174.591 186.667C174.245 186.843 173.759 186.931 173.132 186.931ZM168.438 185.568H172.789C172.73 184.748 172.508 184.136 172.121 183.731C171.74 183.321 171.236 183.116 170.609 183.116C170.012 183.116 169.52 183.324 169.133 183.74C168.752 184.15 168.521 184.76 168.438 185.568ZM177.14 189.761V179.354C177.14 178.874 177.245 178.511 177.456 178.265C177.673 178.019 177.963 177.896 178.326 177.896C178.689 177.896 178.982 178.019 179.205 178.265C179.428 178.505 179.539 178.868 179.539 179.354V189.761C179.539 190.247 179.425 190.613 179.196 190.859C178.974 191.1 178.684 191.22 178.326 191.22C177.975 191.22 177.688 191.094 177.465 190.842C177.248 190.59 177.14 190.229 177.14 189.761ZM182.026 189.761V179.354C182.026 178.874 182.132 178.511 182.343 178.265C182.56 178.019 182.85 177.896 183.213 177.896C183.576 177.896 183.869 178.019 184.092 178.265C184.314 178.505 184.426 178.868 184.426 179.354V189.761C184.426 190.247 184.312 190.613 184.083 190.859C183.86 191.1 183.57 191.22 183.213 191.22C182.861 191.22 182.574 191.094 182.352 190.842C182.135 190.59 182.026 190.229 182.026 189.761ZM195.896 186.342C195.896 187.057 195.784 187.716 195.562 188.319C195.339 188.923 195.017 189.441 194.595 189.875C194.173 190.309 193.669 190.643 193.083 190.877C192.497 191.105 191.838 191.22 191.105 191.22C190.379 191.22 189.726 191.103 189.146 190.868C188.565 190.634 188.062 190.3 187.634 189.866C187.212 189.427 186.89 188.911 186.667 188.319C186.45 187.722 186.342 187.062 186.342 186.342C186.342 185.615 186.453 184.95 186.676 184.347C186.898 183.743 187.218 183.228 187.634 182.8C188.05 182.372 188.554 182.044 189.146 181.815C189.737 181.581 190.391 181.464 191.105 181.464C191.832 181.464 192.491 181.581 193.083 181.815C193.675 182.05 194.182 182.384 194.604 182.817C195.025 183.251 195.345 183.767 195.562 184.364C195.784 184.962 195.896 185.621 195.896 186.342ZM193.487 186.342C193.487 185.363 193.271 184.602 192.837 184.057C192.409 183.512 191.832 183.239 191.105 183.239C190.637 183.239 190.224 183.362 189.866 183.608C189.509 183.849 189.233 184.206 189.04 184.681C188.847 185.155 188.75 185.709 188.75 186.342C188.75 186.969 188.844 187.517 189.031 187.985C189.225 188.454 189.497 188.814 189.849 189.066C190.206 189.312 190.625 189.436 191.105 189.436C191.832 189.436 192.409 189.163 192.837 188.618C193.271 188.067 193.487 187.309 193.487 186.342ZM199.288 182.958L200.853 188.319L202.276 183.336C202.429 182.814 202.54 182.46 202.61 182.272C202.687 182.079 202.824 181.897 203.023 181.728C203.229 181.552 203.507 181.464 203.858 181.464C204.216 181.464 204.494 181.552 204.693 181.728C204.898 181.897 205.042 182.085 205.124 182.29C205.206 182.489 205.32 182.838 205.467 183.336L206.891 188.319L208.473 182.958C208.578 182.571 208.663 182.293 208.728 182.123C208.792 181.947 208.9 181.795 209.053 181.666C209.205 181.531 209.425 181.464 209.712 181.464C209.999 181.464 210.248 181.563 210.459 181.763C210.67 181.962 210.775 182.196 210.775 182.466C210.775 182.712 210.685 183.084 210.503 183.582L208.543 189.33C208.373 189.816 208.241 190.168 208.147 190.385C208.054 190.602 207.904 190.795 207.699 190.965C207.5 191.135 207.225 191.22 206.873 191.22C206.51 191.22 206.223 191.129 206.012 190.947C205.807 190.766 205.654 190.543 205.555 190.279C205.455 190.016 205.347 189.673 205.229 189.251L203.858 184.575L202.531 189.251C202.355 189.901 202.165 190.394 201.96 190.728C201.755 191.056 201.395 191.22 200.879 191.22C200.615 191.22 200.39 191.167 200.202 191.062C200.021 190.962 199.868 190.818 199.745 190.631C199.622 190.438 199.514 190.212 199.42 189.954C199.326 189.69 199.253 189.482 199.2 189.33L197.258 183.582C197.064 183.043 196.968 182.671 196.968 182.466C196.968 182.208 197.07 181.977 197.275 181.771C197.48 181.566 197.732 181.464 198.031 181.464C198.43 181.464 198.699 181.578 198.84 181.807C198.98 182.029 199.13 182.413 199.288 182.958ZM220.162 188.082C220.162 188.744 220.001 189.312 219.679 189.787C219.356 190.256 218.879 190.613 218.246 190.859C217.619 191.1 216.854 191.22 215.952 191.22C215.091 191.22 214.353 191.088 213.737 190.824C213.122 190.561 212.668 190.232 212.375 189.84C212.082 189.441 211.936 189.043 211.936 188.645C211.936 188.381 212.029 188.155 212.217 187.968C212.404 187.78 212.642 187.687 212.929 187.687C213.181 187.687 213.374 187.748 213.509 187.871C213.644 187.994 213.772 188.167 213.896 188.39C214.142 188.817 214.435 189.137 214.774 189.348C215.12 189.559 215.589 189.664 216.181 189.664C216.661 189.664 217.054 189.559 217.358 189.348C217.669 189.131 217.824 188.885 217.824 188.609C217.824 188.188 217.663 187.88 217.341 187.687C217.024 187.493 216.5 187.309 215.768 187.133C214.941 186.928 214.268 186.714 213.746 186.491C213.23 186.263 212.817 185.964 212.507 185.595C212.196 185.226 212.041 184.771 212.041 184.232C212.041 183.752 212.185 183.298 212.472 182.87C212.759 182.442 213.181 182.103 213.737 181.851C214.3 181.593 214.977 181.464 215.768 181.464C216.389 181.464 216.945 181.528 217.438 181.657C217.936 181.786 218.349 181.959 218.677 182.176C219.011 182.393 219.263 182.633 219.433 182.896C219.608 183.16 219.696 183.418 219.696 183.67C219.696 183.945 219.603 184.171 219.415 184.347C219.233 184.522 218.973 184.61 218.633 184.61C218.387 184.61 218.176 184.54 218 184.399C217.83 184.259 217.634 184.048 217.411 183.767C217.229 183.532 217.016 183.345 216.77 183.204C216.523 183.063 216.189 182.993 215.768 182.993C215.334 182.993 214.974 183.087 214.687 183.274C214.399 183.456 214.256 183.685 214.256 183.96C214.256 184.212 214.361 184.42 214.572 184.584C214.783 184.742 215.067 184.874 215.425 184.979C215.782 185.085 216.274 185.214 216.901 185.366C217.646 185.548 218.252 185.765 218.721 186.017C219.195 186.269 219.553 186.567 219.793 186.913C220.039 187.253 220.162 187.643 220.162 188.082Z" fill="white"/>
<path d="M157.757 226.058L155.691 217.849V226.743C155.691 227.235 155.58 227.604 155.357 227.851C155.141 228.097 154.851 228.22 154.487 228.22C154.136 228.22 153.849 228.1 153.626 227.859C153.403 227.613 153.292 227.241 153.292 226.743V216.548C153.292 215.985 153.438 215.607 153.731 215.414C154.024 215.215 154.42 215.115 154.918 215.115H155.727C156.213 215.115 156.564 215.159 156.781 215.247C157.004 215.335 157.168 215.493 157.273 215.722C157.379 215.95 157.499 216.322 157.634 216.838L159.506 223.896L161.378 216.838C161.513 216.322 161.633 215.95 161.738 215.722C161.844 215.493 162.005 215.335 162.222 215.247C162.444 215.159 162.799 215.115 163.285 215.115H164.094C164.592 215.115 164.987 215.215 165.28 215.414C165.573 215.607 165.72 215.985 165.72 216.548V226.743C165.72 227.235 165.608 227.604 165.386 227.851C165.169 228.097 164.876 228.22 164.507 228.22C164.161 228.22 163.877 228.097 163.654 227.851C163.432 227.604 163.32 227.235 163.32 226.743V217.849L161.255 226.058C161.12 226.591 161.009 226.983 160.921 227.235C160.839 227.481 160.684 227.707 160.455 227.912C160.227 228.117 159.91 228.22 159.506 228.22C159.201 228.22 158.943 228.152 158.732 228.018C158.521 227.889 158.357 227.722 158.24 227.517C158.123 227.312 158.029 227.086 157.959 226.84C157.895 226.588 157.827 226.327 157.757 226.058ZM174.931 223.931H170.237C170.243 224.476 170.352 224.956 170.562 225.372C170.779 225.788 171.063 226.102 171.415 226.312C171.772 226.523 172.165 226.629 172.593 226.629C172.88 226.629 173.141 226.597 173.375 226.532C173.615 226.462 173.847 226.356 174.069 226.216C174.292 226.069 174.497 225.914 174.685 225.75C174.872 225.586 175.115 225.363 175.414 225.082C175.537 224.977 175.713 224.924 175.941 224.924C176.188 224.924 176.387 224.991 176.539 225.126C176.691 225.261 176.768 225.451 176.768 225.697C176.768 225.914 176.683 226.169 176.513 226.462C176.343 226.749 176.085 227.027 175.739 227.297C175.399 227.561 174.969 227.78 174.447 227.956C173.932 228.132 173.337 228.22 172.663 228.22C171.122 228.22 169.924 227.78 169.068 226.901C168.213 226.022 167.785 224.83 167.785 223.324C167.785 222.615 167.891 221.959 168.102 221.355C168.312 220.746 168.62 220.225 169.024 219.791C169.429 219.357 169.927 219.026 170.519 218.798C171.11 218.563 171.767 218.446 172.487 218.446C173.425 218.446 174.228 218.646 174.896 219.044C175.569 219.437 176.073 219.946 176.407 220.573C176.741 221.2 176.908 221.839 176.908 222.489C176.908 223.093 176.735 223.485 176.39 223.667C176.044 223.843 175.558 223.931 174.931 223.931ZM170.237 222.568H174.588C174.529 221.748 174.307 221.136 173.92 220.731C173.539 220.321 173.035 220.116 172.408 220.116C171.811 220.116 171.318 220.324 170.932 220.74C170.551 221.15 170.319 221.76 170.237 222.568ZM181.118 219.791V220.081C181.54 219.524 182 219.117 182.498 218.859C183.002 218.596 183.579 218.464 184.229 218.464C184.862 218.464 185.428 218.602 185.926 218.877C186.424 219.152 186.796 219.542 187.042 220.046C187.2 220.339 187.303 220.655 187.35 220.995C187.396 221.335 187.42 221.769 187.42 222.296V226.761C187.42 227.241 187.309 227.604 187.086 227.851C186.869 228.097 186.585 228.22 186.233 228.22C185.876 228.22 185.586 228.094 185.363 227.842C185.141 227.59 185.029 227.229 185.029 226.761V222.762C185.029 221.971 184.918 221.367 184.695 220.951C184.479 220.529 184.042 220.318 183.386 220.318C182.958 220.318 182.568 220.447 182.217 220.705C181.865 220.957 181.607 221.306 181.443 221.751C181.326 222.108 181.268 222.776 181.268 223.755V226.761C181.268 227.247 181.153 227.613 180.925 227.859C180.702 228.1 180.412 228.22 180.055 228.22C179.709 228.22 179.425 228.094 179.202 227.842C178.979 227.59 178.868 227.229 178.868 226.761V219.826C178.868 219.369 178.968 219.029 179.167 218.807C179.366 218.578 179.639 218.464 179.984 218.464C180.195 218.464 180.386 218.514 180.556 218.613C180.726 218.713 180.86 218.862 180.96 219.062C181.065 219.261 181.118 219.504 181.118 219.791ZM189.951 218.675H190.215V217.233C190.215 216.847 190.224 216.545 190.241 216.328C190.265 216.105 190.323 215.915 190.417 215.757C190.511 215.593 190.646 215.461 190.821 215.361C190.997 215.256 191.193 215.203 191.41 215.203C191.715 215.203 191.99 215.317 192.236 215.546C192.4 215.698 192.503 215.886 192.544 216.108C192.591 216.325 192.614 216.636 192.614 217.04V218.675H193.493C193.833 218.675 194.091 218.757 194.267 218.921C194.448 219.079 194.539 219.284 194.539 219.536C194.539 219.858 194.41 220.084 194.152 220.213C193.9 220.342 193.537 220.406 193.062 220.406H192.614V224.818C192.614 225.193 192.626 225.483 192.649 225.688C192.679 225.888 192.749 226.052 192.86 226.181C192.978 226.304 193.165 226.365 193.423 226.365C193.563 226.365 193.754 226.342 193.994 226.295C194.234 226.242 194.422 226.216 194.557 226.216C194.75 226.216 194.923 226.295 195.075 226.453C195.233 226.605 195.312 226.796 195.312 227.024C195.312 227.411 195.102 227.707 194.68 227.912C194.258 228.117 193.651 228.22 192.86 228.22C192.11 228.22 191.542 228.094 191.155 227.842C190.769 227.59 190.514 227.241 190.391 226.796C190.273 226.351 190.215 225.756 190.215 225.012V220.406H189.898C189.553 220.406 189.289 220.324 189.107 220.16C188.926 219.996 188.835 219.788 188.835 219.536C188.835 219.284 188.929 219.079 189.116 218.921C189.31 218.757 189.588 218.675 189.951 218.675ZM205.183 223.342C205.183 224.057 205.071 224.716 204.849 225.319C204.626 225.923 204.304 226.441 203.882 226.875C203.46 227.309 202.956 227.643 202.37 227.877C201.784 228.105 201.125 228.22 200.393 228.22C199.666 228.22 199.013 228.103 198.433 227.868C197.853 227.634 197.349 227.3 196.921 226.866C196.499 226.427 196.177 225.911 195.954 225.319C195.737 224.722 195.629 224.062 195.629 223.342C195.629 222.615 195.74 221.95 195.963 221.347C196.186 220.743 196.505 220.228 196.921 219.8C197.337 219.372 197.841 219.044 198.433 218.815C199.024 218.581 199.678 218.464 200.393 218.464C201.119 218.464 201.778 218.581 202.37 218.815C202.962 219.05 203.469 219.384 203.891 219.817C204.312 220.251 204.632 220.767 204.849 221.364C205.071 221.962 205.183 222.621 205.183 223.342ZM202.774 223.342C202.774 222.363 202.558 221.602 202.124 221.057C201.696 220.512 201.119 220.239 200.393 220.239C199.924 220.239 199.511 220.362 199.153 220.608C198.796 220.849 198.521 221.206 198.327 221.681C198.134 222.155 198.037 222.709 198.037 223.342C198.037 223.969 198.131 224.517 198.318 224.985C198.512 225.454 198.784 225.814 199.136 226.066C199.493 226.312 199.912 226.436 200.393 226.436C201.119 226.436 201.696 226.163 202.124 225.618C202.558 225.067 202.774 224.309 202.774 223.342ZM209.463 224.757V226.761C209.463 227.247 209.349 227.613 209.12 227.859C208.892 228.1 208.602 228.22 208.25 228.22C207.904 228.22 207.62 228.097 207.397 227.851C207.175 227.604 207.063 227.241 207.063 226.761V220.081C207.063 219.003 207.453 218.464 208.232 218.464C208.631 218.464 208.918 218.59 209.094 218.842C209.27 219.094 209.366 219.466 209.384 219.958C209.671 219.466 209.964 219.094 210.263 218.842C210.567 218.59 210.972 218.464 211.476 218.464C211.979 218.464 212.469 218.59 212.943 218.842C213.418 219.094 213.655 219.428 213.655 219.844C213.655 220.137 213.553 220.38 213.348 220.573C213.148 220.761 212.932 220.854 212.697 220.854C212.609 220.854 212.396 220.802 212.056 220.696C211.722 220.585 211.426 220.529 211.168 220.529C210.816 220.529 210.529 220.623 210.307 220.811C210.084 220.992 209.911 221.265 209.788 221.628C209.665 221.991 209.58 222.425 209.533 222.929C209.486 223.427 209.463 224.036 209.463 224.757ZM222.242 225.082C222.242 225.744 222.081 226.312 221.759 226.787C221.437 227.256 220.959 227.613 220.326 227.859C219.699 228.1 218.935 228.22 218.032 228.22C217.171 228.22 216.433 228.088 215.817 227.824C215.202 227.561 214.748 227.232 214.455 226.84C214.162 226.441 214.016 226.043 214.016 225.645C214.016 225.381 214.109 225.155 214.297 224.968C214.484 224.78 214.722 224.687 215.009 224.687C215.261 224.687 215.454 224.748 215.589 224.871C215.724 224.994 215.853 225.167 215.976 225.39C216.222 225.817 216.515 226.137 216.854 226.348C217.2 226.559 217.669 226.664 218.261 226.664C218.741 226.664 219.134 226.559 219.438 226.348C219.749 226.131 219.904 225.885 219.904 225.609C219.904 225.188 219.743 224.88 219.421 224.687C219.104 224.493 218.58 224.309 217.848 224.133C217.021 223.928 216.348 223.714 215.826 223.491C215.311 223.263 214.897 222.964 214.587 222.595C214.276 222.226 214.121 221.771 214.121 221.232C214.121 220.752 214.265 220.298 214.552 219.87C214.839 219.442 215.261 219.103 215.817 218.851C216.38 218.593 217.057 218.464 217.848 218.464C218.469 218.464 219.025 218.528 219.518 218.657C220.016 218.786 220.429 218.959 220.757 219.176C221.091 219.393 221.343 219.633 221.513 219.896C221.688 220.16 221.776 220.418 221.776 220.67C221.776 220.945 221.683 221.171 221.495 221.347C221.313 221.522 221.053 221.61 220.713 221.61C220.467 221.61 220.256 221.54 220.08 221.399C219.91 221.259 219.714 221.048 219.491 220.767C219.31 220.532 219.096 220.345 218.85 220.204C218.604 220.063 218.27 219.993 217.848 219.993C217.414 219.993 217.054 220.087 216.767 220.274C216.479 220.456 216.336 220.685 216.336 220.96C216.336 221.212 216.441 221.42 216.652 221.584C216.863 221.742 217.147 221.874 217.505 221.979C217.862 222.085 218.354 222.214 218.981 222.366C219.726 222.548 220.332 222.765 220.801 223.017C221.275 223.269 221.633 223.567 221.873 223.913C222.119 224.253 222.242 224.643 222.242 225.082Z" fill="white"/>
<path d="M151.384 260.931C151.384 261.341 151.281 261.786 151.076 262.267C150.877 262.741 150.561 263.21 150.127 263.673C149.693 264.13 149.14 264.502 148.466 264.789C147.792 265.076 147.007 265.22 146.11 265.22C145.431 265.22 144.812 265.155 144.256 265.026C143.699 264.897 143.192 264.698 142.735 264.429C142.284 264.153 141.868 263.793 141.487 263.348C141.147 262.943 140.857 262.492 140.617 261.994C140.377 261.49 140.195 260.954 140.072 260.386C139.955 259.817 139.896 259.214 139.896 258.575C139.896 257.538 140.046 256.609 140.345 255.789C140.649 254.969 141.083 254.269 141.646 253.688C142.208 253.103 142.867 252.657 143.623 252.353C144.379 252.048 145.185 251.896 146.04 251.896C147.083 251.896 148.012 252.104 148.826 252.52C149.641 252.936 150.265 253.451 150.698 254.066C151.132 254.676 151.349 255.253 151.349 255.798C151.349 256.097 151.243 256.36 151.032 256.589C150.821 256.817 150.566 256.932 150.268 256.932C149.934 256.932 149.682 256.853 149.512 256.694C149.348 256.536 149.163 256.264 148.958 255.877C148.618 255.238 148.217 254.761 147.754 254.444C147.297 254.128 146.731 253.97 146.058 253.97C144.985 253.97 144.13 254.377 143.491 255.191C142.858 256.006 142.542 257.163 142.542 258.663C142.542 259.665 142.683 260.5 142.964 261.168C143.245 261.83 143.644 262.325 144.159 262.653C144.675 262.981 145.278 263.146 145.97 263.146C146.72 263.146 147.353 262.961 147.868 262.592C148.39 262.217 148.782 261.669 149.046 260.948C149.157 260.608 149.295 260.333 149.459 260.122C149.623 259.905 149.887 259.797 150.25 259.797C150.561 259.797 150.827 259.905 151.05 260.122C151.272 260.339 151.384 260.608 151.384 260.931ZM162.546 260.342C162.546 261.057 162.435 261.716 162.212 262.319C161.989 262.923 161.667 263.441 161.245 263.875C160.823 264.309 160.319 264.643 159.733 264.877C159.147 265.105 158.488 265.22 157.756 265.22C157.029 265.22 156.376 265.103 155.796 264.868C155.216 264.634 154.712 264.3 154.284 263.866C153.862 263.427 153.54 262.911 153.317 262.319C153.101 261.722 152.992 261.062 152.992 260.342C152.992 259.615 153.104 258.95 153.326 258.347C153.549 257.743 153.868 257.228 154.284 256.8C154.7 256.372 155.204 256.044 155.796 255.815C156.388 255.581 157.041 255.464 157.756 255.464C158.482 255.464 159.142 255.581 159.733 255.815C160.325 256.05 160.832 256.384 161.254 256.817C161.676 257.251 161.995 257.767 162.212 258.364C162.435 258.962 162.546 259.621 162.546 260.342ZM160.138 260.342C160.138 259.363 159.921 258.602 159.487 258.057C159.06 257.512 158.482 257.239 157.756 257.239C157.287 257.239 156.874 257.362 156.517 257.608C156.159 257.849 155.884 258.206 155.69 258.681C155.497 259.155 155.4 259.709 155.4 260.342C155.4 260.969 155.494 261.517 155.682 261.985C155.875 262.454 156.147 262.814 156.499 263.066C156.856 263.312 157.275 263.436 157.756 263.436C158.482 263.436 159.06 263.163 159.487 262.618C159.921 262.067 160.138 261.309 160.138 260.342ZM166.624 256.791V257.081C167.046 256.524 167.506 256.117 168.004 255.859C168.508 255.596 169.085 255.464 169.735 255.464C170.368 255.464 170.934 255.602 171.432 255.877C171.93 256.152 172.302 256.542 172.548 257.046C172.706 257.339 172.809 257.655 172.855 257.995C172.902 258.335 172.926 258.769 172.926 259.296V263.761C172.926 264.241 172.814 264.604 172.592 264.851C172.375 265.097 172.091 265.22 171.739 265.22C171.382 265.22 171.092 265.094 170.869 264.842C170.646 264.59 170.535 264.229 170.535 263.761V259.762C170.535 258.971 170.424 258.367 170.201 257.951C169.984 257.529 169.548 257.318 168.892 257.318C168.464 257.318 168.074 257.447 167.723 257.705C167.371 257.957 167.113 258.306 166.949 258.751C166.832 259.108 166.773 259.776 166.773 260.755V263.761C166.773 264.247 166.659 264.613 166.431 264.859C166.208 265.1 165.918 265.22 165.561 265.22C165.215 265.22 164.931 265.094 164.708 264.842C164.485 264.59 164.374 264.229 164.374 263.761V256.826C164.374 256.369 164.474 256.029 164.673 255.807C164.872 255.578 165.145 255.464 165.49 255.464C165.701 255.464 165.892 255.514 166.062 255.613C166.231 255.713 166.366 255.862 166.466 256.062C166.571 256.261 166.624 256.504 166.624 256.791ZM175.457 255.675H175.721V254.233C175.721 253.847 175.729 253.545 175.747 253.328C175.771 253.105 175.829 252.915 175.923 252.757C176.017 252.593 176.151 252.461 176.327 252.361C176.503 252.256 176.699 252.203 176.916 252.203C177.221 252.203 177.496 252.317 177.742 252.546C177.906 252.698 178.009 252.886 178.05 253.108C178.097 253.325 178.12 253.636 178.12 254.04V255.675H178.999C179.339 255.675 179.597 255.757 179.772 255.921C179.954 256.079 180.045 256.284 180.045 256.536C180.045 256.858 179.916 257.084 179.658 257.213C179.406 257.342 179.043 257.406 178.568 257.406H178.12V261.818C178.12 262.193 178.132 262.483 178.155 262.688C178.185 262.888 178.255 263.052 178.366 263.181C178.483 263.304 178.671 263.365 178.929 263.365C179.069 263.365 179.26 263.342 179.5 263.295C179.74 263.242 179.928 263.216 180.062 263.216C180.256 263.216 180.429 263.295 180.581 263.453C180.739 263.605 180.818 263.796 180.818 264.024C180.818 264.411 180.607 264.707 180.186 264.912C179.764 265.117 179.157 265.22 178.366 265.22C177.616 265.22 177.048 265.094 176.661 264.842C176.274 264.59 176.02 264.241 175.896 263.796C175.779 263.351 175.721 262.756 175.721 262.012V257.406H175.404C175.059 257.406 174.795 257.324 174.613 257.16C174.432 256.996 174.341 256.788 174.341 256.536C174.341 256.284 174.435 256.079 174.622 255.921C174.815 255.757 175.094 255.675 175.457 255.675ZM187.771 263.866C187.19 264.317 186.628 264.657 186.083 264.886C185.544 265.108 184.938 265.22 184.264 265.22C183.648 265.22 183.106 265.1 182.638 264.859C182.175 264.613 181.817 264.282 181.565 263.866C181.313 263.45 181.188 262.999 181.188 262.513C181.188 261.856 181.396 261.297 181.812 260.834C182.228 260.371 182.799 260.061 183.525 259.902C183.678 259.867 184.056 259.788 184.659 259.665C185.263 259.542 185.778 259.431 186.206 259.331C186.64 259.226 187.108 259.1 187.612 258.953C187.583 258.32 187.454 257.857 187.226 257.564C187.003 257.266 186.537 257.116 185.828 257.116C185.219 257.116 184.759 257.201 184.448 257.371C184.144 257.541 183.88 257.796 183.657 258.136C183.44 258.476 183.285 258.701 183.191 258.812C183.104 258.918 182.91 258.971 182.611 258.971C182.342 258.971 182.107 258.886 181.908 258.716C181.715 258.54 181.618 258.317 181.618 258.048C181.618 257.626 181.768 257.216 182.066 256.817C182.365 256.419 182.831 256.091 183.464 255.833C184.097 255.575 184.885 255.446 185.828 255.446C186.883 255.446 187.712 255.572 188.315 255.824C188.919 256.07 189.344 256.463 189.59 257.002C189.842 257.541 189.968 258.256 189.968 259.146C189.968 259.709 189.965 260.187 189.959 260.579C189.959 260.972 189.956 261.408 189.95 261.889C189.95 262.34 190.023 262.812 190.17 263.304C190.322 263.79 190.398 264.104 190.398 264.244C190.398 264.49 190.281 264.716 190.047 264.921C189.818 265.12 189.558 265.22 189.265 265.22C189.019 265.22 188.775 265.105 188.535 264.877C188.295 264.643 188.04 264.306 187.771 263.866ZM187.612 260.395C187.261 260.523 186.748 260.661 186.074 260.808C185.406 260.948 184.943 261.054 184.686 261.124C184.428 261.188 184.182 261.32 183.947 261.52C183.713 261.713 183.596 261.985 183.596 262.337C183.596 262.7 183.733 263.011 184.009 263.269C184.284 263.521 184.645 263.646 185.09 263.646C185.564 263.646 186.001 263.544 186.399 263.339C186.804 263.128 187.1 262.858 187.287 262.53C187.504 262.167 187.612 261.569 187.612 260.737V260.395ZM201.016 262.249C201.016 262.548 200.925 262.867 200.743 263.207C200.567 263.547 200.295 263.872 199.926 264.183C199.562 264.487 199.103 264.733 198.546 264.921C197.989 265.108 197.362 265.202 196.665 265.202C195.183 265.202 194.025 264.771 193.193 263.91C192.361 263.043 191.945 261.883 191.945 260.43C191.945 259.445 192.136 258.575 192.517 257.819C192.897 257.063 193.448 256.48 194.169 256.07C194.89 255.654 195.751 255.446 196.753 255.446C197.374 255.446 197.942 255.537 198.458 255.719C198.979 255.9 199.419 256.135 199.776 256.422C200.14 256.709 200.415 257.017 200.603 257.345C200.796 257.667 200.893 257.969 200.893 258.25C200.893 258.537 200.784 258.78 200.567 258.979C200.356 259.179 200.099 259.278 199.794 259.278C199.595 259.278 199.428 259.229 199.293 259.129C199.164 259.023 199.018 258.856 198.854 258.628C198.561 258.183 198.253 257.849 197.931 257.626C197.614 257.403 197.21 257.292 196.718 257.292C196.009 257.292 195.438 257.57 195.004 258.127C194.57 258.678 194.354 259.434 194.354 260.395C194.354 260.846 194.409 261.262 194.521 261.643C194.632 262.018 194.793 262.34 195.004 262.609C195.215 262.873 195.47 263.075 195.769 263.216C196.067 263.351 196.396 263.418 196.753 263.418C197.233 263.418 197.644 263.307 197.983 263.084C198.329 262.861 198.634 262.521 198.897 262.064C199.044 261.795 199.202 261.584 199.372 261.432C199.542 261.279 199.75 261.203 199.996 261.203C200.289 261.203 200.532 261.314 200.726 261.537C200.919 261.76 201.016 261.997 201.016 262.249ZM203.248 255.675H203.512V254.233C203.512 253.847 203.521 253.545 203.538 253.328C203.562 253.105 203.62 252.915 203.714 252.757C203.808 252.593 203.942 252.461 204.118 252.361C204.294 252.256 204.49 252.203 204.707 252.203C205.012 252.203 205.287 252.317 205.533 252.546C205.697 252.698 205.8 252.886 205.841 253.108C205.888 253.325 205.911 253.636 205.911 254.04V255.675H206.79C207.13 255.675 207.388 255.757 207.563 255.921C207.745 256.079 207.836 256.284 207.836 256.536C207.836 256.858 207.707 257.084 207.449 257.213C207.197 257.342 206.834 257.406 206.359 257.406H205.911V261.818C205.911 262.193 205.923 262.483 205.946 262.688C205.976 262.888 206.046 263.052 206.157 263.181C206.274 263.304 206.462 263.365 206.72 263.365C206.86 263.365 207.051 263.342 207.291 263.295C207.531 263.242 207.719 263.216 207.854 263.216C208.047 263.216 208.22 263.295 208.372 263.453C208.53 263.605 208.609 263.796 208.609 264.024C208.609 264.411 208.398 264.707 207.977 264.912C207.555 265.117 206.948 265.22 206.157 265.22C205.407 265.22 204.839 265.094 204.452 264.842C204.065 264.59 203.811 264.241 203.688 263.796C203.57 263.351 203.512 262.756 203.512 262.012V257.406H203.195C202.85 257.406 202.586 257.324 202.404 257.16C202.223 256.996 202.132 256.788 202.132 256.536C202.132 256.284 202.226 256.079 202.413 255.921C202.606 255.757 202.885 255.675 203.248 255.675ZM214.182 259.674V253.478C214.182 252.95 214.299 252.555 214.533 252.291C214.773 252.027 215.087 251.896 215.474 251.896C215.878 251.896 216.197 252.027 216.432 252.291C216.672 252.555 216.792 252.95 216.792 253.478V259.814C216.792 260.535 216.871 261.139 217.029 261.625C217.193 262.105 217.48 262.48 217.891 262.75C218.301 263.014 218.875 263.146 219.613 263.146C220.633 263.146 221.354 262.876 221.775 262.337C222.197 261.792 222.408 260.969 222.408 259.867V253.478C222.408 252.944 222.525 252.549 222.76 252.291C222.994 252.027 223.308 251.896 223.7 251.896C224.093 251.896 224.409 252.027 224.649 252.291C224.896 252.549 225.019 252.944 225.019 253.478V259.674C225.019 260.682 224.919 261.522 224.72 262.196C224.526 262.87 224.157 263.462 223.612 263.972C223.144 264.405 222.599 264.722 221.978 264.921C221.356 265.12 220.63 265.22 219.798 265.22C218.808 265.22 217.955 265.114 217.24 264.903C216.525 264.687 215.942 264.355 215.491 263.91C215.04 263.459 214.709 262.885 214.498 262.188C214.287 261.484 214.182 260.646 214.182 259.674ZM235.398 262.082C235.398 262.744 235.237 263.312 234.915 263.787C234.593 264.256 234.115 264.613 233.482 264.859C232.855 265.1 232.091 265.22 231.188 265.22C230.327 265.22 229.589 265.088 228.974 264.824C228.358 264.561 227.904 264.232 227.611 263.84C227.318 263.441 227.172 263.043 227.172 262.645C227.172 262.381 227.266 262.155 227.453 261.968C227.641 261.78 227.878 261.687 228.165 261.687C228.417 261.687 228.61 261.748 228.745 261.871C228.88 261.994 229.009 262.167 229.132 262.39C229.378 262.817 229.671 263.137 230.011 263.348C230.356 263.559 230.825 263.664 231.417 263.664C231.897 263.664 232.29 263.559 232.595 263.348C232.905 263.131 233.061 262.885 233.061 262.609C233.061 262.188 232.899 261.88 232.577 261.687C232.261 261.493 231.736 261.309 231.004 261.133C230.178 260.928 229.504 260.714 228.982 260.491C228.467 260.263 228.054 259.964 227.743 259.595C227.433 259.226 227.277 258.771 227.277 258.232C227.277 257.752 227.421 257.298 227.708 256.87C227.995 256.442 228.417 256.103 228.974 255.851C229.536 255.593 230.213 255.464 231.004 255.464C231.625 255.464 232.182 255.528 232.674 255.657C233.172 255.786 233.585 255.959 233.913 256.176C234.247 256.393 234.499 256.633 234.669 256.896C234.845 257.16 234.933 257.418 234.933 257.67C234.933 257.945 234.839 258.171 234.651 258.347C234.47 258.522 234.209 258.61 233.869 258.61C233.623 258.61 233.412 258.54 233.236 258.399C233.066 258.259 232.87 258.048 232.647 257.767C232.466 257.532 232.252 257.345 232.006 257.204C231.76 257.063 231.426 256.993 231.004 256.993C230.57 256.993 230.21 257.087 229.923 257.274C229.636 257.456 229.492 257.685 229.492 257.96C229.492 258.212 229.598 258.42 229.809 258.584C230.02 258.742 230.304 258.874 230.661 258.979C231.019 259.085 231.511 259.214 232.138 259.366C232.882 259.548 233.488 259.765 233.957 260.017C234.432 260.269 234.789 260.567 235.029 260.913C235.275 261.253 235.398 261.643 235.398 262.082Z" fill="white"/>
<path d="M185.455 71.3666C186.919 71.4946 188.323 71.6307 189.73 71.7244C189.918 71.737 190.193 71.5866 190.306 71.426C193.898 66.3144 197.475 61.1922 201.052 56.0701C201.08 56.0307 201.077 55.9704 201.117 55.799C199.628 55.6688 198.154 55.5307 196.678 55.4266C196.545 55.4173 196.359 55.6015 196.262 55.7404C192.674 60.8547 189.093 65.9741 185.514 71.0944C185.486 71.1333 185.491 71.1942 185.455 71.3666Z" fill="#200660"/>
<path d="M183.505 70.0189C186.134 66.2642 188.688 62.6155 191.243 58.9671C192.176 57.6341 193.088 56.2853 194.054 54.9765C194.476 54.4059 194.64 53.9071 194.226 53.2571C193.93 52.7921 193.745 52.2562 193.467 51.6584C193.269 51.8995 193.115 52.0639 192.987 52.2466C189.574 57.1191 186.17 61.9975 182.744 66.8605C182.43 67.3066 182.34 67.6653 182.62 68.1564C182.934 68.7077 183.17 69.3037 183.505 70.0189Z" fill="#00EDBB"/>
<path d="M201.433 53.624C201.024 52.7275 200.694 51.9803 200.335 51.2482C200.279 51.1355 200.089 51.0375 199.953 51.0243C198.526 50.8859 197.098 50.7662 195.479 50.6248C195.893 51.5186 196.23 52.2842 196.609 53.0277C196.672 53.1496 196.919 53.2203 197.089 53.2368C198.469 53.3705 199.851 53.4856 201.433 53.624Z" fill="#EFCA48"/>
<path d="M204.516 54.9425L204.233 54.3297C203.983 53.7926 203.736 53.2556 203.489 52.7188C203 51.6545 202.514 50.5905 202.038 49.5212C201.835 49.067 201.575 48.8927 201.087 48.853C198.636 48.6629 196.187 48.4519 193.741 48.2107C193.245 48.1643 192.968 48.3159 192.691 48.713C188.496 54.7391 184.284 60.7517 180.101 66.7848C179.934 67.0279 179.902 67.504 180.02 67.7811C180.748 69.4725 181.52 71.1466 182.328 72.7995C182.462 73.0688 182.84 73.3566 183.131 73.3881C185.603 73.6436 188.079 73.8631 190.559 74.0345C190.872 74.0558 191.328 73.835 191.517 73.5787C192.65 72.0288 193.739 70.4508 194.835 68.8794L195.164 68.408L204.516 54.9425ZM194.053 54.9764C193.086 56.2863 192.177 57.6345 191.242 58.9684C188.689 62.6161 186.133 66.2634 183.504 70.0197C183.169 69.3054 182.934 68.7088 182.621 68.1571C182.34 67.6656 182.429 67.3067 182.744 66.8613C186.17 61.9987 189.573 57.1189 192.988 52.2462C193.116 52.0634 193.27 51.9011 193.467 51.6576C193.745 52.2578 193.928 52.7922 194.227 53.2579C194.64 53.9063 194.475 54.4071 194.053 54.9764ZM201.434 53.6242C199.851 53.4859 198.47 53.3711 197.088 53.2351C196.919 53.2204 196.671 53.1502 196.609 53.0265C196.228 52.2839 195.892 51.5179 195.479 50.624C197.097 50.7655 198.527 50.8844 199.951 51.0241C200.09 51.0362 200.278 51.1345 200.335 51.2486C200.695 51.9804 201.024 52.7275 201.434 53.6242ZM192.766 67.9195C191.946 69.0876 191.125 70.2586 190.304 71.4266C190.194 71.5867 189.917 71.7383 189.73 71.725C188.323 71.6292 186.919 71.4943 185.454 71.3662C185.49 71.1936 185.486 71.1326 185.514 71.0956C189.093 65.9736 192.675 60.8547 196.262 55.7395C196.359 55.6025 196.545 55.4186 196.678 55.4272C198.154 55.532 199.627 55.6699 201.116 55.8001C201.077 55.9695 201.081 56.0304 201.053 56.0704C198.292 60.0213 195.533 63.9723 192.766 67.9195Z" fill="black"/>
<path d="M176.837 50.2464C178.307 50.2464 179.717 50.2332 181.127 50.2623C181.315 50.2661 181.576 50.44 181.675 50.6098C184.808 56.0148 187.925 61.4291 191.043 66.8432C191.067 66.8849 191.059 66.9448 191.083 67.119C189.588 67.119 188.108 67.1281 186.629 67.1033C186.496 67.1011 186.327 66.9013 186.242 66.7544C183.113 61.347 179.992 55.9352 176.872 50.5225C176.848 50.4815 176.858 50.4213 176.837 50.2464Z" fill="white"/>
<path d="M174.777 51.4192C177.069 55.3886 179.296 59.2458 181.523 63.1029C182.337 64.5121 183.128 65.9352 183.976 67.3232C184.346 67.9284 184.466 68.4396 183.998 69.051C183.662 69.4885 183.431 70.0061 183.102 70.5775C182.926 70.3201 182.787 70.1429 182.675 69.9498C179.7 64.7986 176.733 59.6421 173.744 54.4991C173.47 54.0274 173.411 53.6622 173.733 53.1973C174.095 52.6757 174.381 52.1024 174.777 51.4192Z" fill="white"/>
<path d="M191.209 69.3132C190.723 70.1707 190.33 70.8863 189.908 71.5843C189.843 71.6917 189.645 71.7728 189.508 71.7741C188.075 71.7876 186.641 71.7825 185.017 71.7825C185.507 70.928 185.909 70.1947 186.352 69.4871C186.424 69.3712 186.677 69.3222 186.848 69.3206C188.234 69.3076 189.62 69.3132 191.209 69.3132Z" fill="#00EDBB"/>
<path d="M186.252 54.0394L185.965 53.5411C185.01 51.8803 184.062 50.2134 183.069 48.5707C182.903 48.2989 182.468 48.0393 182.154 48.0332C179.669 47.9879 177.183 47.9909 174.698 48.0302C174.405 48.0362 174.004 48.2899 173.847 48.5466C172.898 50.1228 171.983 51.7233 171.111 53.3449C170.969 53.6106 170.96 54.0877 171.105 54.3444C174.746 60.7191 178.418 67.0755 182.072 73.4441C182.314 73.8639 182.577 74.039 183.075 74.036C185.533 74.0089 187.991 74.0118 190.449 74.036C190.938 74.0391 191.213 73.888 191.454 73.4532C192.022 72.4295 192.599 71.4119 193.179 70.3943C193.472 69.8809 193.765 69.3676 194.06 68.8542L194.396 68.2684L186.252 54.0394ZM183.999 69.0504C183.661 69.4882 183.431 70.0046 183.102 70.5784C182.927 70.3186 182.788 70.1435 182.676 69.9503C179.699 64.7986 176.733 59.641 173.744 54.4984C173.469 54.0273 173.412 53.6619 173.735 53.1968C174.094 52.6744 174.381 52.1007 174.776 51.4182C177.068 55.3891 179.297 59.2453 181.522 63.1015C182.338 64.5117 183.126 65.934 183.974 67.323C184.346 67.927 184.467 68.4405 183.999 69.0504ZM189.908 71.5839C189.842 71.6926 189.646 71.7742 189.507 71.7742C188.075 71.7893 186.641 71.7833 185.016 71.7833C185.506 70.9287 185.907 70.1949 186.351 69.4883C186.424 69.3705 186.677 69.3222 186.846 69.3222C188.235 69.3071 189.622 69.3131 191.21 69.3131C190.724 70.1707 190.331 70.8864 189.908 71.5839ZM191.044 66.8429C191.068 66.8852 191.059 66.9457 191.083 67.1177C189.588 67.1177 188.109 67.1268 186.629 67.1027C186.496 67.0996 186.327 66.9003 186.242 66.7554C183.114 61.347 179.992 55.9357 176.872 50.5213C176.848 50.4821 176.857 50.4217 176.836 50.2466C178.307 50.2466 179.717 50.2345 181.127 50.2616C181.314 50.2647 181.577 50.4397 181.674 50.6089C182.389 51.844 183.105 53.082 183.821 54.3171C186.233 58.4904 188.637 62.6667 191.044 66.8429Z" fill="black"/>
</g>
<defs>
<filter id="filter0_d" x="-4" y="0" width="383" height="302" filterUnits="userSpaceOnUse" color-interpolation-filters="sRGB">
<feFlood flood-opacity="0" result="BackgroundImageFix"/>
<feColorMatrix in="SourceAlpha" type="matrix" values="0 0 0 0 0 0 0 0 0 0 0 0 0 0 0 0 0 0 127 0"/>
<feOffset dy="4"/>
<feGaussianBlur stdDeviation="2"/>
<feColorMatrix type="matrix" values="0 0 0 0 0 0 0 0 0 0 0 0 0 0 0 0 0 0 0.25 0"/>
<feBlend mode="normal" in2="BackgroundImageFix" result="effect1_dropShadow"/>
<feBlend mode="normal" in="SourceGraphic" in2="effect1_dropShadow" result="shape"/>
</filter>
<clipPath id="clip0">
<rect width="375" height="296" fill="white"/>
</clipPath>
</defs>
</svg>
