<svg width="265" height="54" viewBox="0 0 265 54" fill="none" xmlns="http://www.w3.org/2000/svg">
<rect width="265" height="54" rx="18" fill="#E71D36"/>
<path d="M41.2109 36H35.9609C35.2031 36 34.6602 35.832 34.332 35.4961C34.0117 35.1523 33.8516 34.6094 33.8516 33.8672V20.9531C33.8516 20.1953 34.0156 19.6523 34.3438 19.3242C34.6797 18.9883 35.2188 18.8203 35.9609 18.8203H41.5273C42.3477 18.8203 43.0586 18.8711 43.6602 18.9727C44.2617 19.0742 44.8008 19.2695 45.2773 19.5586C45.6836 19.8008 46.043 20.1094 46.3555 20.4844C46.668 20.8516 46.9062 21.2617 47.0703 21.7148C47.2344 22.1602 47.3164 22.6328 47.3164 23.1328C47.3164 24.8516 46.457 26.1094 44.7383 26.9062C46.9961 27.625 48.125 29.0234 48.125 31.1016C48.125 32.0625 47.8789 32.9297 47.3867 33.7031C46.8945 34.4688 46.2305 35.0352 45.3945 35.4023C44.8711 35.6211 44.2695 35.7773 43.5898 35.8711C42.9102 35.957 42.1172 36 41.2109 36ZM40.9531 28.3711H37.332V33.3867H41.0703C43.4219 33.3867 44.5977 32.5391 44.5977 30.8438C44.5977 29.9766 44.293 29.3477 43.6836 28.957C43.0742 28.5664 42.1641 28.3711 40.9531 28.3711ZM37.332 21.4336V25.875H40.5195C41.3867 25.875 42.0547 25.793 42.5234 25.6289C43 25.4648 43.3633 25.1523 43.6133 24.6914C43.8086 24.3633 43.9062 23.9961 43.9062 23.5898C43.9062 22.7227 43.5977 22.1484 42.9805 21.8672C42.3633 21.5781 41.4219 21.4336 40.1562 21.4336H37.332ZM59.8555 30.5742H53.5977C53.6055 31.3008 53.75 31.9414 54.0312 32.4961C54.3203 33.0508 54.6992 33.4688 55.168 33.75C55.6445 34.0312 56.168 34.1719 56.7383 34.1719C57.1211 34.1719 57.4688 34.1289 57.7812 34.043C58.1016 33.9492 58.4102 33.8086 58.707 33.6211C59.0039 33.4258 59.2773 33.2188 59.5273 33C59.7773 32.7812 60.1016 32.4844 60.5 32.1094C60.6641 31.9688 60.8984 31.8984 61.2031 31.8984C61.5312 31.8984 61.7969 31.9883 62 32.168C62.2031 32.3477 62.3047 32.6016 62.3047 32.9297C62.3047 33.2188 62.1914 33.5586 61.9648 33.9492C61.7383 34.332 61.3945 34.7031 60.9336 35.0625C60.4805 35.4141 59.9062 35.707 59.2109 35.9414C58.5234 36.1758 57.7305 36.293 56.832 36.293C54.7773 36.293 53.1797 35.707 52.0391 34.5352C50.8984 33.3633 50.3281 31.7734 50.3281 29.7656C50.3281 28.8203 50.4688 27.9453 50.75 27.1406C51.0312 26.3281 51.4414 25.6328 51.9805 25.0547C52.5195 24.4766 53.1836 24.0352 53.9727 23.7305C54.7617 23.418 55.6367 23.2617 56.5977 23.2617C57.8477 23.2617 58.918 23.5273 59.8086 24.0586C60.707 24.582 61.3789 25.2617 61.8242 26.0977C62.2695 26.9336 62.4922 27.7852 62.4922 28.6523C62.4922 29.457 62.2617 29.9805 61.8008 30.2227C61.3398 30.457 60.6914 30.5742 59.8555 30.5742ZM53.5977 28.7578H59.3984C59.3203 27.6641 59.0234 26.8477 58.5078 26.3086C58 25.7617 57.3281 25.4883 56.4922 25.4883C55.6953 25.4883 55.0391 25.7656 54.5234 26.3203C54.0156 26.8672 53.707 27.6797 53.5977 28.7578ZM76.6719 32.332C76.6719 32.7305 76.5508 33.1562 76.3086 33.6094C76.0742 34.0625 75.7109 34.4961 75.2188 34.9102C74.7344 35.3164 74.1211 35.6445 73.3789 35.8945C72.6367 36.1445 71.8008 36.2695 70.8711 36.2695C68.8945 36.2695 67.3516 35.6953 66.2422 34.5469C65.1328 33.3906 64.5781 31.8438 64.5781 29.9062C64.5781 28.5938 64.832 27.4336 65.3398 26.4258C65.8477 25.418 66.582 24.6406 67.543 24.0938C68.5039 23.5391 69.6523 23.2617 70.9883 23.2617C71.8164 23.2617 72.5742 23.3828 73.2617 23.625C73.957 23.8672 74.543 24.1797 75.0195 24.5625C75.5039 24.9453 75.8711 25.3555 76.1211 25.793C76.3789 26.2227 76.5078 26.625 76.5078 27C76.5078 27.3828 76.3633 27.707 76.0742 27.9727C75.793 28.2383 75.4492 28.3711 75.043 28.3711C74.7773 28.3711 74.5547 28.3047 74.375 28.1719C74.2031 28.0312 74.0078 27.8086 73.7891 27.5039C73.3984 26.9102 72.9883 26.4648 72.5586 26.168C72.1367 25.8711 71.5977 25.7227 70.9414 25.7227C69.9961 25.7227 69.2344 26.0938 68.6562 26.8359C68.0781 27.5703 67.7891 28.5781 67.7891 29.8594C67.7891 30.4609 67.8633 31.0156 68.0117 31.5234C68.1602 32.0234 68.375 32.4531 68.6562 32.8125C68.9375 33.1641 69.2773 33.4336 69.6758 33.6211C70.0742 33.8008 70.5117 33.8906 70.9883 33.8906C71.6289 33.8906 72.1758 33.7422 72.6289 33.4453C73.0898 33.1484 73.4961 32.6953 73.8477 32.0859C74.043 31.7266 74.2539 31.4453 74.4805 31.2422C74.707 31.0391 74.9844 30.9375 75.3125 30.9375C75.7031 30.9375 76.0273 31.0859 76.2852 31.3828C76.543 31.6797 76.6719 31.9961 76.6719 32.332ZM91.4492 29.7891C91.4492 30.7422 91.3008 31.6211 91.0039 32.4258C90.707 33.2305 90.2773 33.9219 89.7148 34.5C89.1523 35.0781 88.4805 35.5234 87.6992 35.8359C86.918 36.1406 86.0391 36.293 85.0625 36.293C84.0938 36.293 83.2227 36.1367 82.4492 35.8242C81.6758 35.5117 81.0039 35.0664 80.4336 34.4883C79.8711 33.9023 79.4414 33.2148 79.1445 32.4258C78.8555 31.6289 78.7109 30.75 78.7109 29.7891C78.7109 28.8203 78.8594 27.9336 79.1562 27.1289C79.4531 26.3242 79.8789 25.6367 80.4336 25.0664C80.9883 24.4961 81.6602 24.0586 82.4492 23.7539C83.2383 23.4414 84.1094 23.2852 85.0625 23.2852C86.0312 23.2852 86.9102 23.4414 87.6992 23.7539C88.4883 24.0664 89.1641 24.5117 89.7266 25.0898C90.2891 25.668 90.7148 26.3555 91.0039 27.1523C91.3008 27.9492 91.4492 28.8281 91.4492 29.7891ZM88.2383 29.7891C88.2383 28.4844 87.9492 27.4688 87.3711 26.7422C86.8008 26.0156 86.0312 25.6523 85.0625 25.6523C84.4375 25.6523 83.8867 25.8164 83.4102 26.1445C82.9336 26.4648 82.5664 26.9414 82.3086 27.5742C82.0508 28.207 81.9219 28.9453 81.9219 29.7891C81.9219 30.625 82.0469 31.3555 82.2969 31.9805C82.5547 32.6055 82.918 33.0859 83.3867 33.4219C83.8633 33.75 84.4219 33.9141 85.0625 33.9141C86.0312 33.9141 86.8008 33.5508 87.3711 32.8242C87.9492 32.0898 88.2383 31.0781 88.2383 29.7891ZM104.621 30.0234V34.2773C104.621 34.9492 104.469 35.4531 104.164 35.7891C103.859 36.125 103.457 36.293 102.957 36.293C102.473 36.293 102.078 36.125 101.773 35.7891C101.477 35.4531 101.328 34.9492 101.328 34.2773V29.1797C101.328 28.375 101.301 27.75 101.246 27.3047C101.191 26.8594 101.043 26.4961 100.801 26.2148C100.559 25.9258 100.176 25.7812 99.6523 25.7812C98.6055 25.7812 97.9141 26.1406 97.5781 26.8594C97.25 27.5781 97.0859 28.6094 97.0859 29.9531V34.2773C97.0859 34.9414 96.9336 35.4453 96.6289 35.7891C96.332 36.125 95.9375 36.293 95.4453 36.293C94.9609 36.293 94.5625 36.125 94.25 35.7891C93.9453 35.4453 93.793 34.9414 93.793 34.2773V25.125C93.793 24.5234 93.9297 24.0664 94.2031 23.7539C94.4844 23.4414 94.8516 23.2852 95.3047 23.2852C95.7422 23.2852 96.1055 23.4336 96.3945 23.7305C96.6914 24.0195 96.8398 24.4219 96.8398 24.9375V25.2422C97.3945 24.5781 97.9883 24.0898 98.6211 23.7773C99.2539 23.4648 99.957 23.3086 100.73 23.3086C101.535 23.3086 102.227 23.4688 102.805 23.7891C103.383 24.1094 103.859 24.5938 104.234 25.2422C104.773 24.5859 105.352 24.1016 105.969 23.7891C106.586 23.4688 107.27 23.3086 108.02 23.3086C108.895 23.3086 109.648 23.4805 110.281 23.8242C110.914 24.168 111.387 24.6602 111.699 25.3008C111.973 25.8789 112.109 26.7891 112.109 28.0312V34.2773C112.109 34.9492 111.957 35.4531 111.652 35.7891C111.348 36.125 110.945 36.293 110.445 36.293C109.961 36.293 109.562 36.125 109.25 35.7891C108.945 35.4453 108.793 34.9414 108.793 34.2773V28.8984C108.793 28.2109 108.762 27.6602 108.699 27.2461C108.645 26.832 108.488 26.4844 108.23 26.2031C107.973 25.9219 107.582 25.7812 107.059 25.7812C106.637 25.7812 106.234 25.9062 105.852 26.1562C105.477 26.4062 105.184 26.7422 104.973 27.1641C104.738 27.7031 104.621 28.6562 104.621 30.0234ZM124.145 30.5742H117.887C117.895 31.3008 118.039 31.9414 118.32 32.4961C118.609 33.0508 118.988 33.4688 119.457 33.75C119.934 34.0312 120.457 34.1719 121.027 34.1719C121.41 34.1719 121.758 34.1289 122.07 34.043C122.391 33.9492 122.699 33.8086 122.996 33.6211C123.293 33.4258 123.566 33.2188 123.816 33C124.066 32.7812 124.391 32.4844 124.789 32.1094C124.953 31.9688 125.188 31.8984 125.492 31.8984C125.82 31.8984 126.086 31.9883 126.289 32.168C126.492 32.3477 126.594 32.6016 126.594 32.9297C126.594 33.2188 126.48 33.5586 126.254 33.9492C126.027 34.332 125.684 34.7031 125.223 35.0625C124.77 35.4141 124.195 35.707 123.5 35.9414C122.812 36.1758 122.02 36.293 121.121 36.293C119.066 36.293 117.469 35.707 116.328 34.5352C115.188 33.3633 114.617 31.7734 114.617 29.7656C114.617 28.8203 114.758 27.9453 115.039 27.1406C115.32 26.3281 115.73 25.6328 116.27 25.0547C116.809 24.4766 117.473 24.0352 118.262 23.7305C119.051 23.418 119.926 23.2617 120.887 23.2617C122.137 23.2617 123.207 23.5273 124.098 24.0586C124.996 24.582 125.668 25.2617 126.113 26.0977C126.559 26.9336 126.781 27.7852 126.781 28.6523C126.781 29.457 126.551 29.9805 126.09 30.2227C125.629 30.457 124.98 30.5742 124.145 30.5742ZM117.887 28.7578H123.688C123.609 27.6641 123.312 26.8477 122.797 26.3086C122.289 25.7617 121.617 25.4883 120.781 25.4883C119.984 25.4883 119.328 25.7656 118.812 26.3203C118.305 26.8672 117.996 27.6797 117.887 28.7578ZM146.703 34.0547L145.883 31.8984H138.898L138.078 34.1016C137.758 34.9609 137.484 35.543 137.258 35.8477C137.031 36.1445 136.66 36.293 136.145 36.293C135.707 36.293 135.32 36.1328 134.984 35.8125C134.648 35.4922 134.48 35.1289 134.48 34.7227C134.48 34.4883 134.52 34.2461 134.598 33.9961C134.676 33.7461 134.805 33.3984 134.984 32.9531L139.379 21.7969C139.504 21.4766 139.652 21.0938 139.824 20.6484C140.004 20.1953 140.191 19.8203 140.387 19.5234C140.59 19.2266 140.852 18.9883 141.172 18.8086C141.5 18.6211 141.902 18.5273 142.379 18.5273C142.863 18.5273 143.266 18.6211 143.586 18.8086C143.914 18.9883 144.176 19.2227 144.371 19.5117C144.574 19.8008 144.742 20.1133 144.875 20.4492C145.016 20.7773 145.191 21.2188 145.402 21.7734L149.891 32.8594C150.242 33.7031 150.418 34.3164 150.418 34.6992C150.418 35.0977 150.25 35.4648 149.914 35.8008C149.586 36.1289 149.188 36.293 148.719 36.293C148.445 36.293 148.211 36.2422 148.016 36.1406C147.82 36.0469 147.656 35.918 147.523 35.7539C147.391 35.582 147.246 35.3242 147.09 34.9805C146.941 34.6289 146.812 34.3203 146.703 34.0547ZM139.812 29.2852H144.945L142.355 22.1953L139.812 29.2852ZM169.25 21.5039H162.395V25.8984H168.125C168.656 25.8984 169.051 26.0195 169.309 26.2617C169.574 26.4961 169.707 26.8125 169.707 27.2109C169.707 27.6094 169.574 27.9258 169.309 28.1602C169.043 28.3945 168.648 28.5117 168.125 28.5117H162.395V34.1719C162.395 34.8906 162.23 35.4258 161.902 35.7773C161.582 36.1211 161.168 36.293 160.66 36.293C160.145 36.293 159.723 36.1172 159.395 35.7656C159.074 35.4141 158.914 34.8828 158.914 34.1719V20.9531C158.914 20.4531 158.988 20.0469 159.137 19.7344C159.285 19.4141 159.516 19.1836 159.828 19.043C160.148 18.8945 160.555 18.8203 161.047 18.8203H169.25C169.805 18.8203 170.215 18.9453 170.48 19.1953C170.754 19.4375 170.891 19.7578 170.891 20.1562C170.891 20.5625 170.754 20.8906 170.48 21.1406C170.215 21.3828 169.805 21.5039 169.25 21.5039ZM181.285 30.5742H175.027C175.035 31.3008 175.18 31.9414 175.461 32.4961C175.75 33.0508 176.129 33.4688 176.598 33.75C177.074 34.0312 177.598 34.1719 178.168 34.1719C178.551 34.1719 178.898 34.1289 179.211 34.043C179.531 33.9492 179.84 33.8086 180.137 33.6211C180.434 33.4258 180.707 33.2188 180.957 33C181.207 32.7812 181.531 32.4844 181.93 32.1094C182.094 31.9688 182.328 31.8984 182.633 31.8984C182.961 31.8984 183.227 31.9883 183.43 32.168C183.633 32.3477 183.734 32.6016 183.734 32.9297C183.734 33.2188 183.621 33.5586 183.395 33.9492C183.168 34.332 182.824 34.7031 182.363 35.0625C181.91 35.4141 181.336 35.707 180.641 35.9414C179.953 36.1758 179.16 36.293 178.262 36.293C176.207 36.293 174.609 35.707 173.469 34.5352C172.328 33.3633 171.758 31.7734 171.758 29.7656C171.758 28.8203 171.898 27.9453 172.18 27.1406C172.461 26.3281 172.871 25.6328 173.41 25.0547C173.949 24.4766 174.613 24.0352 175.402 23.7305C176.191 23.418 177.066 23.2617 178.027 23.2617C179.277 23.2617 180.348 23.5273 181.238 24.0586C182.137 24.582 182.809 25.2617 183.254 26.0977C183.699 26.9336 183.922 27.7852 183.922 28.6523C183.922 29.457 183.691 29.9805 183.23 30.2227C182.77 30.457 182.121 30.5742 181.285 30.5742ZM175.027 28.7578H180.828C180.75 27.6641 180.453 26.8477 179.938 26.3086C179.43 25.7617 178.758 25.4883 177.922 25.4883C177.125 25.4883 176.469 25.7656 175.953 26.3203C175.445 26.8672 175.137 27.6797 175.027 28.7578ZM186.629 34.3477V20.4727C186.629 19.832 186.77 19.3477 187.051 19.0195C187.34 18.6914 187.727 18.5273 188.211 18.5273C188.695 18.5273 189.086 18.6914 189.383 19.0195C189.68 19.3398 189.828 19.8242 189.828 20.4727V34.3477C189.828 34.9961 189.676 35.4844 189.371 35.8125C189.074 36.1328 188.688 36.293 188.211 36.293C187.742 36.293 187.359 36.125 187.062 35.7891C186.773 35.4531 186.629 34.9727 186.629 34.3477ZM193.145 34.3477V20.4727C193.145 19.832 193.285 19.3477 193.566 19.0195C193.855 18.6914 194.242 18.5273 194.727 18.5273C195.211 18.5273 195.602 18.6914 195.898 19.0195C196.195 19.3398 196.344 19.8242 196.344 20.4727V34.3477C196.344 34.9961 196.191 35.4844 195.887 35.8125C195.59 36.1328 195.203 36.293 194.727 36.293C194.258 36.293 193.875 36.125 193.578 35.7891C193.289 35.4531 193.145 34.9727 193.145 34.3477ZM211.637 29.7891C211.637 30.7422 211.488 31.6211 211.191 32.4258C210.895 33.2305 210.465 33.9219 209.902 34.5C209.34 35.0781 208.668 35.5234 207.887 35.8359C207.105 36.1406 206.227 36.293 205.25 36.293C204.281 36.293 203.41 36.1367 202.637 35.8242C201.863 35.5117 201.191 35.0664 200.621 34.4883C200.059 33.9023 199.629 33.2148 199.332 32.4258C199.043 31.6289 198.898 30.75 198.898 29.7891C198.898 28.8203 199.047 27.9336 199.344 27.1289C199.641 26.3242 200.066 25.6367 200.621 25.0664C201.176 24.4961 201.848 24.0586 202.637 23.7539C203.426 23.4414 204.297 23.2852 205.25 23.2852C206.219 23.2852 207.098 23.4414 207.887 23.7539C208.676 24.0664 209.352 24.5117 209.914 25.0898C210.477 25.668 210.902 26.3555 211.191 27.1523C211.488 27.9492 211.637 28.8281 211.637 29.7891ZM208.426 29.7891C208.426 28.4844 208.137 27.4688 207.559 26.7422C206.988 26.0156 206.219 25.6523 205.25 25.6523C204.625 25.6523 204.074 25.8164 203.598 26.1445C203.121 26.4648 202.754 26.9414 202.496 27.5742C202.238 28.207 202.109 28.9453 202.109 29.7891C202.109 30.625 202.234 31.3555 202.484 31.9805C202.742 32.6055 203.105 33.0859 203.574 33.4219C204.051 33.75 204.609 33.9141 205.25 33.9141C206.219 33.9141 206.988 33.5508 207.559 32.8242C208.137 32.0898 208.426 31.0781 208.426 29.7891ZM216.16 25.2773L218.246 32.4258L220.145 25.7812C220.348 25.0859 220.496 24.6133 220.59 24.3633C220.691 24.1055 220.875 23.8633 221.141 23.6367C221.414 23.4023 221.785 23.2852 222.254 23.2852C222.73 23.2852 223.102 23.4023 223.367 23.6367C223.641 23.8633 223.832 24.1133 223.941 24.3867C224.051 24.6523 224.203 25.1172 224.398 25.7812L226.297 32.4258L228.406 25.2773C228.547 24.7617 228.66 24.3906 228.746 24.1641C228.832 23.9297 228.977 23.7266 229.18 23.5547C229.383 23.375 229.676 23.2852 230.059 23.2852C230.441 23.2852 230.773 23.418 231.055 23.6836C231.336 23.9492 231.477 24.2617 231.477 24.6211C231.477 24.9492 231.355 25.4453 231.113 26.1094L228.5 33.7734C228.273 34.4219 228.098 34.8906 227.973 35.1797C227.848 35.4688 227.648 35.7266 227.375 35.9531C227.109 36.1797 226.742 36.293 226.273 36.293C225.789 36.293 225.406 36.1719 225.125 35.9297C224.852 35.6875 224.648 35.3906 224.516 35.0391C224.383 34.6875 224.238 34.2305 224.082 33.668L222.254 27.4336L220.484 33.668C220.25 34.5352 219.996 35.1914 219.723 35.6367C219.449 36.0742 218.969 36.293 218.281 36.293C217.93 36.293 217.629 36.2227 217.379 36.082C217.137 35.9492 216.934 35.7578 216.77 35.5078C216.605 35.25 216.461 34.9492 216.336 34.6055C216.211 34.2539 216.113 33.9766 216.043 33.7734L213.453 26.1094C213.195 25.3906 213.066 24.8945 213.066 24.6211C213.066 24.2773 213.203 23.9688 213.477 23.6953C213.75 23.4219 214.086 23.2852 214.484 23.2852C215.016 23.2852 215.375 23.4375 215.562 23.7422C215.75 24.0391 215.949 24.5508 216.16 25.2773Z" fill="white"/>
</svg>
