<svg width="272" height="54" viewBox="0 0 272 54" fill="none" xmlns="http://www.w3.org/2000/svg">
<rect width="272" height="54" rx="18" fill="#200660"/>
<path d="M41.2109 36H35.9609C35.2031 36 34.6602 35.832 34.332 35.4961C34.0117 35.1523 33.8516 34.6094 33.8516 33.8672V20.9531C33.8516 20.1953 34.0156 19.6523 34.3438 19.3242C34.6797 18.9883 35.2188 18.8203 35.9609 18.8203H41.5273C42.3477 18.8203 43.0586 18.8711 43.6602 18.9727C44.2617 19.0742 44.8008 19.2695 45.2773 19.5586C45.6836 19.8008 46.043 20.1094 46.3555 20.4844C46.668 20.8516 46.9062 21.2617 47.0703 21.7148C47.2344 22.1602 47.3164 22.6328 47.3164 23.1328C47.3164 24.8516 46.457 26.1094 44.7383 26.9062C46.9961 27.625 48.125 29.0234 48.125 31.1016C48.125 32.0625 47.8789 32.9297 47.3867 33.7031C46.8945 34.4688 46.2305 35.0352 45.3945 35.4023C44.8711 35.6211 44.2695 35.7773 43.5898 35.8711C42.9102 35.957 42.1172 36 41.2109 36ZM40.9531 28.3711H37.332V33.3867H41.0703C43.4219 33.3867 44.5977 32.5391 44.5977 30.8438C44.5977 29.9766 44.293 29.3477 43.6836 28.957C43.0742 28.5664 42.1641 28.3711 40.9531 28.3711ZM37.332 21.4336V25.875H40.5195C41.3867 25.875 42.0547 25.793 42.5234 25.6289C43 25.4648 43.3633 25.1523 43.6133 24.6914C43.8086 24.3633 43.9062 23.9961 43.9062 23.5898C43.9062 22.7227 43.5977 22.1484 42.9805 21.8672C42.3633 21.5781 41.4219 21.4336 40.1562 21.4336H37.332ZM59.8555 30.5742H53.5977C53.6055 31.3008 53.75 31.9414 54.0312 32.4961C54.3203 33.0508 54.6992 33.4688 55.168 33.75C55.6445 34.0312 56.168 34.1719 56.7383 34.1719C57.1211 34.1719 57.4688 34.1289 57.7812 34.043C58.1016 33.9492 58.4102 33.8086 58.707 33.6211C59.0039 33.4258 59.2773 33.2188 59.5273 33C59.7773 32.7812 60.1016 32.4844 60.5 32.1094C60.6641 31.9688 60.8984 31.8984 61.2031 31.8984C61.5312 31.8984 61.7969 31.9883 62 32.168C62.2031 32.3477 62.3047 32.6016 62.3047 32.9297C62.3047 33.2188 62.1914 33.5586 61.9648 33.9492C61.7383 34.332 61.3945 34.7031 60.9336 35.0625C60.4805 35.4141 59.9062 35.707 59.2109 35.9414C58.5234 36.1758 57.7305 36.293 56.832 36.293C54.7773 36.293 53.1797 35.707 52.0391 34.5352C50.8984 33.3633 50.3281 31.7734 50.3281 29.7656C50.3281 28.8203 50.4688 27.9453 50.75 27.1406C51.0312 26.3281 51.4414 25.6328 51.9805 25.0547C52.5195 24.4766 53.1836 24.0352 53.9727 23.7305C54.7617 23.418 55.6367 23.2617 56.5977 23.2617C57.8477 23.2617 58.918 23.5273 59.8086 24.0586C60.707 24.582 61.3789 25.2617 61.8242 26.0977C62.2695 26.9336 62.4922 27.7852 62.4922 28.6523C62.4922 29.457 62.2617 29.9805 61.8008 30.2227C61.3398 30.457 60.6914 30.5742 59.8555 30.5742ZM53.5977 28.7578H59.3984C59.3203 27.6641 59.0234 26.8477 58.5078 26.3086C58 25.7617 57.3281 25.4883 56.4922 25.4883C55.6953 25.4883 55.0391 25.7656 54.5234 26.3203C54.0156 26.8672 53.707 27.6797 53.5977 28.7578ZM76.6719 32.332C76.6719 32.7305 76.5508 33.1562 76.3086 33.6094C76.0742 34.0625 75.7109 34.4961 75.2188 34.9102C74.7344 35.3164 74.1211 35.6445 73.3789 35.8945C72.6367 36.1445 71.8008 36.2695 70.8711 36.2695C68.8945 36.2695 67.3516 35.6953 66.2422 34.5469C65.1328 33.3906 64.5781 31.8438 64.5781 29.9062C64.5781 28.5938 64.832 27.4336 65.3398 26.4258C65.8477 25.418 66.582 24.6406 67.543 24.0938C68.5039 23.5391 69.6523 23.2617 70.9883 23.2617C71.8164 23.2617 72.5742 23.3828 73.2617 23.625C73.957 23.8672 74.543 24.1797 75.0195 24.5625C75.5039 24.9453 75.8711 25.3555 76.1211 25.793C76.3789 26.2227 76.5078 26.625 76.5078 27C76.5078 27.3828 76.3633 27.707 76.0742 27.9727C75.793 28.2383 75.4492 28.3711 75.043 28.3711C74.7773 28.3711 74.5547 28.3047 74.375 28.1719C74.2031 28.0312 74.0078 27.8086 73.7891 27.5039C73.3984 26.9102 72.9883 26.4648 72.5586 26.168C72.1367 25.8711 71.5977 25.7227 70.9414 25.7227C69.9961 25.7227 69.2344 26.0938 68.6562 26.8359C68.0781 27.5703 67.7891 28.5781 67.7891 29.8594C67.7891 30.4609 67.8633 31.0156 68.0117 31.5234C68.1602 32.0234 68.375 32.4531 68.6562 32.8125C68.9375 33.1641 69.2773 33.4336 69.6758 33.6211C70.0742 33.8008 70.5117 33.8906 70.9883 33.8906C71.6289 33.8906 72.1758 33.7422 72.6289 33.4453C73.0898 33.1484 73.4961 32.6953 73.8477 32.0859C74.043 31.7266 74.2539 31.4453 74.4805 31.2422C74.707 31.0391 74.9844 30.9375 75.3125 30.9375C75.7031 30.9375 76.0273 31.0859 76.2852 31.3828C76.543 31.6797 76.6719 31.9961 76.6719 32.332ZM91.4492 29.7891C91.4492 30.7422 91.3008 31.6211 91.0039 32.4258C90.707 33.2305 90.2773 33.9219 89.7148 34.5C89.1523 35.0781 88.4805 35.5234 87.6992 35.8359C86.918 36.1406 86.0391 36.293 85.0625 36.293C84.0938 36.293 83.2227 36.1367 82.4492 35.8242C81.6758 35.5117 81.0039 35.0664 80.4336 34.4883C79.8711 33.9023 79.4414 33.2148 79.1445 32.4258C78.8555 31.6289 78.7109 30.75 78.7109 29.7891C78.7109 28.8203 78.8594 27.9336 79.1562 27.1289C79.4531 26.3242 79.8789 25.6367 80.4336 25.0664C80.9883 24.4961 81.6602 24.0586 82.4492 23.7539C83.2383 23.4414 84.1094 23.2852 85.0625 23.2852C86.0312 23.2852 86.9102 23.4414 87.6992 23.7539C88.4883 24.0664 89.1641 24.5117 89.7266 25.0898C90.2891 25.668 90.7148 26.3555 91.0039 27.1523C91.3008 27.9492 91.4492 28.8281 91.4492 29.7891ZM88.2383 29.7891C88.2383 28.4844 87.9492 27.4688 87.3711 26.7422C86.8008 26.0156 86.0312 25.6523 85.0625 25.6523C84.4375 25.6523 83.8867 25.8164 83.4102 26.1445C82.9336 26.4648 82.5664 26.9414 82.3086 27.5742C82.0508 28.207 81.9219 28.9453 81.9219 29.7891C81.9219 30.625 82.0469 31.3555 82.2969 31.9805C82.5547 32.6055 82.918 33.0859 83.3867 33.4219C83.8633 33.75 84.4219 33.9141 85.0625 33.9141C86.0312 33.9141 86.8008 33.5508 87.3711 32.8242C87.9492 32.0898 88.2383 31.0781 88.2383 29.7891ZM104.621 30.0234V34.2773C104.621 34.9492 104.469 35.4531 104.164 35.7891C103.859 36.125 103.457 36.293 102.957 36.293C102.473 36.293 102.078 36.125 101.773 35.7891C101.477 35.4531 101.328 34.9492 101.328 34.2773V29.1797C101.328 28.375 101.301 27.75 101.246 27.3047C101.191 26.8594 101.043 26.4961 100.801 26.2148C100.559 25.9258 100.176 25.7812 99.6523 25.7812C98.6055 25.7812 97.9141 26.1406 97.5781 26.8594C97.25 27.5781 97.0859 28.6094 97.0859 29.9531V34.2773C97.0859 34.9414 96.9336 35.4453 96.6289 35.7891C96.332 36.125 95.9375 36.293 95.4453 36.293C94.9609 36.293 94.5625 36.125 94.25 35.7891C93.9453 35.4453 93.793 34.9414 93.793 34.2773V25.125C93.793 24.5234 93.9297 24.0664 94.2031 23.7539C94.4844 23.4414 94.8516 23.2852 95.3047 23.2852C95.7422 23.2852 96.1055 23.4336 96.3945 23.7305C96.6914 24.0195 96.8398 24.4219 96.8398 24.9375V25.2422C97.3945 24.5781 97.9883 24.0898 98.6211 23.7773C99.2539 23.4648 99.957 23.3086 100.73 23.3086C101.535 23.3086 102.227 23.4688 102.805 23.7891C103.383 24.1094 103.859 24.5938 104.234 25.2422C104.773 24.5859 105.352 24.1016 105.969 23.7891C106.586 23.4688 107.27 23.3086 108.02 23.3086C108.895 23.3086 109.648 23.4805 110.281 23.8242C110.914 24.168 111.387 24.6602 111.699 25.3008C111.973 25.8789 112.109 26.7891 112.109 28.0312V34.2773C112.109 34.9492 111.957 35.4531 111.652 35.7891C111.348 36.125 110.945 36.293 110.445 36.293C109.961 36.293 109.562 36.125 109.25 35.7891C108.945 35.4453 108.793 34.9414 108.793 34.2773V28.8984C108.793 28.2109 108.762 27.6602 108.699 27.2461C108.645 26.832 108.488 26.4844 108.23 26.2031C107.973 25.9219 107.582 25.7812 107.059 25.7812C106.637 25.7812 106.234 25.9062 105.852 26.1562C105.477 26.4062 105.184 26.7422 104.973 27.1641C104.738 27.7031 104.621 28.6562 104.621 30.0234ZM124.145 30.5742H117.887C117.895 31.3008 118.039 31.9414 118.32 32.4961C118.609 33.0508 118.988 33.4688 119.457 33.75C119.934 34.0312 120.457 34.1719 121.027 34.1719C121.41 34.1719 121.758 34.1289 122.07 34.043C122.391 33.9492 122.699 33.8086 122.996 33.6211C123.293 33.4258 123.566 33.2188 123.816 33C124.066 32.7812 124.391 32.4844 124.789 32.1094C124.953 31.9688 125.188 31.8984 125.492 31.8984C125.82 31.8984 126.086 31.9883 126.289 32.168C126.492 32.3477 126.594 32.6016 126.594 32.9297C126.594 33.2188 126.48 33.5586 126.254 33.9492C126.027 34.332 125.684 34.7031 125.223 35.0625C124.77 35.4141 124.195 35.707 123.5 35.9414C122.812 36.1758 122.02 36.293 121.121 36.293C119.066 36.293 117.469 35.707 116.328 34.5352C115.188 33.3633 114.617 31.7734 114.617 29.7656C114.617 28.8203 114.758 27.9453 115.039 27.1406C115.32 26.3281 115.73 25.6328 116.27 25.0547C116.809 24.4766 117.473 24.0352 118.262 23.7305C119.051 23.418 119.926 23.2617 120.887 23.2617C122.137 23.2617 123.207 23.5273 124.098 24.0586C124.996 24.582 125.668 25.2617 126.113 26.0977C126.559 26.9336 126.781 27.7852 126.781 28.6523C126.781 29.457 126.551 29.9805 126.09 30.2227C125.629 30.457 124.98 30.5742 124.145 30.5742ZM117.887 28.7578H123.688C123.609 27.6641 123.312 26.8477 122.797 26.3086C122.289 25.7617 121.617 25.4883 120.781 25.4883C119.984 25.4883 119.328 25.7656 118.812 26.3203C118.305 26.8672 117.996 27.6797 117.887 28.7578ZM146.703 34.0547L145.883 31.8984H138.898L138.078 34.1016C137.758 34.9609 137.484 35.543 137.258 35.8477C137.031 36.1445 136.66 36.293 136.145 36.293C135.707 36.293 135.32 36.1328 134.984 35.8125C134.648 35.4922 134.48 35.1289 134.48 34.7227C134.48 34.4883 134.52 34.2461 134.598 33.9961C134.676 33.7461 134.805 33.3984 134.984 32.9531L139.379 21.7969C139.504 21.4766 139.652 21.0938 139.824 20.6484C140.004 20.1953 140.191 19.8203 140.387 19.5234C140.59 19.2266 140.852 18.9883 141.172 18.8086C141.5 18.6211 141.902 18.5273 142.379 18.5273C142.863 18.5273 143.266 18.6211 143.586 18.8086C143.914 18.9883 144.176 19.2227 144.371 19.5117C144.574 19.8008 144.742 20.1133 144.875 20.4492C145.016 20.7773 145.191 21.2188 145.402 21.7734L149.891 32.8594C150.242 33.7031 150.418 34.3164 150.418 34.6992C150.418 35.0977 150.25 35.4648 149.914 35.8008C149.586 36.1289 149.188 36.293 148.719 36.293C148.445 36.293 148.211 36.2422 148.016 36.1406C147.82 36.0469 147.656 35.918 147.523 35.7539C147.391 35.582 147.246 35.3242 147.09 34.9805C146.941 34.6289 146.812 34.3203 146.703 34.0547ZM139.812 29.2852H144.945L142.355 22.1953L139.812 29.2852ZM164.785 33.4102L162.031 22.4648V34.3242C162.031 34.9805 161.883 35.4727 161.586 35.8008C161.297 36.1289 160.91 36.293 160.426 36.293C159.957 36.293 159.574 36.1328 159.277 35.8125C158.98 35.4844 158.832 34.9883 158.832 34.3242V20.7305C158.832 19.9805 159.027 19.4766 159.418 19.2188C159.809 18.9531 160.336 18.8203 161 18.8203H162.078C162.727 18.8203 163.195 18.8789 163.484 18.9961C163.781 19.1133 164 19.3242 164.141 19.6289C164.281 19.9336 164.441 20.4297 164.621 21.1172L167.117 30.5273L169.613 21.1172C169.793 20.4297 169.953 19.9336 170.094 19.6289C170.234 19.3242 170.449 19.1133 170.738 18.9961C171.035 18.8789 171.508 18.8203 172.156 18.8203H173.234C173.898 18.8203 174.426 18.9531 174.816 19.2188C175.207 19.4766 175.402 19.9805 175.402 20.7305V34.3242C175.402 34.9805 175.254 35.4727 174.957 35.8008C174.668 36.1289 174.277 36.293 173.785 36.293C173.324 36.293 172.945 36.1289 172.648 35.8008C172.352 35.4727 172.203 34.9805 172.203 34.3242V22.4648L169.449 33.4102C169.27 34.1211 169.121 34.6445 169.004 34.9805C168.895 35.3086 168.688 35.6094 168.383 35.8828C168.078 36.1562 167.656 36.293 167.117 36.293C166.711 36.293 166.367 36.2031 166.086 36.0234C165.805 35.8516 165.586 35.6289 165.43 35.3555C165.273 35.082 165.148 34.7812 165.055 34.4531C164.969 34.1172 164.879 33.7695 164.785 33.4102ZM187.684 30.5742H181.426C181.434 31.3008 181.578 31.9414 181.859 32.4961C182.148 33.0508 182.527 33.4688 182.996 33.75C183.473 34.0312 183.996 34.1719 184.566 34.1719C184.949 34.1719 185.297 34.1289 185.609 34.043C185.93 33.9492 186.238 33.8086 186.535 33.6211C186.832 33.4258 187.105 33.2188 187.355 33C187.605 32.7812 187.93 32.4844 188.328 32.1094C188.492 31.9688 188.727 31.8984 189.031 31.8984C189.359 31.8984 189.625 31.9883 189.828 32.168C190.031 32.3477 190.133 32.6016 190.133 32.9297C190.133 33.2188 190.02 33.5586 189.793 33.9492C189.566 34.332 189.223 34.7031 188.762 35.0625C188.309 35.4141 187.734 35.707 187.039 35.9414C186.352 36.1758 185.559 36.293 184.66 36.293C182.605 36.293 181.008 35.707 179.867 34.5352C178.727 33.3633 178.156 31.7734 178.156 29.7656C178.156 28.8203 178.297 27.9453 178.578 27.1406C178.859 26.3281 179.27 25.6328 179.809 25.0547C180.348 24.4766 181.012 24.0352 181.801 23.7305C182.59 23.418 183.465 23.2617 184.426 23.2617C185.676 23.2617 186.746 23.5273 187.637 24.0586C188.535 24.582 189.207 25.2617 189.652 26.0977C190.098 26.9336 190.32 27.7852 190.32 28.6523C190.32 29.457 190.09 29.9805 189.629 30.2227C189.168 30.457 188.52 30.5742 187.684 30.5742ZM181.426 28.7578H187.227C187.148 27.6641 186.852 26.8477 186.336 26.3086C185.828 25.7617 185.156 25.4883 184.32 25.4883C183.523 25.4883 182.867 25.7656 182.352 26.3203C181.844 26.8672 181.535 27.6797 181.426 28.7578ZM195.934 25.0547V25.4414C196.496 24.6992 197.109 24.1562 197.773 23.8125C198.445 23.4609 199.215 23.2852 200.082 23.2852C200.926 23.2852 201.68 23.4688 202.344 23.8359C203.008 24.2031 203.504 24.7227 203.832 25.3945C204.043 25.7852 204.18 26.207 204.242 26.6602C204.305 27.1133 204.336 27.6914 204.336 28.3945V34.3477C204.336 34.9883 204.188 35.4727 203.891 35.8008C203.602 36.1289 203.223 36.293 202.754 36.293C202.277 36.293 201.891 36.125 201.594 35.7891C201.297 35.4531 201.148 34.9727 201.148 34.3477V29.0156C201.148 27.9609 201 27.1562 200.703 26.6016C200.414 26.0391 199.832 25.7578 198.957 25.7578C198.387 25.7578 197.867 25.9297 197.398 26.2734C196.93 26.6094 196.586 27.0742 196.367 27.668C196.211 28.1445 196.133 29.0352 196.133 30.3398V34.3477C196.133 34.9961 195.98 35.4844 195.676 35.8125C195.379 36.1328 194.992 36.293 194.516 36.293C194.055 36.293 193.676 36.125 193.379 35.7891C193.082 35.4531 192.934 34.9727 192.934 34.3477V25.1016C192.934 24.4922 193.066 24.0391 193.332 23.7422C193.598 23.4375 193.961 23.2852 194.422 23.2852C194.703 23.2852 194.957 23.3516 195.184 23.4844C195.41 23.6172 195.59 23.8164 195.723 24.082C195.863 24.3477 195.934 24.6719 195.934 25.0547ZM207.711 23.5664H208.062V21.6445C208.062 21.1289 208.074 20.7266 208.098 20.4375C208.129 20.1406 208.207 19.8867 208.332 19.6758C208.457 19.457 208.637 19.2812 208.871 19.1484C209.105 19.0078 209.367 18.9375 209.656 18.9375C210.062 18.9375 210.43 19.0898 210.758 19.3945C210.977 19.5977 211.113 19.8477 211.168 20.1445C211.23 20.4336 211.262 20.8477 211.262 21.3867V23.5664H212.434C212.887 23.5664 213.23 23.6758 213.465 23.8945C213.707 24.1055 213.828 24.3789 213.828 24.7148C213.828 25.1445 213.656 25.4453 213.312 25.6172C212.977 25.7891 212.492 25.875 211.859 25.875H211.262V31.7578C211.262 32.2578 211.277 32.6445 211.309 32.918C211.348 33.1836 211.441 33.4023 211.59 33.5742C211.746 33.7383 211.996 33.8203 212.34 33.8203C212.527 33.8203 212.781 33.7891 213.102 33.7266C213.422 33.6562 213.672 33.6211 213.852 33.6211C214.109 33.6211 214.34 33.7266 214.543 33.9375C214.754 34.1406 214.859 34.3945 214.859 34.6992C214.859 35.2148 214.578 35.6094 214.016 35.8828C213.453 36.1562 212.645 36.293 211.59 36.293C210.59 36.293 209.832 36.125 209.316 35.7891C208.801 35.4531 208.461 34.9883 208.297 34.3945C208.141 33.8008 208.062 33.0078 208.062 32.0156V25.875H207.641C207.18 25.875 206.828 25.7656 206.586 25.5469C206.344 25.3281 206.223 25.0508 206.223 24.7148C206.223 24.3789 206.348 24.1055 206.598 23.8945C206.855 23.6758 207.227 23.5664 207.711 23.5664ZM228.02 29.7891C228.02 30.7422 227.871 31.6211 227.574 32.4258C227.277 33.2305 226.848 33.9219 226.285 34.5C225.723 35.0781 225.051 35.5234 224.27 35.8359C223.488 36.1406 222.609 36.293 221.633 36.293C220.664 36.293 219.793 36.1367 219.02 35.8242C218.246 35.5117 217.574 35.0664 217.004 34.4883C216.441 33.9023 216.012 33.2148 215.715 32.4258C215.426 31.6289 215.281 30.75 215.281 29.7891C215.281 28.8203 215.43 27.9336 215.727 27.1289C216.023 26.3242 216.449 25.6367 217.004 25.0664C217.559 24.4961 218.23 24.0586 219.02 23.7539C219.809 23.4414 220.68 23.2852 221.633 23.2852C222.602 23.2852 223.48 23.4414 224.27 23.7539C225.059 24.0664 225.734 24.5117 226.297 25.0898C226.859 25.668 227.285 26.3555 227.574 27.1523C227.871 27.9492 228.02 28.8281 228.02 29.7891ZM224.809 29.7891C224.809 28.4844 224.52 27.4688 223.941 26.7422C223.371 26.0156 222.602 25.6523 221.633 25.6523C221.008 25.6523 220.457 25.8164 219.98 26.1445C219.504 26.4648 219.137 26.9414 218.879 27.5742C218.621 28.207 218.492 28.9453 218.492 29.7891C218.492 30.625 218.617 31.3555 218.867 31.9805C219.125 32.6055 219.488 33.0859 219.957 33.4219C220.434 33.75 220.992 33.9141 221.633 33.9141C222.602 33.9141 223.371 33.5508 223.941 32.8242C224.52 32.0898 224.809 31.0781 224.809 29.7891ZM233.727 31.6758V34.3477C233.727 34.9961 233.574 35.4844 233.27 35.8125C232.965 36.1328 232.578 36.293 232.109 36.293C231.648 36.293 231.27 36.1289 230.973 35.8008C230.676 35.4727 230.527 34.9883 230.527 34.3477V25.4414C230.527 24.0039 231.047 23.2852 232.086 23.2852C232.617 23.2852 233 23.4531 233.234 23.7891C233.469 24.125 233.598 24.6211 233.621 25.2773C234.004 24.6211 234.395 24.125 234.793 23.7891C235.199 23.4531 235.738 23.2852 236.41 23.2852C237.082 23.2852 237.734 23.4531 238.367 23.7891C239 24.125 239.316 24.5703 239.316 25.125C239.316 25.5156 239.18 25.8398 238.906 26.0977C238.641 26.3477 238.352 26.4727 238.039 26.4727C237.922 26.4727 237.637 26.4023 237.184 26.2617C236.738 26.1133 236.344 26.0391 236 26.0391C235.531 26.0391 235.148 26.1641 234.852 26.4141C234.555 26.6562 234.324 27.0195 234.16 27.5039C233.996 27.9883 233.883 28.5664 233.82 29.2383C233.758 29.9023 233.727 30.7148 233.727 31.6758Z" fill="white"/>
</svg>
