<svg width="80" height="80" viewBox="0 0 80 80" fill="none" xmlns="http://www.w3.org/2000/svg">
<g clip-path="url(#clip0)">
<path d="M44.8548 15.9608C44.2897 15.9608 43.7478 15.7363 43.3482 15.3367C42.9487 14.9372 42.7242 14.3952 42.7242 13.8302V6.54131C42.7242 6.26621 42.6149 6.00238 42.4204 5.80786C42.2259 5.61333 41.962 5.50405 41.6869 5.50405H21.1286C20.8535 5.50405 20.5897 5.61333 20.3951 5.80786C20.2006 6.00238 20.0913 6.26621 20.0913 6.54131V13.8302C20.0555 14.3721 19.8149 14.8801 19.4184 15.2512C19.0219 15.6223 18.4991 15.8288 17.9561 15.8288C17.413 15.8288 16.8902 15.6223 16.4937 15.2512C16.0972 14.8801 15.8567 14.3721 15.8208 13.8302V6.54131C15.8233 5.13436 16.3833 3.78573 17.3781 2.79087C18.373 1.796 19.7216 1.23599 21.1286 1.23352H41.6869C43.0858 1.24827 44.4224 1.81369 45.4072 2.80724C46.392 3.80078 46.9456 5.1424 46.948 6.54131V13.8302C46.9457 14.3881 46.7256 14.9231 46.3346 15.3211C45.9436 15.7191 45.4126 15.9486 44.8548 15.9608Z" fill="#C9885B"/>
<path d="M61.5907 14.0731V48.9943C61.5897 49.7819 61.4765 50.5654 61.2543 51.3211C60.7515 53.0077 59.7178 54.4871 58.307 55.5393C56.8962 56.5916 55.1835 57.1605 53.4235 57.1615H9.34451C7.17842 57.1615 5.10104 56.3011 3.56938 54.7694C2.03772 53.2378 1.17725 51.1604 1.17725 48.9943V14.0731C1.17725 13.3519 1.46374 12.6603 1.97371 12.1503C2.48368 11.6403 3.17535 11.3538 3.89655 11.3538H58.8714C59.5926 11.3538 60.2843 11.6403 60.7943 12.1503C61.3042 12.6603 61.5907 13.3519 61.5907 14.0731Z" fill="#DAAE91"/>
<path d="M61.5907 14.0731V21.9694C61.592 23.4804 61.2953 24.9768 60.7176 26.373C60.1399 27.7692 59.2927 29.0378 58.2242 30.1062C57.1558 31.1747 55.8872 32.0219 54.491 32.5996C53.0948 33.1773 51.5984 33.474 50.0874 33.4727H12.7086C11.1956 33.4764 9.69675 33.1816 8.29787 32.6052C6.89898 32.0287 5.62755 31.182 4.5564 30.1134C3.48524 29.0449 2.63541 27.7755 2.05556 26.378C1.47571 24.9805 1.17724 23.4824 1.17725 21.9694V14.0731C1.17725 13.3519 1.46374 12.6603 1.97371 12.1503C2.48368 11.6403 3.17535 11.3538 3.89655 11.3538H58.8714C59.5926 11.3538 60.2843 11.6403 60.7943 12.1503C61.3042 12.6603 61.5907 13.3519 61.5907 14.0731Z" fill="#D19A75"/>
<path d="M61.2543 51.3211C60.7515 53.0078 59.7178 54.4871 58.307 55.5394C56.8962 56.5916 55.1835 57.1605 53.4235 57.1616H9.34452C7.17842 57.1616 5.10104 56.3011 3.56938 54.7694C2.03772 53.2378 1.17725 51.1604 1.17725 48.9943V14.0731C1.17724 13.7165 1.24765 13.3633 1.38442 13.0339C1.52119 12.7045 1.72164 12.4054 1.97428 12.1536C2.22691 11.9018 2.52676 11.7024 2.85663 11.5668C3.18649 11.4311 3.53989 11.3619 3.89655 11.3632H6.69997V43.4903C6.69997 45.6564 7.56044 47.7337 9.0921 49.2654C10.6238 50.7971 12.7011 51.6575 14.8672 51.6575H58.9275C59.7151 51.6559 60.4985 51.5426 61.2543 51.3211Z" fill="#D19A75"/>
<path d="M50.3491 39.1356H46.8075C46.4531 39.1356 46.1132 38.9948 45.8626 38.7442C45.612 38.4936 45.4712 38.1537 45.4712 37.7993V29.062C45.4712 28.7067 45.6117 28.3659 45.862 28.1138C46.1123 27.8617 46.4522 27.7188 46.8075 27.7164H50.3491C50.7053 27.7188 51.0461 27.8614 51.2979 28.1132C51.5498 28.365 51.6923 28.7059 51.6948 29.062V37.7993C51.6923 38.1546 51.5494 38.4944 51.2974 38.7448C51.0453 38.9951 50.7044 39.1356 50.3491 39.1356Z" fill="#9B5E34"/>
<path d="M59.9461 27.9033C58.9273 29.61 57.4836 31.0235 55.7558 32.0061C54.028 32.9888 52.0751 33.5069 50.0875 33.5101H12.7087C11.1925 33.5138 9.6906 33.2178 8.28927 32.639C6.88794 32.0602 5.61485 31.2101 4.5432 30.1376C3.47155 29.0651 2.6225 27.7913 2.04485 26.3895C1.46721 24.9877 1.17238 23.4856 1.17731 21.9694V14.0731C1.1773 13.7165 1.24771 13.3633 1.38448 13.0339C1.52125 12.7045 1.7217 12.4054 1.97434 12.1536C2.22697 11.9018 2.52682 11.7024 2.85669 11.5668C3.18655 11.4311 3.53995 11.3619 3.89662 11.3632H6.70003V17.2503C6.70002 20.298 7.90941 23.2211 10.0627 25.3778C12.2159 27.5346 15.137 28.7487 18.1847 28.7537H55.5635C57.066 28.7606 58.5552 28.4716 59.9461 27.9033Z" fill="#C9885B"/>
<path d="M51.6948 29.062V33.3606C51.1623 33.4357 50.6252 33.4732 50.0875 33.4727H45.4712V29.062C45.4712 28.7067 45.6117 28.3659 45.862 28.1138C46.1123 27.8617 46.4522 27.7188 46.8075 27.7164H50.3491C50.7053 27.7188 51.0461 27.8614 51.2979 28.1132C51.5498 28.365 51.6923 28.7059 51.6948 29.062Z" fill="#B56D3C"/>
<path d="M15.9702 39.1356H12.4286C12.0742 39.1356 11.7343 38.9948 11.4837 38.7442C11.2331 38.4936 11.0923 38.1537 11.0923 37.7993V29.062C11.0923 28.7067 11.2328 28.3659 11.4831 28.1138C11.7334 27.8617 12.0733 27.7188 12.4286 27.7164H15.9702C16.3263 27.7188 16.6672 27.8614 16.919 28.1132C17.1709 28.365 17.3134 28.7059 17.3159 29.062V37.7993C17.3134 38.1546 17.1705 38.4944 16.9184 38.7448C16.6664 38.9951 16.3255 39.1356 15.9702 39.1356Z" fill="#9B5E34"/>
<path d="M17.3159 29.062V33.3606C16.7834 33.4357 16.2463 33.4732 15.7086 33.4727H11.0923V29.062C11.0923 28.7067 11.2328 28.3659 11.4831 28.1138C11.7334 27.8617 12.0733 27.7188 12.4286 27.7164H15.9702C16.3271 27.7164 16.6694 27.8581 16.9217 28.1105C17.1741 28.3629 17.3159 28.7051 17.3159 29.062Z" fill="#B56D3C"/>
<path d="M37.9956 54.3955V67.0856C37.9956 70.0759 45.8171 72.5055 55.4702 72.5055C65.1233 72.5055 72.9448 70.0759 72.9448 67.0856V54.6478L37.9956 54.3955Z" fill="#766D78"/>
<path d="M72.9355 67.2819C72.6831 70.2067 64.9551 72.5523 55.4702 72.5523C45.8171 72.5523 37.9956 70.1226 37.9956 67.1323V54.3955H42.4717V63.572C42.4717 66.5623 50.2932 68.9919 59.9463 68.9919C64.3389 69.106 68.7221 68.529 72.9355 67.2819Z" fill="#655E67"/>
<path d="M54.7695 40.0981L33.1739 49.6204C32.9017 49.726 32.6677 49.9115 32.5027 50.1525C32.3378 50.3934 32.2495 50.6786 32.2495 50.9707C32.2495 51.2627 32.3378 51.5479 32.5027 51.7889C32.6677 52.0298 32.9017 52.2153 33.1739 52.321L54.7695 61.8432C54.9888 61.9403 55.2259 61.9905 55.4657 61.9905C55.7055 61.9905 55.9426 61.9403 56.1619 61.8432L77.7668 52.3303C78.0391 52.2247 78.273 52.0392 78.438 51.7982C78.6029 51.5573 78.6912 51.272 78.6912 50.98C78.6912 50.688 78.6029 50.4028 78.438 50.1618C78.273 49.9208 78.0391 49.7354 77.7668 49.6297L56.1619 40.0981C55.9426 40.001 55.7055 39.9509 55.4657 39.9509C55.2259 39.9509 54.9888 40.001 54.7695 40.0981Z" fill="#544F56"/>
<path d="M77.7668 52.3304L56.1619 61.8433C55.9426 61.9404 55.7055 61.9905 55.4657 61.9905C55.2259 61.9905 54.9888 61.9404 54.7695 61.8433L33.1739 52.3304C32.9017 52.2247 32.6677 52.0392 32.5027 51.7983C32.3378 51.5573 32.2495 51.2721 32.2495 50.98C32.2495 50.688 32.3378 50.4028 32.5027 50.1618C32.6677 49.9209 32.9017 49.7354 33.1739 49.6297L36.7716 48.0411L58.1336 57.4513C58.3529 57.5483 58.59 57.5985 58.8298 57.5985C59.0696 57.5985 59.3067 57.5483 59.526 57.4513L77.5612 49.5269L77.8042 49.6297C78.075 49.7391 78.3065 49.9278 78.4682 50.1711C78.6298 50.4143 78.7142 50.7008 78.7102 50.9928C78.7061 51.2849 78.6139 51.5689 78.4455 51.8076C78.2772 52.0463 78.0406 52.2285 77.7668 52.3304Z" fill="#444145"/>
<path d="M58.8717 50.0222C58.8717 48.8821 57.3672 47.9664 55.5169 47.9664C53.6667 47.9664 52.1528 48.9008 52.1528 50.0222C52.1528 51.1436 53.6573 52.078 55.5169 52.078C57.3765 52.078 58.8717 51.1623 58.8717 50.0222Z" fill="#EEC707"/>
<path d="M78.2338 48.5925L75.5986 47.3776C75.4556 47.3075 75.2998 47.2671 75.1407 47.2589C74.9816 47.2507 74.8224 47.2749 74.6729 47.33C74.5234 47.3851 74.3867 47.4699 74.271 47.5794C74.1552 47.6889 74.0629 47.8208 73.9996 47.967C73.9363 48.1132 73.9033 48.2708 73.9027 48.4301C73.9021 48.5894 73.9338 48.7472 73.9959 48.8939C74.058 49.0406 74.1493 49.1732 74.2642 49.2836C74.379 49.394 74.5151 49.48 74.6642 49.5363L77.3087 50.7044C77.4863 50.7791 77.5237 50.8913 77.5237 50.966C77.5217 51.0283 77.4998 51.0883 77.4611 51.1371C77.4223 51.1859 77.3689 51.221 77.3087 51.237L55.6851 60.7406C55.6164 60.773 55.5414 60.7898 55.4655 60.7898C55.3895 60.7898 55.3145 60.773 55.2459 60.7406L44.677 56.0682L52.5079 52.4705C55.3113 54.1806 59.9836 52.8723 59.9836 49.9942C59.9836 48.1813 57.9932 46.7609 55.4515 46.7609C52.592 46.7609 50.4894 48.5457 50.9753 50.5642L41.7708 54.7973L33.6409 51.237C33.5788 51.2253 33.5228 51.1923 33.4824 51.1437C33.4421 51.0951 33.42 51.0339 33.42 50.9707C33.42 50.9075 33.4421 50.8463 33.4824 50.7977C33.5228 50.749 33.5788 50.716 33.6409 50.7044L55.2459 41.1821C55.3161 41.1495 55.3927 41.1326 55.4702 41.1326C55.5476 41.1326 55.6242 41.1495 55.6944 41.1821L70.3282 47.658C70.4713 47.7281 70.6271 47.7686 70.7862 47.7767C70.9453 47.7849 71.1044 47.7608 71.2539 47.7057C71.4034 47.6506 71.5402 47.5657 71.6559 47.4562C71.7717 47.3467 71.864 47.2148 71.9273 47.0686C71.9906 46.9224 72.0235 46.7649 72.0242 46.6056C72.0248 46.4462 71.9931 46.2884 71.931 46.1417C71.8688 45.995 71.7776 45.8624 71.6627 45.752C71.5478 45.6416 71.4118 45.5556 71.2627 45.4994L62.7403 41.7615V14.0825C62.7379 13.0546 62.3304 12.0691 61.6062 11.3396C60.882 10.6102 59.8995 10.1956 58.8716 10.1857H48.1159V6.44784C48.0915 4.7389 47.3993 3.10735 46.1872 1.90232C44.9752 0.697282 43.3397 0.0144761 41.6306 0L37.1732 0C36.861 0 36.5615 0.124051 36.3407 0.344862C36.1198 0.565673 35.9958 0.865158 35.9958 1.17743C35.9958 1.48971 36.1198 1.78919 36.3407 2.01C36.5615 2.23081 36.861 2.35487 37.1732 2.35487H41.6306C42.1751 2.35241 42.7146 2.45736 43.2184 2.66371C43.7222 2.87007 44.1804 3.17377 44.5666 3.55743C44.9529 3.94109 45.2597 4.39718 45.4695 4.89957C45.6792 5.40197 45.7878 5.9408 45.789 6.48522V10.2231H43.9201V6.48522C43.9176 5.89861 43.6835 5.33672 43.2687 4.92192C42.8539 4.50711 42.292 4.27299 41.7054 4.27053H21.1284C20.5418 4.27299 19.9799 4.50711 19.5651 4.92192C19.1503 5.33672 18.9161 5.89861 18.9137 6.48522V10.2231H17.0447V6.48522C17.0472 5.39054 17.4832 4.3414 18.2572 3.56735C19.0313 2.79329 20.0804 2.35733 21.1751 2.35487H32.4542C32.7664 2.35487 33.0659 2.23081 33.2867 2.01C33.5075 1.78919 33.6316 1.48971 33.6316 1.17743C33.6316 0.865158 33.5075 0.565673 33.2867 0.344862C33.0659 0.124051 32.7664 4.65326e-09 32.4542 0L21.1284 0C19.4129 0.014642 17.7719 0.702606 16.5588 1.91566C15.3458 3.12872 14.6578 4.76977 14.6431 6.48522V10.2231H3.89674C2.8697 10.2231 1.88418 10.6285 1.15446 11.3512C0.424745 12.0739 0.00985166 13.0555 0 14.0825L0 42.6773C0 42.9895 0.124051 43.289 0.344862 43.5098C0.565673 43.7306 0.865158 43.8547 1.17743 43.8547C1.48971 43.8547 1.78919 43.7306 2.01 43.5098C2.23081 43.289 2.35487 42.9895 2.35487 42.6773V29.333C4.17123 31.8707 6.85374 33.6557 9.89604 34.3511V37.8087C9.89851 38.4762 10.1654 39.1156 10.6383 39.5867C11.1112 40.0579 11.7516 40.3224 12.4191 40.3224H15.9608C16.6267 40.3199 17.2646 40.0543 17.7355 39.5834C18.2064 39.1125 18.472 38.4746 18.4745 37.8087V34.6595H44.2752V37.8087C44.2777 38.4762 44.5446 39.1156 45.0175 39.5867C45.4904 40.0579 46.1307 40.3224 46.7983 40.3224H50.3399C51.0058 40.3199 51.6438 40.0543 52.1147 39.5834C52.5855 39.1125 52.8512 38.4746 52.8536 37.8087V34.3511C55.897 33.6582 58.5803 31.8726 60.3948 29.333V40.6775L56.6569 39.0235C56.2871 38.8616 55.8878 38.7781 55.4842 38.7781C55.0805 38.7781 54.6812 38.8616 54.3114 39.0235L32.7065 48.5925C32.2273 48.7915 31.8178 49.1281 31.5297 49.5597C31.2417 49.9913 31.0879 50.4985 31.0879 51.0174C31.0879 51.5363 31.2417 52.0436 31.5297 52.4751C31.8178 52.9067 32.2273 53.2433 32.7065 53.4424L36.8181 55.2552V56.0308H9.3447C7.49326 56.0284 5.71821 55.2924 4.40816 53.9841C3.09812 52.6758 2.35981 50.9018 2.35487 49.0503V47.3963C2.35487 47.0841 2.23081 46.7846 2.01 46.5638C1.78919 46.3429 1.48971 46.2189 1.17743 46.2189C0.865158 46.2189 0.565673 46.3429 0.344862 46.5638C0.124051 46.7846 0 47.0841 0 47.3963L0 49.0036C0 51.482 0.984528 53.8589 2.737 55.6113C4.48947 57.3638 6.86633 58.3483 9.3447 58.3483H36.8088V67.095C36.8088 68.8237 38.3133 70.2254 40.7149 71.2907V72.842L36.734 78.1217C36.5842 78.371 36.5319 78.6669 36.5872 78.9524C36.6425 79.2379 36.8016 79.4928 37.0337 79.6681C37.2658 79.8433 37.5545 79.9264 37.8443 79.9015C38.134 79.8765 38.4043 79.7451 38.603 79.5328L40.6962 76.7294V78.8039C40.6962 79.1162 40.8202 79.4156 41.041 79.6365C41.2619 79.8573 41.5613 79.9813 41.8736 79.9813C42.1859 79.9813 42.4854 79.8573 42.7062 79.6365C42.927 79.4156 43.051 79.1162 43.051 78.8039V76.748L45.1443 79.5515C45.2293 79.6929 45.3432 79.8149 45.4784 79.9096C45.6137 80.0042 45.7673 80.0693 45.9294 80.1007C46.0914 80.1321 46.2583 80.1291 46.4191 80.0919C46.5799 80.0546 46.7311 79.9839 46.8628 79.8845C46.9946 79.785 47.1039 79.659 47.1838 79.5145C47.2637 79.37 47.3123 79.2104 47.3265 79.0459C47.3406 78.8815 47.3201 78.7159 47.2661 78.5599C47.2121 78.4039 47.126 78.261 47.0132 78.1404L43.0324 72.8606V72.1598C54.003 75.4118 74.0848 73.44 74.0848 67.1137V55.2085L78.1965 53.3956C78.6757 53.1966 79.0851 52.86 79.3732 52.4284C79.6612 51.9968 79.815 51.4896 79.815 50.9707C79.815 50.4518 79.6612 49.9445 79.3732 49.5129C79.0851 49.0814 78.6757 48.7448 78.1965 48.5457L78.2338 48.5925ZM55.4702 49.1905C56.8999 49.1905 57.6475 49.8446 57.6475 50.0689C57.6475 50.2932 56.8999 50.9473 55.4702 50.9473C54.0404 50.9473 53.2648 50.2465 53.2648 50.0222C53.2648 49.7979 54.0404 49.1438 55.4702 49.1438V49.1905ZM21.2685 6.62539H41.4811V10.1857H21.2685V6.62539ZM16.1196 37.8087C16.1174 37.8501 16.0999 37.8892 16.0706 37.9185C16.0413 37.9478 16.0022 37.9653 15.9608 37.9675H12.4191C12.3761 37.9676 12.3346 37.9512 12.3034 37.9216C12.2721 37.8921 12.2533 37.8516 12.2509 37.8087V34.6502H16.1196V37.8087ZM16.1196 32.2953H12.2509V29.0714C12.2509 29.0268 12.2686 28.984 12.3002 28.9524C12.3317 28.9209 12.3745 28.9032 12.4191 28.9032H15.9608C16.0037 28.9056 16.0441 28.9243 16.0737 28.9556C16.1032 28.9869 16.1197 29.0283 16.1196 29.0714V32.2953ZM50.4614 37.8087C50.4591 37.8501 50.4417 37.8892 50.4124 37.9185C50.3831 37.9478 50.3439 37.9653 50.3025 37.9675H46.7983C46.7552 37.9676 46.7138 37.9512 46.6825 37.9216C46.6512 37.8921 46.6325 37.8516 46.6301 37.8087V34.6595H50.4614V37.8087ZM50.4614 32.2859H46.6301V29.0714C46.6301 29.0268 46.6478 28.984 46.6793 28.9524C46.7109 28.9209 46.7537 28.9032 46.7983 28.9032H50.3399C50.3829 28.9056 50.4233 28.9243 50.4529 28.9556C50.4824 28.9869 50.4988 29.0283 50.4988 29.0714L50.4614 32.2859ZM52.8163 31.9122V29.1087C52.8163 28.4412 52.5517 27.8009 52.0806 27.328C51.6094 26.8551 50.9701 26.5882 50.3025 26.5857H46.7983C46.4669 26.5857 46.1388 26.6509 45.8327 26.7777C45.5266 26.9045 45.2485 27.0904 45.0142 27.3247C44.7799 27.559 44.5941 27.8371 44.4673 28.1432C44.3405 28.4493 44.2752 28.7774 44.2752 29.1087V32.3327H18.4745V29.0714C18.4745 28.4038 18.2099 27.7635 17.7388 27.2906C17.2676 26.8177 16.6283 26.5508 15.9608 26.5483H12.4191C11.7499 26.5483 11.1082 26.8141 10.635 27.2873C10.1619 27.7605 9.89604 28.4022 9.89604 29.0714V31.8748C7.73412 31.2693 5.82842 29.9758 4.46764 28.1901C3.10686 26.4044 2.36515 24.2238 2.35487 21.9787V14.0825C2.35486 13.8804 2.39481 13.6804 2.47241 13.4938C2.55001 13.3073 2.66373 13.1379 2.80703 12.9955C2.95033 12.8531 3.12038 12.7404 3.3074 12.6639C3.49441 12.5874 3.6947 12.5487 3.89674 12.5499H58.8716C59.2781 12.5499 59.6679 12.7114 59.9553 12.9988C60.2427 13.2862 60.4042 13.676 60.4042 14.0825V21.9787C60.4014 24.2314 59.6621 26.4214 58.2989 28.2148C56.9357 30.0083 55.0234 31.3067 52.8536 31.9122H52.8163ZM40.6681 68.6649C39.5001 68.0014 39.1263 67.4127 39.1263 67.0856V56.2551L40.6681 56.9279V68.6649ZM71.7673 67.0856C71.7673 67.5902 70.8328 68.7396 67.4781 69.7862C60.9368 71.8047 49.9755 71.9075 43.0697 69.6648V57.9372C44.1911 58.4511 42.5558 57.7222 54.2834 62.8992C54.6532 63.061 55.0525 63.1446 55.4561 63.1446C55.8598 63.1446 56.2591 63.061 56.6289 62.8992L71.7673 56.2551V67.0856Z" fill="black"/>
</g>
<defs>
<clipPath id="clip0">
<rect width="79.8598" height="80" fill="white"/>
</clipPath>
</defs>
</svg>
