<svg width="85" height="80" viewBox="0 0 85 80" fill="none" xmlns="http://www.w3.org/2000/svg">
<g clip-path="url(#clip0)">
<path d="M54.2837 33.3586C53.2888 33.2854 52.2901 33.4371 51.3617 33.8022C50.4334 34.1674 49.599 34.7367 48.9206 35.4681C48.7637 35.6361 48.5741 35.7703 48.3636 35.8625C48.153 35.9548 47.9258 36.003 47.696 36.0044H43.7988C43.3578 36.0044 42.9349 35.8293 42.6231 35.5175C42.3114 35.2057 42.1362 34.7828 42.1362 34.3418V22.8648C42.1362 21.9829 41.7859 21.1371 41.1623 20.5135C40.5387 19.8899 39.6929 19.5396 38.8111 19.5396H4.55854C3.67666 19.5396 2.83089 19.8899 2.20731 20.5135C1.58372 21.1371 1.2334 21.9829 1.2334 22.8648V57.1351C1.23576 58.0163 1.58684 58.8607 2.20992 59.4838C2.83299 60.1068 3.67738 60.4579 4.55854 60.4603H16.0893C16.5302 60.4603 16.9531 60.2851 17.2649 59.9733C17.5767 59.6615 17.7518 59.2387 17.7518 58.7977V54.9094C17.7488 54.679 17.6989 54.4516 17.6051 54.2411C17.5114 54.0306 17.3758 53.8413 17.2066 53.6849C16.2274 52.7738 15.5453 51.5889 15.2491 50.2846C14.9528 48.9804 15.0562 47.6171 15.5457 46.3724C16.0352 45.1278 16.8882 44.0593 17.9936 43.3063C19.0989 42.5532 20.4054 42.1505 21.7429 42.1505C23.0804 42.1505 24.3869 42.5532 25.4922 43.3063C26.5976 44.0593 27.4506 45.1278 27.9401 46.3724C28.4296 47.6171 28.533 48.9804 28.2367 50.2846C27.9405 51.5889 27.2584 52.7738 26.2792 53.6849C26.11 53.8413 25.9744 54.0306 25.8807 54.2411C25.7869 54.4516 25.737 54.679 25.734 54.9094V58.7977C25.734 59.2387 25.9091 59.6615 26.2209 59.9733C26.5327 60.2851 26.9556 60.4603 27.3965 60.4603H38.8379C39.7198 60.4603 40.5655 60.11 41.1891 59.4864C41.8127 58.8628 42.163 58.017 42.163 57.1351V45.658C42.1629 45.2217 42.3344 44.8028 42.6404 44.4918C42.9465 44.1808 43.3625 44.0025 43.7988 43.9955H47.6781C47.9095 43.9956 48.1383 44.0433 48.3505 44.1356C48.5627 44.2278 48.7537 44.3627 48.9116 44.5318C49.6504 45.3219 50.5707 45.9198 51.5929 46.2738C52.615 46.6277 53.708 46.727 54.7772 46.5631C55.8463 46.3991 56.8594 45.9768 57.7285 45.3328C58.5975 44.6888 59.2964 43.8426 59.7645 42.8674C60.2325 41.8923 60.4557 40.8177 60.4146 39.7368C60.3734 38.6559 60.0693 37.6013 59.5284 36.6646C58.9876 35.7278 58.2265 34.9371 57.311 34.361C56.3955 33.7849 55.3533 33.4409 54.2747 33.3586H54.2837Z" fill="#DD1449"/>
<path d="M68.2815 60.4603H79.7586C80.1993 60.4674 80.6371 60.3866 81.0462 60.2226C81.4553 60.0586 81.8277 59.8147 82.1414 59.5051C82.4552 59.1955 82.7041 58.8264 82.8736 58.4195C83.043 58.0126 83.1297 57.576 83.1284 57.1352V22.8648C83.1296 22.4278 83.0444 21.9949 82.8777 21.5909C82.711 21.187 82.4661 20.8199 82.1571 20.5109C81.8481 20.2019 81.4811 19.957 81.0771 19.7904C80.6732 19.6237 80.2403 19.5385 79.8033 19.5396H68.2815C67.8413 19.5373 67.4198 19.3614 67.1085 19.0501C66.7972 18.7388 66.6213 18.3173 66.6189 17.8771V13.9888C66.6192 13.7588 66.667 13.5313 66.7593 13.3206C66.8516 13.1099 66.9864 12.9205 67.1552 12.7642C68.1356 11.8537 68.819 10.6689 69.1162 9.36432C69.4134 8.05975 69.3108 6.69589 68.8217 5.4505C68.3325 4.20511 67.4796 3.13594 66.374 2.38236C65.2684 1.62877 63.9614 1.22571 62.6234 1.22571C61.2854 1.22571 59.9784 1.62877 58.8728 2.38236C57.7672 3.13594 56.9142 4.20511 56.4251 5.4505C55.936 6.69589 55.8333 8.05975 56.1306 9.36432C56.4278 10.6689 57.1112 11.8537 58.0915 12.7642C58.2606 12.9221 58.3955 13.1131 58.4878 13.3253C58.58 13.5375 58.6277 13.7664 58.6279 13.9977V17.8771C58.6279 18.3188 58.453 18.7427 58.1415 19.0559C57.8299 19.3691 57.4071 19.5462 56.9653 19.5486H45.4882C45.0512 19.5474 44.6183 19.6326 44.2143 19.7993C43.8104 19.966 43.4433 20.2109 43.1343 20.5199C42.8253 20.8289 42.5805 21.1959 42.4138 21.5999C42.2471 22.0038 42.1619 22.4367 42.1631 22.8737V34.3419C42.163 34.7782 42.3345 35.1971 42.6405 35.5081C42.9465 35.8191 43.3625 35.9974 43.7988 36.0045H47.6871C47.9169 36.0031 48.1441 35.9548 48.3547 35.8626C48.5652 35.7704 48.7548 35.6361 48.9117 35.4681C49.8217 34.4907 51.005 33.81 52.3074 33.5145C53.6098 33.219 54.971 33.3225 56.2138 33.8115C57.4565 34.3005 58.5233 35.1524 59.2751 36.2561C60.0269 37.3599 60.429 38.6645 60.429 40C60.429 41.3355 60.0269 42.6401 59.2751 43.7438C58.5233 44.8476 57.4565 45.6994 56.2138 46.1884C54.971 46.6774 53.6098 46.7809 52.3074 46.4855C51.005 46.19 49.8217 45.5092 48.9117 44.5318C48.7548 44.3638 48.5652 44.2296 48.3547 44.1374C48.1441 44.0452 47.9169 43.9969 47.6871 43.9955H43.7988C43.3579 43.9955 42.935 44.1707 42.6232 44.4825C42.3114 44.7943 42.1362 45.2171 42.1362 45.6581V57.1352C42.1351 57.5722 42.2203 58.0051 42.387 58.409C42.5536 58.813 42.7985 59.18 43.1075 59.489C43.4165 59.798 43.7836 60.0429 44.1875 60.2096C44.5915 60.3763 45.0244 60.4615 45.4614 60.4603H56.9653C57.1836 60.4603 57.3998 60.5033 57.6015 60.5869C57.8032 60.6704 57.9865 60.7929 58.1409 60.9473C58.2953 61.1017 58.4178 61.2849 58.5013 61.4866C58.5849 61.6884 58.6279 61.9046 58.6279 62.1229V66.0112C58.6275 66.2412 58.5797 66.4687 58.4875 66.6794C58.3952 66.8901 58.2604 67.0795 58.0915 67.2357C57.1112 68.1463 56.4278 69.3311 56.1306 70.6356C55.8333 71.9402 55.936 73.3041 56.4251 74.5495C56.9142 75.7949 57.7672 76.864 58.8728 77.6176C59.9784 78.3712 61.2854 78.7743 62.6234 78.7743C63.9614 78.7743 65.2684 78.3712 66.374 77.6176C67.4796 76.864 68.3325 75.7949 68.8217 74.5495C69.3108 73.3041 69.4134 71.9402 69.1162 70.6356C68.819 69.3311 68.1356 68.1463 67.1552 67.2357C66.9864 67.0795 66.8516 66.8901 66.7593 66.6794C66.667 66.4687 66.6192 66.2412 66.6189 66.0112V62.1229C66.6189 61.6819 66.7941 61.2591 67.1059 60.9473C67.4177 60.6355 67.8406 60.4603 68.2815 60.4603Z" fill="#AC80DD"/>
<path d="M56.5542 53.81C51.4881 53.819 46.5144 52.4536 42.1631 49.8592V57.1352C42.1631 58.0171 42.5134 58.8628 43.137 59.4864C43.7606 60.11 44.6063 60.4603 45.4882 60.4603H56.9653C57.1837 60.4603 57.3998 60.5033 57.6016 60.5869C57.8033 60.6704 57.9866 60.7929 58.1409 60.9473C58.2953 61.1017 58.4178 61.2849 58.5013 61.4866C58.5849 61.6884 58.6279 61.9045 58.6279 62.1229V66.0111C58.6276 66.2412 58.5798 66.4687 58.4875 66.6794C58.3952 66.8901 58.2604 67.0795 58.0916 67.2357C57.1112 68.1463 56.4279 69.3311 56.1306 70.6356C55.8334 71.9402 55.936 73.3041 56.4251 74.5495C56.9143 75.7948 57.7672 76.864 58.8728 77.6176C59.9784 78.3712 61.2854 78.7742 62.6234 78.7742C63.9614 78.7742 65.2684 78.3712 66.374 77.6176C67.4796 76.864 68.3326 75.7948 68.8217 74.5495C69.3108 73.3041 69.4135 71.9402 69.1162 70.6356C68.819 69.3311 68.1356 68.1463 67.1553 67.2357C66.9873 67.0788 66.853 66.8893 66.7608 66.6787C66.6686 66.4682 66.6203 66.241 66.619 66.0111V62.1229C66.619 61.6819 66.7941 61.2591 67.1059 60.9473C67.4177 60.6355 67.8406 60.4603 68.2815 60.4603H79.7586C80.199 60.4662 80.6362 60.3846 81.0448 60.2201C81.4534 60.0557 81.8253 59.8117 82.1388 59.5023C82.4523 59.193 82.7012 58.8244 82.8711 58.4181C83.041 58.0117 83.1285 57.5756 83.1285 57.1352V35.1732C81.157 40.6379 77.5465 45.3607 72.7901 48.6963C68.0338 52.032 62.3636 53.8179 56.5542 53.81Z" fill="#9D66D5"/>
<path d="M60.4425 39.5262C60.3508 38.2337 59.8836 36.996 59.0981 35.9654C58.3126 34.9348 57.2432 34.1561 56.0212 33.725C54.7992 33.294 53.4779 33.2293 52.2196 33.5389C50.9613 33.8486 49.8209 34.5191 48.9386 35.4681C48.7817 35.6361 48.5922 35.7703 48.3816 35.8626C48.171 35.9548 47.9439 36.003 47.714 36.0044H43.7989C43.5542 36.0064 43.3124 35.9514 43.0928 35.8435C41.1889 41.7966 35.5933 46.5698 28.3263 48.6882V48.8134C28.3274 49.7274 28.1399 50.6319 27.7753 51.4702C27.4108 52.3084 26.8772 53.0624 26.2078 53.6849C26.0386 53.8413 25.903 54.0306 25.8093 54.2411C25.7156 54.4516 25.6656 54.679 25.6626 54.9095V58.7977C25.6626 59.2387 25.8378 59.6615 26.1496 59.9733C26.4613 60.2851 26.8842 60.4603 27.3252 60.4603H38.838C39.7199 60.4603 40.5657 60.11 41.1892 59.4864C41.8128 58.8628 42.1632 58.017 42.1632 57.1352V45.6581C42.1631 45.2217 42.3346 44.8029 42.6406 44.4918C42.9466 44.1808 43.3626 44.0025 43.7989 43.9955H47.6782C47.9096 43.9957 48.1385 44.0433 48.3507 44.1356C48.5629 44.2278 48.7538 44.3627 48.9118 44.5318C49.8491 45.5402 51.0763 46.2328 52.424 46.514C53.7717 46.7952 55.1735 46.6513 56.4359 46.102C57.6984 45.5527 58.7592 44.6251 59.472 43.4473C60.1849 42.2694 60.5146 40.8994 60.4157 39.5262H60.4425Z" fill="#BA0C42"/>
<path d="M1.23352 49.6715C1.56067 49.6715 1.87442 49.5415 2.10575 49.3102C2.33708 49.0789 2.46704 48.7651 2.46704 48.438V22.8648C2.46704 22.31 2.68741 21.778 3.07966 21.3858C3.47192 20.9935 4.00393 20.7732 4.55866 20.7732H17.162C17.4722 20.7468 17.7612 20.6049 17.9717 20.3757C18.1823 20.1464 18.2992 19.8465 18.2992 19.5352C18.2992 19.2239 18.1823 18.9239 17.9717 18.6947C17.7612 18.4654 17.4722 18.3236 17.162 18.2972H4.55866C3.34881 18.2995 2.18932 18.7818 1.33466 19.6382C0.479998 20.4945 -2.31665e-06 21.6549 0 22.8648L0 48.438C0 48.7651 0.12996 49.0789 0.36129 49.3102C0.592619 49.5415 0.90637 49.6715 1.23352 49.6715Z" fill="black"/>
<path d="M83.1285 36.2905C83.2912 36.2917 83.4526 36.2606 83.6033 36.1992C83.754 36.1377 83.891 36.047 84.0065 35.9324C84.122 35.8177 84.2137 35.6813 84.2762 35.5311C84.3388 35.3808 84.3709 35.2197 84.3709 35.057V22.8648C84.3709 21.6534 83.8897 20.4916 83.0331 19.635C82.1765 18.7784 81.0148 18.2972 79.8034 18.2972H68.2816C68.2249 18.2984 68.1685 18.2881 68.1159 18.267C68.0633 18.2459 68.0156 18.2143 67.9755 18.1742C67.9354 18.1341 67.9038 18.0864 67.8827 18.0338C67.8616 17.9811 67.8513 17.9248 67.8525 17.8681V13.9888C67.8561 13.8669 67.9075 13.7514 67.9955 13.667C69.1597 12.5888 69.9719 11.1847 70.326 9.6379C70.6802 8.09112 70.5599 6.47352 69.9809 4.99614C69.4018 3.51876 68.3909 2.25023 67.08 1.35605C65.7692 0.461874 64.2192 -0.0164185 62.6324 -0.0164185C61.0456 -0.0164185 59.4956 0.461874 58.1848 1.35605C56.8739 2.25023 55.863 3.51876 55.2839 4.99614C54.7049 6.47352 54.5846 8.09112 54.9388 9.6379C55.2929 11.1847 56.1051 12.5888 57.2693 13.667C57.3152 13.7094 57.3522 13.7604 57.3783 13.8172C57.4044 13.874 57.419 13.9353 57.4212 13.9977V17.8771C57.4224 17.9337 57.4122 17.9901 57.391 18.0427C57.3699 18.0953 57.3384 18.1431 57.2983 18.1832C57.2582 18.2233 57.2104 18.2548 57.1578 18.2759C57.1052 18.2971 57.0489 18.3073 56.9922 18.3061H45.4883C44.8644 18.3066 44.2472 18.4354 43.6752 18.6845C43.1031 18.9336 42.5885 19.2977 42.1631 19.7542C41.7371 19.2985 41.2223 18.935 40.6504 18.686C40.0786 18.4369 39.4617 18.3077 38.838 18.3061H22.9274C22.6172 18.3325 22.3282 18.4744 22.1176 18.7036C21.9071 18.9329 21.7902 19.2328 21.7902 19.5441C21.7902 19.8554 21.9071 20.1554 22.1176 20.3846C22.3282 20.6139 22.6172 20.7557 22.9274 20.7821H38.838C39.3927 20.7821 39.9247 21.0025 40.317 21.3947C40.7092 21.787 40.9296 22.319 40.9296 22.8737V34.3419C40.9296 35.1053 41.231 35.8379 41.7684 36.3803C42.3057 36.9227 43.0354 37.2309 43.7989 37.238H47.6871C48.0837 37.2401 48.4766 37.162 48.8422 37.0084C49.2078 36.8548 49.5385 36.6288 49.8145 36.3441C50.5558 35.5481 51.5196 34.9937 52.5804 34.7531C53.6413 34.5125 54.7499 34.5969 55.7621 34.9952C56.7743 35.3936 57.6431 36.0874 58.2555 36.9864C58.8678 37.8854 59.1953 38.948 59.1953 40.0357C59.1953 41.1235 58.8678 42.186 58.2555 43.085C57.6431 43.9841 56.7743 44.6779 55.7621 45.0762C54.7499 45.4746 53.6413 45.5589 52.5804 45.3183C51.5196 45.0777 50.5558 44.5234 49.8145 43.7273C49.542 43.4349 49.2129 43.2009 48.8472 43.0396C48.4815 42.8783 48.0868 42.7929 47.6871 42.7888H43.7989C43.03 42.7912 42.2934 43.0983 41.7505 43.6428C41.2076 44.1874 40.9028 44.9249 40.9028 45.6938V57.1352C40.9028 57.6899 40.6824 58.2219 40.2902 58.6142C39.8979 59.0064 39.3659 59.2268 38.8112 59.2268H27.352C27.2389 59.2245 27.1311 59.1786 27.0511 59.0986C26.9711 59.0186 26.9252 58.9108 26.9229 58.7977V54.9095C26.9298 54.7865 26.9843 54.6711 27.0749 54.5877C28.2391 53.5094 29.0512 52.1053 29.4054 50.5586C29.7595 49.0118 29.6392 47.3942 29.0602 45.9168C28.4811 44.4394 27.4702 43.1709 26.1594 42.2767C24.8485 41.3825 23.2985 40.9042 21.7117 40.9042C20.1249 40.9042 18.575 41.3825 17.2641 42.2767C15.9532 43.1709 14.9423 44.4394 14.3633 45.9168C13.7842 47.3942 13.6639 49.0118 14.0181 50.5586C14.3722 52.1053 15.1844 53.5094 16.3486 54.5877C16.395 54.6277 16.4326 54.677 16.4587 54.7324C16.4849 54.7879 16.4992 54.8482 16.5006 54.9095V58.7977C16.5006 58.9115 16.4554 59.0207 16.3749 59.1011C16.2944 59.1816 16.1853 59.2268 16.0715 59.2268H4.55866C4.00393 59.2268 3.47192 59.0064 3.07966 58.6142C2.68741 58.2219 2.46704 57.6899 2.46704 57.1352V54.2033C2.46704 53.8762 2.33708 53.5624 2.10575 53.3311C1.87442 53.0998 1.56067 52.9698 1.23352 52.9698C0.90637 52.9698 0.592619 53.0998 0.36129 53.3311C0.12996 53.5624 0 53.8762 0 54.2033L0 57.1352C0.00707341 58.3404 0.490197 59.4939 1.34409 60.3445C2.19799 61.195 3.35344 61.6736 4.55866 61.6759H16.0894C16.8568 61.6736 17.592 61.3677 18.1346 60.8251C18.6772 60.2825 18.9831 59.5472 18.9855 58.7799V54.9095C18.9834 54.5094 18.8991 54.1141 18.7376 53.7481C18.5761 53.3821 18.341 53.0533 18.0469 52.7821C17.2747 52.0631 16.7293 51.1343 16.4776 50.1097C16.226 49.085 16.279 48.0092 16.6303 47.0143C16.9815 46.0194 17.6157 45.1488 18.4549 44.5093C19.2941 43.8698 20.3018 43.4893 21.3542 43.4145C22.4728 43.3328 23.5892 43.6003 24.5492 44.1802C25.5093 44.76 26.2657 45.6236 26.714 46.6517C27.1623 47.6798 27.2805 48.8217 27.0521 49.9198C26.8237 51.0179 26.2601 52.018 25.4391 52.7821C25.145 53.0533 24.9099 53.3821 24.7484 53.7481C24.587 54.1141 24.5026 54.5094 24.5006 54.9095V58.7977C24.5051 59.555 24.8062 60.2804 25.3392 60.8184C25.8722 61.3565 26.5947 61.6643 27.352 61.6759H38.838C39.4612 61.6761 40.0778 61.5485 40.6497 61.3009C41.2216 61.0534 41.7367 60.6913 42.1631 60.2368C42.5892 60.6917 43.1043 61.0541 43.6763 61.3017C44.2483 61.5492 44.865 61.6766 45.4883 61.6759H56.9654C57.0217 61.6759 57.0775 61.687 57.1296 61.7086C57.1816 61.7302 57.2289 61.7618 57.2687 61.8016C57.3086 61.8415 57.3402 61.8888 57.3618 61.9408C57.3833 61.9929 57.3944 62.0487 57.3944 62.105V65.9933C57.393 66.0546 57.3788 66.1149 57.3526 66.1703C57.3264 66.2257 57.2889 66.275 57.2425 66.3151C56.4501 67.0528 55.8182 67.9459 55.3862 68.9385C54.9541 69.9312 54.7311 71.0023 54.7311 72.0849C54.7311 73.1675 54.9541 74.2385 55.3862 75.2312C55.8182 76.2239 56.4501 77.117 57.2425 77.8547C58.6917 79.2245 60.6114 79.986 62.6056 79.9821H63.1777C64.711 79.8729 66.1791 79.3183 67.4016 78.3864C68.6242 77.4546 69.548 76.186 70.0597 74.7364C70.5713 73.2869 70.6486 71.7194 70.2819 70.2266C69.9152 68.7337 69.1206 67.3805 67.9955 66.3329C67.9491 66.2929 67.9116 66.2436 67.8854 66.1882C67.8592 66.1327 67.845 66.0724 67.8436 66.0111V62.1229C67.8436 62.0091 67.8888 61.9 67.9692 61.8195C68.0497 61.739 68.1588 61.6938 68.2726 61.6938H79.7587C80.9685 61.6938 82.1289 61.2138 82.9853 60.3592C83.8416 59.5045 84.3239 58.345 84.3263 57.1352V40.8223C84.2999 40.5121 84.158 40.2232 83.9288 40.0126C83.6995 39.802 83.3996 39.6852 83.0883 39.6852C82.777 39.6852 82.477 39.802 82.2478 40.0126C82.0185 40.2232 81.8767 40.5121 81.8503 40.8223V57.1352C81.8503 57.6899 81.6299 58.2219 81.2377 58.6142C80.8454 59.0064 80.3134 59.2268 79.7587 59.2268H68.2816C67.5135 59.2268 66.7768 59.5319 66.2337 60.075C65.6906 60.6182 65.3855 61.3548 65.3855 62.1229V66.0111C65.3833 66.4077 65.4614 66.8006 65.615 67.1662C65.7686 67.5318 65.9946 67.8625 66.2793 68.1385C67.0753 68.8798 67.6297 69.8436 67.8703 70.9044C68.1109 71.9652 68.0265 73.0739 67.6282 74.0861C67.2299 75.0983 66.536 75.9671 65.637 76.5794C64.738 77.1918 63.6754 77.5193 62.5877 77.5193C61.5 77.5193 60.4374 77.1918 59.5384 76.5794C58.6394 75.9671 57.9455 75.0983 57.5472 74.0861C57.1489 73.0739 57.0645 71.9652 57.3051 70.9044C57.5457 69.8436 58.1001 68.8798 58.8961 68.1385C59.1804 67.8622 59.4061 67.5314 59.5597 67.1659C59.7133 66.8003 59.7916 66.4076 59.7899 66.0111V62.1229C59.7876 61.354 59.4805 60.6174 58.9359 60.0745C58.3914 59.5316 57.6538 59.2268 56.8849 59.2268H45.4883C44.9335 59.2268 44.4015 59.0064 44.0093 58.6142C43.617 58.2219 43.3966 57.6899 43.3966 57.1352V45.6581C43.3942 45.5481 43.435 45.4416 43.5102 45.3614C43.5854 45.2812 43.689 45.2337 43.7989 45.229H47.6871C47.7484 45.2304 47.8087 45.2447 47.8642 45.2708C47.9196 45.297 47.9689 45.3345 48.0089 45.381C48.7467 46.1733 49.6398 46.8052 50.6324 47.2373C51.6251 47.6693 52.6961 47.8923 53.7788 47.8923C54.8614 47.8923 55.9324 47.6693 56.9251 47.2373C57.9178 46.8052 58.8108 46.1733 59.5486 45.381C60.2963 44.5921 60.8717 43.6562 61.2379 42.6328C61.6042 41.6094 61.7534 40.521 61.676 39.4368C61.569 37.9034 61.0161 36.4347 60.0853 35.2114C59.1545 33.988 57.8864 33.0635 56.437 32.5516C54.9875 32.0396 53.4201 31.9626 51.9274 32.3299C50.4348 32.6972 49.0821 33.4929 48.0358 34.619C47.9957 34.6654 47.9464 34.7029 47.891 34.7291C47.8356 34.7553 47.7752 34.7695 47.714 34.7709H43.7989C43.6851 34.7709 43.576 34.7257 43.4955 34.6453C43.415 34.5648 43.3698 34.4557 43.3698 34.3419V22.8648C43.3698 22.31 43.5902 21.778 43.9825 21.3858C44.3747 20.9935 44.9067 20.7732 45.4615 20.7732H56.9654C57.7367 20.7755 58.4774 20.472 59.0253 19.9292C59.5732 19.3863 59.8835 18.6483 59.8883 17.8771V13.9888C59.8901 13.591 59.8119 13.1969 59.6583 12.8299C59.5048 12.4629 59.279 12.1305 58.9944 11.8525C58.1797 11.0922 57.6193 10.0991 57.3897 9.00865C57.16 7.9182 57.2723 6.78345 57.7111 5.75914C58.15 4.73482 58.8941 3.87078 59.8419 3.28483C60.7898 2.69888 61.8954 2.41954 63.0078 2.48489C64.0622 2.55804 65.0721 2.93804 65.9132 3.57806C66.7542 4.21808 67.3897 5.09017 67.7412 6.08687C68.0928 7.08358 68.1451 8.16135 67.8917 9.18741C67.6383 10.2135 67.0902 11.143 66.3151 11.8614C66.0287 12.1362 65.8016 12.4667 65.6479 12.8326C65.4941 13.1984 65.417 13.592 65.4212 13.9888V17.8771C65.4212 18.646 65.7261 19.3835 66.2689 19.9281C66.8118 20.4726 67.5484 20.7797 68.3173 20.7821H79.7587C80.3134 20.7821 80.8454 21.0025 81.2377 21.3947C81.6299 21.787 81.8503 22.319 81.8503 22.8737V35.057C81.8502 35.2228 81.8835 35.3869 81.9483 35.5396C82.013 35.6922 82.1079 35.8302 82.2272 35.9454C82.3465 36.0605 82.4879 36.1504 82.6427 36.2097C82.7976 36.269 82.9628 36.2965 83.1285 36.2905Z" fill="black"/>
</g>
<defs>
<clipPath id="clip0">
<rect width="84.3263" height="80" fill="white"/>
</clipPath>
</defs>
</svg>
