<svg width="82" height="80" viewBox="0 0 82 80" fill="none" xmlns="http://www.w3.org/2000/svg">
<g clip-path="url(#clip0)">
<path d="M50.054 74.6694H31.8086L37.4788 46.4523H44.3838L50.054 74.6694Z" fill="#62A6FD"/>
<path d="M43.221 46.4523L37.5508 74.6694H31.8086L37.4788 46.4523H43.221Z" fill="#4394FB"/>
<path d="M55.4054 78.7754H26.4576C25.9463 78.7754 25.4557 78.573 25.0932 78.2124C24.7307 77.8518 24.5257 77.3624 24.5229 76.851V74.3813C24.5257 73.87 24.7307 73.3805 25.0932 73.0199C25.4557 72.6593 25.9463 72.4569 26.4576 72.4569H55.4054C55.9167 72.4569 56.4072 72.6593 56.7698 73.0199C57.1323 73.3805 57.3373 73.87 57.34 74.3813V76.851C57.3373 77.3624 57.1323 77.8518 56.7698 78.2124C56.4072 78.573 55.9167 78.7754 55.4054 78.7754Z" fill="#81B8FD"/>
<path d="M32.1998 78.7754H26.4576C25.9463 78.7754 25.4557 78.573 25.0932 78.2124C24.7307 77.8518 24.5257 77.3624 24.5229 76.851V74.3813C24.5257 73.87 24.7307 73.3805 25.0932 73.0199C25.4557 72.6593 25.9463 72.4569 26.4576 72.4569H32.1998C31.6885 72.4569 31.198 72.6593 30.8354 73.0199C30.4729 73.3805 30.2679 73.87 30.2652 74.3813V76.851C30.2679 77.3624 30.4729 77.8518 30.8354 78.2124C31.198 78.573 31.6885 78.7754 32.1998 78.7754Z" fill="#62A6FD"/>
<path d="M80.6383 4.18832V55.3846C80.6383 56.1706 80.326 56.9245 79.7702 57.4803C79.2144 58.0361 78.4606 58.3483 77.6745 58.3483H4.18856C3.79984 58.3483 3.41495 58.2716 3.05595 58.1225C2.69695 57.9735 2.37091 57.755 2.09652 57.4797C1.82213 57.2043 1.6048 56.8775 1.45698 56.518C1.30916 56.1585 1.23377 55.7733 1.23513 55.3846V4.18832C1.23377 3.80008 1.30923 3.41542 1.45717 3.05648C1.60511 2.69754 1.82261 2.37141 2.09713 2.09689C2.37166 1.82237 2.69778 1.60487 3.05672 1.45693C3.41566 1.30899 3.80033 1.23352 4.18856 1.23488H77.6745C78.0633 1.23353 78.4484 1.30892 78.8079 1.45674C79.1675 1.60456 79.4942 1.82189 79.7696 2.09628C80.0449 2.37066 80.2634 2.6967 80.4125 3.0557C80.5615 3.4147 80.6383 3.7996 80.6383 4.18832Z" fill="#C0DBFF"/>
<path d="M9.93078 58.3483H4.18856C3.79984 58.3483 3.41495 58.2716 3.05595 58.1225C2.69695 57.9735 2.37091 57.755 2.09652 57.4797C1.82213 57.2043 1.6048 56.8775 1.45698 56.518C1.30916 56.1585 1.23377 55.7733 1.23513 55.3846V4.18832C1.23377 3.80008 1.30923 3.41542 1.45717 3.05648C1.60511 2.69754 1.82261 2.37141 2.09713 2.09689C2.37166 1.82237 2.69778 1.60487 3.05672 1.45693C3.41566 1.30899 3.80033 1.23352 4.18856 1.23488H9.93078C9.54255 1.23352 9.15788 1.30899 8.79894 1.45693C8.44 1.60487 8.11388 1.82237 7.83935 2.09689C7.56483 2.37141 7.34733 2.69754 7.19939 3.05648C7.05145 3.41542 6.97598 3.80008 6.97734 4.18832V55.3846C6.97599 55.7733 7.05138 56.1585 7.1992 56.518C7.34702 56.8775 7.56435 57.2043 7.83874 57.4797C8.11312 57.755 8.43917 57.9735 8.79817 58.1225C9.15717 58.2716 9.54206 58.3483 9.93078 58.3483Z" fill="#A0CAFE"/>
<path d="M8.2326 8.7265H73.6198C73.8216 8.72915 74.0208 8.77188 74.2059 8.8522C74.3911 8.93251 74.5584 9.04882 74.6982 9.19435C74.838 9.33989 74.9474 9.51175 75.0202 9.69996C75.093 9.88817 75.1277 10.089 75.1222 10.2907V39.1047C75.1195 39.5068 74.9579 39.8916 74.6725 40.175C74.3872 40.4584 74.0014 40.6174 73.5992 40.6174H8.2326C7.8314 40.6174 7.44663 40.458 7.16294 40.1744C6.87925 39.8907 6.71987 39.5059 6.71987 39.1047V10.2907C6.71296 10.0877 6.74698 9.88549 6.81991 9.69598C6.89283 9.50646 7.00316 9.33357 7.14433 9.18761C7.28549 9.04164 7.4546 8.92559 7.64157 8.84637C7.82854 8.76715 8.02954 8.72638 8.2326 8.7265Z" fill="#FFF5F4"/>
<path d="M80.6383 48.0885V55.3846C80.6383 56.1706 80.326 56.9245 79.7702 57.4803C79.2144 58.0361 78.4606 58.3483 77.6745 58.3483H4.18856C3.79984 58.3483 3.41495 58.2716 3.05595 58.1225C2.69695 57.9735 2.37091 57.755 2.09652 57.4797C1.82213 57.2043 1.6048 56.8775 1.45698 56.518C1.30916 56.1585 1.23377 55.7733 1.23513 55.3846V48.0885H80.6383Z" fill="#81B8FD"/>
<path d="M75.3589 53.2132C75.3589 53.6061 75.2425 53.9901 75.0242 54.3167C74.806 54.6433 74.4958 54.8979 74.1329 55.0482C73.77 55.1985 73.3706 55.2378 72.9854 55.1612C72.6001 55.0846 72.2462 54.8954 71.9684 54.6176C71.6907 54.3399 71.5015 53.986 71.4249 53.6007C71.3482 53.2155 71.3876 52.8161 71.5379 52.4532C71.6882 52.0903 71.9428 51.7801 72.2694 51.5619C72.596 51.3436 72.98 51.2271 73.3728 51.2271C73.634 51.2258 73.8929 51.2762 74.1345 51.3755C74.3761 51.4749 74.5956 51.6211 74.7803 51.8058C74.965 51.9905 75.1112 52.21 75.2105 52.4516C75.3099 52.6932 75.3603 52.952 75.3589 53.2132Z" fill="#FFE046"/>
<path d="M66.8897 53.2132C66.8897 53.6061 66.7732 53.9901 66.555 54.3167C66.3367 54.6433 66.0266 54.8979 65.6636 55.0482C65.3007 55.1985 64.9014 55.2378 64.5161 55.1612C64.1308 55.0846 63.777 54.8954 63.4992 54.6176C63.2214 54.3399 63.0323 53.986 62.9556 53.6007C62.879 53.2155 62.9183 52.8161 63.0687 52.4532C63.219 52.0903 63.4736 51.7801 63.8002 51.5619C64.1268 51.3436 64.5108 51.2271 64.9036 51.2271C65.1648 51.2258 65.4237 51.2762 65.6652 51.3755C65.9068 51.4749 66.1263 51.6211 66.311 51.8058C66.4957 51.9905 66.642 52.21 66.7413 52.4516C66.8406 52.6932 66.8911 52.952 66.8897 53.2132Z" fill="#FFE046"/>
<path d="M13.9851 40.5454H8.2326C7.8314 40.5454 7.44663 40.386 7.16294 40.1023C6.87925 39.8186 6.71987 39.4339 6.71987 39.0327V10.2907C6.71296 10.0877 6.74698 9.88549 6.81991 9.69598C6.89283 9.50646 7.00316 9.33357 7.14433 9.18761C7.28549 9.04164 7.4546 8.92559 7.64157 8.84637C7.82854 8.76715 8.02954 8.72638 8.2326 8.7265H13.9748C13.7726 8.72776 13.5727 8.76954 13.387 8.84937C13.2012 8.9292 13.0333 9.04547 12.8933 9.19129C12.7532 9.33712 12.6438 9.50954 12.5715 9.69837C12.4992 9.8872 12.4655 10.0886 12.4724 10.2907V39.1047C12.4909 39.4933 12.6584 39.8598 12.9401 40.1281C13.2218 40.3964 13.5961 40.5458 13.9851 40.5454Z" fill="#EBE0DA"/>
<path d="M9.93078 58.3483H4.18856C3.79984 58.3483 3.41495 58.2716 3.05595 58.1225C2.69695 57.9735 2.37091 57.755 2.09652 57.4797C1.82213 57.2043 1.6048 56.8775 1.45698 56.518C1.30916 56.1585 1.23377 55.7733 1.23513 55.3846V48.0885H6.97734V55.3846C6.97599 55.7733 7.05138 56.1585 7.1992 56.518C7.34702 56.8775 7.56435 57.2043 7.83874 57.4797C8.11312 57.755 8.43917 57.9735 8.79817 58.1225C9.15717 58.2716 9.54206 58.3483 9.93078 58.3483Z" fill="#62A6FD"/>
<path d="M9.93078 58.3483H4.18856C3.79984 58.3483 3.41495 58.2716 3.05595 58.1225C2.69695 57.9735 2.37091 57.755 2.09652 57.4797C1.82213 57.2043 1.6048 56.8775 1.45698 56.518C1.30916 56.1585 1.23377 55.7733 1.23513 55.3846V48.0885H6.97734V55.3846C6.97599 55.7733 7.05138 56.1585 7.1992 56.518C7.34702 56.8775 7.56435 57.2043 7.83874 57.4797C8.11312 57.755 8.43917 57.9735 8.79817 58.1225C9.15717 58.2716 9.54206 58.3483 9.93078 58.3483Z" fill="#62A6FD"/>
<path d="M64.2244 32.6524H17.6384C17.4419 32.6524 17.2534 32.5744 17.1145 32.4354C16.9755 32.2965 16.8975 32.108 16.8975 31.9115V17.3604C16.8975 17.1639 16.9755 16.9755 17.1145 16.8365C17.2534 16.6976 17.4419 16.6195 17.6384 16.6195H64.2244C64.421 16.6195 64.6094 16.6976 64.7484 16.8365C64.8873 16.9755 64.9654 17.1639 64.9654 17.3604V31.9012C64.9667 31.9994 64.9486 32.0968 64.912 32.1879C64.8753 32.279 64.821 32.3619 64.752 32.4318C64.6831 32.5017 64.601 32.5572 64.5104 32.5951C64.4198 32.6329 64.3226 32.6524 64.2244 32.6524Z" fill="#8ECB51"/>
<path d="M71.3354 33.1669L69.4419 31.2632L71.3045 29.3902C71.3764 29.3177 71.4282 29.2277 71.4546 29.1291C71.4811 29.0305 71.4813 28.9267 71.4553 28.8279C71.4293 28.7292 71.378 28.6389 71.3064 28.5661C71.2349 28.4932 71.1455 28.4403 71.0473 28.4126L61.8885 25.9531C61.7887 25.9259 61.6835 25.9255 61.5836 25.9521C61.4836 25.9786 61.3924 26.0311 61.3193 26.1042C61.2461 26.1774 61.1936 26.2686 61.1671 26.3685C61.1406 26.4685 61.1409 26.5737 61.1682 26.6735L63.6174 35.8322C63.6376 35.9421 63.6887 36.0438 63.7647 36.1256C63.8408 36.2074 63.9386 36.2657 64.0467 36.2938C64.1547 36.3219 64.2686 36.3186 64.3748 36.2842C64.4811 36.2499 64.5753 36.1859 64.6464 36.0998L66.5091 34.2269L68.4128 36.1307C68.6074 36.3253 68.8385 36.4796 69.0927 36.5849C69.347 36.6903 69.6195 36.7445 69.8947 36.7445C70.1699 36.7445 70.4424 36.6903 70.6967 36.5849C70.9509 36.4796 71.182 36.3253 71.3766 36.1307C71.5712 35.9361 71.7255 35.705 71.8308 35.4508C71.9362 35.1965 71.9904 34.924 71.9904 34.6488C71.9904 34.3736 71.9362 34.1011 71.8308 33.8468C71.7255 33.5926 71.5712 33.3615 71.3766 33.1669H71.3354Z" fill="#62A6FD"/>
<path d="M71.3353 36.1307C71.1433 36.3299 70.9131 36.4883 70.6585 36.5965C70.4039 36.7047 70.1301 36.7605 69.8534 36.7605C69.5768 36.7605 69.303 36.7047 69.0484 36.5965C68.7937 36.4883 68.5636 36.3299 68.3716 36.1307L66.4678 34.2269L64.6052 36.0998C64.5321 36.182 64.4378 36.2425 64.3325 36.2745C64.2272 36.3065 64.1152 36.3088 64.0087 36.2811C63.9022 36.2534 63.8055 36.1968 63.7291 36.1176C63.6528 36.0384 63.5998 35.9396 63.5761 35.8322L61.1269 26.6735C61.0997 26.5737 61.0993 26.4685 61.1258 26.3685C61.1524 26.2686 61.2049 26.1774 61.278 26.1042C61.3511 26.0311 61.4423 25.9786 61.5423 25.9521C61.6423 25.9255 61.7475 25.9259 61.8473 25.9531L63.9054 26.4883L65.7577 33.4242C65.7779 33.534 65.8291 33.6358 65.9051 33.7176C65.9811 33.7994 66.079 33.8577 66.187 33.8858C66.2951 33.9139 66.409 33.9106 66.5152 33.8762C66.6214 33.8418 66.7157 33.7778 66.7868 33.6918L68.6597 31.8189L70.5532 33.7226C70.9372 34.0983 71.4468 34.3183 71.9836 34.3401C72.0278 34.6687 71.9919 35.0031 71.879 35.3149C71.7661 35.6266 71.5796 35.9065 71.3353 36.1307Z" fill="#4394FB"/>
<path d="M1.23489 33.1052C1.55613 33.1053 1.86453 32.9791 2.09361 32.7539C2.32268 32.5286 2.45408 32.2224 2.45948 31.9012V4.18832C2.45948 3.7298 2.64163 3.29007 2.96585 2.96585C3.29007 2.64163 3.7298 2.45948 4.18832 2.45948H45.6805C45.9872 2.43139 46.2724 2.28969 46.48 2.06217C46.6876 1.83465 46.8027 1.53776 46.8027 1.22974C46.8027 0.921723 46.6876 0.624825 46.48 0.39731C46.2724 0.169795 45.9872 0.0280887 45.6805 0L4.18832 0C3.07834 0.00271721 2.01461 0.444858 1.22973 1.22973C0.444858 2.01461 0.00271721 3.07834 0 4.18832L0 31.9012C0.00541741 32.2242 0.138238 32.532 0.369533 32.7575C0.600828 32.983 0.91186 33.108 1.23489 33.1052Z" fill="black"/>
<path d="M77.6746 0.000140589H50.5997C50.4288 -0.0155136 50.2564 0.00464497 50.0937 0.0593294C49.931 0.114014 49.7815 0.202023 49.6547 0.317739C49.5279 0.433455 49.4266 0.574336 49.3573 0.73139C49.288 0.888443 49.2522 1.05822 49.2522 1.22988C49.2522 1.40154 49.288 1.57132 49.3573 1.72837C49.4266 1.88543 49.5279 2.02631 49.6547 2.14202C49.7815 2.25774 49.931 2.34575 50.0937 2.40043C50.2564 2.45512 50.4288 2.47528 50.5997 2.45962H77.6746C78.1331 2.45962 78.5728 2.64177 78.897 2.96599C79.2213 3.29021 79.4034 3.72994 79.4034 4.18846V46.8538H2.45974V36.7997C2.4754 36.6288 2.45524 36.4565 2.40055 36.2937C2.34587 36.131 2.25786 35.9815 2.14214 35.8547C2.02643 35.7279 1.88555 35.6266 1.72849 35.5573C1.57144 35.488 1.40166 35.4522 1.23 35.4522C1.05834 35.4522 0.888566 35.488 0.731512 35.5573C0.574458 35.6266 0.433577 35.7279 0.317861 35.8547C0.202145 35.9815 0.114136 36.131 0.0594515 36.2937C0.00476704 36.4565 -0.0153915 36.6288 0.000262659 36.7997V55.3848C0.000262659 56.4956 0.441531 57.5609 1.22699 58.3464C2.01246 59.1318 3.07777 59.5731 4.18858 59.5731H33.5891L31.2429 71.2325H26.4577C25.6216 71.2325 24.8196 71.5639 24.2274 72.1541C23.6352 72.7444 23.3012 73.5453 23.2984 74.3814V76.8512C23.3012 77.6873 23.6352 78.4882 24.2274 79.0785C24.8196 79.6687 25.6216 80.0001 26.4577 80.0001H55.4055C55.8199 80.0015 56.2304 79.9211 56.6137 79.7634C56.9969 79.6058 57.3453 79.374 57.6388 79.0815C57.9323 78.7889 58.1651 78.4413 58.324 78.0586C58.4829 77.6759 58.5647 77.2656 58.5647 76.8512V74.3814C58.5647 73.967 58.4829 73.5567 58.324 73.174C58.1651 72.7913 57.9323 72.4437 57.6388 72.1511C57.3453 71.8586 56.9969 71.6268 56.6137 71.4692C56.2304 71.3115 55.8199 71.2311 55.4055 71.2325H50.6203L48.274 59.5731H77.6746C78.2246 59.5731 78.7692 59.4647 79.2774 59.2543C79.7855 59.0438 80.2472 58.7353 80.6362 58.3464C81.0251 57.9574 81.3336 57.4957 81.5441 56.9876C81.7545 56.4794 81.8629 55.9348 81.8629 55.3848V4.18846C81.8629 3.63844 81.7545 3.09381 81.5441 2.58566C81.3336 2.07751 81.0251 1.61579 80.6362 1.22687C80.2472 0.83795 79.7855 0.52944 79.2774 0.318958C78.7692 0.108475 78.2246 0.000140589 77.6746 0.000140589ZM55.4055 73.6919C55.4969 73.6906 55.5876 73.7074 55.6725 73.7414C55.7573 73.7755 55.8345 73.826 55.8997 73.8902C55.9648 73.9544 56.0165 74.0308 56.0518 74.1152C56.0871 74.1995 56.1052 74.29 56.1052 74.3814V76.8512C56.1052 76.9426 56.0871 77.0331 56.0518 77.1174C56.0165 77.2018 55.9648 77.2782 55.8997 77.3424C55.8345 77.4066 55.7573 77.4571 55.6725 77.4912C55.5876 77.5252 55.4969 77.542 55.4055 77.5407H26.4577C26.3663 77.542 26.2755 77.5252 26.1907 77.4912C26.1058 77.4571 26.0286 77.4066 25.9635 77.3424C25.8984 77.2782 25.8467 77.2018 25.8114 77.1174C25.7761 77.0331 25.7579 76.9426 25.7579 76.8512V74.3814C25.7579 74.29 25.7761 74.1995 25.8114 74.1152C25.8467 74.0308 25.8984 73.9544 25.9635 73.8902C26.0286 73.826 26.1058 73.7755 26.1907 73.7414C26.2755 73.7074 26.3663 73.6906 26.4577 73.6919H55.4055ZM33.795 71.2325L36.1412 59.5731H45.8042L48.1505 71.2325H33.795ZM79.4446 55.3848C79.4446 55.8433 79.2624 56.283 78.9382 56.6072C78.614 56.9315 78.1742 57.1136 77.7157 57.1136H4.18858C3.73007 57.1136 3.29033 56.9315 2.96611 56.6072C2.64189 56.283 2.45974 55.8433 2.45974 55.3848V49.3132H79.4034L79.4446 55.3848Z" fill="black"/>
<path d="M73.3729 56.4342C74.0099 56.4342 74.6326 56.2453 75.1623 55.8914C75.692 55.5375 76.1049 55.0344 76.3487 54.4459C76.5924 53.8573 76.6562 53.2097 76.5319 52.5849C76.4077 51.9601 76.1009 51.3861 75.6504 50.9357C75.2 50.4852 74.626 50.1784 74.0012 50.0541C73.3764 49.9299 72.7288 49.9936 72.1402 50.2374C71.5517 50.4812 71.0486 50.8941 70.6947 51.4238C70.3408 51.9534 70.1519 52.5762 70.1519 53.2132C70.1519 54.0675 70.4912 54.8868 71.0953 55.4908C71.6993 56.0949 72.5186 56.4342 73.3729 56.4342ZM73.3729 52.4517C73.5235 52.4517 73.6707 52.4964 73.7959 52.5801C73.9212 52.6637 74.0188 52.7827 74.0764 52.9218C74.134 53.061 74.1491 53.2141 74.1197 53.3618C74.0903 53.5095 74.0178 53.6452 73.9113 53.7517C73.8048 53.8582 73.6691 53.9307 73.5214 53.9601C73.3737 53.9895 73.2206 53.9744 73.0814 53.9168C72.9423 53.8592 72.8234 53.7615 72.7397 53.6363C72.656 53.5111 72.6113 53.3639 72.6113 53.2132C72.6193 53.0167 72.7031 52.8308 72.845 52.6946C72.987 52.5584 73.1761 52.4824 73.3729 52.4826V52.4517Z" fill="black"/>
<path d="M64.9242 56.4343C65.563 56.4424 66.1897 56.2605 66.7248 55.9116C67.2599 55.5626 67.6791 55.0625 67.9292 54.4747C68.1793 53.8869 68.249 53.238 68.1294 52.6105C68.0098 51.983 67.7063 51.4052 67.2576 50.9507C66.8088 50.4961 66.235 50.1852 65.6091 50.0575C64.9831 49.9299 64.3334 49.9912 63.7425 50.2337C63.1515 50.4763 62.646 50.889 62.2902 51.4196C61.9344 51.9501 61.7444 52.5745 61.7444 53.2133C61.7443 54.0605 62.078 54.8736 62.6732 55.4764C63.2684 56.0793 64.0771 56.4234 64.9242 56.4343ZM64.9242 52.4518C65.0748 52.4518 65.2221 52.4964 65.3473 52.5801C65.4725 52.6638 65.5701 52.7827 65.6278 52.9219C65.6854 53.061 65.7005 53.2141 65.6711 53.3618C65.6417 53.5096 65.5692 53.6453 65.4627 53.7518C65.3562 53.8583 65.2205 53.9308 65.0728 53.9602C64.9251 53.9895 64.7719 53.9745 64.6328 53.9168C64.4937 53.8592 64.3747 53.7616 64.291 53.6364C64.2074 53.5111 64.1627 53.3639 64.1627 53.2133C64.1707 53.0167 64.2544 52.8309 64.3964 52.6947C64.5383 52.5585 64.7275 52.4825 64.9242 52.4826V52.4518Z" fill="black"/>
<path d="M62.6397 41.7803H73.6199C74.3478 41.7776 75.0451 41.4872 75.5598 40.9725C76.0744 40.4578 76.3648 39.7606 76.3675 39.0327V10.2907C76.3648 9.56283 76.0744 8.86554 75.5598 8.35084C75.0451 7.83615 74.3478 7.5458 73.6199 7.54309H8.23269C7.5066 7.5485 6.81194 7.84005 6.29946 8.35445C5.78699 8.86885 5.49805 9.5646 5.49536 10.2907V39.1047C5.51665 39.8182 5.81378 40.4957 6.32428 40.9947C6.83477 41.4937 7.51886 41.7753 8.23269 41.7803H57.7207C58.0275 41.7522 58.3126 41.6105 58.5203 41.383C58.7279 41.1555 58.843 40.8586 58.843 40.5505C58.843 40.2425 58.7279 39.9456 58.5203 39.7181C58.3126 39.4906 58.0275 39.3489 57.7207 39.3208H8.23269C8.15709 39.3182 8.08528 39.2871 8.03179 39.2336C7.9783 39.1801 7.94712 39.1083 7.94455 39.0327V10.2907C7.93874 10.2491 7.94179 10.2067 7.95351 10.1663C7.96523 10.1259 7.98535 10.0884 8.01256 10.0564C8.03977 10.0243 8.07344 9.99836 8.11138 9.98022C8.14931 9.96208 8.19065 9.95216 8.23269 9.95112H73.6199C73.6955 9.95368 73.7673 9.98486 73.8208 10.0384C73.8743 10.0918 73.9055 10.1637 73.908 10.2393V39.0533C73.9055 39.1289 73.8743 39.2007 73.8208 39.2542C73.7673 39.3076 73.6955 39.3388 73.6199 39.3414H62.6397C62.4687 39.3257 62.2964 39.3459 62.1337 39.4006C61.971 39.4553 61.8214 39.5433 61.6947 39.659C61.5679 39.7747 61.4666 39.9156 61.3973 40.0726C61.328 40.2297 61.2922 40.3995 61.2922 40.5711C61.2922 40.7428 61.328 40.9126 61.3973 41.0696C61.4666 41.2267 61.5679 41.3676 61.6947 41.4833C61.8214 41.599 61.971 41.687 62.1337 41.7417C62.2964 41.7964 62.4687 41.8165 62.6397 41.8009V41.7803Z" fill="black"/>
<path d="M64.2245 15.4361H17.6384C17.1162 15.4361 16.6152 15.6428 16.2449 16.0112C15.8747 16.3795 15.6653 16.8794 15.6626 17.4016V31.9012C15.6653 32.4235 15.8747 32.9234 16.2449 33.2917C16.6152 33.66 17.1162 33.8668 17.6384 33.8668H61.8267L62.4339 36.141C62.5155 36.4493 62.6771 36.7305 62.9022 36.9564C63.1274 37.1822 63.4082 37.3445 63.7162 37.427C64.0243 37.5095 64.3486 37.5092 64.6565 37.4262C64.9644 37.3431 65.2449 37.1802 65.4696 36.954L66.4987 35.9249L67.5278 36.954C67.8343 37.2647 68.1996 37.5112 68.6025 37.6791C69.0053 37.8469 69.4376 37.9328 69.8741 37.9316C70.5311 37.9292 71.1728 37.7327 71.7185 37.3668C72.2642 37.0009 72.6897 36.4819 72.9414 35.875C73.1932 35.2682 73.2601 34.6004 73.1336 33.9557C73.0071 33.3109 72.693 32.7179 72.2307 32.2511L71.2016 31.222L72.2307 30.193C72.4639 29.9667 72.6327 29.6825 72.7199 29.3695C72.807 29.0565 72.8094 28.7259 72.7266 28.4117C72.6439 28.0975 72.479 27.811 72.249 27.5815C72.019 27.352 71.7321 27.1878 71.4177 27.1058L66.2723 25.7268V17.3605C66.2657 17.0992 66.2073 16.8418 66.1005 16.6032C65.9937 16.3647 65.8406 16.1497 65.6502 15.9707C65.4597 15.7917 65.2356 15.6523 64.9909 15.5606C64.7462 15.4688 64.4857 15.4265 64.2245 15.4361ZM62.1663 24.8109C61.8582 24.7283 61.5337 24.7281 61.2254 24.8103C60.9172 24.8925 60.6359 25.0543 60.4098 25.2793C60.1837 25.5044 60.0206 25.7849 59.937 26.0928C59.8534 26.4007 59.8521 26.7252 59.9332 27.0337L61.127 31.4587H18.1324V17.8544H63.7305V25.1711L62.1663 24.8109ZM70.687 34.69C70.6875 34.8619 70.6367 35.03 70.541 35.1729C70.4454 35.3158 70.3094 35.4269 70.1504 35.4921C69.9913 35.5573 69.8164 35.5735 69.648 35.5388C69.4797 35.5041 69.3255 35.42 69.2052 35.2972L68.1761 34.2681L69.411 33.0435L70.4401 34.0726C70.6068 34.2204 70.71 34.4268 70.7282 34.6488L70.687 34.69ZM69.658 29.3491L64.5126 34.4945L62.6294 27.4865L69.658 29.3491Z" fill="black"/>
<path d="M24.4096 23.2467C23.7201 22.9483 23.1747 22.7116 23.1747 22.3308C23.1747 21.6825 24.4919 21.5487 25.4181 22.0324C25.5956 22.1411 25.797 22.2046 26.0047 22.2176C26.6633 22.2176 26.9411 21.4355 26.9411 21.0136C26.9411 19.8096 24.7183 19.7479 24.2758 19.7479C22.7116 19.7479 20.8799 20.4682 20.8799 22.5161C20.8799 25.5518 24.8727 25.3872 24.8727 26.725C24.8727 27.2189 24.3067 27.3939 23.8436 27.3939C22.7322 27.3939 22.3926 26.4677 21.7031 26.4677C21.0137 26.4677 20.6741 27.1983 20.6741 27.682C20.6741 29.7401 27.1881 30.7692 27.1881 26.5294C27.1675 24.4713 25.5725 23.7715 24.4096 23.2467Z" fill="black"/>
<path d="M32.1587 20.5814V26.3134C32.1587 27.0337 31.8088 27.4042 31.1296 27.4042C30.9855 27.4186 30.84 27.3997 30.7043 27.349C30.5686 27.2983 30.4463 27.2172 30.3469 27.1118C30.2475 27.0064 30.1736 26.8796 30.1309 26.7412C30.0882 26.6028 30.0778 26.4564 30.1006 26.3134V20.5814C30.1006 20.0669 29.5243 19.8302 28.9583 19.8302C28.3923 19.8302 27.7852 20.1184 27.7852 20.5814V26.3134C27.7852 28.3715 28.9686 29.452 31.1296 29.452C33.2907 29.452 34.4638 28.3303 34.4638 26.3134V20.5814C34.4535 19.5524 32.1587 19.5524 32.1587 20.5814Z" fill="black"/>
<path d="M40.8852 24.1934C41.1793 23.9617 41.4119 23.6613 41.5627 23.3186C41.7134 22.9758 41.7776 22.6013 41.7496 22.2279C41.7496 20.6534 40.8131 19.8199 39.0637 19.8199H36.4807C35.9868 19.8199 35.4517 20.0566 35.4517 20.5917V28.6082C35.4517 28.9889 35.8015 29.3594 36.4807 29.3594H39.2695C41.0189 29.3594 41.976 28.3303 41.976 26.4883V26.2207C42.0272 25.8114 41.9497 25.3962 41.7542 25.0329C41.5588 24.6696 41.255 24.3762 40.8852 24.1934ZM37.7362 21.8574H38.899C39.6297 21.8574 39.64 23.2879 38.899 23.2879H37.7362V21.8574ZM37.7362 27.3218V25.1299C39.2181 25.1299 39.6811 24.9241 39.6811 26.3236C39.6811 27.5173 38.9402 27.3218 37.7362 27.3218Z" fill="black"/>
<path d="M49.4572 19.8199C48.2017 19.8199 48.2223 20.1389 46.6375 22.9071C45.0528 20.1389 45.0733 19.8199 43.8076 19.8199C43.6522 19.8014 43.4947 19.8186 43.347 19.8702C43.1993 19.9217 43.0653 20.0063 42.9551 20.1174C42.845 20.2285 42.7617 20.3633 42.7114 20.5114C42.6612 20.6596 42.6454 20.8173 42.6653 20.9725V28.5979C42.6653 29.627 44.9601 29.627 44.9601 28.5979V24.3787L45.8451 26.0149C45.9228 26.1542 46.0362 26.2703 46.1737 26.3511C46.3112 26.4319 46.4678 26.4745 46.6272 26.4745C46.7867 26.4745 46.9433 26.4319 47.0808 26.3511C47.2183 26.2703 47.3317 26.1542 47.4093 26.0149L48.3149 24.4713V28.5876C48.3149 29.6167 50.6097 29.6167 50.6097 28.5876V20.9725C50.6299 20.8163 50.614 20.6576 50.5633 20.5086C50.5125 20.3595 50.4282 20.2241 50.3168 20.1128C50.2055 20.0015 50.0701 19.9172 49.9211 19.8664C49.772 19.8156 49.6133 19.7997 49.4572 19.8199Z" fill="black"/>
<path d="M52.7915 19.8199C52.0917 19.8199 51.6389 20.1183 51.6389 20.5711V28.5979C51.6389 29.1227 52.2358 29.3594 52.7915 29.3594C53.3472 29.3594 53.9337 29.1227 53.9337 28.5979V20.5814C53.9337 20.1183 53.5118 19.8199 52.7915 19.8199Z" fill="black"/>
<path d="M60.5918 19.8199H55.148C54.6232 19.8199 54.3865 20.355 54.3865 20.849C54.3865 21.3429 54.7055 21.878 55.148 21.878H56.7225V28.567C56.7225 29.0918 57.3193 29.3285 57.8647 29.3285C58.4101 29.3285 59.0173 29.0918 59.0173 28.567V21.878H60.5918C61.0343 21.878 61.3533 21.4458 61.3533 20.849C61.3533 20.2521 61.1166 19.8199 60.5918 19.8199Z" fill="black"/>
</g>
<defs>
<clipPath id="clip0">
<rect width="81.8626" height="80" fill="white"/>
</clipPath>
</defs>
</svg>
