<svg width="80" height="80" viewBox="0 0 80 80" fill="none" xmlns="http://www.w3.org/2000/svg">
<path d="M60 31.25C60 34.3 59.525 37.2375 58.6375 40C55.825 48.8375 48.8375 55.825 40 58.6375C37.2375 59.525 34.3 60 31.25 60C15.375 60 2.5 47.125 2.5 31.25C2.5 15.375 15.375 2.5 31.25 2.5C47.125 2.5 60 15.375 60 31.25Z" fill="#E6E9ED"/>
<path d="M31.25 55C44.3668 55 55 44.3668 55 31.25C55 18.1332 44.3668 7.5 31.25 7.5C18.1332 7.5 7.5 18.1332 7.5 31.25C7.5 44.3668 18.1332 55 31.25 55Z" fill="#69D6F4"/>
<path d="M58.75 40C58.7113 40 58.6738 40.005 58.635 40.0063C55.8225 48.8388 48.8375 55.8225 40.005 58.6362C40.005 58.6737 40 58.7113 40 58.75C40 69.105 48.395 77.5 58.75 77.5C69.105 77.5 77.5 69.105 77.5 58.75C77.5 48.395 69.105 40 58.75 40Z" fill="#FFEAA7"/>
<path d="M70.3873 73.4375C67.1873 75.9875 63.1498 77.5 58.7498 77.5C54.3498 77.5 50.3123 75.9875 47.1123 73.4375C48.5498 70.225 51.5998 67.9125 55.2373 67.55C55.5748 67.5125 55.9123 67.5 56.2498 67.5H61.2498C61.5873 67.5 61.9248 67.5125 62.2623 67.55C65.8998 67.9125 68.9498 70.225 70.3873 73.4375Z" fill="#969FAA"/>
<path d="M62.5 66.25C62.5 66.7125 62.4125 67.15 62.2625 67.55C61.925 67.5125 61.5875 67.5 61.25 67.5H56.25C55.9125 67.5 55.575 67.5125 55.2375 67.55C55.0875 67.15 55 66.7125 55 66.25C55 64.175 56.675 62.5 58.75 62.5C59.35 62.5 59.925 62.65 60.425 62.9C61.6625 63.5125 62.5 64.775 62.5 66.25Z" fill="#B4DD7F"/>
<path d="M36.2502 46.4875C39.4377 47.0625 42.2252 48.75 44.2377 51.125C40.5127 53.575 36.0377 55 31.2502 55C26.4627 55 21.9877 53.575 18.2627 51.125C20.2752 48.75 23.0627 47.0625 26.2502 46.4875C27.0627 46.325 27.9002 46.25 28.7502 46.25H33.7502C34.6002 46.25 35.4377 46.325 36.2502 46.4875Z" fill="#AAB2BD"/>
<path d="M36.25 46.4875C35.4375 46.325 34.6 46.25 33.75 46.25H28.75C27.9 46.25 27.0625 46.325 26.25 46.4875V46.475C26.25 46.4 26.25 46.325 26.25 46.25C26.25 43.975 27.775 42.05 29.8625 41.45C30.3 41.3125 30.775 41.25 31.25 41.25C31.725 41.25 32.2 41.3125 32.6375 41.45C34.725 42.05 36.25 43.975 36.25 46.25V46.475V46.4875Z" fill="#FFC729"/>
<path d="M31.25 18.75L33.75 22.5L32.6375 41.45C32.2 41.3125 31.725 41.25 31.25 41.25C30.775 41.25 30.3 41.3125 29.8625 41.45L28.75 22.5L31.25 18.75Z" fill="#FCD770"/>
<path d="M52.5 71.25H55V73.75H52.5V71.25Z" fill="black"/>
<path d="M62.5 71.25H65V73.75H62.5V71.25Z" fill="black"/>
<path d="M57.5 71.25H60V73.75H57.5V71.25Z" fill="black"/>
<path d="M60.2787 38.8275C60.9113 36.4062 61.25 33.8675 61.25 31.25C61.25 14.7087 47.7912 1.25 31.25 1.25C14.7087 1.25 1.25 14.7087 1.25 31.25C1.25 47.7912 14.7087 61.25 31.25 61.25C33.8675 61.25 36.4062 60.9113 38.8275 60.2787C39.6138 70.5925 48.2388 78.75 58.75 78.75C69.7775 78.75 78.75 69.7775 78.75 58.75C78.75 48.2388 70.5925 39.6138 60.2787 38.8275ZM3.75 31.25C3.75 16.0863 16.0863 3.75 31.25 3.75C46.4137 3.75 58.75 16.0863 58.75 31.25C58.75 46.4137 46.4137 58.75 31.25 58.75C16.0863 58.75 3.75 46.4137 3.75 31.25ZM48.7275 73.0762C50.2875 70.425 53.135 68.75 56.25 68.75H61.25C64.3638 68.75 67.2113 70.4238 68.7725 73.0737C65.93 75.0687 62.4775 76.25 58.75 76.25C55.0213 76.25 51.5687 75.0687 48.7275 73.0762ZM61.25 66.25H56.25C56.25 64.8713 57.3713 63.75 58.75 63.75C60.1287 63.75 61.25 64.8713 61.25 66.25ZM70.7363 71.4662C69.1375 68.955 66.6012 67.2113 63.7225 66.5563C63.7288 66.4538 63.75 66.3538 63.75 66.25C63.75 64.75 63.0725 63.4175 62.0225 62.5L66.1175 54.3087L63.8812 53.19L59.795 61.3625C59.4575 61.2912 59.1087 61.25 58.75 61.25C55.9925 61.25 53.75 63.4925 53.75 66.25C53.75 66.3538 53.7712 66.4538 53.7775 66.5563C50.8975 67.21 48.36 68.955 46.7612 71.4675C43.5438 68.4362 41.4837 64.2137 41.2862 59.5163C49.765 56.4963 56.4963 49.7662 59.5163 41.2875C63.59 41.465 67.3025 43.0312 70.1925 45.5387L66.705 49.0263L68.4725 50.7937L71.96 47.3063C74.3675 50.0813 75.91 53.615 76.1862 57.4987H71.25V59.9987H76.1862C75.8662 64.5075 73.8375 68.5413 70.7363 71.4662Z" fill="black"/>
<path d="M31.25 6.25C17.465 6.25 6.25 17.465 6.25 31.25C6.25 45.035 17.465 56.25 31.25 56.25C45.035 56.25 56.25 45.035 56.25 31.25C56.25 17.465 45.035 6.25 31.25 6.25ZM20.2463 50.855C22.55 48.71 25.5737 47.5 28.75 47.5H33.75C36.9263 47.5 39.95 48.71 42.2538 50.855C38.9963 52.6912 35.2475 53.75 31.25 53.75C27.2525 53.75 23.5037 52.6912 20.2463 50.855ZM30.0225 22.8438L31.25 21.0037L32.4775 22.845L31.4675 40.0225C31.3937 40.02 31.325 40 31.25 40C31.175 40 31.1063 40.02 31.0325 40.0225L30.0225 22.8438ZM31.25 42.5C32.8988 42.5 34.2862 43.5762 34.7875 45.0562C34.4425 45.0325 34.0987 45 33.75 45H28.75C28.4013 45 28.0575 45.0325 27.7125 45.0562C28.2138 43.5762 29.6012 42.5 31.25 42.5ZM44.3975 49.4712C42.4613 47.5112 40.0525 46.14 37.4225 45.4738C37.1525 43.33 35.8113 41.5313 33.9363 40.63L35.0237 22.155L31.25 16.4962L27.4775 22.155L28.565 40.63C26.69 41.53 25.3487 43.33 25.0788 45.4738C22.4487 46.14 20.04 47.5112 18.1038 49.4712C12.7675 45.61 9.2 39.48 8.81375 32.5H13.75V30H8.81375C9.105 24.74 11.2012 19.965 14.5062 16.2738L17.9925 19.76L19.76 17.9925L16.2738 14.5062C19.9637 11.2012 24.7388 9.105 30 8.81375V13.75H32.5V8.81375C37.7612 9.105 42.5362 11.2012 46.2262 14.5062L42.74 17.9925L44.5075 19.76L47.9938 16.2738C51.2988 19.965 53.395 24.74 53.6863 30H48.75V32.5H53.6863C53.3 39.48 49.7325 45.61 44.3975 49.4712Z" fill="black"/>
<path d="M14.3376 35.7637L11.9214 36.4062C12.1489 37.2625 12.4376 38.1112 12.7789 38.9312L15.0876 37.9712C14.7889 37.255 14.5364 36.5112 14.3376 35.7637Z" fill="black"/>
<path d="M16.1251 40.0563L13.9639 41.3138C14.4076 42.0763 14.9101 42.8188 15.4564 43.5238L17.4301 41.9875C16.9526 41.3725 16.5126 40.7225 16.1251 40.0563Z" fill="black"/>
<path d="M17.23 45.5113C17.8612 46.1325 18.54 46.7175 19.2487 47.25L20.7512 45.2525C20.13 44.785 19.535 44.2725 18.9825 43.7288L17.23 45.5113Z" fill="black"/>
</svg>
