<svg width="80" height="80" viewBox="0 0 80 80" fill="none" xmlns="http://www.w3.org/2000/svg">
<path d="M40.0055 78.3665C61.1917 78.3665 78.3665 61.1917 78.3665 40.0055C78.3665 18.8193 61.1917 1.64453 40.0055 1.64453C18.8193 1.64453 1.64453 18.8193 1.64453 40.0055C1.64453 61.1917 18.8193 78.3665 40.0055 78.3665Z" fill="#DD1449" stroke="black" stroke-width="3" stroke-miterlimit="10"/>
<path d="M59.4546 68.631H20.6113C20.2538 68.6324 19.8996 68.5631 19.5691 68.427C19.2386 68.2908 18.9382 68.0906 18.6855 67.8379C18.4327 67.5851 18.2325 67.2848 18.0964 66.9543C17.9602 66.6237 17.8909 66.2695 17.8924 65.9121V15.0528C17.8909 14.6953 17.9602 14.3411 18.0964 14.0106C18.2325 13.6801 18.4327 13.3798 18.6855 13.127C18.9382 12.8742 19.2386 12.674 19.5691 12.5379C19.8996 12.4018 20.2538 12.3324 20.6113 12.3339H59.4546C59.8121 12.3324 60.1663 12.4018 60.4968 12.5379C60.8274 12.674 61.1277 12.8742 61.3804 13.127C61.6332 13.3798 61.8334 13.6801 61.9696 14.0106C62.1057 14.3411 62.175 14.6953 62.1736 15.0528V65.9121C62.1795 66.2708 62.1132 66.627 61.9787 66.9595C61.8441 67.2921 61.6441 67.5942 61.3904 67.8478C61.1368 68.1015 60.8347 68.3016 60.5021 68.4361C60.1695 68.5706 59.8133 68.6369 59.4546 68.631Z" fill="white"/>
<path d="M59.0928 35.2913H21.0388V36.859H59.0928V35.2913Z" fill="#E6E9EE"/>
<path d="M59.0928 39.8849H21.0388V41.4527H59.0928V39.8849Z" fill="#E6E9EE"/>
<path d="M59.0928 44.4128H21.0388V45.9805H59.0928V44.4128Z" fill="#E6E9EE"/>
<path d="M59.0928 48.9407H21.0388V50.5084H59.0928V48.9407Z" fill="#E6E9EE"/>
<path d="M59.0928 53.5344H21.0388V55.1021H59.0928V53.5344Z" fill="#E6E9EE"/>
<path d="M41.8145 59.5752H59.0928V58.0623H21.0388V59.63H41.8145V59.5752Z" fill="#E6E9EE"/>
<path d="M41.8803 62.5901H21.0388V64.1579H41.8803V62.5901Z" fill="#E6E9EE"/>
<path d="M49.0065 31.0045L47.0112 32.9999L44.5334 30.5221C44.8952 30.2152 45.257 29.9191 45.564 29.6122C45.8923 29.2947 46.193 28.9499 46.463 28.5816L49.0065 31.0045Z" fill="#2B3B4E"/>
<path d="M36.8042 33.2411C43.7128 33.2411 49.3134 27.6405 49.3134 20.7318C49.3134 13.8232 43.7128 8.2226 36.8042 8.2226C29.8955 8.2226 24.2949 13.8232 24.2949 20.7318C24.2949 27.6405 29.8955 33.2411 36.8042 33.2411Z" fill="#324A5E"/>
<path d="M36.8041 30.9388C42.4412 30.9388 47.011 26.369 47.011 20.7318C47.011 15.0947 42.4412 10.5249 36.8041 10.5249C31.167 10.5249 26.5972 15.0947 26.5972 20.7318C26.5972 26.369 31.167 30.9388 36.8041 30.9388Z" fill="white"/>
<path d="M44.8293 27.0139C43.8824 28.2399 42.666 29.2315 41.2744 29.9121C39.8828 30.5927 38.3532 30.944 36.8041 30.9388C35.2461 30.9322 33.7093 30.5762 32.3072 29.8969C30.905 29.2176 29.673 28.2324 28.7021 27.0139C30.0804 25.7954 31.743 24.9433 33.537 24.5361C33.5091 25.4845 33.6616 26.4295 33.9865 27.3208C34.5895 25.8627 36.7712 25.7421 36.7712 25.7421C36.7712 25.7421 38.8872 25.8627 39.545 27.3208C39.9225 26.4434 40.0878 25.4894 40.0274 24.5361C41.8245 24.9073 43.4854 25.7643 44.8293 27.0139Z" fill="#84DBFF"/>
<path d="M39.4025 23.396C39.4025 23.6372 39.2161 24.7225 36.859 25.5886H36.7384C34.3812 24.6896 34.2058 23.6043 34.2058 23.396C34.2185 22.9565 34.3191 22.5241 34.5018 22.1242C34.7835 22.4711 35.133 22.7569 35.5288 22.9643C35.9246 23.1716 36.3586 23.2961 36.8041 23.3302C37.2487 23.2985 37.6818 23.175 38.0762 22.9674C38.4706 22.7598 38.8177 22.4727 39.0955 22.1242C39.2861 22.5218 39.3907 22.9552 39.4025 23.396Z" fill="#FFD05B"/>
<path d="M38.1856 26.049L37.6484 27.1454H35.8394L35.2913 26.049C35.7536 25.8592 36.2411 25.7373 36.7384 25.6873C37.237 25.7303 37.7255 25.8524 38.1856 26.049Z" fill="#F1543F"/>
<path d="M35.4119 30.8182C35.8726 30.891 36.3378 30.9313 36.8042 30.9388C37.267 30.9313 37.7286 30.891 38.1856 30.8182L37.7032 27.0797H35.8943L35.4119 30.8182Z" fill="#FF7058"/>
<path d="M39.4025 23.3959C39.4025 23.3959 39.5231 24.7225 36.8042 25.6873C36.8042 25.6873 38.9201 25.8079 39.5779 27.2551C39.5779 27.3208 40.7839 24.1195 39.4025 23.3959Z" fill="#54C0EB"/>
<path d="M34.2058 23.3959C32.8134 24.1743 34.0194 27.3208 34.0194 27.3208C34.6224 25.8627 36.8041 25.7421 36.8041 25.7421C34.0852 24.6567 34.2058 23.3959 34.2058 23.3959Z" fill="#54C0EB"/>
<path d="M39.2162 22.486C38.9152 22.838 38.5467 23.1262 38.1324 23.3333C37.7181 23.5404 37.2665 23.6624 36.8043 23.692C36.3391 23.6689 35.8837 23.5499 35.4667 23.3423C35.0497 23.1348 34.6802 22.8432 34.3813 22.486C34.4471 22.3654 34.4471 22.2448 34.5019 22.1242C34.7837 22.4711 35.1331 22.7569 35.5289 22.9643C35.9248 23.1716 36.3587 23.2961 36.8043 23.3302C37.2488 23.2985 37.682 23.175 38.0764 22.9674C38.4707 22.7598 38.8178 22.4727 39.0956 22.1242C39.1648 22.2331 39.2062 22.3574 39.2162 22.486Z" fill="#F9B54C"/>
<path d="M41.2664 19.9425C40.9046 20.5564 40.4222 20.8524 40.0056 20.7976C39.2162 22.2448 38.065 23.3302 36.8043 23.3302C35.5435 23.3302 34.3813 22.2338 33.6029 20.7976C33.3346 20.779 33.0759 20.6902 32.8527 20.5401C32.6295 20.39 32.4496 20.1839 32.3312 19.9425C31.9036 19.2847 31.9036 18.4953 32.3312 18.2541C32.386 18.2541 32.5066 18.2541 32.6382 18.2541C32.7794 18.6494 32.983 19.0195 33.2411 19.3505C32.8793 17.2345 34.3375 17.0481 34.1401 14.9651C34.1401 14.9651 35.1049 17.1578 37.8896 15.6339L37.6484 16.0505C41.4527 15.2063 40.2468 19.6136 40.181 19.8548C40.5745 19.3697 40.8823 18.8209 41.0909 18.2322C41.1186 18.2201 41.1485 18.2139 41.1787 18.2139C41.2088 18.2139 41.2387 18.2201 41.2664 18.2322C41.661 18.5611 41.661 19.2847 41.2664 19.9425Z" fill="#FFD05B"/>
<path d="M32.6382 13.3644C32.6382 13.3644 33.4166 13.2438 33.6578 13.8468C33.6578 13.8468 33.4166 13.0026 33.6578 12.6409C33.899 12.2791 33.6578 12.5203 33.6578 12.5203C33.5907 12.8068 33.6337 13.1081 33.7784 13.3644C33.7784 13.3644 34.3266 11.3691 37.6485 11.9173C37.1065 11.9244 36.5881 12.1404 36.2013 12.5203C36.2013 12.5203 38.4927 11.4897 39.885 13.0575C39.617 12.936 39.3326 12.8547 39.0408 12.8163C39.0408 12.8163 42.001 13.9674 41.5734 16.9275L41.387 16.2588C41.462 17.5779 41.0306 18.8758 40.181 19.8877C40.181 19.8877 41.5734 15.1734 37.6485 16.0834L37.8897 15.6558C35.105 17.1687 34.1402 14.998 34.1402 14.998C34.3814 16.9824 32.8794 17.1907 33.2412 19.3834C32.8467 18.9019 32.57 18.3352 32.4329 17.728C32.2959 17.1209 32.3024 16.4902 32.4518 15.886L32.0243 16.3684C31.9423 15.8574 32.0437 15.3339 32.3106 14.8905C32.5774 14.4471 32.9925 14.1123 33.4824 13.9455C33.3873 13.7975 33.2636 13.6699 33.1187 13.5702C32.9738 13.4704 32.8104 13.4005 32.6382 13.3644Z" fill="#324A5E"/>
<path d="M64.2236 45.9806L62.0309 48.1733C61.9213 48.2884 61.7895 48.38 61.6434 48.4426C61.4974 48.5052 61.3401 48.5375 61.1812 48.5375C61.0223 48.5375 60.865 48.5052 60.719 48.4426C60.5729 48.38 60.4411 48.2884 60.3316 48.1733L46.9452 34.7431C46.8304 34.6345 46.739 34.5036 46.6765 34.3585C46.614 34.2133 46.5818 34.0569 46.5818 33.8989C46.5818 33.7409 46.614 33.5845 46.6765 33.4394C46.739 33.2942 46.8304 33.1633 46.9452 33.0547L49.1379 30.862C49.2465 30.7472 49.3774 30.6558 49.5225 30.5933C49.6677 30.5308 49.8241 30.4986 49.9821 30.4986C50.1401 30.4986 50.2965 30.5308 50.4416 30.5933C50.5868 30.6558 50.7177 30.7472 50.8263 30.862L64.1687 44.2264C64.3944 44.4596 64.525 44.7686 64.5352 45.0929C64.5453 45.4173 64.4342 45.7337 64.2236 45.9806Z" fill="#324A5E"/>
<path d="M51.6125 31.7033L47.7673 35.5485L59.5121 47.2932L63.3572 43.4481L51.6125 31.7033Z" fill="#4CDBC4"/>
</svg>
