<svg width="522" height="522" viewBox="0 0 522 522" fill="none" xmlns="http://www.w3.org/2000/svg">
<path d="M120.366 404.612C90.7582 388.418 67.6542 359.65 61.2112 326.601C54.7682 293.553 66.2872 256.912 92.4092 235.574C109.398 221.696 130.885 214.858 150.918 205.882C170.951 196.906 191.085 184.282 199.861 164.211C205.902 150.393 205.872 134.455 212.399 120.858C223.052 98.661 250.72 92.451 275.059 96.538C310.011 102.406 320.463 131.388 350.561 141.924C380.66 152.459 414.012 142.601 432.962 163.257C456.049 188.421 435.538 206.844 432.406 243.551C431.9 249.487 432.231 255.628 434.379 261.188C438.054 270.703 447.064 276.874 454.851 283.482C471.575 297.676 484.603 316.86 488.707 338.37C492.811 359.88 478.149 392.183 462.974 404.615H120.366V404.612Z" fill="#F6F3F3"/>
<path d="M402.433 164.585L403.858 161.27L405.282 164.585L408.596 166.008L405.282 167.432L403.858 170.746L402.433 167.432L399.12 166.008L402.433 164.585Z" fill="white"/>
<path d="M207.911 384.028L209.335 380.715L210.759 384.028L214.072 385.453L210.759 386.877L209.335 390.191L207.911 386.877L204.596 385.453L207.911 384.028Z" fill="white"/>
<path d="M277.636 117.323L279.06 114.009L280.484 117.323L283.798 118.747L280.484 120.171L279.06 123.485L277.636 120.171L274.322 118.747L277.636 117.323Z" fill="white"/>
<path d="M419.105 229.45L419.961 227.458L420.817 229.45L422.809 230.305L420.817 231.161L419.961 233.153L419.105 231.161L417.114 230.305L419.105 229.45Z" fill="white"/>
<path d="M319.626 328.635L320.482 326.643L321.337 328.635L323.328 329.49L321.337 330.346L320.482 332.338L319.626 330.346L317.634 329.49L319.626 328.635Z" fill="white"/>
<path d="M270.101 376.854L270.957 374.862L271.813 376.854L273.805 377.709L271.813 378.565L270.957 380.557L270.101 378.565L268.109 377.709L270.101 376.854Z" fill="white"/>
<path d="M101.089 258.845L101.945 256.853L102.801 258.845L104.793 259.701L102.801 260.557L101.945 262.549L101.089 260.557L99.0967 259.701L101.089 258.845Z" fill="white"/>
<path d="M246.707 111.27C246.707 112.399 245.792 113.315 244.662 113.315C243.533 113.315 242.617 112.399 242.617 111.27C242.617 110.14 243.533 109.225 244.662 109.225C245.792 109.225 246.707 110.14 246.707 111.27ZM216.117 319.432C216.117 320.562 215.202 321.477 214.072 321.477C212.943 321.477 212.027 320.562 212.027 319.432C212.027 318.303 212.943 317.387 214.072 317.387C215.202 317.387 216.117 318.303 216.117 319.432ZM144.016 233.153C144.016 234.282 143.1 235.198 141.971 235.198C140.842 235.198 139.926 234.282 139.926 233.153C139.926 232.023 140.842 231.108 141.971 231.108C143.1 231.108 144.016 232.023 144.016 233.153ZM398.502 208.592C398.502 209.722 397.586 210.637 396.457 210.637C395.327 210.637 394.411 209.722 394.411 208.592C394.411 207.463 395.327 206.547 396.457 206.547C397.586 206.547 398.502 207.463 398.502 208.592ZM460.416 307.591C460.416 309.37 458.973 310.814 457.194 310.814C455.415 310.814 453.972 309.371 453.972 307.591C453.972 305.811 455.415 304.368 457.194 304.368C458.974 304.368 460.416 305.811 460.416 307.591ZM316.127 388.675C316.127 390.454 314.684 391.897 312.904 391.897C311.125 391.897 309.682 390.454 309.682 388.675C309.682 386.896 311.125 385.453 312.904 385.453C314.684 385.453 316.127 386.895 316.127 388.675ZM84.2526 294.594C84.2526 296.373 82.8096 297.817 81.0306 297.817C79.2506 297.817 77.8076 296.374 77.8076 294.594C77.8076 292.814 79.2506 291.371 81.0306 291.371C82.8096 291.371 84.2526 292.814 84.2526 294.594Z" stroke="white" stroke-width="0.7156" stroke-miterlimit="10"/>
<path d="M368.848 354.67C368.848 360.222 323.5 364.722 267.56 364.722C211.62 364.722 166.272 360.222 166.272 354.67C166.272 349.118 211.62 344.618 267.56 344.618C323.499 344.618 368.848 349.118 368.848 354.67Z" fill="#CDC1DF"/>
<path d="M306.83 357.348H231.511L242.821 262.751H295.52L306.83 357.348Z" fill="#85ABB0"/>
<path d="M308.407 353.32H229.933C228.679 353.32 227.662 354.336 227.662 355.591V357.348H310.678V355.591C310.679 354.337 309.661 353.32 308.407 353.32Z" fill="#A2DCEA"/>
<path d="M372.877 304.368H165.463C158.449 304.368 152.763 298.682 152.763 291.668V162.946C152.763 155.932 158.449 150.246 165.463 150.246H372.877C379.892 150.246 385.578 155.932 385.578 162.946V291.669C385.579 298.683 379.892 304.368 372.877 304.368Z" fill="#5B8696"/>
<path d="M374.978 274.165H163.363V160.846H374.978V274.165Z" fill="white"/>
<path d="M152.763 284.765V291.669C152.763 298.683 158.449 304.369 165.463 304.369H372.877C379.892 304.369 385.578 298.683 385.578 291.669V284.765H152.763Z" fill="#A2DCEA"/>
<path d="M266.917 217.505H177.548V123.781H266.917V217.505Z" fill="#DAF0F7"/>
<path d="M266.917 274.165H177.548V222.244H266.917V274.165Z" fill="#DAF0F7"/>
<path d="M258.011 136.588H186.455V131.158H258.011V136.588Z" fill="#BBE3E9"/>
<path d="M254.714 141.597H189.752V138.702H254.714V141.597Z" fill="#BBE3E9"/>
<path d="M258.011 152.598H210.703V150.83H258.011V152.598Z" fill="#BBE3E9"/>
<path d="M258.011 171.263H210.703V169.494H258.011V171.263Z" fill="#BBE3E9"/>
<path d="M258.011 158.82H210.703V157.051H258.011V158.82Z" fill="#BBE3E9"/>
<path d="M258.011 165.041H210.703V163.273H258.011V165.041Z" fill="#BBE3E9"/>
<path d="M258.011 189.928H186.455V188.159H258.011V189.928Z" fill="#BBE3E9"/>
<path d="M258.011 177.485H186.455V175.716H258.011V177.485Z" fill="#BBE3E9"/>
<path d="M258.011 183.706H186.455V181.937H258.011V183.706Z" fill="#BBE3E9"/>
<path d="M258.011 202.371H186.455V200.602H258.011V202.371Z" fill="#BBE3E9"/>
<path d="M258.011 196.149H186.455V194.381H258.011V196.149Z" fill="#BBE3E9"/>
<path d="M258.011 208.592H186.455V206.824H258.011V208.592Z" fill="#BBE3E9"/>
<path d="M230.128 243.246H186.455V241.477H230.128V243.246Z" fill="#BBE3E9"/>
<path d="M230.128 237.024H186.455V235.255H230.128V237.024Z" fill="#BBE3E9"/>
<path d="M230.128 249.467H186.455V247.699H230.128V249.467Z" fill="#BBE3E9"/>
<path d="M258.815 266.276H186.455V258.583H258.815V266.276Z" fill="#BBE3E9"/>
<path d="M206.805 171.263H186.455V150.912H206.805V171.263Z" fill="#BBE3E9"/>
<path d="M258.814 242.361C258.814 249.115 253.339 254.59 246.584 254.59C239.83 254.59 234.356 249.116 234.356 242.361C234.356 235.607 239.831 230.132 246.584 230.132C253.339 230.132 258.814 235.608 258.814 242.361Z" fill="#BBE3E9"/>
<path d="M292.078 152.073C292.078 152.073 280.317 124.547 308.987 133.642C332.83 141.205 321.792 161.667 317.642 162.686L292.078 152.073Z" fill="#0E4C72"/>
<path d="M221.075 189.814C221.075 189.814 217.219 183.391 215.811 182.285C213.717 180.639 205.889 176.237 205.038 176.835C204.676 177.089 204.555 177.898 204.779 178.311C205.003 178.724 210.245 183.122 210.245 183.122C210.245 183.122 207.79 183.655 207.204 184.844C206.77 185.724 207.741 190.866 208.388 191.884C209.155 193.09 215.378 194.081 215.378 194.081L216.858 194.464C216.857 194.463 218.955 194.073 221.075 189.814Z" fill="#F9BAB4"/>
<path d="M364.998 236.549C363.495 227.025 351.13 189.197 344.563 185.174C337.856 181.065 322.961 180.945 312.023 179.913C301.248 178.898 284.2 181.113 279.067 183.423C272.151 186.534 251.413 210.626 247.881 210.96C243.772 211.238 232.666 198.965 221.075 189.814L215.377 194.08C215.377 194.08 241.849 230.771 248.59 230.402C252.251 230.201 268.195 219.98 275.963 215.087C274.469 237.362 271.181 280.776 271.181 280.776C310.294 290.124 345.802 280.776 345.802 280.776C344.582 248.559 344.188 223.333 344.188 223.333C344.188 223.333 347.733 235.986 348.658 240.953C350.051 248.42 351.646 291.596 351.646 291.596L359.391 292.245C362.495 280.079 365.805 241.659 364.998 236.549Z" fill="#F9BAB4"/>
<path d="M364.998 236.549C363.495 227.025 351.13 189.197 344.563 185.174C337.856 181.065 322.961 180.945 312.023 179.913C301.248 178.898 284.2 181.113 279.067 183.423C272.151 186.534 251.413 210.626 247.881 210.96C246.023 211.086 242.73 208.639 238.611 205.081L230.783 213.992C237.878 222.545 245.416 230.576 248.589 230.402C252.25 230.201 268.194 219.979 275.962 215.087C274.468 237.362 271.18 280.776 271.18 280.776C310.293 290.124 345.801 280.776 345.801 280.776C344.581 248.559 344.187 223.333 344.187 223.333C344.187 223.333 347.732 235.986 348.657 240.953C349.272 244.245 349.925 254.478 350.463 264.893L363.26 265.798C364.619 252.576 365.448 239.396 364.998 236.549Z" fill="#200660"/>
<path d="M228.907 214.896L232.49 218.097L241.683 206.201L239.164 203.412L228.907 214.896Z" fill="#EF7869"/>
<path d="M349.441 263.285L349.061 268.074L364.095 268.199L364.792 264.506L349.441 263.285Z" fill="#EF7869"/>
<path d="M314.975 180.178L314.366 163.696H301.638L301.502 179.892L304.088 187.054C305.202 190.141 309.446 190.455 311.001 187.564L314.975 180.178Z" fill="#F7A39F"/>
<path d="M292.078 152.073C292.078 152.073 295.146 172.786 299.031 173.224C310.389 174.505 317.958 159.966 317.958 159.966C317.958 159.966 320.197 159.453 321.322 155.665C322.213 152.667 320.197 150.652 318.597 153.552C318.597 153.552 317.824 153.715 317.083 153.021C317.083 153.021 317.654 148.794 316.915 146.205C316.175 143.616 298.368 154.077 292.752 145.659C292.753 145.657 291.7 147.824 292.078 152.073Z" fill="#F9BAB4"/>
<path d="M304.12 160.178C303.766 160.008 303.245 159.809 302.612 159.603C302.327 159.514 302.019 159.418 301.695 159.318C301.693 159.313 301.687 159.312 301.695 159.306L301.702 159.298L301.706 159.295L301.736 159.231C301.819 159.051 301.904 158.867 301.99 158.68C302.666 157.178 303.157 155.826 303.333 155.052C302.874 155.687 302.186 156.958 301.506 158.468C301.423 158.658 301.341 158.844 301.26 159.027C301.192 159.184 301.125 159.338 301.059 159.491L301 159.619L300.988 159.651L301.023 159.659L301.093 159.676L301.367 159.74C301.496 159.769 301.624 159.798 301.75 159.826C301.84 159.844 301.929 159.862 302.016 159.88C302.192 159.913 302.36 159.945 302.524 159.975C303.174 160.09 303.726 160.161 304.12 160.178Z" fill="#A45E5C"/>
<path d="M308.021 155.93C308.021 156.953 308.85 157.784 309.874 157.784C310.898 157.784 311.728 156.954 311.728 155.93C311.728 154.907 310.899 154.076 309.874 154.076C308.85 154.076 308.021 154.906 308.021 155.93Z" fill="white"/>
<path d="M310.026 156.913C310.6 156.913 311.064 156.448 311.064 155.875C311.064 155.301 310.599 154.836 310.026 154.836C309.452 154.836 308.987 155.301 308.987 155.875C308.987 156.448 309.453 156.913 310.026 156.913Z" fill="#3A3D3F"/>
<path d="M295.323 155.93C295.323 156.953 296.153 157.784 297.177 157.784C298.2 157.784 299.03 156.954 299.03 155.93C299.03 154.907 298.2 154.076 297.177 154.076C296.153 154.076 295.323 154.906 295.323 155.93Z" fill="white"/>
<path d="M297.33 157.024C297.904 157.024 298.368 156.559 298.368 155.986C298.368 155.412 297.903 154.947 297.33 154.947C296.756 154.947 296.291 155.412 296.291 155.986C296.291 156.559 296.756 157.024 297.33 157.024Z" fill="#3A3D3F"/>
<path d="M295.146 153.551C295.146 153.551 296.695 152.49 298.713 153.366M311.993 153.551C311.993 153.551 310.444 152.49 308.426 153.366L311.993 153.551Z" stroke="#3A3D3F" stroke-width="0.5367" stroke-miterlimit="10" stroke-linecap="round"/>
<path d="M293.892 161.605C293.892 161.605 307.572 161.965 314.976 161.126C315.541 160.466 316.382 156.987 316.681 156.507C316.981 156.027 318.134 156.267 318.368 156.507C318.601 156.747 317.613 164.042 316.294 169.25C314.976 174.459 297.486 176.806 296.584 173.336C295.146 167.807 293.892 161.605 293.892 161.605Z" fill="#0E4C72"/>
<path d="M300.111 162.723L305.148 162.686C305.148 162.686 304.761 164.692 302.644 164.708C300.527 164.723 300.111 162.723 300.111 162.723Z" fill="white"/>
<path d="M237.893 394.871C235.105 395.746 231.564 398.818 231.564 398.818C232.024 402.969 233.937 404.532 233.937 404.532C233.937 404.532 258.343 392.337 257.749 392.143L237.893 394.871Z" fill="#8AA1C5"/>
<path d="M140.62 268.038L142.071 252.19L151.749 254.285L151.862 267.799L151.262 269.463C149.731 273.705 143.901 274.134 141.764 270.163L140.62 268.038Z" fill="#F9BAB4"/>
<path d="M166.207 312.24C166.207 312.24 193.763 318.381 203.958 326.835C212.48 333.902 233.111 381.806 237.893 394.871L231.564 398.818C231.564 398.818 208.386 354.309 193.685 342.244C177.229 328.737 149.134 322.594 126.524 318.973L166.207 312.24Z" fill="#200660"/>
<path d="M188.358 397.722C185.479 397.226 180.925 398.338 180.925 398.338C179.435 402.24 180.422 404.505 180.422 404.505C180.422 404.505 207.703 404.819 207.264 404.375L188.358 397.722Z" fill="#8AA1C5"/>
<path d="M126.523 318.973C126.523 318.973 127.038 326.913 132.443 330.729C144.67 339.361 179.85 332.077 185.502 339.769C189.619 345.373 180.924 398.338 180.924 398.338L188.792 397.875C188.792 397.875 208.54 339.794 202.966 327.682C198.287 317.513 166.207 312.24 166.207 312.24L126.523 318.973Z" fill="#200660"/>
<path d="M160.93 275.412L166.208 312.24C143.63 317.506 126.524 318.973 126.524 318.973C125.15 301.569 128.301 285.075 130.062 274.519C131.732 264.506 140.16 257.93 150.053 260.202C150.323 260.264 150.587 260.33 150.844 260.4C157.083 262.089 160.519 268.961 160.93 275.412Z" fill="#E71D36"/>
<path d="M159.224 239.677C159.381 242.874 159.715 247.665 158.313 251.695C157.418 254.269 152.157 256.373 151.167 256.621C149.138 257.131 147.428 249.684 147.78 244.603C148.132 239.521 159.224 239.677 159.224 239.677Z" fill="#F9BAB4"/>
<path d="M151.86 296.85L188.029 301.533L190.304 298.18L156.447 286.121L151.86 296.85Z" fill="#E71D36"/>
<path d="M158.132 299.134L185.635 273.889L182.16 270.965L152.562 288.88L158.132 299.134Z" fill="#E71D36"/>
<path d="M160.457 229.727C155.284 223.05 150.419 231.753 149.515 231.836C144.683 232.281 138.956 233.534 138.149 237.027C135.902 246.759 139.368 255.527 147.108 255.621C152.237 255.683 152.912 253.508 153.236 250.437C153.236 250.437 151.953 251.221 151.014 248.06C150.271 245.559 152.255 244.702 153.014 246.297C153.014 246.297 153.66 246.433 154.277 245.853C154.277 245.853 154.006 243.595 156 242.508C161.195 239.677 162.868 232.84 160.457 229.727Z" fill="#200660"/>
<path d="M115.792 403.971H114.218L126.365 347.819C126.801 345.806 127.8 343.975 129.255 342.521L133.615 338.161L134.701 339.247L130.341 343.607C129.095 344.852 128.24 346.42 127.866 348.144L115.792 403.971Z" fill="#DDF1F3"/>
<path d="M190.748 403.971L178.674 348.143C178.302 346.422 177.446 344.852 176.201 343.607L171.841 339.247L172.928 338.161L177.288 342.521C178.743 343.976 179.742 345.807 180.177 347.819L192.333 403.971H190.748Z" fill="#DDF1F3"/>
<path d="M150.831 265.542C151.341 268.311 152.563 273.395 154.144 279.182C154.5 280.457 154.846 281.695 155.175 282.875C155.535 284.105 155.875 285.274 156.191 286.357C156.92 286.595 157.616 286.822 158.275 287.037C158.887 287.227 159.466 287.408 160.007 287.577C161.091 287.908 162.028 288.177 162.788 288.378C162.072 288.053 161.176 287.67 160.128 287.241C159.118 286.841 157.969 286.383 156.705 285.882L156.698 285.839L156.65 285.642L156.549 285.239C156.481 284.967 156.411 284.691 156.341 284.41C156.197 283.85 156.049 283.271 155.897 282.678C155.581 281.494 155.25 280.252 154.909 278.973C153.328 273.187 151.799 268.186 150.831 265.542Z" fill="#80A8D9"/>
<path d="M136.214 267.201C137.467 271.951 140.07 280.715 143.233 290.72C143.819 292.556 144.39 294.35 144.923 296.019C147.05 296.31 149.09 296.592 151.021 296.858C152.878 297.099 154.628 297.327 156.249 297.537C159.492 297.944 162.217 298.257 164.232 298.453C162.245 298.064 159.545 297.584 156.321 297.047C154.708 296.785 152.965 296.502 151.117 296.203C149.341 295.927 147.464 295.636 145.507 295.333C145.029 293.805 144.515 292.162 143.989 290.481C140.825 280.475 137.918 271.808 136.214 267.201Z" fill="#80A8D9"/>
<path d="M185.043 266.921C185.043 266.921 187.456 265.316 189.397 262.088C189.925 261.588 193.109 264.721 193.056 267.16C192.862 268.418 190.84 270.906 190.007 271.477C188.788 272.313 185.638 273.888 185.638 273.888C185.638 273.888 182.345 273.72 182.162 270.964C182.162 270.964 182.249 265.874 183.191 265.094C184.255 264.213 185.044 262.293 185.503 262.561C186.256 263.001 186.349 265.19 185.043 266.921Z" fill="#F9BAB4"/>
<path d="M190.305 298.18C190.305 298.18 195.394 297.198 197.833 299.134C200.222 301.03 200.769 303.1 200.769 303.1H190.305L188.031 301.533C188.03 301.533 187.205 299.681 190.305 298.18Z" fill="#F9BAB4"/>
<path d="M129.679 334.472L119.136 266.091C118.687 263.182 115.965 261.186 113.055 261.635L125.098 339.747V339.802H181.44C181.44 336.858 179.054 334.471 176.109 334.471H129.679V334.472Z" fill="#5B8696"/>
<path d="M398.134 268.038L396.683 252.19L387.006 254.285L386.892 267.799L387.493 269.463C389.024 273.705 394.854 274.134 396.991 270.163L398.134 268.038Z" fill="#F9BAB4"/>
<path d="M387.922 265.542C386.879 268.165 385.298 273.152 383.718 278.939C383.379 280.219 383.05 281.462 382.738 282.646C382.588 283.239 382.443 283.818 382.301 284.38C382.233 284.661 382.165 284.938 382.098 285.209C382.037 285.463 381.946 285.834 381.963 285.804L381.912 285.831L381.676 285.925C381.515 285.989 381.355 286.053 381.198 286.116C380.884 286.242 380.578 286.367 380.28 286.487C379.687 286.734 379.128 286.968 378.605 287.186C377.562 287.632 376.673 288.033 375.963 288.379C376.731 288.2 377.674 287.948 378.764 287.634C379.307 287.473 379.889 287.299 380.504 287.116C380.811 287.021 381.126 286.924 381.449 286.823C381.611 286.773 381.775 286.722 381.94 286.669C382.172 286.593 382.407 286.515 382.645 286.437C382.973 285.338 383.325 284.153 383.696 282.907C384.028 281.729 384.376 280.49 384.734 279.216C386.316 273.43 387.487 268.332 387.922 265.542Z" fill="#90B4B5"/>
<path d="M402.54 267.201C400.759 271.784 397.802 280.437 394.639 290.442C394.124 292.097 393.618 293.714 393.148 295.218C391.221 295.523 389.371 295.817 387.621 296.094C385.774 296.404 384.033 296.696 382.421 296.966C379.2 297.525 376.504 298.032 374.521 298.453C376.541 298.29 379.27 298.005 382.516 297.619C384.137 297.417 385.889 297.198 387.747 296.967C389.704 296.703 391.772 296.424 393.928 296.133C394.469 294.441 395.05 292.622 395.646 290.76C398.81 280.754 401.361 271.974 402.54 267.201Z" fill="#90B4B5"/>
<path d="M237.097 299.982H209.335V303.1H237.097V299.982Z" fill="#F3757C"/>
<path d="M320.482 299.982H292.719V303.1H320.482V299.982Z" fill="#F9BAB4"/>
<path d="M314.854 296.926H287.092V300.044H314.854V296.926Z" fill="#956CAF"/>
<path d="M247.447 295.465H242.11V303.1H247.447V295.465Z" fill="#4775BA"/>
<path d="M269.868 290.759H259.672V303.1H269.868V290.759Z" fill="#FFDEA8"/>
<path d="M268.238 301.042L267.946 300.333L270.965 299.089C272.534 298.444 273.588 296.683 273.588 294.707V293.725C273.588 293.146 273.213 292.675 272.75 292.675H267.561V291.907H272.75C273.636 291.907 274.355 292.723 274.355 293.725V294.707C274.355 296.99 273.111 299.036 271.258 299.798L268.238 301.042Z" fill="#FFDEA8"/>
<path d="M356.827 398.338C356.827 398.338 352.273 397.225 349.394 397.722L333.259 403.4C332.72 403.589 332.853 404.385 333.425 404.388L353.398 404.485L354.935 401.953L355.707 404.496L357.33 404.504L356.827 398.338Z" fill="#8AA1C5"/>
<path d="M412.229 318.973C412.229 318.973 411.715 326.913 406.31 330.729C394.083 339.361 363.365 329.946 356.667 336.747C351.774 341.717 356.827 398.338 356.827 398.338L348.958 397.875C348.958 397.875 332.917 337.403 337.601 327.833C342.216 318.403 376.878 314.109 376.878 314.109L412.229 318.973Z" fill="#F9BAB4"/>
<path d="M376.878 314.108C376.878 314.108 342.216 318.402 337.601 327.832C334.701 333.758 339.745 359.192 344.009 377.709L355.29 376.845C354.347 360.257 353.803 339.656 356.668 336.747C363.366 329.946 394.084 339.361 406.311 330.729C411.716 326.913 412.23 318.973 412.23 318.973L376.878 314.108Z" fill="#C6C7CF"/>
<path d="M336.814 398.338C336.814 398.338 332.259 397.225 329.381 397.722L313.245 403.4C312.706 403.589 312.841 404.385 313.412 404.388L333.385 404.485L334.922 401.953L335.694 404.496L337.317 404.504L336.814 398.338Z" fill="#8AA1C5"/>
<path d="M412.229 318.973C412.229 318.973 411.715 326.913 406.31 330.729C394.083 339.361 359.789 331.445 354.137 339.137C350.021 344.74 336.814 398.338 336.814 398.338L328.946 397.875C328.946 397.875 332.931 341.595 338.957 327.485C343.353 317.191 376.879 314.109 376.879 314.109L412.229 318.973Z" fill="#F9BAB4"/>
<path d="M392.513 292.535L366.37 298.948L364.095 295.596L388.076 283.794L392.513 292.535Z" fill="#00253D"/>
<path d="M364.095 295.596C364.095 295.596 359.006 294.614 356.566 296.55C354.178 298.445 353.631 300.515 353.631 300.515H364.095L366.37 298.948C366.37 298.948 367.194 297.096 364.095 295.596Z" fill="#E89D95"/>
<path d="M379.379 282.825L376.878 314.108C399.456 319.375 412.229 318.973 412.229 318.973C413.604 301.569 410.453 285.075 408.692 274.519C407.022 264.506 401.794 258.126 391.901 260.399C391.631 260.461 391.324 260.438 391.11 260.597C386.892 263.742 372.111 276.597 379.379 282.825Z" fill="#E71D36"/>
<path d="M379.53 239.677C379.373 242.874 379.276 247.336 380.954 251.26C382.938 255.903 386.933 255.423 387.922 255.672C389.952 256.181 391.326 249.684 390.973 244.603C390.622 239.521 379.53 239.677 379.53 239.677Z" fill="#F9BAB4"/>
<path d="M348.005 403.971L360.08 348.143C360.452 346.422 361.308 344.852 362.554 343.607L366.914 339.247L365.828 338.161L361.468 342.521C360.012 343.976 359.014 345.807 358.579 347.819L346.423 403.971H348.005Z" fill="#DDF1F3"/>
<path d="M337.451 300.515H363.921C365.329 300.515 366.468 301.656 366.468 303.062V303.1H337.451V300.515Z" fill="#F7F4F9"/>
<path d="M337.451 303.1L324.867 280.672C324.301 279.663 325.03 278.419 326.187 278.419L340.035 303.1H337.451Z" fill="#F7F4F9"/>
<path d="M379.53 239.677C377.667 235.159 382.184 226.239 393.217 227.537C404.251 228.835 399.707 236.456 403.494 239.677C407.28 242.898 409.86 242.045 412.096 246.009C415.742 252.472 408.234 254.958 415.958 259.939C420.67 262.976 417.173 268.583 420.555 272.908C425.698 279.481 416.138 288.93 407.064 283.794C402.075 280.971 403.48 276.454 401.269 269.939C399.058 263.423 392.513 268.967 392.513 258.2C392.513 252.19 386.701 255.35 386.038 249.987C386.038 249.987 387.222 250.145 387.74 248.06C388.37 245.528 386.5 244.702 385.74 246.297C385.741 246.298 381.525 244.518 379.53 239.677Z" fill="#200660"/>
<path d="M387.712 296.787L359.604 298.948L357.33 295.596L384.474 285.266L387.712 296.787Z" fill="#E71D36"/>
<path d="M357.33 295.596C357.33 295.596 352.241 294.614 349.802 296.55C347.414 298.445 346.866 300.515 346.866 300.515H357.33L359.604 298.948C359.604 298.948 360.43 297.096 357.33 295.596Z" fill="#F9BAB4"/>
<path d="M402.54 271.715C400.548 275.172 397.088 281.735 393.28 289.352C392.643 290.635 392.021 291.891 391.421 293.099C390.86 294.25 390.321 295.357 389.813 296.4C388.619 296.513 387.48 296.62 386.403 296.722C385.265 296.838 384.193 296.946 383.197 297.047C381.204 297.259 379.516 297.46 378.205 297.639C379.528 297.616 381.227 297.555 383.229 297.46C384.229 297.408 385.305 297.351 386.447 297.291C387.65 297.218 388.923 297.139 390.256 297.058C390.842 295.914 391.462 294.702 392.107 293.44C392.713 292.236 393.344 290.984 393.989 289.706C397.797 282.089 400.97 275.383 402.54 271.715Z" fill="#477EA5"/>
<path d="M389.598 266.282C388.708 268.671 387.321 273.197 385.906 278.439C385.584 279.664 385.272 280.853 384.976 281.983C384.833 282.549 384.695 283.101 384.56 283.635C384.495 283.903 384.43 284.167 384.367 284.425L384.274 284.809L384.23 284.993L384.222 285.04C383.172 285.496 382.213 285.911 381.369 286.278C380.488 286.671 379.732 287.024 379.123 287.326C379.777 287.142 380.575 286.896 381.493 286.596C381.952 286.443 382.44 286.28 382.957 286.108C383.517 285.912 384.107 285.706 384.724 285.49C385.024 284.46 385.35 283.347 385.692 282.175C386.005 281.048 386.333 279.864 386.671 278.643C388.087 273.403 389.165 268.794 389.598 266.282Z" fill="#477EA5"/>
<path d="M376.878 314.108C376.878 314.108 343.352 317.19 338.956 327.484C335.317 336.006 332.423 359.903 330.7 377.501L341.684 379.274C345.887 363.278 351.659 342.511 354.138 339.138C359.79 331.446 394.084 339.362 406.31 330.73C411.715 326.914 412.229 318.974 412.229 318.974L376.878 314.108Z" fill="#C6C7CF"/>
<path d="M409.074 334.472L419.617 266.091C420.066 263.182 422.788 261.186 425.698 261.635L413.654 339.747V339.802H357.312C357.312 336.858 359.699 334.471 362.644 334.471H409.074V334.472Z" fill="#5B8696"/>
<path d="M372.228 104.43C363.748 95.95 349.999 95.95 341.519 104.43C334.571 111.378 333.321 121.861 337.757 130.087L336.423 133.874L332.962 143.697L342.785 140.236L346.572 138.902C354.799 143.339 365.28 142.088 372.229 135.14C380.708 126.659 380.708 112.91 372.228 104.43Z" fill="#200660"/>
<path d="M348.625 119.315C348.625 120.952 347.297 122.28 345.66 122.28C344.022 122.28 342.695 120.952 342.695 119.315C342.695 117.677 344.023 116.35 345.66 116.35C347.297 116.35 348.625 117.678 348.625 119.315Z" fill="white"/>
<path d="M360.138 119.315C360.138 120.952 358.81 122.28 357.173 122.28C355.536 122.28 354.208 120.952 354.208 119.315C354.208 117.677 355.536 116.35 357.173 116.35C358.81 116.35 360.138 117.678 360.138 119.315Z" fill="white"/>
<path d="M371.65 119.315C371.65 120.952 370.322 122.28 368.685 122.28C367.047 122.28 365.72 120.952 365.72 119.315C365.72 117.677 367.048 116.35 368.685 116.35C370.322 116.35 371.65 117.678 371.65 119.315Z" fill="white"/>
<path d="M435.582 200.896H417.439C416.216 200.896 415.224 199.904 415.224 198.681V191.136C415.224 189.912 416.216 188.921 417.439 188.921H435.582C436.806 188.921 437.798 189.913 437.798 191.136V198.681C437.798 199.905 436.806 200.896 435.582 200.896Z" fill="white"/>
<path d="M374.406 403.655H371.969V333.726C371.969 328.577 369.964 323.738 366.324 320.098L351.049 304.824L352.772 303.101L368.046 318.376C372.147 322.476 374.405 327.928 374.405 333.727V403.655H374.406Z" fill="#A2DCEA"/>
<path d="M174.239 403.655H176.676V333.726C176.676 328.577 178.68 323.738 182.32 320.098L197.595 304.824L195.872 303.101L180.597 318.376C176.497 322.476 174.239 327.928 174.239 333.727V403.655Z" fill="#A2DCEA"/>
<path d="M372.086 307.74H176.558C175.277 307.74 174.238 306.702 174.238 305.42C174.238 304.139 175.276 303.1 176.558 303.1H372.085C373.367 303.1 374.406 304.138 374.406 305.42C374.406 306.701 373.368 307.74 372.086 307.74Z" fill="#5B8696"/>
</svg>
