<svg width="150" height="150" viewBox="0 0 150 150" fill="none" xmlns="http://www.w3.org/2000/svg">
<g clip-path="url(#clip0)">
<path d="M51.1066 96.4157C54.0342 96.6717 56.8421 96.9439 59.6557 97.1314C60.0323 97.1565 60.5821 96.8557 60.808 96.5345C67.9921 86.3113 75.1463 76.067 82.3007 65.8228C82.3559 65.7439 82.3512 65.6234 82.4299 65.2804C79.4516 65.02 76.5041 64.7439 73.5519 64.5357C73.2869 64.5171 72.9152 64.8856 72.7203 65.1634C65.5441 75.3918 58.3827 85.6307 51.2238 95.8714C51.1692 95.9492 51.1777 96.0709 51.1066 96.4157Z" fill="#200660"/>
<path d="M47.2071 93.72C52.4644 86.2107 57.5731 78.9133 62.6822 71.6165C64.549 68.9506 66.3732 66.2529 68.3056 63.6353C69.1481 62.4941 69.4767 61.4964 68.649 60.1966C68.0568 59.2664 67.6865 58.1948 67.1303 56.9992C66.7347 57.4813 66.4265 57.81 66.1706 58.1754C59.3451 67.9204 52.5369 77.6772 45.6849 87.4033C45.0562 88.2956 44.8765 89.0129 45.4371 89.9951C46.066 91.0976 46.5374 92.2897 47.2071 93.72Z" fill="#00EDBB"/>
<path d="M83.0634 60.93C82.244 59.137 81.5856 57.6427 80.8663 56.1784C80.7556 55.9531 80.3756 55.7571 80.1024 55.7306C77.2492 55.4539 74.3924 55.2145 71.1556 54.9315C71.983 56.7193 72.6559 58.2504 73.4152 59.7374C73.5397 59.9811 74.0355 60.1227 74.3748 60.1556C77.1345 60.4231 79.8979 60.6532 83.0634 60.93Z" fill="#EFCA48"/>
<path d="M89.2296 63.5674L88.6638 62.3418C88.1637 61.2675 87.6695 60.1936 87.1753 59.1199C86.1974 56.9913 85.2256 54.8634 84.2728 52.7247C83.8673 51.8163 83.346 51.4677 82.3709 51.3884C77.4692 51.0082 72.5713 50.5861 67.6787 50.1038C66.6864 50.011 66.1325 50.3142 65.5781 51.1084C57.1887 63.1606 48.7653 75.1857 40.3991 87.252C40.0656 87.7381 40.0005 88.6903 40.237 89.2445C41.6932 92.6274 43.2375 95.9754 44.852 99.2813C45.1202 99.82 45.8762 100.395 46.4587 100.458C51.4034 100.97 56.3545 101.409 61.3139 101.751C61.9407 101.794 62.8524 101.352 63.2306 100.84C65.4962 97.7399 67.6757 94.5839 69.8663 91.4411L70.5246 90.4983L89.2296 63.5674ZM68.3021 63.6352C66.3695 66.2549 64.5514 68.9514 62.6813 71.619C57.5755 78.9145 52.4635 86.2092 47.2052 93.7217C46.5359 92.2931 46.0644 91.1 45.4394 89.9965C44.8766 89.0136 45.0545 88.2957 45.6841 87.405C52.5362 77.6797 59.343 67.9202 66.1725 58.1747C66.4288 57.8092 66.736 57.4845 67.1303 56.9975C67.6862 58.1979 68.0535 59.2668 68.651 60.1981C69.4775 61.4949 69.1474 62.4966 68.3021 63.6352ZM83.0642 60.9307C79.8996 60.654 77.137 60.4246 74.372 60.1525C74.035 60.1231 73.5381 59.9827 73.4142 59.7353C72.6528 58.2502 71.9805 56.7181 71.1548 54.9303C74.3916 55.2134 77.2505 55.4511 80.0998 55.7306C80.3764 55.7547 80.7534 55.9514 80.8669 56.1796C81.5875 57.6431 82.245 59.1374 83.0642 60.9307ZM65.7296 89.5214C64.0885 91.8575 62.447 94.1996 60.8059 96.5356C60.5839 96.8557 60.0299 97.1589 59.6564 97.1322C56.842 96.9407 54.0344 96.671 51.1044 96.4147C51.177 96.0695 51.1695 95.9475 51.2244 95.8736C58.3825 85.6295 65.5463 75.3918 72.7216 65.1613C72.9153 64.8872 73.2868 64.5196 73.5521 64.5367C76.5045 64.7464 79.4509 65.0221 82.4291 65.2825C82.3509 65.6213 82.3585 65.7432 82.303 65.8232C76.7805 73.7249 71.2638 81.627 65.7296 89.5214Z" fill="black"/>
<path d="M77.323 88.5395L78.4979 92.0181L79.6762 88.5146C79.7375 88.3307 79.7834 88.2027 79.8143 88.1306C79.845 88.0587 79.8957 87.9939 79.9665 87.936C80.0372 87.8782 80.1339 87.8494 80.2566 87.8494C80.3464 87.8494 80.4294 87.8719 80.5061 87.9166C80.5827 87.9614 80.6429 88.021 80.6866 88.0953C80.7302 88.1695 80.7522 88.2445 80.7522 88.3199C80.7522 88.3719 80.745 88.4278 80.7309 88.4881C80.7168 88.5482 80.6991 88.6071 80.6779 88.6649C80.6566 88.7228 80.6354 88.7824 80.6141 88.8437L79.3579 92.2337C79.313 92.3635 79.2682 92.4867 79.2234 92.6035C79.1786 92.7203 79.1266 92.8228 79.0677 92.9114C79.0087 92.9999 78.9302 93.0724 78.8325 93.1289C78.7346 93.1856 78.6148 93.2138 78.4732 93.2138C78.3316 93.2138 78.2119 93.1862 78.114 93.1306C78.0161 93.0753 77.9372 93.002 77.8769 92.9113C77.8168 92.8205 77.7641 92.7173 77.7194 92.6017C77.6747 92.4862 77.6297 92.3634 77.585 92.2337L76.3498 88.8719C76.3287 88.8106 76.3068 88.7505 76.2844 88.6914C76.2619 88.6324 76.243 88.5688 76.2278 88.5003C76.2125 88.432 76.2048 88.3742 76.2048 88.3269C76.2048 88.2066 76.2532 88.097 76.3498 87.9978C76.4465 87.8988 76.568 87.8492 76.7144 87.8492C76.8936 87.8492 77.0204 87.9042 77.0947 88.0138C77.169 88.1237 77.2451 88.2989 77.323 88.5395Z" fill="black"/>
<path d="M84.9595 88.7482H82.592V90.0223H84.7719C84.9323 90.0223 85.052 90.0582 85.131 90.1302C85.2101 90.2021 85.2496 90.297 85.2496 90.415C85.2496 90.5331 85.2107 90.6291 85.1328 90.7034C85.0549 90.7777 84.9346 90.8149 84.7719 90.8149H82.592V92.2906H85.0409C85.2059 92.2906 85.3305 92.3289 85.4142 92.4056C85.4981 92.4823 85.5399 92.5842 85.5399 92.7116C85.5399 92.8344 85.498 92.9341 85.4142 93.0106C85.3305 93.0873 85.206 93.1256 85.0409 93.1256H82.1851C81.9563 93.1256 81.7916 93.0749 81.6913 92.9734C81.591 92.8719 81.5409 92.708 81.5409 92.4816V88.582C81.5409 88.431 81.5634 88.3077 81.6081 88.2123C81.6528 88.1167 81.7231 88.0471 81.8188 88.0034C81.9144 87.9599 82.0363 87.938 82.1851 87.938H84.9595C85.127 87.938 85.2514 87.9751 85.3328 88.0494C85.4142 88.1237 85.4549 88.221 85.4549 88.3414C85.4549 88.4641 85.4142 88.5626 85.3328 88.6369C85.2514 88.7112 85.127 88.7482 84.9595 88.7482Z" fill="black"/>
<path d="M87.7447 88.4793L89.7654 91.5368V88.4512C89.7654 88.2506 89.8084 88.1003 89.8945 87.9999C89.9806 87.8996 90.0969 87.8495 90.2431 87.8495C90.3941 87.8495 90.5133 87.8996 90.6005 87.9999C90.6879 88.1003 90.7315 88.2506 90.7315 88.4512V92.5313C90.7315 92.9865 90.5427 93.2142 90.1652 93.2142C90.0708 93.2142 89.9859 93.2006 89.9105 93.1735C89.8349 93.1464 89.7641 93.1034 89.6981 93.0443C89.6322 92.9853 89.5708 92.9164 89.5142 92.8374C89.4576 92.7584 89.401 92.6775 89.3442 92.5949L87.3733 89.5728V92.6127C87.3733 92.8108 87.3273 92.9607 87.2352 93.062C87.1433 93.1634 87.0252 93.2142 86.8813 93.2142C86.7329 93.2142 86.6135 93.1629 86.524 93.0603C86.4342 92.9578 86.3895 92.8085 86.3895 92.6127V88.6105C86.3895 88.4405 86.4084 88.3073 86.4461 88.2105C86.4908 88.1043 86.5651 88.0177 86.669 87.9505C86.7727 87.8832 86.8848 87.8495 87.0052 87.8495C87.0995 87.8495 87.1804 87.8649 87.2476 87.8955C87.3147 87.9263 87.3737 87.9675 87.4244 88.0195C87.4751 88.0713 87.527 88.1385 87.5801 88.2212C87.6333 88.3037 87.6881 88.3898 87.7447 88.4793Z" fill="black"/>
<path d="M95.2502 88.805H94.1036V92.5738C94.1036 92.7909 94.0553 92.9518 93.9586 93.0568C93.8618 93.1619 93.7367 93.2144 93.5835 93.2144C93.4278 93.2144 93.301 93.1613 93.2031 93.0552C93.1052 92.9491 93.0561 92.7887 93.0561 92.5739V88.8052H91.9096C91.7303 88.8052 91.597 88.7657 91.5097 88.6866C91.4224 88.6075 91.3789 88.5031 91.3789 88.3734C91.3789 88.2388 91.4242 88.1327 91.515 88.0549C91.6057 87.977 91.7374 87.9381 91.9096 87.9381H95.2502C95.432 87.9381 95.567 87.9781 95.6555 88.0584C95.7439 88.1385 95.7881 88.2435 95.7881 88.3734C95.7881 88.5031 95.7434 88.6075 95.6537 88.6866C95.5639 88.7656 95.4295 88.805 95.2502 88.805Z" fill="black"/>
<path d="M96.418 90.9811V88.4864C96.418 88.2741 96.4657 88.1148 96.5612 88.0087C96.6567 87.9025 96.7824 87.8495 96.9381 87.8495C97.1009 87.8495 97.23 87.9027 97.3256 88.0087C97.4212 88.1149 97.4688 88.2741 97.4688 88.4864V91.0378C97.4688 91.3279 97.5012 91.5703 97.5662 91.7649C97.631 91.9595 97.746 92.1106 97.9112 92.2179C98.0762 92.3253 98.3075 92.3789 98.6046 92.3789C99.0152 92.3789 99.3053 92.2699 99.4753 92.0517C99.6452 91.8335 99.7301 91.5025 99.7301 91.0591V88.4866C99.7301 88.2719 99.7773 88.112 99.8717 88.007C99.966 87.9021 100.092 87.8495 100.25 87.8495C100.409 87.8495 100.536 87.9021 100.634 88.007C100.732 88.112 100.781 88.2719 100.781 88.4866V90.9813C100.781 91.3871 100.742 91.7256 100.663 91.997C100.584 92.2684 100.434 92.5065 100.215 92.7117C100.026 92.8864 99.8069 93.0138 99.5569 93.0939C99.3067 93.174 99.0142 93.2142 98.6792 93.2142C98.2806 93.2142 97.9373 93.1711 97.6495 93.085C97.3617 92.9989 97.1269 92.8656 96.9453 92.6852C96.7637 92.5046 96.6303 92.2735 96.5455 91.9915C96.4605 91.7097 96.418 91.3729 96.418 90.9811Z" fill="black"/>
<path d="M103.329 90.9068H102.961V92.5736C102.961 92.7931 102.913 92.9546 102.816 93.0584C102.719 93.1621 102.593 93.2141 102.437 93.2141C102.27 93.2141 102.14 93.1597 102.048 93.0513C101.956 92.9428 101.91 92.7835 101.91 92.5736V88.582C101.91 88.3555 101.961 88.1914 102.062 88.0901C102.164 87.9888 102.328 87.938 102.554 87.938H104.263C104.499 87.938 104.701 87.948 104.869 87.968C105.036 87.9881 105.187 88.0288 105.321 88.0901C105.484 88.1585 105.628 88.2564 105.753 88.3838C105.878 88.5112 105.973 88.6592 106.038 88.8278C106.103 88.9966 106.135 89.1753 106.135 89.3639C106.135 89.7509 106.026 90.0599 105.808 90.2912C105.59 90.5223 105.259 90.6863 104.815 90.783C105.002 90.8821 105.18 91.0284 105.35 91.2217C105.52 91.4153 105.671 91.6211 105.805 91.8392C105.938 92.0574 106.042 92.2545 106.116 92.4302C106.19 92.606 106.228 92.727 106.228 92.7929C106.228 92.8613 106.206 92.929 106.162 92.9964C106.118 93.0635 106.059 93.1167 105.983 93.1556C105.908 93.1945 105.82 93.2139 105.721 93.2139C105.603 93.2139 105.504 93.1863 105.424 93.1307C105.344 93.0754 105.275 93.0052 105.217 92.9202C105.159 92.8353 105.081 92.7102 104.982 92.545L104.561 91.8443C104.41 91.5873 104.275 91.3914 104.156 91.257C104.036 91.1225 103.915 91.0306 103.793 90.981C103.67 90.9317 103.515 90.9068 103.329 90.9068ZM103.931 88.7271H102.961V90.1532H103.902C104.155 90.1532 104.367 90.1314 104.539 90.0877C104.712 90.0442 104.843 89.9698 104.934 89.8649C105.025 89.7599 105.07 89.6153 105.07 89.4314C105.07 89.2875 105.034 89.1607 104.96 89.051C104.887 88.9413 104.786 88.8594 104.656 88.805C104.534 88.753 104.292 88.7271 103.931 88.7271Z" fill="black"/>
<path d="M110.548 88.7482H108.181V90.0223H110.361C110.521 90.0223 110.641 90.0582 110.72 90.1302C110.799 90.2021 110.838 90.297 110.838 90.415C110.838 90.5331 110.799 90.6291 110.721 90.7034C110.644 90.7777 110.523 90.8149 110.361 90.8149H108.181V92.2906H110.63C110.795 92.2906 110.919 92.3289 111.003 92.4056C111.087 92.4823 111.129 92.5842 111.129 92.7116C111.129 92.8344 111.087 92.9341 111.003 93.0106C110.919 93.0873 110.795 93.1256 110.63 93.1256H107.774C107.545 93.1256 107.38 93.0749 107.28 92.9734C107.18 92.8719 107.13 92.708 107.13 92.4816V88.582C107.13 88.431 107.152 88.3077 107.197 88.2123C107.241 88.1167 107.312 88.0471 107.407 88.0034C107.503 87.9599 107.625 87.938 107.774 87.938H110.548C110.716 87.938 110.84 87.9751 110.921 88.0494C111.003 88.1237 111.044 88.221 111.044 88.3414C111.044 88.4641 111.003 88.5626 110.921 88.6369C110.84 88.7112 110.716 88.7482 110.548 88.7482Z" fill="black"/>
<path d="M116.875 88.7482H114.805V90.0753H116.536C116.696 90.0753 116.816 90.1113 116.895 90.1832C116.974 90.2552 117.013 90.3513 117.013 90.4716C117.013 90.5918 116.973 90.6875 116.893 90.7582C116.813 90.8289 116.694 90.8643 116.536 90.8643H114.805V92.5736C114.805 92.7907 114.756 92.9517 114.658 93.0567C114.561 93.1617 114.435 93.2142 114.281 93.2142C114.126 93.2142 113.999 93.1611 113.901 93.055C113.803 92.9488 113.754 92.7885 113.754 92.5738V88.5821C113.754 88.4311 113.777 88.3078 113.821 88.2124C113.866 88.1168 113.936 88.0472 114.032 88.0035C114.128 87.96 114.25 87.9381 114.398 87.9381H116.876C117.043 87.9381 117.167 87.9752 117.249 88.0495C117.33 88.1238 117.371 88.2211 117.371 88.3416C117.371 88.4642 117.33 88.5627 117.249 88.637C117.167 88.7113 117.043 88.7482 116.875 88.7482Z" fill="black"/>
<path d="M120.435 87.8495C120.973 87.8495 121.435 87.9587 121.821 88.1768C122.207 88.395 122.498 88.7053 122.697 89.1074C122.895 89.5096 122.994 89.9821 122.994 90.5248C122.994 90.9259 122.94 91.2903 122.831 91.6182C122.723 91.946 122.56 92.2303 122.343 92.471C122.126 92.7115 121.859 92.8957 121.543 93.0231C121.227 93.1506 120.865 93.2142 120.457 93.2142C120.051 93.2142 119.688 93.1488 119.367 93.0178C119.046 92.887 118.778 92.7024 118.563 92.4641C118.349 92.2257 118.187 91.9392 118.077 91.6042C117.967 91.2693 117.912 90.907 117.912 90.5178C117.912 90.1192 117.969 89.7535 118.084 89.4209C118.198 89.0882 118.364 88.8052 118.581 88.5717C118.798 88.3382 119.062 88.1594 119.374 88.0356C119.685 87.9119 120.039 87.8495 120.435 87.8495ZM121.929 90.5177C121.929 90.1379 121.867 89.8088 121.745 89.5305C121.622 89.2521 121.447 89.0416 121.219 88.8988C120.992 88.7561 120.73 88.6848 120.435 88.6848C120.225 88.6848 120.031 88.7242 119.853 88.8034C119.675 88.8824 119.522 88.9974 119.393 89.1482C119.265 89.2993 119.163 89.4923 119.089 89.7268C119.015 89.9616 118.978 90.2253 118.978 90.5177C118.978 90.8127 119.015 91.0792 119.089 91.3175C119.163 91.5559 119.268 91.7534 119.404 91.9103C119.54 92.0672 119.695 92.1846 119.871 92.2624C120.047 92.3402 120.24 92.3792 120.45 92.3792C120.719 92.3792 120.966 92.312 121.191 92.1775C121.416 92.0429 121.596 91.8354 121.729 91.5547C121.862 91.2738 121.929 90.9282 121.929 90.5177Z" fill="black"/>
<path d="M125.305 90.9068H124.937V92.5736C124.937 92.7931 124.888 92.9546 124.791 93.0584C124.695 93.1621 124.569 93.2141 124.413 93.2141C124.245 93.2141 124.115 93.1597 124.024 93.0513C123.931 92.9428 123.885 92.7835 123.885 92.5736V88.582C123.885 88.3555 123.936 88.1914 124.038 88.0901C124.139 87.9888 124.303 87.938 124.53 87.938H126.239C126.475 87.938 126.676 87.948 126.844 87.968C127.011 87.9881 127.162 88.0288 127.297 88.0901C127.46 88.1585 127.604 88.2564 127.729 88.3838C127.854 88.5112 127.949 88.6592 128.014 88.8278C128.078 88.9966 128.111 89.1753 128.111 89.3639C128.111 89.7509 128.002 90.0599 127.784 90.2912C127.565 90.5223 127.234 90.6863 126.791 90.783C126.977 90.8821 127.155 91.0284 127.325 91.2217C127.495 91.4153 127.647 91.6211 127.78 91.8392C127.913 92.0574 128.017 92.2545 128.091 92.4302C128.166 92.606 128.203 92.727 128.203 92.7929C128.203 92.8613 128.181 92.929 128.137 92.9964C128.094 93.0635 128.034 93.1167 127.959 93.1556C127.883 93.1945 127.796 93.2139 127.697 93.2139C127.579 93.2139 127.48 93.1863 127.4 93.1307C127.319 93.0754 127.25 93.0052 127.193 92.9202C127.135 92.8353 127.056 92.7102 126.957 92.545L126.536 91.8443C126.385 91.5873 126.25 91.3914 126.131 91.257C126.012 91.1225 125.891 91.0306 125.768 90.981C125.645 90.9317 125.491 90.9068 125.305 90.9068ZM125.906 88.7271H124.937V90.1532H125.878C126.13 90.1532 126.343 90.1314 126.515 90.0877C126.687 90.0442 126.819 89.9698 126.909 89.8649C127 89.7599 127.046 89.6153 127.046 89.4314C127.046 89.2875 127.009 89.1607 126.936 89.051C126.863 88.9413 126.761 88.8594 126.632 88.805C126.509 88.753 126.267 88.7271 125.906 88.7271Z" fill="black"/>
<path d="M78.5685 99.8018H77.6059V101.27C77.6059 101.48 77.5565 101.64 77.4574 101.748C77.3583 101.857 77.2333 101.911 77.0823 101.911C76.9241 101.911 76.7967 101.857 76.7001 101.75C76.6034 101.643 76.5549 101.485 76.5549 101.278V97.2788C76.5549 97.0477 76.6081 96.8824 76.7142 96.7834C76.8204 96.6843 76.9891 96.6349 77.2202 96.6349H78.5685C78.9672 96.6349 79.2738 96.6656 79.4886 96.7268C79.7009 96.7859 79.8844 96.8838 80.0388 97.0205C80.1933 97.1573 80.3108 97.3248 80.3909 97.5229C80.4712 97.7211 80.5112 97.9441 80.5112 98.1917C80.5112 98.7203 80.3484 99.1206 80.0229 99.3931C79.6973 99.6656 79.2126 99.8018 78.5685 99.8018ZM78.3137 97.4239H77.6059V99.0092H78.3137C78.5615 99.0092 78.7684 98.9832 78.9348 98.9313C79.1011 98.8795 79.2279 98.7946 79.3152 98.6766C79.4024 98.5585 79.4461 98.4041 79.4461 98.213C79.4461 97.9842 79.379 97.7978 79.2444 97.6539C79.0936 97.5006 78.7831 97.4239 78.3137 97.4239Z" fill="black"/>
<path d="M84.0712 101.235L83.8236 100.584H81.7144L81.4668 101.249C81.37 101.509 81.2875 101.684 81.219 101.775C81.1506 101.866 81.0386 101.911 80.8829 101.911C80.7506 101.911 80.634 101.863 80.5326 101.766C80.4312 101.669 80.3804 101.56 80.3804 101.437C80.3804 101.366 80.3922 101.293 80.4158 101.218C80.4394 101.142 80.4783 101.037 80.5326 100.903L81.8597 97.5335C81.8973 97.4368 81.9429 97.3207 81.9958 97.185C82.049 97.0493 82.1055 96.9367 82.1658 96.847C82.2259 96.7573 82.305 96.6848 82.4029 96.6293C82.5007 96.5741 82.6216 96.5462 82.7655 96.5462C82.9118 96.5462 83.0339 96.5739 83.1318 96.6293C83.2297 96.6848 83.3087 96.7563 83.3688 96.8435C83.4291 96.9309 83.4798 97.0246 83.5211 97.1248C83.5623 97.2252 83.615 97.3589 83.6786 97.5264L85.034 100.874C85.1402 101.129 85.1932 101.314 85.1932 101.43C85.1932 101.55 85.143 101.66 85.0427 101.761C84.9425 101.861 84.8215 101.911 84.6801 101.911C84.5975 101.911 84.5268 101.896 84.4677 101.867C84.4087 101.837 84.3593 101.797 84.3193 101.747C84.2791 101.696 84.2359 101.618 84.19 101.513C84.144 101.408 84.1044 101.315 84.0712 101.235ZM81.9905 99.7947H83.5405L82.7584 97.6539L81.9905 99.7947Z" fill="black"/>
<path d="M87.0226 97.1834V99.0023L89.0857 96.8507C89.1848 96.747 89.269 96.6702 89.3387 96.6207C89.4082 96.5713 89.5008 96.5464 89.6165 96.5464C89.7675 96.5464 89.8896 96.5906 89.9827 96.6792C90.0759 96.7677 90.1226 96.8756 90.1226 97.003C90.1226 97.1563 90.0436 97.3085 89.8855 97.4595L88.608 98.6696L90.0803 100.779C90.184 100.925 90.2619 101.053 90.3139 101.163C90.3657 101.273 90.3918 101.379 90.3918 101.483C90.3918 101.599 90.3462 101.699 90.2555 101.784C90.1647 101.869 90.0415 101.911 89.8858 101.911C89.7394 101.911 89.6204 101.88 89.5283 101.818C89.4364 101.755 89.3584 101.672 89.2947 101.568C89.2311 101.464 89.1744 101.37 89.1248 101.285L87.8827 99.3739L87.0229 100.199V101.271C87.0229 101.488 86.9734 101.649 86.8744 101.754C86.7752 101.859 86.6479 101.911 86.4922 101.911C86.4025 101.911 86.3163 101.888 86.2338 101.841C86.1512 101.794 86.0876 101.73 86.0427 101.65C86.0098 101.584 85.9897 101.507 85.9826 101.42C85.9755 101.332 85.972 101.206 85.972 101.041V97.1834C85.972 96.971 86.0186 96.8117 86.1118 96.7056C86.205 96.5995 86.3318 96.5464 86.4922 96.5464C86.6502 96.5464 86.7783 96.5991 86.8762 96.7039C86.9736 96.8086 87.0226 96.9686 87.0226 97.1834Z" fill="black"/>
<path d="M91.3718 101.27V97.1834C91.3718 96.971 91.4202 96.8117 91.5168 96.7056C91.6135 96.5995 91.7386 96.5464 91.892 96.5464C92.05 96.5464 92.1781 96.5991 92.276 96.7039C92.3738 96.8089 92.4228 96.9688 92.4228 97.1835V101.271C92.4228 101.485 92.3738 101.646 92.276 101.752C92.1781 101.858 92.05 101.911 91.892 101.911C91.741 101.911 91.6165 101.857 91.5186 101.75C91.4207 101.643 91.3718 101.483 91.3718 101.27Z" fill="black"/>
<path d="M97.5397 100.265C97.5397 100.579 97.4589 100.861 97.2974 101.111C97.1357 101.361 96.8993 101.557 96.5879 101.699C96.2765 101.84 95.9072 101.911 95.4803 101.911C94.9682 101.911 94.546 101.814 94.2134 101.621C93.9775 101.482 93.7857 101.296 93.6382 101.063C93.4907 100.831 93.4171 100.605 93.4171 100.386C93.4171 100.258 93.4613 100.149 93.5497 100.058C93.6382 99.9677 93.7509 99.9221 93.8878 99.9221C93.9986 99.9221 94.0925 99.9575 94.1691 100.028C94.2456 100.099 94.3111 100.204 94.3654 100.343C94.4316 100.509 94.5028 100.647 94.5796 100.757C94.6563 100.868 94.7641 100.96 94.9034 101.032C95.0425 101.104 95.2253 101.14 95.4518 101.14C95.7632 101.14 96.0161 101.067 96.2109 100.922C96.4056 100.777 96.5029 100.596 96.5029 100.379C96.5029 100.207 96.4503 100.067 96.3454 99.9593C96.2403 99.8521 96.1047 99.7702 95.9383 99.7134C95.7721 99.6568 95.5496 99.5966 95.2713 99.533C94.8985 99.4456 94.5865 99.3436 94.3353 99.2268C94.0841 99.11 93.8848 98.9509 93.7373 98.7492C93.5898 98.5474 93.516 98.2967 93.516 97.9971C93.516 97.7117 93.5939 97.4581 93.7496 97.2363C93.9053 97.0145 94.1306 96.8441 94.4256 96.7249C94.7204 96.6059 95.0672 96.5462 95.4659 96.5462C95.7843 96.5462 96.0597 96.5857 96.2921 96.6648C96.5245 96.7438 96.7174 96.8488 96.8707 96.9798C97.024 97.1107 97.1361 97.2482 97.207 97.3921C97.2777 97.536 97.3131 97.6764 97.3131 97.8132C97.3131 97.9382 97.2689 98.0509 97.1804 98.1511C97.092 98.2516 96.9815 98.3016 96.8496 98.3016C96.7292 98.3016 96.6378 98.2714 96.5752 98.2114C96.5127 98.1512 96.4449 98.0527 96.3717 97.9159C96.2772 97.7202 96.1642 97.5673 96.0321 97.4577C95.8999 97.348 95.6877 97.2929 95.395 97.2929C95.1238 97.2929 94.905 97.3527 94.7386 97.4717C94.5722 97.5907 94.489 97.7342 94.489 97.9017C94.489 98.0055 94.5174 98.0952 94.5739 98.1707C94.6306 98.2463 94.7085 98.3111 94.8075 98.3653C94.9067 98.4196 95.007 98.462 95.1084 98.4927C95.2097 98.5234 95.3774 98.5682 95.6109 98.6271C95.9032 98.6956 96.1682 98.7711 96.4053 98.8536C96.6424 98.9363 96.844 99.0364 97.0104 99.1545C97.1767 99.2725 97.3064 99.4217 97.3997 99.6021C97.4931 99.7825 97.5397 100.004 97.5397 100.265Z" fill="black"/>
<path d="M101.8 97.5018H100.654V101.271C100.654 101.488 100.605 101.649 100.509 101.754C100.412 101.859 100.287 101.911 100.134 101.911C99.978 101.911 99.8512 101.858 99.7532 101.752C99.6553 101.646 99.6063 101.485 99.6063 101.271V97.502H98.4598C98.2805 97.502 98.1471 97.4625 98.0599 97.3834C97.9725 97.3043 97.9291 97.1999 97.9291 97.0702C97.9291 96.9356 97.9744 96.8295 98.0652 96.7517C98.1559 96.6738 98.2875 96.6349 98.4598 96.6349H101.8C101.982 96.6349 102.117 96.6749 102.206 96.7552C102.294 96.8353 102.338 96.9403 102.338 97.0702C102.338 97.1999 102.294 97.3043 102.204 97.3834C102.114 97.4624 101.98 97.5018 101.8 97.5018Z" fill="black"/>
<path d="M105.824 101.235L105.576 100.584H103.467L103.22 101.249C103.123 101.509 103.04 101.684 102.972 101.775C102.903 101.866 102.791 101.911 102.636 101.911C102.503 101.911 102.387 101.863 102.285 101.766C102.184 101.669 102.133 101.56 102.133 101.437C102.133 101.366 102.145 101.293 102.169 101.218C102.192 101.142 102.231 101.037 102.285 100.903L103.612 97.5335C103.65 97.4368 103.696 97.3207 103.749 97.185C103.802 97.0493 103.858 96.9367 103.919 96.847C103.979 96.7573 104.058 96.6848 104.156 96.6293C104.253 96.5741 104.374 96.5462 104.518 96.5462C104.665 96.5462 104.787 96.5739 104.885 96.6293C104.982 96.6848 105.062 96.7563 105.122 96.8435C105.182 96.9309 105.233 97.0246 105.274 97.1248C105.315 97.2252 105.368 97.3589 105.431 97.5264L106.787 100.874C106.893 101.129 106.946 101.314 106.946 101.43C106.946 101.55 106.896 101.66 106.796 101.761C106.695 101.861 106.574 101.911 106.433 101.911C106.35 101.911 106.28 101.896 106.221 101.867C106.162 101.837 106.112 101.797 106.072 101.747C106.032 101.696 105.989 101.618 105.943 101.513C105.897 101.408 105.857 101.315 105.824 101.235ZM103.743 99.7947H105.293L104.511 97.6539L103.743 99.7947Z" fill="black"/>
<path d="M109.087 97.1761L111.107 100.234V97.148C111.107 96.9474 111.15 96.7971 111.237 96.6967C111.323 96.5964 111.439 96.5463 111.585 96.5463C111.736 96.5463 111.855 96.5964 111.943 96.6967C112.03 96.7971 112.074 96.9474 112.074 97.148V101.228C112.074 101.683 111.885 101.911 111.507 101.911C111.413 101.911 111.328 101.897 111.253 101.87C111.177 101.843 111.106 101.8 111.04 101.741C110.974 101.682 110.913 101.613 110.856 101.534C110.8 101.455 110.743 101.374 110.686 101.292L108.715 98.2696V101.309C108.715 101.508 108.669 101.658 108.577 101.759C108.485 101.86 108.367 101.911 108.223 101.911C108.075 101.911 107.956 101.86 107.866 101.757C107.776 101.655 107.732 101.505 107.732 101.309V97.3073C107.732 97.1373 107.75 97.0041 107.788 96.9073C107.833 96.8011 107.907 96.7145 108.011 96.6473C108.115 96.58 108.227 96.5463 108.347 96.5463C108.442 96.5463 108.522 96.5617 108.59 96.5923C108.657 96.6231 108.716 96.6643 108.766 96.7163C108.817 96.7681 108.869 96.8353 108.922 96.9179C108.975 97.0004 109.03 97.0866 109.087 97.1761Z" fill="black"/>
<path d="M116.462 101.755H114.558C114.523 101.755 114.496 101.727 114.496 101.693V99.7886C114.496 99.7545 114.523 99.7268 114.558 99.7268H116.462C116.496 99.7268 116.524 99.7545 116.524 99.7886V101.693C116.524 101.727 116.496 101.755 116.462 101.755Z" fill="#00EDBB"/>
<path d="M33.871 54.1748C36.8097 54.1748 39.6307 54.1482 42.45 54.2064C42.8272 54.2142 43.3489 54.5618 43.5458 54.9014C49.8122 65.7116 56.0469 76.54 62.2818 87.3684C62.3299 87.4517 62.3146 87.5715 62.3632 87.9199C59.3736 87.9199 56.4132 87.9382 53.454 87.8885C53.1885 87.884 52.8503 87.4846 52.6803 87.1907C46.4222 76.376 40.1799 65.5522 33.9401 54.727C33.8928 54.6449 33.9118 54.5245 33.871 54.1748Z" fill="white"/>
<path d="M29.7517 56.5206C34.335 64.4593 38.7885 72.1738 43.2428 79.888C44.8703 82.7064 46.4525 85.5527 48.1496 88.3287C48.8894 89.5389 49.13 90.5614 48.1922 91.7842C47.5211 92.6592 47.059 93.6945 46.4007 94.8371C46.0486 94.3224 45.7701 93.9681 45.5471 93.5817C39.5965 83.2794 33.6639 72.9664 27.685 62.6805C27.1365 61.737 27.02 61.0066 27.6639 60.0768C28.3865 59.0336 28.9599 57.887 29.7517 56.5206Z" fill="white"/>
<path d="M62.6154 92.3091C61.6429 94.0239 60.857 95.4552 60.0129 96.8513C59.8831 97.066 59.4874 97.2282 59.213 97.2307C56.3466 97.2578 53.4798 97.2475 50.2306 97.2475C51.2105 95.5386 52.0142 94.072 52.9002 92.6568C53.0454 92.4249 53.5517 92.327 53.8925 92.3238C56.6649 92.2977 59.4378 92.3091 62.6154 92.3091Z" fill="#00EDBB"/>
<path d="M52.6998 61.761L52.126 60.7645C50.2176 57.4428 48.3212 54.1091 46.3342 50.8237C46.002 50.28 45.1324 49.7607 44.5042 49.7487C39.5338 49.6581 34.5634 49.6641 29.5928 49.7425C29.007 49.7546 28.2038 50.262 27.8898 50.7753C25.9934 53.9278 24.1634 57.1288 22.4181 60.372C22.1342 60.9034 22.1162 61.8577 22.406 62.371C29.6897 75.1203 37.0335 87.8332 44.3413 100.57C44.8245 101.41 45.3499 101.76 46.3463 101.754C51.2624 101.7 56.1785 101.706 61.0946 101.754C62.073 101.76 62.6226 101.458 63.1058 100.589C64.2412 98.5413 65.3948 96.506 66.5542 94.4707C67.1401 93.4441 67.7259 92.4174 68.3177 91.3906L68.9881 90.2189L52.6998 61.761ZM48.1942 91.783C47.5178 92.6586 47.0588 93.6914 46.4005 94.8389C46.0502 94.3195 45.7724 93.9692 45.549 93.5828C39.5941 83.2795 33.6633 72.9642 27.6842 62.6789C27.1347 61.7369 27.0199 61.006 27.666 60.0759C28.3848 59.031 28.9585 57.8835 29.7497 56.5187C34.3335 64.4605 38.7908 72.1728 43.2417 79.8852C44.8723 82.7056 46.4487 85.5502 48.1458 88.3282C48.8888 89.5363 49.1305 90.5631 48.1942 91.783ZM60.0135 96.85C59.8806 97.0674 59.4881 97.2306 59.2103 97.2306C56.3476 97.2607 53.479 97.2488 50.2296 97.2488C51.208 95.5396 52.0113 94.072 52.8991 92.6588C53.0441 92.4232 53.5513 92.3266 53.8895 92.3266C56.6677 92.2964 59.4398 92.3084 62.6164 92.3084C61.6441 94.0237 60.8589 95.4549 60.0135 96.85ZM62.2844 87.3681C62.3327 87.4527 62.3145 87.5735 62.3628 87.9177C59.3733 87.9177 56.414 87.9357 53.4546 87.8875C53.189 87.8814 52.8508 87.4828 52.6816 87.193C46.4247 76.3763 40.1799 65.5537 33.9412 54.7249C33.8928 54.6464 33.911 54.5256 33.8687 54.1753C36.8099 54.1753 39.6303 54.1512 42.4508 54.2055C42.8252 54.2116 43.3506 54.5617 43.544 54.9C44.9753 57.3702 46.4066 59.8463 47.838 62.3164C52.6635 70.6631 57.4709 79.0156 62.2844 87.3681Z" fill="black"/>
</g>
<defs>
<clipPath id="clip0">
<rect width="150" height="150" fill="white"/>
</clipPath>
</defs>
</svg>
