<svg width="288" height="196" viewBox="0 0 288 196" fill="none" xmlns="http://www.w3.org/2000/svg">
<g clip-path="url(#clip0)">
<path d="M17.6601 195.61C17.6601 195.61 -17.7199 157.61 11.6601 116.49C37.7601 79.9999 68.1701 82.4999 90.4801 97.3099C99.9901 103.61 127.39 98.0799 150.7 60.9499C182.51 10.3099 292.7 41.0299 272.64 118.95C262.92 156.65 302.24 158.02 282.2 195.71L17.6601 195.61Z" fill="#EDEDEB"/>
<path d="M140.77 106.26C140.77 106.19 141.17 97.92 137.18 96.02L137.46 95.75C138.595 96.2379 139.605 96.9776 140.412 97.9131C141.22 98.8487 141.804 99.9555 142.12 101.15C142.73 103.22 142.27 103.68 142.27 103.76L140.77 106.26Z" fill="#599DAD"/>
<path d="M120.44 25.28C120.429 31.1411 122.467 36.8217 126.2 41.34C129.303 45.1163 130.999 49.8523 131 54.74V61.8C130.997 62.8767 131.207 63.9434 131.618 64.9388C132.028 65.9342 132.631 66.8387 133.392 67.6006C134.153 68.3624 135.057 68.9665 136.052 69.3783C137.047 69.79 138.113 70.0013 139.19 70H152.25C154.409 69.9921 156.477 69.1309 158.004 67.6041C159.531 66.0774 160.392 64.009 160.4 61.85V54.73C160.422 49.828 162.143 45.0853 165.27 41.31C168.553 37.307 170.528 32.3926 170.928 27.231C171.328 22.0693 170.133 16.9093 167.506 12.4485C164.879 7.98767 160.945 4.44105 156.237 2.28806C151.528 0.135058 146.273 -0.520511 141.18 0.409961L140.18 0.599961C134.577 1.86218 129.57 4.99332 125.982 9.47863C122.395 13.9639 120.44 19.5364 120.44 25.28Z" fill="#FCEBD9"/>
<path d="M120.44 25.28C120.429 31.1411 122.467 36.8218 126.2 41.34C129.303 45.1163 130.999 49.8523 131 54.74V61.8C130.997 62.8767 131.207 63.9434 131.618 64.9388C132.028 65.9342 132.631 66.8388 133.392 67.6006C134.153 68.3624 135.057 68.9665 136.052 69.3783C137.047 69.79 138.113 70.0013 139.19 70H141.19C143.351 69.9947 145.422 69.1347 146.951 67.6077C148.479 66.0807 149.342 64.0108 149.35 61.85V54.73C149.369 49.8291 151.086 45.0863 154.21 41.31C156.949 37.9747 158.788 33.9938 159.553 29.7463C160.318 25.4988 159.983 21.1263 158.579 17.0451C157.176 12.9639 154.751 9.31 151.535 6.43135C148.32 3.5527 144.421 1.54517 140.21 0.599976C134.601 1.85628 129.588 4.98489 125.994 9.47075C122.401 13.9566 120.442 19.5323 120.44 25.28Z" fill="#FAE2C9"/>
<path d="M140.11 47.56C140.736 48.1063 141.405 48.6012 142.11 49.04C143.11 49.72 145.11 50.16 145.47 55.11C145.47 59.51 145.47 70.57 145.47 70.69H145.97C145.97 70.57 145.97 59.99 145.97 55.41C145.97 55.41 145.97 55.3 145.97 55.11C145.97 54.63 145.97 54.22 145.97 53.92C145.97 51.07 149.12 49.1 149.15 49.08C151.15 47.83 153.45 45.45 153.45 42.46C153.45 40.4099 152.636 38.4437 151.186 36.994C149.736 35.5444 147.77 34.73 145.72 34.73C143.67 34.73 141.704 35.5444 140.254 36.994C138.804 38.4437 137.99 40.4099 137.99 42.46C137.99 43.4078 138.178 44.3462 138.542 45.2213C138.905 46.0965 139.438 46.8913 140.11 47.56ZM140.44 47.43C139.148 46.0871 138.431 44.2934 138.44 42.43C138.537 40.5756 139.343 38.8294 140.69 37.5513C142.037 36.2731 143.823 35.5606 145.68 35.5606C147.537 35.5606 149.323 36.2731 150.67 37.5513C152.017 38.8294 152.822 40.5756 152.92 42.43C152.86 43.7515 152.469 45.037 151.785 46.1689C151.1 47.3008 150.143 48.2432 149 48.91C148.391 49.2644 147.824 49.6871 147.31 50.17C146.469 50.9253 145.864 51.9083 145.57 53C145.384 52.1206 145 51.2951 144.448 50.5863C143.895 49.8776 143.188 49.3043 142.38 48.91C141.664 48.5152 141.01 48.0164 140.44 47.43Z" fill="#EE9849"/>
<path d="M152.2 70V70.22L151.84 72.97L151.75 73.69L151.65 74.42L151.3 77.17L151.2 77.89L151.11 78.62L151 79C150.82 80.39 149.23 81.46 147.32 81.46H143.03C142.591 81.4606 142.154 81.4035 141.73 81.29C141.379 81.1954 141.043 81.0541 140.73 80.87C140.493 80.7311 140.275 80.5631 140.08 80.37C139.698 80.0169 139.448 79.5443 139.37 79.03L139.21 78L139.12 77.33L139.02 76.67L138.66 74.13L138.56 73.46L138.46 72.8L138.07 70H152.2Z" fill="#AFCDFB"/>
<path d="M150.49 70H148.07L138.46 72.76L138.56 73.42L138.66 74.09C140.12 73.68 143.66 72.68 152.17 70.2V69.98L150.49 70Z" fill="#9ABCEF"/>
<path d="M139.12 77.2599L139.21 77.9299C140.9 77.4499 144.38 76.4599 151.62 74.3599L151.72 73.6299L151.81 72.9099L139 76.5999L139.12 77.2599Z" fill="#9ABCEF"/>
<path d="M140.73 80.85C141.043 81.0341 141.379 81.1754 141.73 81.27L151.06 78.58L151.15 77.85L151.25 77.13L140.06 80.35C140.261 80.5445 140.486 80.7125 140.73 80.85Z" fill="#9ABCEF"/>
<path d="M130.34 89.9C130.34 89.9 129.89 94.15 132.11 95.9C134.33 97.65 138.41 96.3899 138.41 96.3899C138.41 96.3899 138.86 92.14 136.64 90.33C134.42 88.52 130.34 89.9 130.34 89.9Z" fill="#599DAD"/>
<path d="M140.09 121.76C139.245 114.686 139.983 107.513 142.25 100.76C144.379 94.5452 144.919 87.8966 143.82 81.4199H146.42C146.49 81.7999 146.67 90.4199 143.9 102.35C141.4 113.04 146.06 121.75 145.07 121.75L140.09 121.76Z" fill="#599DAD"/>
<path d="M145.55 93C145.55 93 146.81 85.82 150.15 85C149.207 85.1623 148.314 85.5412 147.542 86.1069C146.77 86.6725 146.139 87.4096 145.7 88.26C144.91 89.74 145.18 90.16 145.17 90.26L145.55 93Z" fill="#599DAD"/>
<path d="M79.3301 145.98H44.8201C43.4615 145.98 42.3601 147.081 42.3601 148.44C42.3601 149.799 43.4615 150.9 44.8201 150.9H79.3301C80.6887 150.9 81.7901 149.799 81.7901 148.44C81.7901 147.081 80.6887 145.98 79.3301 145.98Z" fill="#F99746"/>
<path d="M51.91 150.9L51.44 153.78L44.66 195.46C44.6433 195.538 44.5985 195.608 44.5341 195.656C44.4696 195.704 44.39 195.727 44.31 195.72C43.96 195.72 43.69 195.48 43.73 195.2L49.1 152.51L49.31 150.9H51.91Z" fill="#EFCBAB"/>
<path d="M51.9101 150.9L51.4401 153.78C51.1201 152.63 49.1001 152.51 49.1001 152.51L49.3101 150.9H51.9101Z" fill="#CCA07F"/>
<path d="M79.83 195.72C79.75 195.727 79.6703 195.704 79.6059 195.656C79.5415 195.608 79.4967 195.538 79.48 195.46L72.7 153.78L72.41 151.98L72.23 150.9H74.83L75.04 152.51L75.2 153.78L80.42 195.2C80.4191 195.274 80.4026 195.347 80.3717 195.414C80.3408 195.482 80.2961 195.542 80.2405 195.591C80.1849 195.64 80.1196 195.677 80.0489 195.699C79.9782 195.721 79.9036 195.728 79.83 195.72Z" fill="#EFCBAB"/>
<path d="M75.2 153.78C74.53 152.41 72.41 151.99 72.41 151.99L72.23 150.91H74.83L75.04 152.52L75.2 153.78Z" fill="#CCA07F"/>
<path d="M68.5301 49.17C68.5301 48.93 68.3401 46.38 64.4501 46.24C64.4501 46.24 66.3601 46.47 66.6901 47.31C66.6901 47.31 65.3901 46.31 64.3301 46.61C63.2701 46.91 62.6401 48.8 62.6401 49.41C62.6401 50.02 63.2201 51.99 63.8901 52.16C64.1607 52.2149 64.4396 52.2149 64.7101 52.16C64.5145 52.4605 64.3408 52.7746 64.1901 53.1C62.6301 56.28 64.1901 59.4 65.5501 59.05C66.3901 58.83 66.6301 60.27 66.6301 60.27L74.8201 53.64C74.8201 53.64 71.8101 47.42 68.5301 49.17Z" fill="#2C3A64"/>
<path d="M88.6201 85.69C88.6201 85.69 90.2501 85.37 90.6201 85.69C90.9901 86.01 92.7501 87.7899 92.3701 88.3799C91.9901 88.9699 90.1901 87.89 89.8101 87.79C89.4301 87.69 88.3901 87.2799 88.3901 87.2799L88.6201 85.69Z" fill="#FFB27D"/>
<path d="M71.38 143.06L69.64 143.71C69.64 143.71 62.0901 133.23 61.1501 124.01C60.9689 122.434 61.0534 120.838 61.4001 119.29C61.4001 119.29 61.3301 118.87 61.2001 118.13C61.1401 117.78 61.07 117.36 60.98 116.88C60.74 115.47 60.4 113.55 59.98 111.35C59.09 106.35 57.98 99.86 57.05 95.11L57.5201 94.96L62.59 93.33L63.67 90L67.4401 89C67.4401 89 68.2901 90.65 69.0401 98.45C69.1801 99.45 69.3101 100.6 69.4001 101.82C69.7348 106.375 69.6008 110.952 69 115.48C68.83 116.83 68.61 118.23 68.34 119.67C68.1378 121.04 68.0875 122.429 68.1901 123.81C68.6101 131.35 71.38 143.06 71.38 143.06Z" fill="#200660"/>
<path d="M69.4001 101.82L61.2001 118.13C61.1401 117.78 61.07 117.36 60.98 116.88C60.74 115.47 60.4 113.55 59.98 111.35C59.09 106.35 57.98 99.86 57.05 95.11L57.5201 94.96L62.59 93.33L63.67 90L67.4401 89C67.4401 89 68.2901 90.65 69.0401 98.45C69.1801 99.47 69.3101 100.6 69.4001 101.82Z" fill="#233862"/>
<path d="M65.7901 91.1L65.6001 89.47C62.4201 90.31 53.9301 87.11 53.9301 87.11C53.9301 87.11 50.8401 89.82 51.2501 96.31C51.4501 99.48 51.8101 112.94 52.1801 116.93C52.3201 118.37 52.4401 119.4 52.4901 119.81C52.4963 119.936 52.465 120.062 52.4001 120.17C51.8452 121.098 51.3766 122.076 51.0001 123.09C47.3001 132.94 51.5701 145.09 51.5701 145.09L52.6701 144.64C52.6701 144.64 55.1001 131.14 57.0701 125.17C57.3255 124.378 57.6606 123.614 58.0701 122.89C59.1398 120.891 59.9401 118.759 60.4501 116.55C61.8227 111.009 62.891 105.398 63.6501 99.74C63.7101 99.74 65.7901 91.1 65.7901 91.1Z" fill="#200660"/>
<path d="M88.62 85.69L88.39 87.28H88.1C87.52 87.28 86.1 87.16 84.52 86.99C82.12 86.75 79.28 86.33 78.15 85.63C76.42 84.58 73.59 81.35 71.75 78.13C71.699 78.0544 71.6555 77.974 71.62 77.89C70.707 76.4464 70.1295 74.8164 69.93 73.12C69.8904 72.4062 69.9647 71.6905 70.15 71C70.3507 70.2901 70.6906 69.6272 71.15 69.05C71.1984 68.965 71.2591 68.8875 71.33 68.82C71.677 68.3918 72.1009 68.0323 72.58 67.76C72.9 67.63 73.24 67.76 73.58 68.16C73.941 68.5647 74.247 69.0152 74.49 69.5C74.56 69.62 74.62 69.75 74.7 69.9C74.78 70.05 74.7 69.96 74.76 69.99L75.19 70.94C76.81 74.46 78.53 79.81 79.97 81.4C80.59 82.09 83.42 83.4 85.67 84.4C87.31 85.16 88.62 85.69 88.62 85.69Z" fill="#FFB27D"/>
<path d="M71.87 71.35C70.7154 71.8655 69.4734 72.1573 68.21 72.21C62.74 72.51 61.5 67.72 61.27 64.53C61.8745 64.3263 62.5142 64.248 63.15 64.3C63.54 64.3 63.94 64.36 64.27 64.4C64.94 64.05 66.14 62.35 66.84 59.51L67.07 59.62L71.07 61.48C71.07 61.48 70.65 62.76 70.34 63.99C70.0736 64.6739 69.9576 65.4072 70 66.14L70.5 66.35C71.116 67.9689 71.5748 69.6433 71.87 71.35Z" fill="#FFB27D"/>
<path d="M71 61.48C71 61.48 70.58 62.76 70.27 63.99C67.97 63.35 67.27 60.92 67.05 59.62L71 61.48Z" fill="#ED985F"/>
<path d="M71.51 62.84C71.51 62.84 65.99 61.56 66.84 58.14C67.69 54.72 67.54 52.24 71.1 52.91C74.66 53.58 75 55.06 75 56.27C75 57.48 73 63.08 71.51 62.84Z" fill="#FFB27D"/>
<path d="M75.3201 54.3299C74.7301 53.0899 74.0301 53.1499 73.6001 53.3299C72.9331 52.6618 72.0512 52.2511 71.1105 52.1706C70.1698 52.0901 69.231 52.3449 68.4601 52.8899C67.8461 54.3271 66.7497 55.5048 65.3601 56.2199C65.3601 56.2199 66.2101 57.0899 68.6601 57.0699C69.459 57.0228 70.2253 56.7372 70.8601 56.2499C70.0095 57.1022 69.0474 57.8356 68.0001 58.4299C71.0701 57.8399 73.1401 54.2799 73.3501 53.9099C73.7627 54.4677 74.0369 55.1154 74.1501 55.7999C74.2101 56.7399 73.8801 58.5699 74.4201 58.6299C74.4001 58.6299 76.2101 56.1899 75.3201 54.3299Z" fill="#2C3A64"/>
<path d="M75.2201 70.9999C75.0001 70.3499 73.7001 67.9999 73.7001 67.9999C72.7412 67.2642 71.6665 66.693 70.5201 66.3099C70.5201 66.4499 71.5201 70.0499 71.1901 70.8199C70.8601 71.5899 63.8301 69.0799 63.4501 68.4999C63.0701 67.9199 63.1301 65.5899 63.1401 64.6399C63.1401 64.3999 63.1401 64.2599 63.1401 64.2599C61.7779 64.0624 60.3898 64.1441 59.0601 64.4999C59.4309 65.3441 59.6963 66.2308 59.8501 67.1399C59.8501 67.2699 59.8501 67.4099 59.8501 67.5399C59.875 67.816 59.875 68.0938 59.8501 68.3699C59.8137 68.7538 59.6354 69.1104 59.3501 69.3699C59.0407 69.6894 58.7063 69.9836 58.3501 70.2499L57.4901 70.8699C57.5398 73.2688 57.4664 75.6686 57.2701 78.0599C57.1938 78.7716 56.9543 79.456 56.5701 80.0599C56.4205 80.3043 56.2499 80.5352 56.0601 80.7499C54.5201 82.4799 51.7801 85.9299 52.3801 88.0699C52.4301 90.0699 69.4901 92.7499 69.1201 90.5299C69.1201 90.5299 71.6901 78.1799 73.0701 75.1899C73.1201 75.0799 73.1701 74.9799 73.2101 74.8699C73.5741 73.7502 73.6498 72.5567 73.4301 71.3999C73.9737 71.0914 74.5969 70.9521 75.2201 70.9999Z" fill="#FCBC00"/>
<path d="M64.5601 86.4499C61.1901 86.4499 58.3501 82.9199 56.5601 80.1299C56.9442 79.526 57.1838 78.8416 57.2601 78.1299C57.4563 75.7386 57.5298 73.3388 57.4801 70.9399L58.3401 70.3199C58.6963 70.0537 59.0307 69.7594 59.3401 69.4399C62.1901 74.0599 69.1201 86.4999 64.5601 86.4499Z" fill="#ED7D2B"/>
<path d="M77.2801 88.2799L76.8201 89.9999L75.3101 89.7299L74.8801 89.6399C74.1401 89.4899 73.2601 89.2899 72.3001 89.0799C70.6501 88.6899 68.8101 88.2099 67.3001 87.6899C66.3619 87.3903 65.4598 86.9879 64.6101 86.4899C64.5461 86.4524 64.4859 86.4088 64.4301 86.3599C62.8801 85.2399 61.0601 81.9499 59.6301 78.4199C59.4401 77.9299 59.2501 77.4199 59.0701 76.9699C58.4457 75.3431 57.9443 73.6718 57.5701 71.9699C57.3838 71.1881 57.2634 70.3919 57.2101 69.5899C57.1953 69.3669 57.1953 69.143 57.2101 68.9199C57.2101 65.0999 59.1301 64.5699 59.1301 64.5699H59.2601C59.5901 64.5699 59.9301 64.7399 60.2601 65.1799C60.8284 65.9503 61.3019 66.7863 61.6701 67.6699C62.4201 69.3599 63.2101 71.5599 63.9401 73.7499C64.3501 74.9499 64.7501 76.1399 65.1401 77.2499C65.3701 77.9199 65.5901 78.5499 65.8001 79.1299C66.1037 80.0138 66.4748 80.873 66.9101 81.6999C67.3602 82.2779 67.9086 82.7722 68.5301 83.16C70.2088 84.3304 71.9479 85.4119 73.7401 86.3999L75.7401 87.5199L77.2801 88.2799Z" fill="#FFB27D"/>
<path d="M61.6301 67.5899C60.8341 67.4218 60.009 67.4506 59.2266 67.6736C58.4441 67.8967 57.7279 68.3073 57.1401 68.8699C57.1401 65.0599 59.0701 64.5399 59.0701 64.5399C59.8401 64.2199 60.7201 65.5399 61.6301 67.5899Z" fill="#FCBC00"/>
<path d="M58 146H49.25C49.1362 145.208 49.2221 144.4 49.5 143.65C49.94 142.65 50.62 142.24 50.5 141.06C50.8373 141.441 51.2615 141.736 51.7367 141.919C52.2118 142.101 52.7241 142.167 53.23 142.11C53.6506 142.838 54.1613 143.51 54.75 144.11C55.28 144.47 57.84 144.32 58 146Z" fill="#233862"/>
<path d="M76.8201 146H68.0601C67.8836 145.21 67.9714 144.385 68.3101 143.65C68.5129 143.353 68.6163 143 68.6055 142.64C68.5947 142.281 68.4703 141.934 68.2501 141.65C68.7122 141.855 69.2151 141.95 69.7201 141.93C70.1868 141.881 70.6354 141.724 71.0301 141.47C71.8102 142.393 72.6415 143.271 73.5201 144.1C74.1001 144.47 76.6501 144.32 76.8201 146Z" fill="#233862"/>
<path d="M80.0002 101.35L81.2102 101.84L87.0002 104.23C88.1105 104.68 89.3538 104.673 90.459 104.21C91.5642 103.748 92.4416 102.867 92.9002 101.76L93.4702 100.37C93.8435 100.13 94.2235 99.8699 94.6102 99.5899C100.96 95.0199 107.82 99.4599 107.82 99.4599C107.886 99.3122 107.916 99.1514 107.91 98.9899C107.901 98.7222 107.802 98.4652 107.63 98.2599C103.36 95.2599 97.2602 94.9399 94.6302 94.9399C93.7802 94.9399 93.2802 94.9399 93.2802 94.9399L93.1102 94.8699C94.2002 91.1999 92.8702 87.4599 89.9102 86.2499C89.2765 85.9867 88.5963 85.8541 87.9102 85.8599C86.5926 85.8825 85.3128 86.3044 84.2402 87.0699C83.0978 87.8657 82.1646 88.9258 81.5202 90.1599C81.1897 90.0684 80.8371 90.1013 80.5293 90.2524C80.2214 90.4036 79.9798 90.6624 79.8502 90.9799L77.8002 96.0899C77.5949 96.5792 77.489 97.1045 77.4888 97.6351C77.4885 98.1658 77.5938 98.6911 77.7985 99.1807C78.0033 99.6702 78.3034 100.114 78.6814 100.487C79.0593 100.859 79.5076 101.152 80.0002 101.35ZM88.4302 90.4499L88.1002 90.3099C87.9643 90.2516 87.8181 90.221 87.6702 90.2199C87.4363 90.2188 87.2075 90.2877 87.0132 90.4178C86.8189 90.5479 86.6681 90.7333 86.5802 90.9499L84.2102 89.9499C83.9013 89.8265 83.5586 89.8171 83.2434 89.9234C82.9283 90.0297 82.6612 90.2447 82.4902 90.5299L82.1402 90.3899C82.7829 89.1696 83.7302 88.1361 84.8902 87.3899C85.9587 86.6867 87.238 86.3757 88.5102 86.5099C88.9015 86.5603 89.2847 86.6611 89.6502 86.8099C92.3002 87.8899 93.4702 91.2699 92.5102 94.6199L92.2602 94.5099C92.3383 94.1865 92.2987 93.8458 92.1484 93.549C91.9981 93.2521 91.7471 93.0185 91.4402 92.8899L89.0702 91.8899C89.1644 91.6134 89.1509 91.3115 89.0322 91.0446C88.9136 90.7776 88.6986 90.5653 88.4302 90.4499Z" fill="#C94C43"/>
<path d="M93.5001 100.37C93.8734 100.13 94.2534 99.87 94.6401 99.59C100.99 95.02 107.85 99.46 107.85 99.46C107.916 99.3122 107.946 99.1514 107.94 98.99C105.278 97.2624 102.083 96.5523 98.9401 96.99C93.6901 97.81 92.7401 98.54 93.5001 100.37Z" fill="#B23B38"/>
<path d="M80.0002 101.35L81.2102 101.84C79.4002 100.84 81.6402 96.66 82.9602 93.9C84.2802 91.14 86.2702 92.4 86.2702 92.4C86.4008 92.133 86.6045 91.9085 86.8576 91.7527C87.1108 91.597 87.4029 91.5162 87.7002 91.52C87.6914 91.287 87.7576 91.0574 87.889 90.8648C88.0204 90.6722 88.2101 90.5268 88.4302 90.45L88.1002 90.31C87.9643 90.2516 87.8181 90.221 87.6702 90.22C87.4363 90.2188 87.2075 90.2877 87.0132 90.4178C86.8189 90.548 86.6681 90.7333 86.5802 90.95L84.2102 89.95C83.9013 89.8266 83.5586 89.8172 83.2434 89.9235C82.9283 90.0297 82.6612 90.2447 82.4902 90.53L82.1402 90.39C82.7829 89.1696 83.7302 88.1362 84.8902 87.39C85.9587 86.6868 87.238 86.3758 88.5102 86.51C88.2815 86.3227 88.0884 86.0957 87.9402 85.84C86.6226 85.8625 85.3428 86.2845 84.2702 87.05C83.1278 87.8458 82.1946 88.9059 81.5502 90.14C81.2197 90.0484 80.8671 90.0813 80.5593 90.2325C80.2514 90.3836 80.0098 90.6425 79.8802 90.96L77.8002 96.09C77.5949 96.5793 77.489 97.1046 77.4888 97.6352C77.4885 98.1658 77.5938 98.6912 77.7985 99.1807C78.0033 99.6703 78.3034 100.114 78.6814 100.487C79.0593 100.859 79.5076 101.152 80.0002 101.35Z" fill="#B23B38"/>
<path d="M82.7301 89.9099C81.8801 90.2699 80.7301 91.5099 78.8001 90.7499C77.6596 90.3255 76.4941 89.9715 75.3101 89.6899L74.8801 89.5999L75.6301 87.4099H75.7201C77.0665 87.7432 78.456 87.868 79.8401 87.7799C81.1501 87.4699 83.3301 89.0399 83.3301 89.0399C83.3301 89.0399 83.5701 89.5699 82.7301 89.9099Z" fill="#FFB27D"/>
<path d="M106.51 103.13C106.835 101.992 107.316 100.905 107.94 99.8999C108.564 100.905 109.045 101.992 109.37 103.13C109.37 103.509 109.219 103.873 108.951 104.141C108.683 104.409 108.319 104.56 107.94 104.56C107.561 104.56 107.197 104.409 106.929 104.141C106.661 103.873 106.51 103.509 106.51 103.13Z" fill="#AFCDFB"/>
<path d="M132.17 74.1299C132.17 74.1299 128.57 69.0299 124.47 67.5399C124.47 67.5399 126 79.4799 123.76 79.6299C121.52 79.7799 123 66.1999 123 66.1999C123 66.1999 112.33 60.2799 108 60.4399C108 60.4399 114.13 72.3699 111.92 71.9599C109.71 71.5499 102.76 59.4399 102.76 59.4399C102.76 59.4399 91.62 56.6899 89.43 63.2599C87.24 69.8299 90 73.3299 91.62 73.8399C93.24 74.3499 103.97 74.8399 103.62 76.2199C103.27 77.5999 95.9 79.3899 91.94 77.8999C91.94 77.8999 95.75 89.1399 101.62 88.8999C107.49 88.6599 109.5 85.1799 113.13 85.1099C116.76 85.0399 119.35 86.1699 117.48 87.0399C115.61 87.9099 109.54 86.8899 106.48 89.1999C103.42 91.5099 100.96 92.8999 106.32 94.3299C111.68 95.7599 119.75 94.1499 123.59 91.5899C123.59 91.5899 126.73 91.3399 129.19 105.82C130.14 111.4 129.41 119.69 129.41 119.69L131.41 119.38C131.974 109.243 130.35 99.1038 126.65 89.6499C126.65 89.6499 136.57 82.3299 132.17 74.1299Z" fill="#6BB7BF"/>
<path d="M164.69 95.5499C164.69 95.5499 152.69 90.5499 157 81.3599C157 81.3599 160.61 75.6299 165 73.7699C165 73.7699 164 86.7699 166.48 86.8399C168.96 86.9099 166.48 72.2299 166.48 72.2299C166.48 72.2299 177.7 65.2299 182.4 65.1099C182.4 65.1099 176.46 78.3999 178.83 77.8299C181.2 77.2599 188 63.7099 188 63.7099C188 63.7099 199.91 60.0799 202.68 67.0699C205.45 74.0599 202.68 78.0699 200.95 78.6699C199.22 79.2699 187.62 80.4799 188.09 81.9999C188.56 83.5199 196.65 84.9999 200.85 83.1399C200.85 83.1399 197.39 95.5499 191.01 95.6699C184.63 95.7899 182.24 92.0999 178.3 92.2399C174.36 92.3799 171.63 93.7499 173.7 94.5799C175.77 95.4099 182.3 93.9599 185.76 96.2799C189.22 98.5999 191.95 99.9699 186.23 101.84C180.51 103.71 169.91 104.14 167.3 99.8399L164.69 95.5499Z" fill="#86D1CD"/>
<path d="M197.38 70C197.38 70 167 83.73 164.69 95.55C165.018 99.4075 164.411 103.287 162.92 106.86L163.18 109.11C163.18 109.11 165.62 101.11 167.3 99.82C167.3 99.82 159.12 90.71 197.38 70Z" fill="#6BB7BF"/>
<path d="M162.92 106.86C161.751 109.466 161.127 112.285 161.087 115.141C161.048 117.998 161.593 120.832 162.69 123.47L163.9 122.99C163.9 122.99 161.56 113.23 163.55 107.99C165.54 102.75 162.92 106.86 162.92 106.86Z" fill="#6BB7BF"/>
<path d="M119 40.9999C123.91 46.2299 121.35 56.5999 121.35 56.5999C121.35 56.5999 110.86 58.5399 106 53.3099C101.14 48.0799 103.64 37.7199 103.64 37.7199C103.64 37.7199 114.11 35.8099 119 40.9999Z" fill="#6BB7BF"/>
<path d="M119 40.9999C123.91 46.2299 121.35 56.5999 121.35 56.5999L103.59 37.7199C103.59 37.7199 114.11 35.8099 119 40.9999Z" fill="#86D1CD"/>
<path d="M175.51 57.63C172.95 60.63 167.16 59.8 167.16 59.8C167.16 59.8 165.52 54.19 168.09 51.22C170.66 48.25 176.44 49.05 176.44 49.05C176.44 49.05 178.07 54.66 175.51 57.63Z" fill="#6BB7BF"/>
<path d="M175.51 57.6299C172.95 60.6299 167.16 59.7999 167.16 59.7999L176.44 49.0499C176.44 49.0499 178.07 54.6599 175.51 57.6299Z" fill="#86D1CD"/>
<path d="M190.87 108.09V108.14L189.71 125.97L185.4 192.19H104.82L100.08 126.88L98.77 108.88L98.71 108.09H190.87Z" fill="#FCBC00"/>
<path d="M190.87 108.14L189.71 126C175.223 121.194 160.053 118.766 144.79 118.81C117.04 118.81 100.08 126.91 100.08 126.91L98.77 108.91L190.87 108.14Z" fill="#E58638"/>
<path d="M193.67 117.52H95.7902L94.6702 106.14H194.91L193.67 117.52Z" fill="#FCBC00"/>
<path d="M186.64 195.72H103.09L102.14 191.76H187.7L186.64 195.72Z" fill="#E58638"/>
<path d="M145.61 194.2V193.51C144.092 191.855 142.708 190.083 141.47 188.21L138.79 183.27L135.29 184.14L139.74 190.43L145.61 194.2Z" fill="#FFB27D"/>
<path d="M126.07 103.6C126.68 101.09 125.8 99.92 125 99.29C124.775 98.5636 124.336 97.9222 123.74 97.45C122.984 97.0656 122.135 96.9026 121.29 96.98C121.441 96.8559 121.619 96.7702 121.81 96.73C121.339 96.7654 120.877 96.8875 120.45 97.09C114.62 94.84 113.7 103.43 113.82 105.43C113.94 107.43 113.93 109.78 110.89 111.35C105.1 114.35 112.82 125.66 112.82 125.66C112.67 124.05 120.11 115.53 124 112.98C124.683 111.741 125.124 110.384 125.3 108.98C125.257 110.237 124.989 111.477 124.51 112.64C126.28 111 126.54 107.06 126.07 103.6Z" fill="#A9453D"/>
<path d="M123.77 113.11C122.762 113.657 121.606 113.867 120.47 113.71C119.504 113.303 118.722 112.556 118.27 111.61C118.84 111.49 119 110.71 118.99 107.36H119.24L123.56 108.22C123.56 108.22 123.46 109.57 123.46 110.85C123.46 112 123.52 113 123.77 113.11Z" fill="#FFB27D"/>
<path d="M123.56 108.27C123.56 108.27 123.46 109.62 123.46 110.9C121.04 110.84 119.77 108.63 119.24 107.41L123.56 108.27Z" fill="#ED975D"/>
<path d="M140.76 186.48L138.47 186.55L136 186.63C131.977 181.734 128.945 176.103 127.07 170.05C127.003 169.81 126.923 169.57 126.83 169.33C125.08 164.21 121.44 157.79 119.52 151.97C119.21 151.04 118.94 150.17 118.69 149.34C118.61 149.08 118.54 148.82 118.46 148.56C117.361 144.778 116.625 140.901 116.26 136.98L130.12 137.09C132.041 153.862 135.605 170.405 140.76 186.48Z" fill="#200660"/>
<path d="M128.18 129.13C128.18 135.73 129.18 138.55 129.18 138.55C125.085 140.376 120.468 140.66 116.18 139.35C116.1 139.35 110.35 138.01 110.35 138.01C110.47 137.74 111.52 133.3 111.63 133.06C113.12 129.86 114.25 128.46 114.42 127.48C114.724 125.653 114.784 123.793 114.6 121.95C114.32 119.01 113.747 116.106 112.89 113.28C114.84 112.746 116.752 112.077 118.61 111.28C119.453 112.041 120.555 112.449 121.69 112.42C123.09 112.42 123.55 111.79 123.48 111.13C124.97 111.97 126.17 112.75 126.17 112.75C127.44 114.96 130.02 117.11 130.17 120.49C130.23 121.38 128.18 129 128.18 129.13Z" fill="#E7F1FD"/>
<path d="M124.37 109.48C124.37 109.48 118.65 109.57 118.65 106.01C118.65 102.45 117.91 100.07 121.55 99.86C125.19 99.65 125.91 101 126.2 102.19C126.49 103.38 125.85 109.36 124.37 109.48Z" fill="#FFB27D"/>
<path d="M124.16 99.7699C124.16 99.7699 122.59 103.95 120.16 104.56C117.73 105.17 116.72 104.56 116.72 104.56C117.898 103.522 118.683 102.109 118.94 100.56C118.94 100.56 123 97.7799 124.16 99.7699Z" fill="#A9453D"/>
<path d="M123.77 100.11C124.392 100.6 124.889 101.23 125.22 101.95C125.51 102.85 125.63 104.72 126.22 104.66C126.22 104.66 127.4 101.82 126.07 100.21C124.74 98.6 123.77 100.11 123.77 100.11Z" fill="#A9453D"/>
<path d="M120.09 193.34C119.89 192.27 119.52 190.42 119.52 190.42L119.61 183.86H115.61L117.1 190.14C117.185 191.025 117.083 191.917 116.8 192.76C116.8 192.76 116.41 194.5 118.13 194.54C119.85 194.58 120.28 194.41 120.09 193.34Z" fill="#FFB27D"/>
<path d="M116.81 192.76C116.639 193.75 116.595 194.759 116.68 195.76C116.68 195.76 117.18 195.76 118.43 195.76C119.68 195.76 120.25 195.76 120.25 195.76C120.279 194.752 120.185 193.745 119.97 192.76C119.97 192.76 118.75 194.54 116.81 192.76Z" fill="#1E3D70"/>
<path d="M133.36 133.71L136.06 141.94L134.52 142.55L130.06 135.28L133.36 133.71Z" fill="#FFB27D"/>
<path d="M147.64 195.72C147.64 195.72 144.2 195.79 143.64 195.72C143.08 195.65 142.64 194.6 141.98 193.33C141.825 193.07 141.617 192.847 141.368 192.674C141.12 192.502 140.837 192.384 140.54 192.33V195.67H139.67L138.76 192.14C138.563 191.695 138.484 191.206 138.529 190.721C138.575 190.236 138.744 189.771 139.02 189.37C139.48 189.37 140.81 189.68 143.14 192.31C143.434 192.68 143.811 192.977 144.239 193.176C144.668 193.376 145.137 193.473 145.61 193.46C147.58 194.4 147.64 195.72 147.64 195.72Z" fill="#1E3D70"/>
<path d="M134 134.51C134 134.51 133.58 133.44 133 132.08C132.42 130.72 131.05 117.52 130.12 115.55C129.19 113.58 126.02 112.32 126.02 112.32L123.4 111.18C123.4 111.18 126.7 119.35 126.8 121C126.9 122.65 127.19 148 127.19 148C127.19 148 126.99 149.17 129.19 148.68C130.189 148.543 131.149 148.203 132.01 147.68C132.01 147.68 131.2 141.74 130.71 135.9C131.913 135.744 133.05 135.263 134 134.51Z" fill="#200660"/>
<path d="M138.47 186.55L136 186.63C131.977 181.734 128.945 176.103 127.07 170.05C127.003 169.81 126.923 169.57 126.83 169.33C125.08 164.21 121.44 157.79 119.52 151.97C119.21 151.04 118.94 150.17 118.69 149.34C118.61 149.08 118.54 148.82 118.46 148.56L120.46 147.02C120.46 147.02 126.59 156.93 128.46 166.27C130.17 174.37 136.77 184.13 138.47 186.55Z" fill="#1E3D70"/>
<path d="M120.72 167.13C120.72 171.67 120.52 182.13 119.93 186.43H117.74C116.53 186.43 115.92 186.43 115.92 186.43C114.44 178.92 113.38 172.7 112.62 167.35C111.99 162.95 111.43 159.19 111 155.94C110.57 152.69 110.26 149.94 110.15 147.64C110.15 147.27 110.15 146.92 110.15 146.58C110.15 146.24 110.15 145.9 110.15 145.58L122.15 144.41C121.93 152.34 120.7 164.5 120.72 167.13Z" fill="#200660"/>
<path d="M117.74 186.43C116.53 186.43 115.92 186.43 115.92 186.43C114.44 178.92 113.38 172.7 112.62 167.35C111.99 162.95 111.43 159.19 111 155.94C110.57 152.69 110.26 149.94 110.15 147.64L114.54 150.22C114.54 150.22 111.74 151.22 112.81 158.7C113.88 166.18 116.25 185.37 117.74 186.43Z" fill="#1E3D70"/>
<path d="M118.3 147.54C118.3 147.54 117.46 150.59 114.54 150.2C112.118 149.735 109.752 149.018 107.48 148.06C107.48 148.06 108.73 144.12 110.28 138.95C112.15 132.69 114.48 124.61 115.57 119.52C115.837 118.373 116.034 117.211 116.16 116.04L118.58 111.35C118.58 111.35 122.19 119.45 122.39 121.49C122.59 123.53 118.3 147.54 118.3 147.54Z" fill="#200660"/>
<path d="M115.39 121.19L118.59 111.35C116.523 111.955 114.499 112.697 112.53 113.57C111.496 115.212 110.815 117.051 110.53 118.97C110.53 118.97 109.7 127.97 111.53 131.31C111.53 131.31 117.36 132.48 126.69 129.31V127.17C126.69 127.17 116.49 127.7 114.4 127.95L115.39 121.19Z" fill="#FFB27D"/>
<path d="M118.17 125.77C118.04 129.07 117.27 135.49 110.33 138.92C112.2 132.66 114.53 124.58 115.62 119.49C116.84 121.42 118.25 124 118.17 125.77Z" fill="#1E3D70"/>
<path d="M118.59 111.35C118.59 111.35 112.66 111.77 111.24 114.94C109.82 118.11 109.36 128.68 111.17 131.79C113.458 132.246 115.818 132.208 118.09 131.68H118.26C118.26 131.68 119.66 128.23 118.4 127.55C118.4 127.55 114.67 127.74 115.06 126.55C115.45 125.36 118.59 111.35 118.59 111.35Z" fill="#200660"/>
<path d="M133.43 128.45L133.25 129.01L123.54 126.01C123.501 125.961 123.475 125.904 123.463 125.843C123.45 125.783 123.453 125.72 123.47 125.66C123.483 125.604 123.513 125.553 123.556 125.516C123.599 125.478 123.653 125.455 123.71 125.45L133.43 128.45Z" fill="#A9453D"/>
<path d="M134.13 128.98L133.43 128.45L133.25 129.01L134.13 128.98Z" fill="#A9453D"/>
<path d="M135.67 141.71C135.67 141.71 138.14 143.07 138.46 144.11C138.78 145.15 138.56 147.32 138.17 147.29C137.78 147.26 137.17 144.95 136.87 144.79C136.57 144.63 136.09 144.14 136.09 144.5C136.09 144.86 136.42 145.5 136.26 145.6C136.1 145.7 135.58 144.7 135.26 144.5C134.94 144.3 134.75 142.7 134.41 142.27C134.07 141.84 135.67 141.71 135.67 141.71Z" fill="#FFB27D"/>
<path d="M126.66 127.13C126.66 127.13 128.87 125.77 129.79 125.98C130.71 126.19 133.07 127.9 131.94 128.26C130.81 128.62 129.89 128.26 129.45 128.51C129.01 128.76 128.7 129.27 126.66 129.27C124.62 129.27 126.66 127.13 126.66 127.13Z" fill="#FFB27D"/>
<path d="M222.25 133C222.25 133 219.44 134.6 218.66 134.6C217.88 134.6 214.79 134 213.93 134.44C212.856 135.183 211.936 136.127 211.22 137.22C210.69 138.22 213.33 137.8 214.58 136.92C214.668 136.856 214.769 136.811 214.876 136.788C214.983 136.766 215.093 136.766 215.2 136.79C216.059 137.029 216.959 137.08 217.84 136.94C219.644 136.6 221.468 136.37 223.3 136.25L222.25 133Z" fill="#ED975D"/>
<path d="M243.61 111.29C243.61 111.29 240.7 131.98 235.88 133.83C233.51 134.75 223 136.83 219.88 137.03C219.88 137.03 219.12 136.41 219.3 133.9C219.3 133.9 230.3 129.85 231.88 127.66C234.2 124.38 230.43 114.29 233.35 111.22C236.27 108.15 241.2 106.82 243.61 111.29Z" fill="#FCBC00"/>
<path d="M242.63 154.88C241.776 156.299 240.827 157.659 239.79 158.95C236.66 162.95 233.26 166.15 232.66 169.23C232.532 169.911 232.348 170.58 232.11 171.23C231.87 171.93 231.56 172.68 231.21 173.44C229.68 176.589 227.908 179.614 225.91 182.49C222.48 187.57 219.26 191.81 219.26 191.81L213.35 191.56C213.59 190.96 216.17 183.95 219.62 175.39C221.02 171.91 222.5 168.21 223.94 164.64L224.51 163.22C224.95 162.13 225.38 161.05 225.81 160.01C229.04 152.01 231.62 145.56 231.62 145.56C231.62 145.56 244.56 140.66 245.9 143.83C247 146.42 246.11 149 242.63 154.88Z" fill="#599DAD"/>
<path d="M219.08 190.7C219.08 190.7 218.78 195.58 217.83 195.7H213.05H207.05C207.096 195.248 207.299 194.827 207.625 194.511C207.951 194.195 208.377 194.003 208.83 193.97C210.57 193.67 213.48 192.44 214.53 190.15C215.58 187.86 219.08 190.7 219.08 190.7Z" fill="#163560"/>
<path d="M225.52 177.25C225.52 177.25 229.63 179.89 229.23 180.75C229.23 180.86 226.91 184.93 226.91 184.93L224 190.11C223.626 189.851 223.356 189.468 223.237 189.029C223.118 188.59 223.158 188.122 223.35 187.71C223.93 186.04 224.29 182.91 222.79 180.87C221.29 178.83 225.52 177.25 225.52 177.25Z" fill="#163560"/>
<path d="M222.43 182.13C222.43 182.13 225.91 182.46 226.92 178.22C226.92 178.22 223.19 164.81 220.92 161.97C220.82 161.84 220.84 161.69 220.98 161.53C222.72 159.58 241.98 155.61 244.49 151.69C245.241 150.541 245.792 149.273 246.12 147.94C246.464 146.633 246.505 145.265 246.24 143.94L227 143.35C227 143.35 211 153.35 209.18 160.12C208 164.15 222.43 182.13 222.43 182.13Z" fill="#6BB7BF"/>
<path d="M221 161.53C222.74 159.58 242 155.61 244.51 151.69C245.261 150.541 245.812 149.273 246.14 147.94V145.51L237.96 144.22C237.96 144.22 235.64 151.36 228.78 154.03C222.3 156.54 221.08 161 221 161.53Z" fill="#5AA9AD"/>
<path d="M232.24 110C236.13 111 242.58 107.4 242.58 107.4C240.849 106.056 239.634 104.156 239.14 102.02C239.14 101.83 239.05 101.64 239.02 101.45L237.02 101.02L234.02 103.69C234.102 104.698 234.249 105.7 234.46 106.69C234.52 107.02 234.59 107.38 234.68 107.76C233.736 108.35 232.909 109.11 232.24 110Z" fill="#FFB27D"/>
<path d="M246.7 126.12C246.14 133.61 246.87 145.01 246.24 146.99C245.69 148.69 239.48 147.68 237 147.11C236.08 146.9 235 146.6 233.82 146.24C230.61 145.24 227.12 143.83 226.74 142.78V142.66C226.7 142.516 226.7 142.364 226.74 142.22C227.091 141.448 227.314 140.624 227.4 139.78C227.46 138.29 227.45 136.55 227.51 134.67C227.495 134.454 227.495 134.236 227.51 134.02V133.82C227.51 131.73 227.67 129.53 227.8 127.34C227.88 125.97 227.97 124.62 228.08 123.34C228.254 120.571 228.642 117.819 229.24 115.11C229.963 112.55 231.44 110.267 233.48 108.56L234.67 107.56C236.124 107.841 237.63 107.641 238.96 106.99C240.49 106.27 241.01 105.75 241.28 105.99C244.82 108.61 247.35 117 246.7 126.12Z" fill="#FCBC00"/>
<path d="M233.82 146.24C230.61 145.24 227.12 143.83 226.74 142.78V142.66C226.74 142.51 226.74 142.37 226.74 142.22C227.091 141.448 227.314 140.624 227.4 139.78C227.46 138.29 227.45 136.55 227.51 134.67C227.495 134.454 227.495 134.236 227.51 134.02V133.82L240.51 117.31C240.51 117.31 249.19 135.45 233.82 146.24Z" fill="#ED7D2B"/>
<path d="M234.05 103.68C234.132 104.688 234.279 105.69 234.49 106.68C235.556 106.283 236.524 105.661 237.327 104.854C238.129 104.048 238.748 103.078 239.14 102.01C239.14 101.82 239.05 101.63 239.02 101.44L237.02 101.01L234.05 103.68Z" fill="#ED975D"/>
<path d="M233.66 105.35C233.66 105.35 239.98 104.35 239.27 100.35C238.56 96.35 238.88 93.64 234.81 94.15C230.74 94.66 230.23 96.3 230.15 97.67C230.07 99.04 232 105.53 233.66 105.35Z" fill="#FFB27D"/>
<path d="M224.29 137.86L208.49 138.2L204.09 124.65C204.065 124.577 204.012 124.516 203.943 124.48C203.874 124.445 203.794 124.438 203.72 124.46C203.683 124.471 203.649 124.49 203.619 124.515C203.589 124.54 203.565 124.57 203.547 124.605C203.529 124.639 203.519 124.677 203.516 124.716C203.513 124.754 203.518 124.793 203.53 124.83L208.1 138.91C208.126 138.985 208.174 139.049 208.239 139.094C208.304 139.139 208.381 139.162 208.46 139.16L224.31 138.82L224.29 137.86Z" fill="#4A75CB"/>
<path d="M224 139.59C224 139.59 218.82 140.96 216.88 140.82C214.94 140.68 213.32 139.75 213.08 139.27C212.84 138.79 212.32 137.93 213.64 138.09C214.96 138.25 216.77 138.53 216.83 138.27C216.89 138.01 215.75 138.04 215.75 138.04C215.75 138.04 215.41 137.54 215.84 137.52C216.27 137.5 217.53 137.17 218 137.4C218.47 137.63 218.9 138.5 219.24 138.46C219.58 138.42 223.57 136.66 223.57 136.66L224 139.59Z" fill="#FFB27D"/>
<path d="M242.33 112.14C242.33 112.14 241.72 133.03 237.13 135.4C232.081 137.443 226.883 139.094 221.58 140.34C221.58 140.34 220.76 139.81 220.67 137.29C220.67 137.29 231.17 132.06 232.48 129.7C234.48 126.19 229.57 116.57 232.13 113.19C234.69 109.81 239.44 108 242.33 112.14Z" fill="#FCBC00"/>
<path d="M239.14 102C239.172 101.221 238.899 100.461 238.38 99.88C238.38 99.88 238.67 98.53 238.14 98.3C237.61 98.07 237.49 99.22 237.25 99.04C236.454 98.4594 235.829 97.6754 235.44 96.77C234.97 95.52 230.69 97.03 230.19 97.25C229.69 97.47 228.09 96.65 227.77 95.99C228.242 95.615 228.677 95.1965 229.07 94.74C229.47 94.2 232.28 90.59 236.2 91.62C240.12 92.65 240.66 94.52 240.43 96.12C240.2 97.72 240.75 101.47 239.14 102Z" fill="#2B478B"/>
<path d="M256.74 152.88H233.14C230.831 152.88 228.96 154.751 228.96 157.06C228.96 159.369 230.831 161.24 233.14 161.24H256.74C259.048 161.24 260.92 159.369 260.92 157.06C260.92 154.751 259.048 152.88 256.74 152.88Z" fill="#F99746"/>
<path d="M234.93 161.24L234.46 163.45L227.68 195.45C227.68 195.56 227.51 195.65 227.33 195.65C226.98 195.65 226.71 195.46 226.74 195.25L232.12 162.46L232.32 161.22L234.93 161.24Z" fill="#EFCBAB"/>
<path d="M234.93 161.24L234.46 163.45C234.14 162.57 232.12 162.45 232.12 162.45L232.32 161.21L234.93 161.24Z" fill="#CCA07F"/>
<path d="M262.85 195.67C262.67 195.67 262.51 195.58 262.5 195.47L255.71 163.47L255.42 162.09L255.25 161.26H257.85L258.05 162.5L258.21 163.5L263.43 195.32C263.47 195.48 263.2 195.67 262.85 195.67Z" fill="#EFCBAB"/>
<path d="M258.21 163.45C257.55 162.45 255.42 162.07 255.42 162.07L255.25 161.24H257.85L258.05 162.48L258.21 163.45Z" fill="#CCA07F"/>
<path d="M200.62 195.65C200.551 195.668 200.479 195.672 200.409 195.662C200.338 195.652 200.27 195.629 200.209 195.592C200.147 195.556 200.094 195.508 200.051 195.451C200.008 195.394 199.977 195.329 199.96 195.26L193.48 169.14L192.23 164.14L189.77 154.22L186 139.07L189.52 138.84L191.59 149.07L194.59 163.79L196.09 171.21L200.94 195.15C200.959 195.258 200.936 195.37 200.877 195.462C200.818 195.555 200.726 195.622 200.62 195.65Z" fill="#F9DDBF"/>
<path d="M191.61 149.07C191.61 149.17 191.56 149.22 191.56 149.22C190.565 150.697 189.95 152.398 189.77 154.17L186 139.07L189.52 138.84L191.61 149.07Z" fill="#EAC8A9"/>
<path d="M188.53 139.07L182.32 164.07L181.07 169.07L174.59 195.19C174.552 195.328 174.462 195.446 174.339 195.519C174.216 195.592 174.069 195.614 173.93 195.58C173.823 195.554 173.729 195.487 173.67 195.394C173.61 195.301 173.589 195.189 173.61 195.08L178.46 171.14L179.96 163.72L184.96 138.77L188.53 139.07Z" fill="#F9DDBF"/>
<path d="M182.32 164.09L181.07 169.09C179.59 169.19 178.46 171.16 178.46 171.16L179.96 163.74L182.31 163.51C182.31 163.51 182.32 163.76 182.32 164.09Z" fill="#EAC8A9"/>
<path d="M167.76 139.07L161.55 164.07L160.3 169.07L153.81 195.19C153.794 195.259 153.764 195.323 153.722 195.38C153.68 195.437 153.628 195.485 153.567 195.522C153.507 195.558 153.439 195.582 153.369 195.592C153.3 195.602 153.228 195.598 153.16 195.58C153.051 195.556 152.957 195.49 152.897 195.396C152.837 195.302 152.816 195.189 152.84 195.08L157.68 171.14L159.19 163.72L164.24 138.77L167.76 139.07Z" fill="#F9DDBF"/>
<path d="M161.55 164.09L160.3 169.09C158.82 169.19 157.68 171.16 157.68 171.16L159.19 163.74L161.54 163.51C161.54 163.51 161.55 163.76 161.55 164.09Z" fill="#EAC8A9"/>
<path d="M183.63 167.85H153.72L164.31 128.73H193.48L183.63 167.85Z" fill="#F9DDBF"/>
<path d="M182.74 167.85H152.83L163.42 128.73H192.59L182.74 167.85Z" fill="#FCECDB"/>
<path d="M183.35 142.8C182.614 145.051 181.28 147.059 179.49 148.61C177.992 149.899 176.875 151.572 176.26 153.45L175.48 156C175.204 156.818 174.69 157.536 174.004 158.061C173.319 158.587 172.492 158.896 171.63 158.95H166.91C166.555 158.961 166.202 158.882 165.886 158.72C165.569 158.558 165.298 158.319 165.099 158.025C164.899 157.731 164.777 157.391 164.744 157.037C164.711 156.683 164.768 156.326 164.91 156L165.69 153.45C166.234 151.86 166.138 150.12 165.42 148.6C164.554 146.761 164.45 144.655 165.13 142.74C166.7 137.74 172.01 133.66 177.05 133.66C177.587 133.658 178.123 133.708 178.65 133.81L178.98 133.88C182.74 134.79 184.68 138.44 183.35 142.8Z" fill="#FCEBD9"/>
<path d="M183.35 142.8C182.614 145.051 181.28 147.059 179.49 148.61C177.992 149.899 176.876 151.572 176.26 153.45L175.48 156C175.204 156.818 174.69 157.536 174.004 158.061C173.319 158.587 172.492 158.896 171.63 158.95H170.9C170.541 158.967 170.184 158.893 169.862 158.734C169.54 158.575 169.264 158.337 169.059 158.042C168.854 157.747 168.727 157.405 168.691 157.048C168.654 156.691 168.709 156.33 168.85 156L169.64 153.45C170.187 151.859 170.086 150.117 169.36 148.6C168.931 147.69 168.685 146.703 168.637 145.698C168.589 144.692 168.739 143.687 169.08 142.74C169.834 140.548 171.134 138.584 172.857 137.034C174.581 135.484 176.671 134.398 178.93 133.88C182.74 134.79 184.68 138.44 183.35 142.8Z" fill="#FAE2C9"/>
<path d="M175.11 149C175.245 148.688 175.298 148.346 175.264 148.008C175.23 147.669 175.11 147.345 174.916 147.065C174.722 146.786 174.459 146.561 174.154 146.411C173.848 146.262 173.51 146.192 173.17 146.21C172.353 146.259 171.569 146.55 170.919 147.047C170.269 147.544 169.782 148.224 169.52 149C169.387 149.434 169.395 149.899 169.542 150.328C169.689 150.757 169.969 151.129 170.34 151.39C170.597 151.594 170.792 151.867 170.901 152.176C171.011 152.485 171.031 152.819 170.96 153.14C170.96 153.25 170.88 153.4 170.83 153.58C170.832 153.613 170.832 153.647 170.83 153.68C170.33 155.34 169.15 159.16 169.13 159.21H169.31C169.31 159.16 170.56 155.16 171.04 153.58C171.159 153.091 171.391 152.638 171.717 152.255C172.044 151.873 172.456 151.573 172.92 151.38C173.226 151.221 173.52 151.04 173.8 150.84C174.413 150.374 174.87 149.732 175.11 149ZM172.8 151.33C172.117 151.627 171.553 152.144 171.2 152.8C171.214 152.439 171.101 152.086 170.88 151.8C170.743 151.624 170.581 151.469 170.4 151.34C170.054 151.074 169.8 150.706 169.674 150.288C169.548 149.87 169.557 149.423 169.7 149.01C169.942 148.298 170.394 147.676 170.998 147.227C171.602 146.779 172.328 146.525 173.08 146.5C173.393 146.468 173.71 146.518 173.997 146.645C174.285 146.773 174.535 146.973 174.722 147.227C174.909 147.48 175.026 147.778 175.063 148.091C175.099 148.403 175.054 148.72 174.93 149.01C174.7 149.723 174.261 150.35 173.67 150.81C173.399 151.016 173.107 151.193 172.8 151.34V151.33Z" fill="#EE9849"/>
<path d="M171.61 159V159.08L171.17 160.08L171.06 160.35L170.94 160.61L170.51 161.61L170.4 161.88L170.29 162.14L170.23 162.29C170.066 162.569 169.83 162.798 169.547 162.955C169.263 163.111 168.943 163.189 168.62 163.18H167C166.848 163.182 166.696 163.162 166.55 163.12C166.437 163.084 166.33 163.034 166.23 162.97C166.16 162.92 166.1 162.86 166.05 162.79C166 162.722 165.964 162.644 165.945 162.561C165.926 162.479 165.925 162.393 165.94 162.31L166 161.92V161.68V161.45L166.15 160.53V160.28V160.04L166.31 159.04L171.61 159Z" fill="#AFCDFB"/>
<path d="M171 159H170.13L166.35 160V160.24V160.49L171.67 159.08V159H171Z" fill="#9ABCEF"/>
<path d="M166.07 161.59V161.83L170.95 160.54L171.07 160.28L171.18 160.01L166.18 161.35L166.07 161.59Z" fill="#9ABCEF"/>
<path d="M166.26 162.89C166.36 162.954 166.467 163.004 166.58 163.04L170.25 162.04L170.36 161.78L170.47 161.51L166.07 162.68C166.12 162.761 166.184 162.832 166.26 162.89Z" fill="#9ABCEF"/>
<path d="M182.07 161.6H181.86C181.844 161.6 181.829 161.594 181.818 161.582C181.806 161.571 181.8 161.556 181.8 161.54C181.809 161.535 181.819 161.532 181.83 161.532C181.841 161.532 181.851 161.535 181.86 161.54H182.07C182.079 161.535 182.089 161.532 182.1 161.532C182.111 161.532 182.121 161.535 182.13 161.54C182.13 161.556 182.124 161.571 182.112 161.582C182.101 161.594 182.086 161.6 182.07 161.6ZM181.27 161.6H180.67C180.654 161.6 180.639 161.594 180.628 161.582C180.616 161.571 180.61 161.556 180.61 161.54C180.619 161.535 180.629 161.532 180.64 161.532C180.651 161.532 180.661 161.535 180.67 161.54H181.27C181.279 161.535 181.289 161.532 181.3 161.532C181.311 161.532 181.321 161.535 181.33 161.54C181.33 161.556 181.324 161.571 181.312 161.582C181.301 161.594 181.286 161.6 181.27 161.6ZM180.07 161.6H179.48C179.472 161.602 179.463 161.602 179.455 161.599C179.447 161.597 179.439 161.593 179.433 161.587C179.427 161.581 179.423 161.573 179.421 161.565C179.418 161.557 179.418 161.548 179.42 161.54C179.42 161.54 179.42 161.54 179.48 161.54H180.07H180.13C180.132 161.548 180.132 161.557 180.129 161.565C180.127 161.573 180.123 161.581 180.117 161.587C180.111 161.593 180.103 161.597 180.095 161.599C180.087 161.602 180.078 161.602 180.07 161.6ZM178.88 161.6H178.28C178.264 161.6 178.249 161.594 178.238 161.582C178.226 161.571 178.22 161.556 178.22 161.54C178.229 161.535 178.239 161.532 178.25 161.532C178.261 161.532 178.271 161.535 178.28 161.54H178.88C178.889 161.535 178.899 161.532 178.91 161.532C178.921 161.532 178.931 161.535 178.94 161.54C178.94 161.556 178.934 161.571 178.922 161.582C178.911 161.594 178.896 161.6 178.88 161.6ZM177.69 161.6H177.09C177.074 161.6 177.059 161.594 177.048 161.582C177.036 161.571 177.03 161.556 177.03 161.54C177.039 161.535 177.049 161.532 177.06 161.532C177.071 161.532 177.081 161.535 177.09 161.54H177.69C177.699 161.535 177.709 161.532 177.72 161.532C177.731 161.532 177.741 161.535 177.75 161.54C177.75 161.556 177.744 161.571 177.732 161.582C177.721 161.594 177.706 161.6 177.69 161.6ZM176.5 161.6H175.9C175.884 161.6 175.869 161.594 175.858 161.582C175.846 161.571 175.84 161.556 175.84 161.54C175.849 161.535 175.859 161.532 175.87 161.532C175.881 161.532 175.891 161.535 175.9 161.54H176.5H176.55C176.55 161.54 176.53 161.6 176.5 161.6ZM175.3 161.6H174.71C174.702 161.602 174.693 161.602 174.685 161.599C174.677 161.597 174.669 161.593 174.663 161.587C174.657 161.581 174.653 161.573 174.651 161.565C174.648 161.557 174.648 161.548 174.65 161.54C174.65 161.54 174.65 161.54 174.71 161.54H175.3H175.36C175.362 161.548 175.362 161.557 175.359 161.565C175.357 161.573 175.353 161.581 175.347 161.587C175.341 161.593 175.333 161.597 175.325 161.599C175.317 161.602 175.308 161.602 175.3 161.6ZM174.11 161.6H173.51C173.494 161.6 173.479 161.594 173.468 161.582C173.456 161.571 173.45 161.556 173.45 161.54C173.459 161.535 173.469 161.532 173.48 161.532C173.491 161.532 173.501 161.535 173.51 161.54H174.11C174.119 161.535 174.129 161.532 174.14 161.532C174.151 161.532 174.161 161.535 174.17 161.54C174.17 161.556 174.164 161.571 174.152 161.582C174.141 161.594 174.126 161.6 174.11 161.6ZM172.92 161.6H172.32C172.304 161.6 172.289 161.594 172.278 161.582C172.266 161.571 172.26 161.556 172.26 161.54C172.269 161.535 172.279 161.532 172.29 161.532C172.301 161.532 172.311 161.535 172.32 161.54H172.92C172.929 161.535 172.939 161.532 172.95 161.532C172.961 161.532 172.971 161.535 172.98 161.54C172.98 161.556 172.974 161.571 172.962 161.582C172.951 161.594 172.936 161.6 172.92 161.6Z" fill="#EAC8A9"/>
<path d="M180.39 133V132.92L180.81 132.49C180.821 132.48 180.835 132.475 180.85 132.475C180.865 132.475 180.879 132.48 180.89 132.49C180.897 132.496 180.902 132.503 180.905 132.51C180.909 132.518 180.91 132.526 180.91 132.535C180.91 132.544 180.909 132.552 180.905 132.56C180.902 132.567 180.897 132.574 180.89 132.58L180.47 133H180.39ZM181.23 132.15C181.221 132.137 181.216 132.121 181.216 132.105C181.216 132.089 181.221 132.073 181.23 132.06L181.65 131.64C181.656 131.634 181.663 131.629 181.671 131.626C181.678 131.623 181.687 131.621 181.695 131.621C181.704 131.621 181.712 131.623 181.719 131.626C181.727 131.629 181.734 131.634 181.74 131.64C181.746 131.646 181.751 131.653 181.754 131.661C181.757 131.668 181.759 131.677 181.759 131.685C181.759 131.693 181.757 131.702 181.754 131.709C181.751 131.717 181.746 131.724 181.74 131.73L181.31 132.15H181.23ZM182.08 131.31C182.08 131.31 182.08 131.31 182.03 131.31C182.02 131.299 182.015 131.285 182.015 131.27C182.015 131.255 182.02 131.241 182.03 131.23L182.1 131.16H182.6C182.616 131.16 182.631 131.166 182.643 131.178C182.654 131.189 182.66 131.204 182.66 131.22C182.662 131.228 182.662 131.237 182.66 131.245C182.657 131.253 182.653 131.261 182.647 131.267C182.641 131.273 182.633 131.277 182.625 131.279C182.617 131.282 182.608 131.282 182.6 131.28H182.13V131.33L182.08 131.35V131.31ZM189.33 131.24H189.2C189.2 131.24 189.2 131.24 189.2 131.18C189.195 131.171 189.192 131.161 189.192 131.15C189.192 131.139 189.195 131.129 189.2 131.12H189.33C189.346 131.12 189.361 131.126 189.373 131.138C189.384 131.149 189.39 131.164 189.39 131.18C189.4 131.189 189.406 131.202 189.408 131.215C189.409 131.229 189.406 131.242 189.399 131.254C189.393 131.265 189.382 131.274 189.369 131.279C189.357 131.284 189.343 131.284 189.33 131.28V131.24ZM188.61 131.24H188C187.984 131.24 187.969 131.234 187.958 131.222C187.946 131.211 187.94 131.196 187.94 131.18C187.94 131.164 187.946 131.149 187.958 131.138C187.969 131.126 187.984 131.12 188 131.12H188.6C188.616 131.12 188.631 131.126 188.643 131.138C188.654 131.149 188.66 131.164 188.66 131.18C188.668 131.189 188.673 131.2 188.675 131.212C188.677 131.224 188.675 131.236 188.669 131.247C188.664 131.258 188.655 131.267 188.645 131.273C188.634 131.279 188.622 131.281 188.61 131.28V131.24ZM187.42 131.24H186.82C186.804 131.24 186.789 131.234 186.778 131.222C186.766 131.211 186.76 131.196 186.76 131.18C186.76 131.164 186.766 131.149 186.778 131.138C186.789 131.126 186.804 131.12 186.82 131.12H187.42C187.436 131.12 187.451 131.126 187.463 131.138C187.474 131.149 187.48 131.164 187.48 131.18C187.49 131.189 187.496 131.202 187.498 131.215C187.499 131.229 187.496 131.242 187.489 131.254C187.483 131.265 187.472 131.274 187.459 131.279C187.447 131.284 187.433 131.284 187.42 131.28V131.24ZM186.22 131.24H185.63C185.622 131.242 185.613 131.242 185.605 131.239C185.597 131.237 185.589 131.233 185.583 131.227C185.577 131.221 185.573 131.213 185.571 131.205C185.568 131.197 185.568 131.188 185.57 131.18C185.57 131.164 185.576 131.149 185.588 131.138C185.599 131.126 185.614 131.12 185.63 131.12H186.22C186.236 131.12 186.251 131.126 186.263 131.138C186.274 131.149 186.28 131.164 186.28 131.18C186.293 131.188 186.303 131.201 186.307 131.216C186.31 131.231 186.308 131.247 186.3 131.26C186.292 131.273 186.279 131.283 186.264 131.287C186.249 131.29 186.233 131.288 186.22 131.28V131.24ZM185.03 131.24H184.43C184.414 131.24 184.399 131.234 184.388 131.222C184.376 131.211 184.37 131.196 184.37 131.18C184.37 131.164 184.376 131.149 184.388 131.138C184.399 131.126 184.414 131.12 184.43 131.12H185.03C185.046 131.12 185.061 131.126 185.073 131.138C185.084 131.149 185.09 131.164 185.09 131.18C185.103 131.192 185.111 131.209 185.112 131.226C185.113 131.244 185.107 131.262 185.095 131.275C185.083 131.288 185.066 131.296 185.049 131.297C185.031 131.298 185.013 131.292 185 131.28L185.03 131.24ZM183.84 131.24H183.24C183.224 131.24 183.209 131.234 183.198 131.222C183.186 131.211 183.18 131.196 183.18 131.18C183.18 131.164 183.186 131.149 183.198 131.138C183.209 131.126 183.224 131.12 183.24 131.12H183.84C183.856 131.12 183.871 131.126 183.883 131.138C183.894 131.149 183.9 131.164 183.9 131.18C183.91 131.189 183.916 131.202 183.918 131.215C183.919 131.229 183.916 131.242 183.909 131.254C183.903 131.265 183.892 131.274 183.879 131.279C183.867 131.284 183.853 131.284 183.84 131.28V131.24Z" fill="#EAC8A9"/>
<path d="M188.55 132.62H183.66C183.591 132.62 183.525 132.593 183.476 132.544C183.428 132.495 183.4 132.429 183.4 132.36C183.4 132.291 183.428 132.225 183.476 132.176C183.525 132.127 183.591 132.1 183.66 132.1H188.55C188.619 132.1 188.685 132.127 188.734 132.176C188.783 132.225 188.81 132.291 188.81 132.36C188.81 132.429 188.783 132.495 188.734 132.544C188.685 132.593 188.619 132.62 188.55 132.62Z" fill="#EAC8A9"/>
<path d="M181.35 163.31H176.46C176.391 163.31 176.325 163.283 176.276 163.234C176.227 163.185 176.2 163.119 176.2 163.05C176.2 162.981 176.227 162.915 176.276 162.866C176.325 162.817 176.391 162.79 176.46 162.79H181.35C181.384 162.789 181.419 162.794 181.451 162.807C181.483 162.819 181.513 162.839 181.537 162.863C181.561 162.887 181.58 162.917 181.593 162.949C181.606 162.981 181.611 163.015 181.61 163.05C181.61 163.119 181.583 163.185 181.534 163.234C181.485 163.283 181.419 163.31 181.35 163.31Z" fill="#EAC8A9"/>
<path d="M162.81 150.89H159.1C158.957 150.89 158.84 151.006 158.84 151.15C158.84 151.293 158.957 151.41 159.1 151.41H162.81C162.954 151.41 163.07 151.293 163.07 151.15C163.07 151.006 162.954 150.89 162.81 150.89Z" fill="#EAC8A9"/>
<path d="M164.41 152.23L164.09 151.73C164.08 151.717 164.074 151.701 164.074 151.685C164.074 151.669 164.08 151.653 164.09 151.64C164.101 151.63 164.115 151.625 164.13 151.625C164.145 151.625 164.159 151.63 164.17 151.64L164.49 152.14C164.501 152.153 164.506 152.169 164.506 152.185C164.506 152.201 164.501 152.217 164.49 152.23H164.41ZM163.77 151.23H163.72L163.39 150.73C163.38 150.717 163.374 150.701 163.374 150.685C163.374 150.669 163.38 150.653 163.39 150.64C163.401 150.63 163.415 150.625 163.43 150.625C163.445 150.625 163.459 150.63 163.47 150.64L163.8 151.14C163.8 151.14 163.8 151.21 163.8 151.22L163.77 151.23ZM163.12 150.23H163.07H162.53C162.516 150.228 162.503 150.22 162.494 150.209C162.485 150.198 162.48 150.184 162.48 150.17C162.48 150.17 162.48 150.11 162.53 150.11H163.1C163.108 150.106 163.116 150.103 163.125 150.103C163.134 150.103 163.142 150.106 163.15 150.11C163.156 150.115 163.161 150.121 163.165 150.128C163.168 150.135 163.17 150.142 163.17 150.15C163.17 150.158 163.168 150.165 163.165 150.172C163.161 150.179 163.156 150.185 163.15 150.19L163.12 150.23ZM161.94 150.23H161.34C161.332 150.23 161.324 150.228 161.317 150.225C161.31 150.222 161.303 150.218 161.298 150.212C161.292 150.207 161.288 150.2 161.285 150.193C161.282 150.186 161.28 150.178 161.28 150.17C161.28 150.162 161.282 150.154 161.285 150.147C161.288 150.14 161.292 150.133 161.298 150.128C161.303 150.122 161.31 150.118 161.317 150.115C161.324 150.112 161.332 150.11 161.34 150.11H161.94C161.956 150.11 161.971 150.116 161.983 150.128C161.994 150.139 162 150.154 162 150.17C161.994 150.18 161.985 150.189 161.975 150.194C161.964 150.199 161.952 150.202 161.94 150.2V150.23ZM160.75 150.23H160.15C160.134 150.23 160.119 150.224 160.108 150.212C160.096 150.201 160.09 150.186 160.09 150.17C160.09 150.154 160.096 150.139 160.108 150.128C160.119 150.116 160.134 150.11 160.15 150.11H160.75C160.75 150.11 160.8 150.11 160.8 150.17C160.795 150.179 160.788 150.186 160.779 150.191C160.77 150.197 160.76 150.2 160.75 150.2V150.23Z" fill="#EAC8A9"/>
</g>
<defs>
<clipPath id="clip0">
<rect width="287.98" height="195.75" fill="white"/>
</clipPath>
</defs>
</svg>
