<svg width="309" height="203" viewBox="0 0 309 203" fill="none" xmlns="http://www.w3.org/2000/svg">
<g clip-path="url(#clip0)">
<path d="M17.6598 202.75C17.6598 202.75 -17.7202 164.75 11.6598 123.63C37.7398 87.14 68.1498 89.63 90.4598 104.44C99.9698 110.75 127.37 105.22 150.68 68.09C182.49 17.45 292.68 48.16 272.62 126.09C262.9 163.79 302.22 165.16 282.18 202.85L17.6598 202.75Z" fill="#EDEDEB"/>
<path d="M161.44 59C159.553 58.9952 157.675 59.2716 155.87 59.82C154.643 56.9822 152.604 54.5708 150.009 52.8893C147.415 51.2077 144.381 50.3312 141.29 50.37C137.855 50.3101 134.498 51.3936 131.746 53.45C128.995 55.5064 127.005 58.4191 126.09 61.73C124.781 61.2451 123.396 60.9979 122 61C119.127 60.9302 116.344 62.0028 114.261 63.9825C112.178 65.9623 110.966 68.6874 110.89 71.56H177.12C177.09 64.6 170.08 59 161.44 59Z" fill="#EDEDED"/>
<path d="M286.17 97.0001C284.04 95.7201 290.31 92.0001 294.45 92.9101C298.59 93.8201 301.15 95.8401 304.06 95.6901C304.06 95.7001 296.63 103.33 286.17 97.0001Z" fill="#869135"/>
<path d="M296 69.46C296 69.46 302.88 77.46 293.77 88.66C284.66 99.86 286.11 105.72 286.11 105.72C286.11 105.72 273.27 86.4 296 69.46Z" fill="#97A43C"/>
<path d="M287.57 97.7899C283.32 98.6699 286.98 86.4699 293.35 82.6699C299.72 78.8699 305.43 78.4699 308.99 74.8199C309 74.8199 308.53 93.4599 287.57 97.7899Z" fill="#48753A"/>
<path d="M180.97 41.52H158.96V140.68H180.97V41.52Z" fill="#FFC654"/>
<path d="M181 79.21V141.74C170.68 143.98 163.58 146.13 159 148.25V79.25L181 79.21Z" fill="#4DA8F2"/>
<path d="M181 85.39V141C170.68 143 163.58 147 159 148.88V85.39H181Z" fill="#216DAD"/>
<path d="M207.74 14.54V129.54C199.3 132.16 192 134.72 185.74 137.23V14.54H207.74Z" fill="#FFC654"/>
<path d="M207.74 51.7H185.73V132.53H207.74V51.7Z" fill="#4DA8F2"/>
<path d="M207.74 132.34L185.73 137.27V58.22H207.74V132.34Z" fill="#216DAD"/>
<path d="M234.81 0V123.32C226.37 126.25 219.07 129.72 212.81 132.53V0H234.81Z" fill="#FFC654"/>
<path d="M234.81 121.87L212.8 125.74V26.0699H234.81V121.87Z" fill="#4DA8F2"/>
<path d="M234.81 121.63L212.8 126.99V39.62H234.81V121.63Z" fill="#216DAD"/>
<path d="M154.17 74.51V158.73C152.38 160.53 151.8 162.31 152.17 164.09H132.17V74.51H154.17Z" fill="#FFC654"/>
<path d="M154.17 112.44H132.16V158.78H154.17V112.44Z" fill="#4DA8F2"/>
<path d="M154.17 158.26L132.16 160.14V118.77H154.17V158.26Z" fill="#216DAD"/>
<path d="M127.12 95.78V167.73C125.33 169.27 124.75 170.8 125.12 172.31H105.12V95.78H127.12Z" fill="#FFC654"/>
<path d="M127.12 130.71H105.11V177.05H127.12V130.71Z" fill="#4DA8F2"/>
<path d="M127.12 176.53L105.11 178.4V137.03H127.12V176.53Z" fill="#216DAD"/>
<path d="M291.08 110.3C291.08 139.03 284.43 162.3 276.22 162.3C268.01 162.3 261.36 139 261.36 110.3C261.36 81.6001 268.01 58.3 276.22 58.3C284.43 58.3 291.08 81.5601 291.08 110.3Z" fill="#4DA8F2"/>
<path d="M283 110.3C283 126.98 279.14 140.51 274.37 140.51C269.6 140.51 265.74 126.98 265.74 110.3C265.74 93.62 269.6 80.08 274.37 80.08C279.14 80.08 283 93.61 283 110.3Z" fill="#2783CF"/>
<path d="M254.46 8.24996C253.125 8.24461 251.797 8.44013 250.52 8.82996C249.588 6.72812 248.035 4.96241 246.069 3.77096C244.103 2.5795 241.818 2.01959 239.524 2.16673C237.23 2.31386 235.036 3.16097 233.238 4.59383C231.44 6.02668 230.125 7.97636 229.47 10.18C228.543 9.8287 227.561 9.6491 226.57 9.64996C224.54 9.59892 222.572 10.356 221.1 11.7549C219.628 13.1538 218.772 15.08 218.72 17.11H265.52C265.52 12.22 260.57 8.24996 254.46 8.24996Z" fill="#EDEDED"/>
<path d="M189.16 24.8599C188.344 24.8562 187.531 24.9741 186.75 25.2099C186.18 23.9216 185.229 22.8392 184.025 22.1088C182.82 21.3784 181.421 21.0353 180.015 21.1258C178.609 21.2163 177.265 21.7361 176.165 22.6149C175.064 23.4937 174.259 24.6892 173.86 26.0399C173.291 25.8226 172.688 25.7107 172.08 25.7099C170.838 25.6804 169.634 26.1451 168.734 27.0019C167.834 27.8588 167.311 29.0377 167.28 30.2799H195.93C195.93 27.2899 192.9 24.8599 189.16 24.8599Z" fill="#EDEDED"/>
<path d="M277.39 107.73L275.81 104.05L273.51 109.39L271.22 104.05L269.64 107.73L271.93 113.07L269.64 118.41L271.22 122.08L273.51 116.74L275.81 122.08L277.39 118.41L275.09 113.07L277.39 107.73Z" fill="#DB164A"/>
<path d="M258.13 126.67L253.13 127.93L253.8 129.18C244.45 136.82 240.15 148.03 240.15 148.03L242.98 151.77C242.98 151.77 245.57 138.21 254.48 130.48L255.34 132.09L258.13 126.67Z" fill="#4DA8F2"/>
<path d="M257.78 105.55L255.11 100.05L254.21 101.65C245.41 93.65 243.08 80.02 243.08 80.02L240.16 83.72C240.16 83.72 244.25 95.07 253.49 102.94L252.79 104.19L257.78 105.55Z" fill="#4DA8F2"/>
<path d="M273.51 111.63C273.51 111.63 244.62 101.37 205.83 121.14C167.04 140.91 178.05 159.14 63.9101 147.14L35.5601 177.84C35.5601 177.84 180.88 191.64 207.56 152.14C234.24 112.64 269.62 115.04 273.49 116.71C277.36 118.38 273.51 111.63 273.51 111.63Z" fill="#DB164A"/>
<path d="M69.1896 119.1L70.5196 117.89C71.0489 117.685 71.628 117.647 72.1796 117.78C72.8088 117.818 73.434 117.905 74.0496 118.04C74.1156 118.107 74.1672 118.187 74.2016 118.275C74.236 118.362 74.2523 118.456 74.2496 118.55C74.2418 118.773 74.1764 118.99 74.0596 119.18C74.1227 119.297 74.1557 119.427 74.1557 119.56C74.1557 119.693 74.1227 119.823 74.0596 119.94C74.1056 120.067 74.113 120.205 74.081 120.337C74.049 120.469 73.979 120.588 73.8796 120.68C73.9243 120.783 73.9368 120.898 73.9154 121.009C73.894 121.119 73.8397 121.221 73.7596 121.3C73.4548 121.333 73.1536 121.393 72.8596 121.48C71.7394 121.597 70.6099 121.597 69.4896 121.48C69.4896 121.48 68.5896 121 69.1896 119.1Z" fill="#EEA886"/>
<path d="M71.4097 119.28C71.2734 119.594 71.0988 119.889 70.8897 120.16C70.6897 120.31 72.1297 121.3 72.1297 121.3C72.1297 121.3 72.2697 119.7 71.4097 119.28Z" fill="#CF8C6C"/>
<path d="M73.8399 118C73.8399 118 71.8399 118.11 71.8399 118.43C71.8269 118.512 71.8358 118.596 71.8657 118.673C71.8955 118.75 71.9453 118.818 72.0099 118.87L71.2199 119.28C71.2199 119.28 70.8599 119.85 71.5799 120.08C71.5799 120.08 71.1799 120.57 71.9099 120.71C71.9099 120.71 71.7899 121.15 72.1099 121.28C72.6348 121.341 73.165 121.341 73.6899 121.28C73.6899 121.28 73.9499 121.14 73.8199 120.66C73.9227 120.57 73.9952 120.451 74.0274 120.319C74.0596 120.186 74.05 120.047 73.9999 119.92C74.0903 119.783 74.149 119.627 74.1715 119.465C74.194 119.302 74.1797 119.136 74.1299 118.98C74.2094 118.82 74.2413 118.641 74.2218 118.464C74.2023 118.287 74.1322 118.119 74.0199 117.98L73.8399 118Z" fill="#DB9C7C"/>
<path d="M70.5796 117.88C71.2254 118.157 71.8229 118.535 72.3496 119C72.4696 119.14 72.5596 119.29 72.4896 119.45C72.4196 119.61 72.0696 119.71 71.4896 119.5C71.056 119.361 70.6049 119.283 70.1496 119.27C70.1496 119.27 69.6896 118.91 70.5796 117.88Z" fill="#EEA886"/>
<path d="M74.1498 119C73.3806 118.949 72.6089 118.949 71.8398 119C71.6498 119.1 71.6998 118.32 71.8398 118.25C72.5528 118.115 73.2747 118.031 73.9998 118C74.082 118.05 74.1522 118.118 74.2054 118.198C74.2587 118.279 74.2937 118.37 74.3079 118.465C74.3222 118.56 74.3155 118.658 74.2882 118.75C74.2608 118.842 74.2136 118.928 74.1498 119Z" fill="#EEA886"/>
<path d="M73.5997 117.93C73.5997 117.93 77.0497 118.18 77.0497 118.59C77.0497 119 76.2497 119.24 73.5997 118.94C70.9497 118.64 73.5997 117.93 73.5997 117.93Z" fill="#EEA886"/>
<path d="M55.6596 168.64C55.6596 168.64 57.5196 169.7 58.3596 170.09C59.1996 170.48 62.4496 170.56 62.7796 170.86C63.1096 171.16 62.9996 172.13 62.4596 172.24C60.5439 172.529 58.6022 172.606 56.6696 172.47C55.3396 172.18 52.8896 172.73 52.3396 172.55C51.7896 172.37 52.0996 169.43 52.3396 168.77C52.5796 168.11 55.6596 168.64 55.6596 168.64Z" fill="#292C47"/>
<path d="M55.5598 167.39L55.6598 168.64C55.6598 168.64 53.1998 169.13 52.2998 168.77L52.4698 167.52L55.5598 167.39Z" fill="#3D416B"/>
<path d="M22.77 175.68C22.77 175.68 24.54 176.89 25.35 177.35C26.16 177.81 29.35 178.14 29.69 178.47C30.03 178.8 29.81 179.75 29.26 179.81C27.3274 179.951 25.3853 179.873 23.47 179.58C22.17 179.18 19.68 179.58 19.15 179.32C18.62 179.06 19.15 176.18 19.42 175.54C19.69 174.9 22.77 175.68 22.77 175.68Z" fill="#292C47"/>
<path d="M22.9998 174.49L22.7598 175.68C22.7598 175.68 20.2698 175.97 19.5498 175.55L19.8198 174.31L22.9998 174.49Z" fill="#3D416B"/>
<path d="M43.2598 137.6C43.0198 138.4 42.4098 140.1 41.7498 141.89L41.2998 143.08C40.4098 145.49 39.5598 147.7 39.5598 147.7C38.2598 150.7 35.2298 156.97 33.7598 158.07C31.7598 159.57 23.0098 175.29 23.0098 175.29L19.0098 174.82C19.0098 174.82 23.2998 163.07 25.0898 160.47C27.0898 157.56 30.2198 153.77 30.5598 150.55C30.7698 148.55 32.0198 142.24 32.0198 142.24C32.0198 142.24 33.4798 135.19 36.6598 130.59C37.4998 129.44 43.2598 137.6 43.2598 137.6Z" fill="#292C47"/>
<path d="M47.4799 136.89C47.4799 136.89 58.4799 145.1 59.7099 146.79C60.9399 148.48 60.1899 151.17 59.9999 151.99C59.8099 152.81 56.3199 166.36 56.2299 167.78C56.2299 167.78 52.8399 168.62 51.9699 167.51C51.9699 167.51 53.1499 154.65 53.9699 152C54.7899 149.35 50.9699 147.59 48.8599 146.63C46.7499 145.67 35.8599 140.43 35.9999 138.31C36.1299 136.84 36.3299 135.46 36.3299 135.46C36.3299 135.46 38.4299 133.73 47.4799 136.89Z" fill="#292C47"/>
<path d="M47.5896 116C47.5896 116 54.7296 117.35 58.0496 117.76C59.0496 117.89 68.8996 118.64 69.2996 118.7C69.6996 118.76 69.3996 121.94 69.3996 121.94C69.3996 121.94 58.3996 121.21 57.7796 121.26C57.1596 121.31 46.9396 120.61 45.9996 119.93C45.0596 119.25 44.3796 118.13 44.9996 117.04C45.2612 116.61 45.6548 116.277 46.1217 116.089C46.5885 115.902 47.1035 115.871 47.5896 116Z" fill="#292C47"/>
<path d="M47.2397 115C47.8761 116.831 48.2923 118.731 48.4797 120.66C48.4797 122.72 46.5597 128.91 46.4797 130.06C46.3581 132.397 46.6979 134.735 47.4797 136.94L36.1297 139.12C35.9154 136.733 35.8253 134.336 35.8597 131.94C35.8597 128.03 37.0497 124.81 37.3297 122.57C37.4962 120.479 38.2675 118.482 39.5495 116.822C40.8315 115.161 42.5688 113.91 44.5497 113.22L47.2397 115Z" fill="#CFBEB6"/>
<path d="M52.4499 106C52.4499 106 53.4499 107.9 52.9699 108.19C52.4899 108.48 53.4599 110.3 53.5799 110.61C53.6999 110.92 52.8199 111.13 52.6399 111.33C52.4599 111.53 51.8899 114 51.1699 114C49.4044 113.742 47.729 113.055 46.2899 112C45.4099 111.07 44.6799 106.9 45.2899 105.14C45.8999 103.38 50.6499 102.71 52.4499 106Z" fill="#EEA886"/>
<path d="M49 113.52L48.79 114.02C48.73 114.14 48.67 114.29 48.61 114.44C48.55 114.59 48.5 114.69 48.45 114.82C48.1184 115.566 47.8638 116.343 47.69 117.14C47.59 118.07 44.98 113.2 44.98 113.2C45.8183 111.253 46.5134 109.248 47.06 107.2C47.91 103.91 49 113.52 49 113.52Z" fill="#EEA886"/>
<path d="M52.6596 106.44C52.9475 105.837 53.0202 105.154 52.8655 104.505C52.7108 103.855 52.3382 103.278 51.8096 102.87C49.9096 101.35 46.3996 104.02 46.0096 104.12C45.6196 104.22 43.4296 104.36 44.4996 108.31C45.4996 111.88 45.6296 111.6 45.6296 111.6C45.9037 110.882 46.281 110.209 46.7496 109.6C47.3743 109.311 48.0638 109.19 48.7496 109.25C48.7496 109.25 48.0796 107.47 49.1296 107.25C50.1796 107.03 51.5996 106.05 52.6596 106.44Z" fill="#D88A51"/>
<path d="M47.6798 108.2C47.5898 107.96 47.2898 106.91 46.3898 107.52C45.4898 108.13 46.9498 110.12 47.0998 110.14C47.2498 110.16 48.4598 110.25 47.6798 108.2Z" fill="#EEA886"/>
<path d="M45.1598 112.76C46.0278 114.087 46.9762 115.359 47.9998 116.57L47.6698 118.43L44.5498 113.17L45.1598 112.76Z" fill="#EDDAD3"/>
<path d="M48.9999 113.52L48.7899 114.02C48.7299 114.14 48.6699 114.29 48.6099 114.44C47.7162 113.871 46.972 113.096 46.4399 112.18C47.2553 112.696 48.1115 113.144 48.9999 113.52Z" fill="#A77860"/>
<path d="M48 116.68C48.155 117.23 48.2324 117.799 48.23 118.37C48.23 118.55 47.71 118.32 47.71 118.32L48 116.68Z" fill="#FAA146"/>
<path d="M47.48 136.89C47.48 136.89 47.16 135.89 47.09 135.65L36 137.71L36.11 139.07C36.11 139.07 44.22 137.61 47.48 136.89Z" fill="#23263D"/>
<path d="M28.5496 144L23.9196 143.42C23.8034 143.407 23.691 143.37 23.5895 143.312C23.488 143.253 23.3994 143.175 23.3292 143.082C23.259 142.988 23.2087 142.881 23.1812 142.767C23.1538 142.653 23.1498 142.535 23.1696 142.42L23.5396 139.5C23.5519 139.388 23.5865 139.28 23.6412 139.182C23.696 139.084 23.7698 138.998 23.8584 138.929C23.9469 138.86 24.0484 138.81 24.1569 138.781C24.2653 138.752 24.3784 138.745 24.4896 138.76L29.1196 139.33C29.2359 139.343 29.3482 139.38 29.4497 139.438C29.5513 139.497 29.6398 139.575 29.71 139.668C29.7802 139.762 29.8306 139.869 29.8581 139.983C29.8855 140.097 29.8894 140.215 29.8696 140.33L29.4996 143.25C29.4721 143.475 29.3568 143.68 29.1789 143.82C29.001 143.961 28.7749 144.025 28.5496 144ZM24.4196 139.37C24.3828 139.366 24.3456 139.369 24.31 139.379C24.2744 139.39 24.2413 139.407 24.2124 139.43C24.1836 139.454 24.1597 139.482 24.142 139.515C24.1244 139.547 24.1134 139.583 24.1096 139.62L23.7396 142.53C23.7336 142.605 23.756 142.679 23.8023 142.739C23.8486 142.798 23.9154 142.838 23.9896 142.85L28.6196 143.42C28.6924 143.429 28.7657 143.408 28.8236 143.363C28.8816 143.318 28.9197 143.253 28.9296 143.18L29.2996 140.26C29.3054 140.186 29.2827 140.113 29.2363 140.055C29.1898 139.998 29.123 139.96 29.0496 139.95L24.4196 139.37Z" fill="#6E4629"/>
<path d="M34.6135 142.435L18.4478 140.427L17.156 150.827L33.3218 152.835L34.6135 142.435Z" fill="#D88A51"/>
<path d="M34.6082 142.429L18.4424 140.421L17.8692 145.036L34.035 147.044L34.6082 142.429Z" fill="#B57343"/>
<path d="M27.1967 145.094L24.9639 144.816L24.885 145.451L27.1178 145.729L27.1967 145.094Z" fill="#6E4629"/>
<path d="M24.4898 139.37C24.4598 139.175 24.4598 138.976 24.4898 138.78C24.4898 138.78 24.6298 138.44 24.7198 138.2C24.7433 138.138 24.7633 138.074 24.7798 138.01C24.8261 137.663 24.9274 137.325 25.0798 137.01C25.3098 136.59 26.2598 135.16 26.2598 135.16L27.6198 135.75L28.8898 135.92C28.9775 137.035 28.9775 138.155 28.8898 139.27C28.8775 139.312 28.8607 139.352 28.8398 139.39C28.6777 139.639 28.49 139.87 28.2798 140.08C28.2798 140.15 27.7898 140.74 27.5598 140.75C27.4367 140.761 27.3127 140.742 27.1992 140.693C27.0857 140.644 26.9862 140.567 26.9098 140.47C26.5843 140.465 26.2663 140.372 25.9898 140.2C25.8245 140.206 25.6603 140.17 25.5119 140.097C25.3636 140.024 25.2357 139.915 25.1398 139.78C25.1398 139.78 24.6098 139.69 24.4898 139.37Z" fill="#EFAA88"/>
<path d="M43.9998 118.2C43.9998 118.2 37.4698 123.27 35.1298 126.07C34.3898 126.95 29.9098 135.67 29.6198 136C29.3298 136.33 26.0098 135.29 26.0098 135.29C26.0098 135.29 31.3198 124.38 31.6498 123.74C31.9798 123.1 41.4398 114.3 42.6498 113.84C43.8598 113.38 43.9798 113.99 44.6498 115.18C44.8868 115.685 44.9515 116.254 44.8341 116.8C44.7167 117.345 44.4236 117.837 43.9998 118.2Z" fill="#323657"/>
<path d="M47.6498 122.1C47.3998 122.79 47.1698 123.48 46.9498 124.18C46.4698 125.71 46.0598 127.26 45.7198 128.77C45.5898 129.3 45.4798 129.84 45.3698 130.36C44.539 134.247 42.967 137.938 40.7398 141.23C40.7398 141.23 35.7398 140.83 34.5298 140C34.8002 135.233 35.449 130.494 36.4698 125.83C36.5898 125.29 36.7198 124.75 36.8598 124.22C38.3398 118.62 40.7298 113.57 44.5498 113.22C44.6198 113.26 48.9998 118.51 47.6498 122.1Z" fill="#323657"/>
<path d="M36.3499 126.32C35.7744 130.901 34.1002 135.275 31.4699 139.07C30.9299 139.84 37.5299 140.84 37.5299 140.84L36.3499 126.32Z" fill="#323657"/>
<path d="M41.3897 120.27C39.8697 121.91 36.4697 125.83 36.4697 125.83C36.5897 125.29 36.7197 124.75 36.8597 124.22C38.0597 123 41.3397 120.31 41.3897 120.27Z" fill="#1D2133"/>
<path d="M48.22 118.34C48.22 118.34 47.55 122.85 43.66 123.16C40.18 123.43 35.13 125.16 33.5 126.52L31.5 128.29L31.99 125.94C31.99 125.94 33.45 122.23 43.65 122.7C43.65 122.7 46.78 123.28 47.8 117.85C47.77 117.85 48.28 118.11 48.22 118.34Z" fill="#FAA146"/>
<path d="M236.36 71.7C235.964 71.9225 235.553 72.1163 235.13 72.28C234.67 72.43 235.13 70.7 235.13 70.7L236.36 71.7Z" fill="#EEA886"/>
<path d="M234.83 70.39C234.83 70.39 234.94 69.05 234.97 68.84C235.171 68.4138 235.464 68.038 235.83 67.74C236.235 67.3515 236.724 67.0608 237.26 66.89C237.343 66.8896 237.425 66.9084 237.499 66.9448C237.574 66.9812 237.639 67.0343 237.69 67.1C237.815 67.2419 237.902 67.4143 237.94 67.6C238.046 67.6429 238.139 67.7123 238.211 67.8016C238.283 67.8909 238.331 67.9971 238.35 68.11C238.453 68.1629 238.539 68.2452 238.596 68.3467C238.653 68.4481 238.678 68.564 238.67 68.68C238.67 68.68 239 68.84 238.95 69.14C238.778 69.3396 238.624 69.5538 238.49 69.78C237.85 70.4939 237.136 71.1375 236.36 71.7C236.36 71.7 235.54 71.9 234.83 70.39Z" fill="#EEA886"/>
<path d="M236.33 69.21C236.426 69.4844 236.487 69.7701 236.51 70.06C236.51 70.27 238 70.24 238 70.24C238 70.24 237.12 69 236.33 69.21Z" fill="#CF8C6C"/>
<path d="M237.13 67.0001C237.13 67.0001 235.97 68.2101 236.13 68.4201C236.169 68.4785 236.223 68.5257 236.286 68.5573C236.349 68.5888 236.419 68.6035 236.49 68.6001L236.23 69.3201C236.23 69.3201 236.33 69.8801 236.92 69.6101C236.92 69.6101 236.92 70.1501 237.49 69.8201C237.49 69.8201 237.68 70.1601 237.95 70.0501C238.322 69.7925 238.658 69.4864 238.95 69.1401C238.95 69.1401 239.04 68.8701 238.68 68.6701C238.689 68.5541 238.663 68.4381 238.606 68.3367C238.549 68.2353 238.463 68.153 238.36 68.1001C238.345 67.9857 238.301 67.8773 238.23 67.7859C238.16 67.6945 238.067 67.6235 237.96 67.5801C237.96 67.5801 237.86 66.8701 237.26 66.8901L237.13 67.0001Z" fill="#DB9C7C"/>
<path d="M235 68.8C235.57 68.6034 236.167 68.4988 236.77 68.49C236.92 68.49 237.07 68.54 237.12 68.69C237.17 68.84 237.01 69.1 236.54 69.28C236.179 69.4461 235.842 69.6614 235.54 69.92C235.54 69.92 235 70 235 68.8Z" fill="#EEA886"/>
<path d="M220.65 70.37C222.748 71.983 224.979 73.4148 227.32 74.65C228.15 75.02 234.54 70.49 234.83 70.39C235.12 70.29 235.83 71.98 235.83 71.98C235.83 71.98 228.07 78.75 227.52 78.63C226.97 78.51 218.93 74.02 218.32 73.21C217.978 72.8574 217.778 72.3915 217.758 71.901C217.738 71.4104 217.899 70.9296 218.21 70.55C218.539 70.2541 218.958 70.076 219.399 70.0434C219.841 70.0108 220.281 70.1257 220.65 70.37Z" fill="#EEA886"/>
<path d="M222.85 76.41L224.22 72.64L222.26 71.03L221.02 75.41L222.85 76.41Z" fill="#323657"/>
<path d="M196.47 96.6901L195.62 96.1801L194.48 98.4201L195.3 98.9201L196.47 96.6901Z" fill="#EEA886"/>
<path d="M234.31 116.14L234.78 116.98L236.8 115.65L236.35 114.83L234.31 116.14Z" fill="#EEA886"/>
<path d="M220.23 94C219.87 94.33 219.29 95 218.64 95.68L218.41 95.94C218.22 96.15 218.02 96.37 217.83 96.6C217.64 96.83 217.64 96.8 217.55 96.91C216.32 98.32 215.18 99.67 215.18 99.67C215.18 99.67 209.84 104.87 208.13 104.39C204.41 103.39 194.76 99.05 194.76 99.05L196.62 95.81C196.62 95.81 200.22 97.41 202.62 98.13C205.34 98.95 204.51 98.83 207.04 99.47C208.59 99.86 211.04 93.59 211.04 93.54C212.04 91.12 213.44 88.02 214.49 87.23C215.38 86.52 220.23 94 220.23 94Z" fill="#FFC654"/>
<path d="M231 101.23C230.81 99.9701 228.74 96.7001 227.28 94.7501C224.98 91.6401 223.44 89.1801 223.44 89.1801C223.44 89.1801 212.96 90.1801 213.17 91.1801C213.56 93.1801 218.17 95.5701 219.04 96.3001L221.26 97.6901C221.26 97.6901 223.26 99.0301 224.61 100.22C226.46 101.81 226.13 102.38 227.3 104.77C228.3 106.9 233.49 116.88 233.49 116.88L236.61 115.05C236.61 115.05 231.32 103.19 231 101.23Z" fill="#FFC654"/>
<path d="M222.44 80.67C222.52 81.67 223.44 89.18 223.44 89.18L211.63 91.41C211.63 91.41 213.46 87.41 213.14 84C213.056 83.0892 213.036 82.1736 213.08 81.26C213.08 80.41 213.18 79.61 213.26 78.86C213.39 77.68 213.53 76.64 213.54 75.78C213.481 73.951 213.96 72.145 214.916 70.5847C215.872 69.0245 217.264 67.7783 218.92 67L221.4 68.28C222.121 69.8007 222.658 71.402 223 73.05C223.2 74.87 222.36 79.68 222.44 80.67Z" fill="#323657"/>
<path d="M225.08 60.14C225.08 60.14 226.14 61.69 225.73 61.99C225.32 62.29 226.35 63.76 226.48 63.99C226.61 64.22 225.87 64.52 225.73 64.71C225.59 64.9 225.33 67.02 224.73 67.15C223.185 67.0994 221.676 66.6664 220.34 65.89C219.49 65.18 218.47 61.65 218.82 60.07C219.17 58.49 223.21 57.45 225.08 60.14Z" fill="#EEA886"/>
<path d="M222.79 66.93C222.79 66.93 222.73 67.1 222.65 67.37C222.61 67.49 222.57 67.62 222.53 67.76C222.53 67.87 222.46 67.98 222.43 68.1C222.214 68.7733 222.066 69.4669 221.99 70.17C221.99 70.98 218.92 67.04 218.92 67.04C219.849 65.3781 220.396 63.5299 220.52 61.63C220.77 58.71 222.79 66.93 222.79 66.93Z" fill="#EEA886"/>
<path d="M225.29 60.4801C225.29 60.4801 225.29 58.8501 224.44 58.2801C222.22 56.8601 219.8 58.9801 219.44 59.1001C219.08 59.2201 217.32 60.3501 218.44 62.8501C219.29 64.8501 219.79 65.1501 219.79 65.1501C219.984 64.5546 220.26 63.9892 220.61 63.4701C221.033 63.1312 221.501 62.852 222 62.6401C222 62.6401 221.82 61.6401 222.36 61.4501C223.21 61.0701 224.34 60.2401 225.29 60.4801Z" fill="#16202E"/>
<path d="M221.16 62.4599C221.06 62.2599 220.7 61.3799 219.98 61.9999C219.26 62.6199 220.71 64.18 220.84 64.19C220.97 64.2 222 64.1599 221.16 62.4599Z" fill="#EEA886"/>
<path d="M198.44 87.24C198.447 87.0683 198.485 86.8991 198.55 86.74L198.85 86.29L198.93 86.14C199.028 85.8391 199.173 85.5556 199.36 85.3C199.63 84.97 200.68 83.92 200.68 83.92L201.74 84.66L202.8 85.03C202.689 85.9934 202.502 86.9464 202.24 87.88L202.18 87.97C201.996 88.1554 201.795 88.3228 201.58 88.47C201.53 88.47 201.05 88.94 200.86 88.91C200.753 88.897 200.651 88.8583 200.562 88.7974C200.473 88.7365 200.401 88.6551 200.35 88.56C200.075 88.5016 199.822 88.3664 199.62 88.17C199.479 88.1433 199.346 88.0843 199.231 87.9976C199.117 87.9108 199.024 87.7987 198.96 87.67C198.96 87.67 198.48 87.53 198.44 87.24Z" fill="#EFAA88"/>
<path d="M222.79 66.93C222.79 66.93 222.73 67.1 222.65 67.37C222.61 67.49 222.57 67.62 222.53 67.76C221.703 67.3525 220.988 66.7481 220.45 66C221.204 66.3705 221.987 66.6814 222.79 66.93Z" fill="#A77860"/>
<path d="M195.61 96.18C195.61 96.18 195.02 97.38 194.79 97.89C194.56 98.4 194.79 98.8 194.44 98.7C193.659 98.5783 192.861 98.6434 192.11 98.89C191.59 99.18 188.42 101.26 187.8 100.68C187.18 100.1 188.28 98.68 190.03 96.96C191.78 95.24 191.4 94.71 192.91 93.96C193.38 93.68 195.61 96.18 195.61 96.18Z" fill="#343A5C"/>
<path d="M234.71 116.84L236.27 115.84C236.73 115.54 236.72 115.06 236.98 115.33C237.574 115.822 238.277 116.165 239.03 116.33C239.61 116.33 243.33 116.22 243.55 117.03C243.77 117.84 242.15 118.43 239.79 119.03C237.43 119.63 237.49 120.23 235.79 120.12C235.31 120.07 234.71 116.84 234.71 116.84Z" fill="#343A5C"/>
<path d="M225.29 60.48C225.29 60.48 226.18 59.31 225.29 57.16C225.29 57.16 224.97 58.09 222.92 57.79L225.29 60.48Z" fill="#16202E"/>
<path d="M218.76 72.6899C217.735 74.0665 216.416 75.1973 214.9 75.9999L214.72 75.1699L218.76 72.6899Z" fill="#23344A"/>
<path d="M218.65 72.6001C218.65 72.6001 212.22 75.7901 209.74 77.7601C208.97 78.3801 203.1 84.7601 202.8 85.0301C202.5 85.3001 200.56 84.0301 200.56 84.0301C200.56 84.0301 206.8 75.6401 207.19 75.1601C207.58 74.6801 215.72 69.2501 217.55 68.9401C218.64 68.7601 219.68 68.9401 220.03 70.0101C220.52 71.6001 218.65 72.6001 218.65 72.6001Z" fill="#EEA886"/>
<path d="M220.11 69.1099C220.11 69.1099 218.92 66.0099 213.45 70.6899L214.72 75.1199C214.72 75.1199 221.69 72.2099 220.11 69.1099Z" fill="#323657"/>
<path d="M218.41 95.8899C218.22 96.0999 218.02 96.3199 217.83 96.5499C217.64 96.7799 217.64 96.7499 217.55 96.8599C216.39 95.6294 215.318 94.3196 214.34 92.9399C215.63 94.0117 216.99 94.9972 218.41 95.8899Z" fill="#B0573A"/>
<path d="M96.9301 116.41L89.9901 123.41C89.9901 123.41 88.9901 124.17 89.8701 126.26C90.8701 128.58 94.3401 132.03 94.3401 132.03C94.3401 132.03 95.6101 131.72 95.7201 131.12C95.8301 130.52 92.6201 125.49 92.7201 125C93.9916 123.422 95.3469 121.913 96.7801 120.48C96.7801 120.48 97.9001 116.89 96.9301 116.41Z" fill="#E55353"/>
<path d="M101.49 113.68C101.323 114.549 101.256 115.435 101.29 116.32C101.42 117.04 98.29 114.37 98.29 114.37C98.5507 113.172 98.6516 111.945 98.59 110.72C98.36 109.45 101.49 113.68 101.49 113.68Z" fill="#EEA886"/>
<path d="M107 147.44C107.668 148.448 108.093 149.599 108.24 150.8C108.32 152.44 112.24 164.8 112.24 164.8L109.24 165.97C109.24 165.97 106.17 158.21 105.48 156.23C104.92 154.64 104.91 153.52 103.8 151.55C103.325 150.801 102.761 150.112 102.12 149.5L107 147.44Z" fill="#292C47"/>
<path d="M92.7896 148.53C92.0743 149.326 91.2914 150.059 90.4496 150.72C89.2096 151.72 78.1996 159.15 78.0496 159.26L75.8296 156.86C75.8296 156.86 82.9996 152.79 83.9996 150.92C84.9996 149.05 87.2696 148.04 87.9996 147.2C88.4193 146.787 88.7199 146.269 88.8696 145.7L92.7896 148.53Z" fill="#292C47"/>
<path d="M102.19 138.31C102.19 138.31 106.19 144.91 107.13 147.72L102.78 150.23C102.78 150.23 98.8998 146.23 97.5798 144.49C96.2598 142.75 98.5498 133.41 102.19 138.31Z" fill="#292C47"/>
<path d="M100.89 137.93C100.89 137.93 95.7896 146.77 92.2296 149.13C90.9064 148.39 89.6746 147.497 88.5596 146.47C88.5596 146.47 91.2096 138.57 91.6896 136.75C92.1696 134.93 100.89 137.93 100.89 137.93Z" fill="#292C47"/>
<path d="M98.23 114.35C98.23 114.35 101.23 115.96 101.38 116.03C101.53 116.1 103.69 120.03 103.28 123.3C102.87 126.57 101.81 128.4 101.39 132.04C101.265 133.854 101.527 135.675 102.16 137.38C102.29 137.72 102.47 138.24 102.16 138.2L91.52 136.72C91.52 136.72 94.03 128.88 93.52 124.8C93.05 121.46 95.73 116.11 98.23 114.35Z" fill="#E55353"/>
<path d="M112.55 165.54C113.018 165.737 113.504 165.891 114 166C115 166.2 117 165.21 117.79 165.72C118.58 166.23 118.53 167.18 116.47 167.8C114.41 168.42 111.14 169.65 110.83 169.42C110.396 168.507 110.2 167.499 110.26 166.49C110.31 165.68 112.55 165.54 112.55 165.54Z" fill="#326691"/>
<path d="M112.19 164.83L112.55 165.54L110.22 166.46L110.16 165.73L112.19 164.83Z" fill="#343A57"/>
<path d="M77.61 159.78C77.5914 160.268 77.6182 160.757 77.69 161.24C77.83 162.24 79.47 163.83 79.25 164.71C79.03 165.59 78.13 165.91 76.85 164.19C75.57 162.47 73.28 159.81 73.4 159.44C74.1211 158.713 75.0162 158.183 76 157.9C76.72 157.72 77.61 159.78 77.61 159.78Z" fill="#326691"/>
<path d="M78.1597 159.2L77.6097 159.78L75.9497 157.91L76.6197 157.59L78.1597 159.2Z" fill="#3D476E"/>
<path d="M109.71 127.35C110.097 127.187 110.44 126.933 110.71 126.61C110.943 126.404 111.231 126.272 111.539 126.229C111.846 126.187 112.16 126.236 112.44 126.37C112.86 126.63 113.44 126.45 113.57 126.79C113.7 127.13 113.1 127.45 113.11 127.74C113.12 128.03 113.28 129.42 112.16 129.57C111.04 129.72 110.16 129.13 109.6 129.21C109.04 129.29 109.71 127.35 109.71 127.35Z" fill="#EEA886"/>
<path d="M103.63 107.25C103.88 107.811 104.068 108.398 104.19 109C104.19 109.43 103.73 109.44 103.96 109.89C104.19 110.34 104.72 111.29 104.48 111.57C104.24 111.85 103.79 111.7 103.66 112.29C103.53 112.88 102.66 114.13 101.92 114.14C101.18 114.15 98.9197 113.24 98.7297 112.67C98.5397 112.1 97.7297 108.92 97.4397 108.31C97.1497 107.7 102 106 103 106.55C103.274 106.717 103.493 106.96 103.63 107.25Z" fill="#EEA886"/>
<path d="M96.6399 121.09C96.6399 121.09 95.8099 117.96 97.6399 117.86C99.7799 117.75 99.6399 120.37 99.6399 120.37L96.6399 121.09Z" fill="#E55353"/>
<path d="M103.71 107.44C103.71 107.44 103.19 104.51 99.1897 105.44C95.1897 106.37 98.3497 111.29 98.3497 111.29L103.71 107.44Z" fill="#EEA886"/>
<path d="M100.11 109C100.064 108.87 99.9855 108.754 99.882 108.664C99.7784 108.573 99.6533 108.51 99.5185 108.482C99.3838 108.454 99.2441 108.461 99.1129 108.503C98.9817 108.544 98.8634 108.619 98.7696 108.72C98.1296 109.25 98.9396 110.99 99.5896 110.94C100.24 110.89 100.45 109.89 100.11 109Z" fill="#EEA886"/>
<path d="M103.58 107C102.754 107.609 101.756 107.938 100.73 107.94C99.0199 107.94 98.3299 107.94 97.5799 109.65C97.5799 109.65 95.2599 105.81 99.8699 104.94C99.8699 105 103.46 103.45 103.58 107Z" fill="#323657"/>
<path d="M99.6397 120.37L100.89 127.72C100.89 127.72 101.27 128.27 103.34 128.07C105.41 127.87 109.82 127.27 109.82 127.27C109.859 127.916 109.859 128.564 109.82 129.21C109.82 129.46 100.82 131.21 99.2197 130.27C97.6197 129.33 96.6597 121.09 96.6597 121.09L99.6397 120.37Z" fill="#E55353"/>
<path d="M153.48 98.39C153.48 98.39 151.12 96.72 149.48 98.9C147.84 101.08 150.64 105.26 149.26 106.5C147.88 107.74 142.26 107.05 142.95 110.62C143.202 109.932 143.687 109.355 144.322 108.99C144.956 108.624 145.699 108.493 146.42 108.62C148.99 109.09 152.23 108.18 151.69 104.74C151.15 101.3 152.91 102.19 153.07 101.18C153.23 100.17 153.48 98.39 153.48 98.39Z" fill="#985E44"/>
<path d="M153.25 98.39C153.25 98.39 152.41 99.17 152.87 101.3C152.87 101.3 151.44 99.35 153.25 98.39Z" fill="#FAB46C"/>
<path d="M170.5 120C170.7 120 171.6 119.86 171.9 119.84C172.164 119.819 172.422 119.748 172.66 119.63C172.75 119.57 173.35 119.55 173.89 119.46C174.43 119.37 174.67 119.2 174.67 119.11C174.67 119.02 173.78 118.99 173.78 118.99C173.78 118.99 173.01 119.06 173.01 118.99C173.01 118.92 173.72 118.71 173.81 118.69C174.345 118.545 174.85 118.304 175.3 117.98C175.363 117.916 175.399 117.83 175.399 117.74C175.399 117.65 175.363 117.564 175.3 117.5C175.3 117.5 175.53 117.29 175.52 117.11C175.51 116.93 175.27 116.87 175.27 116.87C175.284 116.81 175.278 116.747 175.252 116.691C175.227 116.635 175.184 116.589 175.13 116.56C174.607 116.628 174.096 116.766 173.61 116.97C173.337 117.102 173.048 117.196 172.75 117.25C172.38 117.25 172.62 116.93 172.62 116.93C173.13 116.33 173.35 116.17 173.31 115.6C173.31 115.35 172.78 116 172.68 116.12C172.58 116.24 171.88 116.64 171.76 116.9C171.64 117.16 170.76 117.71 170.52 117.98C170.407 118.085 170.263 118.152 170.11 118.17L170.5 120Z" fill="#F9CDBA"/>
<path d="M147.02 152.02L146.59 152.45L145.08 150.97L145.5 150.54L147.02 152.02Z" fill="#F9CDBA"/>
<path d="M145.07 150.92C145.07 150.92 146.07 151.92 146.4 152.13C146.73 152.34 147.19 152.23 147.18 152.59C147.17 152.95 146.64 154.68 146.93 155.37C147.22 156.06 148.33 157.97 147.47 158.79C146.61 159.61 142.66 153.79 142.06 153.38C141.46 152.97 145.07 150.92 145.07 150.92Z" fill="#E55353"/>
<path d="M175.46 151.04L175.65 151.62L173.68 152.26L173.44 151.71L175.46 151.04Z" fill="#F9CDBA"/>
<path d="M160.17 138.58C160.17 138.58 157.93 143.07 157.17 143.82C156.41 144.57 147.28 152.35 147.28 152.35L144.61 150.21C146.312 148.454 147.898 146.59 149.36 144.63C150.318 143.579 151.147 142.418 151.83 141.17C152.259 140.262 152.575 139.305 152.77 138.32C152.79 138.07 160.17 138.58 160.17 138.58Z" fill="#4B5182"/>
<path d="M154.08 127.1C154.08 127.1 153.68 132.36 153.52 134.1C153.401 135.521 153.133 136.925 152.72 138.29L159.55 139.56C159.55 139.56 162.01 135.74 161.75 134.74C161.49 133.74 154.08 127.1 154.08 127.1Z" fill="#4B5182"/>
<path d="M158.12 113.66C158.12 113.66 153.12 119.29 153.42 119.93C153.89 120.82 158.34 123.93 158.34 123.93L157 125.36C157 125.36 148.33 121.68 149.47 119.12C150.61 116.56 154.75 111.05 154.75 111.05L158.12 113.66Z" fill="#E8734D"/>
<path d="M174.44 141.89C174.204 139.905 173.66 137.968 172.83 136.15C171.99 134.64 167.11 129.61 167.11 129.61C166.303 128.667 165.438 127.775 164.52 126.94C164.226 126.588 164.076 126.138 164.1 125.68C164.1 125.68 154 125.64 154 127C153.962 128.767 154.445 130.506 155.39 132C156.95 134.08 162.89 135.83 162.89 135.83C164.812 136.815 166.672 137.917 168.46 139.13C169.451 140.065 170.179 141.245 170.57 142.55C171.47 145.661 172.214 148.815 172.8 152L176.8 150.48C175.868 147.659 175.08 144.792 174.44 141.89Z" fill="#4B5182"/>
<path d="M155 104.32C155 104.32 155.67 106.65 155.23 107.51C154.79 108.37 159.03 108.68 159.03 108.68C159.03 108.68 158.17 106.74 158.57 105.77C158.9 105 155 104.32 155 104.32Z" fill="#F9CDBA"/>
<path d="M158.86 97.91C159.574 98.7902 159.95 99.8969 159.92 101.03C160.257 101.638 160.66 102.208 161.12 102.73C161.47 102.96 160.51 103.34 160.46 103.59C160.464 104.334 160.289 105.068 159.95 105.73C159.42 106.54 155.49 105.54 155.04 104.52C154.59 103.5 150.67 99.15 154.4 97.96C158.13 96.77 158.86 97.91 158.86 97.91Z" fill="#F9CDBA"/>
<path d="M155.07 107.46C155.07 107.46 154.68 108.9 154.16 110.46C153.404 112.517 153.241 114.745 153.69 116.89C154.22 119.96 155 123.76 153.82 127.04C153.82 127.04 160.63 127.53 164.37 126.62C164.37 126.62 164.89 122.91 164.37 121.31C162.87 116.41 164.69 117.07 163.54 114.85C162.39 112.63 159.84 109.65 159.38 108.85L155.07 107.46Z" fill="#E8734D"/>
<path d="M170.09 118.13L170.28 119.02L170.33 119.25L170.62 120.59C170.62 120.59 162.07 123.72 160.27 121.59C158.378 118.99 156.645 116.278 155.08 113.47L156.9 112.57L157.11 112.47L158.89 111.59C158.89 111.59 162.06 118.73 162.78 118.7C163.79 118.65 170.09 118.13 170.09 118.13Z" fill="#E8734D"/>
<path d="M159.41 108.8C159.322 108.362 159.298 107.914 159.34 107.47L154.92 106.38L155.05 107.53C156.453 108.109 157.915 108.535 159.41 108.8Z" fill="#E8734D"/>
<path d="M159.54 113L157.87 113.85L157.66 113.96L155.89 114.85C153.7 112.12 155.37 110.75 155.82 110.46L155.91 110.4H156.02C158.64 109.43 159.54 113 159.54 113Z" fill="#E8734D"/>
<path d="M173.57 152.26C173.57 152.26 174.93 151.8 175.26 151.64C175.59 151.48 175.73 150.99 176.04 151.16C176.35 151.33 177.63 152.62 178.38 152.68C179.13 152.74 181.38 152.68 181.66 153.79C181.94 154.9 175 155.73 174.36 156.07C173.72 156.41 173.57 152.26 173.57 152.26Z" fill="#E55353"/>
<path d="M159.38 98.72C159.38 98.72 159.29 99.78 155.79 101.43C155.79 101.43 155.07 103.18 154.45 103.55C154.45 103.55 151.22 100.72 153.04 98.4101C154.86 96.1001 158.36 96 159.38 98.72Z" fill="#985E44"/>
<path d="M155.79 101.43C155.47 101.01 154.61 101.38 154.79 102.06C154.97 102.74 155.79 103.31 156 102.94C156.121 102.696 156.166 102.422 156.128 102.153C156.091 101.883 155.973 101.631 155.79 101.43Z" fill="#F9CDBA"/>
</g>
<defs>
<clipPath id="clip0">
<rect width="308.99" height="202.83" fill="white"/>
</clipPath>
</defs>
</svg>
