<svg width="184" height="250" viewBox="0 0 184 250" fill="none" xmlns="http://www.w3.org/2000/svg">
<g clip-path="url(#clip0)">
<path d="M36.5149 217.469C30.0175 207.25 35.8723 193.152 45.2256 185.442C54.579 177.732 66.6456 174.239 77.3555 168.616C90.2253 161.879 101.893 151.808 116.262 149.607C127.859 147.828 140.062 151.743 148.892 159.441C157.722 167.139 163.172 178.42 164.392 190.027C166.802 213.092 151.302 236.792 129.192 243.933C107.082 251.074 80.5864 240.908 68.9839 220.802" fill="#EDEDEB"/>
<path d="M50.063 212.712C50.063 212.712 60.2315 172.186 101.988 177.72C143.745 183.254 141.728 218.999 141.728 218.999L119.226 220.666L119.922 245.943C107.427 247.349 88.3392 243.322 65.5924 239.876L66.4135 221.549L50.063 212.712Z" fill="#200660"/>
<path d="M141.764 218.222C141.764 218.222 141.764 218.489 141.729 218.975C141.467 223.839 139.694 250.581 132.363 249.988C124.295 249.33 118.768 245.605 119.226 220.642L141.752 218.489" fill="#F5AC8E"/>
<path d="M123.438 244.342C123.438 244.342 138.795 209.836 146.904 200.661L156.305 208.917C156.305 208.917 142.025 251.323 132.648 249.994C123.271 248.666 123.438 244.342 123.438 244.342Z" fill="#F5AC8E"/>
<path d="M51.1515 213.306L45.5942 229.788L63.9678 240.843L66.4132 221.526L51.1515 213.306Z" fill="#F5AC8E"/>
<path d="M90.612 172.068L89.1305 182.821C89.1305 182.821 102.667 190.839 110.669 180.448L116.697 140.118C108.611 131.702 99.9356 130.35 90.612 136.607C90.612 136.631 77.1412 167.833 90.612 172.068Z" fill="#F5AD8C"/>
<path d="M90.2429 147.14C90.6071 146.339 91.2041 145.666 91.9565 145.207C92.1926 145.059 92.462 144.974 92.7401 144.957C93.0181 144.94 93.2959 144.993 93.5481 145.111C93.8002 145.229 94.0186 145.408 94.1834 145.632C94.3482 145.856 94.454 146.118 94.4911 146.393C94.5268 146.559 94.8124 146.571 94.8422 146.393C95.0326 145.207 93.8247 144.341 92.7359 144.418C91.2841 144.525 90.3559 145.758 89.9156 147.01C89.8383 147.199 90.1477 147.324 90.2429 147.146V147.14Z" fill="#222221"/>
<path d="M97.7877 153.836C97.8412 153.884 97.7877 154.097 97.5497 154.429C97.2269 154.958 96.7463 155.373 96.1752 155.615C95.7248 155.774 95.2334 155.774 94.783 155.615C94.5045 155.513 94.2582 155.339 94.069 155.111C93.8732 154.863 93.7497 154.565 93.712 154.251C93.6836 153.705 93.7666 153.158 93.9559 152.644C94.0987 152.158 94.2594 151.665 94.4379 151.161C95.8599 147.116 97.9007 144.27 98.1506 144.43C98.4005 144.59 96.8595 147.609 95.485 151.547C95.3125 152.039 95.1459 152.52 94.9912 152.982C94.8353 153.359 94.7468 153.761 94.7294 154.168C94.7323 154.295 94.7714 154.418 94.842 154.523C94.9126 154.628 95.0119 154.711 95.1281 154.761C95.3878 154.876 95.6768 154.907 95.9551 154.85C96.4253 154.709 96.8595 154.468 97.2284 154.145C97.5318 153.907 97.7282 153.789 97.7877 153.836Z" fill="#F18474"/>
<path d="M94.8602 159.008C96.6451 159.328 99.1084 158.818 100.049 157.068C100.074 157.024 100.083 156.972 100.073 156.922C100.063 156.871 100.035 156.826 99.9948 156.795C99.9544 156.763 99.904 156.747 99.8527 156.749C99.8014 156.752 99.7526 156.772 99.7153 156.808C99.1173 157.396 98.4307 157.889 97.6804 158.267C96.8253 158.621 95.8891 158.736 94.9732 158.599C94.7055 158.557 94.5865 158.955 94.8602 159.008Z" fill="#F18474"/>
<path d="M99.2036 156.523C99.3759 156.509 99.5491 156.536 99.7093 156.601C99.8694 156.665 100.012 156.767 100.126 156.897C100.325 157.16 100.465 157.464 100.536 157.786C100.549 157.818 100.57 157.846 100.597 157.868C100.624 157.889 100.656 157.902 100.691 157.906C100.725 157.911 100.759 157.906 100.791 157.892C100.823 157.878 100.85 157.856 100.87 157.828C100.964 157.599 100.981 157.346 100.919 157.106C100.857 156.867 100.718 156.654 100.525 156.499C100.346 156.325 100.128 156.197 99.8878 156.126C99.6481 156.056 99.3948 156.046 99.1501 156.096C98.9121 156.143 98.9597 156.547 99.2036 156.523Z" fill="#F18474"/>
<path d="M104.719 148.682C104.944 148.232 105.307 147.865 105.755 147.633C106.203 147.402 106.713 147.319 107.212 147.395C107.697 147.52 108.131 147.789 108.459 148.166C108.786 148.543 108.991 149.011 109.045 149.507C109.098 149.75 109.461 149.685 109.467 149.447C109.465 148.835 109.251 148.241 108.861 147.768C108.471 147.294 107.928 146.97 107.325 146.85C106.717 146.747 106.091 146.853 105.551 147.151C105.011 147.448 104.588 147.919 104.35 148.486C104.243 148.712 104.582 148.914 104.695 148.682H104.719Z" fill="#222221"/>
<path d="M91.0343 136.903C93.1257 135.778 95.3166 134.847 97.5793 134.122C99.8522 133.392 102.282 133.295 104.606 133.843C107.212 134.549 109.402 136.293 111.389 138.119C112.645 139.305 113.9 140.575 114.364 142.223C114.894 144.181 114.186 146.227 113.603 148.154C112.994 150.191 112.521 152.265 112.186 154.364C112.039 155.044 112.019 155.746 112.127 156.434C112.187 156.777 112.331 157.099 112.547 157.373C112.763 157.646 113.044 157.861 113.365 158L114.733 157.579C117.702 153.919 120.053 149.803 121.695 145.391C122.426 143.427 123.021 141.316 122.664 139.246C122.307 137.176 120.731 135.183 118.636 134.964C117.286 134.816 115.905 135.403 114.578 135.1C113.115 134.768 112.121 133.463 111.115 132.348C109.347 130.402 107.209 128.823 104.826 127.703C102.442 126.584 99.8603 125.945 97.2282 125.824C95.1826 125.685 93.135 126.066 91.2782 126.934C90.3518 127.374 89.5368 128.017 88.894 128.815C88.2513 129.613 87.7971 130.545 87.5655 131.542C87.1787 133.552 88.1188 135.83 89.9454 136.714L91.0343 136.903Z" fill="#2A2A8C"/>
<path d="M114.239 153.884C114.592 153.421 115.101 153.102 115.672 152.984C116.243 152.866 116.837 152.958 117.345 153.243C117.837 153.551 118.228 153.996 118.469 154.523C118.71 155.05 118.791 155.636 118.702 156.209C118.596 156.781 118.362 157.322 118.018 157.792C117.674 158.262 117.229 158.649 116.715 158.925C116.187 159.253 115.576 159.424 114.954 159.417C114.332 159.411 113.725 159.228 113.204 158.889" fill="#F5AD8C"/>
<path d="M90.8021 141.209C91.6648 141.28 92.5097 140.93 93.3606 140.818C94.2988 140.735 95.2426 140.735 96.1809 140.818C96.3637 140.816 96.5397 140.748 96.6768 140.628C96.8138 140.507 96.9027 140.341 96.9272 140.161C96.9518 139.98 96.9103 139.797 96.8104 139.644C96.7105 139.491 96.5589 139.379 96.3832 139.329C94.6993 138.955 91.6946 139.015 90.5046 140.515C90.4493 140.576 90.4125 140.651 90.3982 140.731C90.3839 140.812 90.3929 140.895 90.424 140.971C90.4552 141.046 90.5072 141.112 90.5741 141.159C90.641 141.207 90.7201 141.234 90.8021 141.239V141.209Z" fill="#2A2A8C"/>
<path d="M106.802 141.945C107.559 142.182 108.268 142.552 108.896 143.036C109.501 143.517 110.077 144.032 110.622 144.578C110.763 144.706 110.944 144.781 111.135 144.789C111.325 144.797 111.513 144.737 111.663 144.621C111.814 144.505 111.919 144.339 111.959 144.153C112 143.967 111.973 143.773 111.883 143.605C111.337 142.784 110.567 142.134 109.664 141.731C109.247 141.535 108.813 141.378 108.367 141.263C107.882 141.201 107.393 141.171 106.903 141.174C106.463 141.114 106.362 141.862 106.802 141.945Z" fill="#2A2A8C"/>
<path d="M117.512 155.497C117.545 155.309 117.532 155.115 117.473 154.933C117.415 154.751 117.314 154.586 117.177 154.451C117.041 154.317 116.875 154.217 116.691 154.16C116.508 154.104 116.314 154.092 116.126 154.127C115.114 154.216 114.573 155.153 114.388 156.048C114.374 156.102 114.376 156.16 114.394 156.212C114.412 156.265 114.446 156.312 114.49 156.346C114.534 156.38 114.588 156.401 114.644 156.405C114.7 156.409 114.756 156.396 114.805 156.369C114.929 156.27 115.074 156.2 115.229 156.165C115.384 156.129 115.546 156.129 115.701 156.164C115.856 156.198 116.001 156.267 116.126 156.365C116.251 156.463 116.353 156.588 116.423 156.73C116.727 157.448 116.108 157.946 115.418 157.834C115.138 157.786 114.912 158.183 115.209 158.332C115.431 158.426 115.674 158.46 115.913 158.429C116.153 158.399 116.379 158.305 116.57 158.159C116.761 158.012 116.909 157.817 117 157.594C117.09 157.371 117.119 157.128 117.084 156.891C116.905 155.633 115.501 155.301 114.519 155.876L114.936 156.197C114.966 155.935 115.051 155.683 115.184 155.455C115.317 155.227 115.496 155.03 115.709 154.874C115.839 154.79 115.987 154.74 116.141 154.728C116.295 154.715 116.45 154.741 116.591 154.803C116.733 154.864 116.857 154.96 116.952 155.081C117.047 155.202 117.111 155.345 117.137 155.497C117.185 155.669 117.476 155.687 117.512 155.497Z" fill="#F18474"/>
<path d="M92.1172 144.519C91.8049 144.825 91.5968 145.221 91.5222 145.651C91.4912 145.863 91.5071 146.079 91.5688 146.284C91.6305 146.489 91.7364 146.678 91.8792 146.838C92.0281 146.996 92.2192 147.108 92.43 147.162C92.6408 147.215 92.8626 147.208 93.0692 147.14C93.2227 147.079 93.3617 146.987 93.4774 146.87C93.5932 146.752 93.6831 146.612 93.7416 146.458C93.8432 146.222 93.8792 145.963 93.8457 145.708C93.8122 145.454 93.7104 145.213 93.5512 145.011C93.3859 144.813 93.1608 144.675 92.9097 144.616C92.6586 144.557 92.3951 144.581 92.1589 144.685" fill="#222221"/>
<path d="M106.326 146.915C106.012 147.22 105.804 147.617 105.731 148.048C105.699 148.259 105.714 148.475 105.774 148.68C105.835 148.885 105.94 149.074 106.082 149.234C106.23 149.393 106.422 149.505 106.632 149.559C106.843 149.613 107.065 149.605 107.272 149.536C107.425 149.474 107.564 149.381 107.68 149.264C107.797 149.147 107.889 149.007 107.95 148.854C108.05 148.618 108.085 148.358 108.051 148.104C108.016 147.849 107.914 147.609 107.754 147.407C107.589 147.211 107.365 147.073 107.115 147.014C106.865 146.956 106.603 146.979 106.368 147.081" fill="#222221"/>
<path d="M139.158 213.234C139.431 213.412 135.79 219.165 131.952 226.591C128.115 234.016 125.485 240.291 125.181 240.173C125.044 240.119 125.52 238.482 126.508 235.902C129.134 229.2 132.458 222.791 136.427 216.781C137.968 214.486 139.033 213.151 139.158 213.234Z" fill="#F18474"/>
<path d="M128.781 231.074C128.865 231.377 127.942 231.887 126.871 232.551C125.8 233.216 124.914 233.785 124.682 233.571C124.45 233.358 125.069 232.35 126.288 231.608C127.508 230.867 128.704 230.784 128.781 231.074Z" fill="#F18474"/>
<path d="M159.221 203.816C158.234 205.287 156.306 208.887 156.306 208.887L143.216 206.194L148.047 196.74L146.917 187.725C148.702 186.658 150.772 193.656 150.772 193.656C150.772 193.656 158.721 189.985 159.471 192.441C159.565 192.798 159.559 193.174 159.454 193.528C159.35 193.883 159.15 194.202 158.876 194.451C158.876 194.451 160.721 193.775 161.119 194.771C161.453 195.608 160.221 196.622 160.221 196.622C160.654 196.526 161.107 196.595 161.492 196.814C161.877 197.034 162.166 197.388 162.303 197.808C162.726 199.22 159.221 203.816 159.221 203.816Z" fill="#F5AC8E"/>
<path d="M158.46 194.493C158.502 194.57 158.049 194.961 157.24 195.495C156.171 196.221 154.977 196.746 153.718 197.043C153.5 197.09 153.275 197.093 153.056 197.051C152.837 197.009 152.629 196.924 152.444 196.8C152.257 196.661 152.112 196.472 152.028 196.254C151.95 196.025 151.961 195.776 152.058 195.554C152.218 195.247 152.448 194.981 152.73 194.777C152.939 194.604 153.16 194.446 153.39 194.303C154.235 193.775 154.848 193.656 154.878 193.71C154.908 193.763 154.39 194.071 153.688 194.659C153.509 194.807 153.313 194.973 153.123 195.163C152.927 195.326 152.767 195.528 152.653 195.756C152.635 195.796 152.626 195.839 152.626 195.883C152.626 195.927 152.635 195.971 152.653 196.011C152.698 196.108 152.768 196.191 152.855 196.254C152.971 196.322 153.1 196.367 153.234 196.385C153.368 196.403 153.504 196.395 153.634 196.361C154.816 196.07 155.958 195.633 157.032 195.062C157.859 194.682 158.406 194.415 158.46 194.493Z" fill="#F18474"/>
<path d="M159.614 196.681C159.668 196.758 159.305 197.102 158.656 197.583C157.8 198.227 156.848 198.735 155.836 199.089C155.522 199.2 155.193 199.258 154.86 199.261C154.68 199.267 154.501 199.238 154.332 199.175C154.164 199.112 154.009 199.016 153.878 198.893C153.762 198.774 153.673 198.632 153.617 198.475C153.562 198.318 153.541 198.151 153.557 197.986C153.577 197.725 153.665 197.473 153.813 197.256C154.011 196.976 154.272 196.745 154.574 196.58C154.783 196.474 154.908 196.438 154.931 196.474C154.955 196.509 154.884 196.616 154.741 196.788C154.531 196.995 154.355 197.233 154.217 197.494C154.131 197.643 154.092 197.815 154.107 197.987C154.122 198.159 154.19 198.322 154.301 198.454C154.506 198.56 154.733 198.614 154.964 198.614C155.195 198.614 155.422 198.56 155.627 198.454C156.589 198.112 157.518 197.687 158.406 197.185C159.108 196.812 159.566 196.604 159.614 196.681Z" fill="#F18474"/>
<path d="M161.167 199.22C161.232 199.279 161.018 199.658 160.489 200.109C159.775 200.698 158.908 201.074 157.99 201.195C157.699 201.226 157.406 201.198 157.127 201.112C156.828 201.023 156.576 200.82 156.425 200.548C156.317 200.331 156.269 200.089 156.286 199.847C156.303 199.606 156.383 199.373 156.52 199.172C156.675 198.935 156.877 198.733 157.115 198.579C157.27 198.466 157.377 198.425 157.406 198.46C157.436 198.496 157.406 198.597 157.299 198.757C157.161 198.959 157.041 199.174 156.942 199.397C156.876 199.53 156.842 199.676 156.842 199.825C156.842 199.973 156.876 200.119 156.942 200.252C157.063 200.382 157.217 200.478 157.387 200.529C157.558 200.58 157.739 200.585 157.912 200.542C158.72 200.424 159.498 200.152 160.203 199.741C160.774 199.427 161.095 199.154 161.167 199.22Z" fill="#F18474"/>
<path d="M150.296 196.818C151.418 196.914 152.464 197.424 153.23 198.247C153.973 199.083 154.134 200.026 154.42 201.034C154.485 201.266 154.896 201.307 154.931 201.034C155.282 198.449 152.623 196.468 150.284 196.391C150.005 196.391 150.017 196.794 150.284 196.818H150.296Z" fill="#F18474"/>
<path d="M93.2896 146.007C93.5484 146.04 93.8102 146.04 94.069 146.007C94.0985 145.999 94.1243 145.981 94.1427 145.956C94.1611 145.931 94.171 145.902 94.171 145.871C94.171 145.84 94.1611 145.81 94.1427 145.786C94.1243 145.761 94.0985 145.743 94.069 145.735C93.8104 145.699 93.5482 145.699 93.2896 145.735C93.2574 145.741 93.2285 145.759 93.2078 145.784C93.1871 145.809 93.1758 145.841 93.1758 145.874C93.1758 145.907 93.1871 145.938 93.2078 145.964C93.2285 145.989 93.2574 146.007 93.2896 146.013V146.007Z" fill="#F2E7E2"/>
<path d="M107.486 148.421C107.732 148.464 107.981 148.485 108.23 148.487C108.402 148.487 108.48 148.19 108.277 148.154C108.014 148.137 107.75 148.137 107.486 148.154C107.331 148.154 107.331 148.392 107.486 148.404V148.421Z" fill="#F2E7E2"/>
<path d="M113.46 157.656C113.918 154.572 115.352 151.714 117.554 149.501C119.184 147.887 121.023 146.583 121.79 144.335C121.939 143.896 121.261 143.742 121.094 144.145C120.029 146.944 117.215 148.427 115.519 150.8C114.116 152.813 113.28 155.164 113.097 157.608C113.097 157.81 113.424 157.857 113.46 157.656Z" fill="#4444AD"/>
<path d="M92.9206 126.714C90.731 131.032 96.3776 133.286 99.6441 133.831C99.9713 133.885 100.114 133.41 99.7869 133.333C96.7167 132.58 91.5759 131.085 93.0396 126.762C93.0396 126.696 92.9563 126.649 92.9206 126.714Z" fill="#4444AD"/>
<path d="M113.234 157.359C112.115 152.466 114.686 148.653 116.506 144.311C117.696 141.553 118.38 138.499 117.244 135.61C117.101 135.249 116.518 135.391 116.649 135.777C119.148 143.546 109.902 149.815 112.787 157.46C112.796 157.49 112.81 157.517 112.829 157.542C112.848 157.566 112.871 157.586 112.898 157.601C112.925 157.616 112.954 157.626 112.985 157.63C113.015 157.634 113.046 157.631 113.076 157.623C113.106 157.615 113.134 157.601 113.158 157.582C113.182 157.563 113.202 157.54 113.218 157.513C113.233 157.486 113.243 157.457 113.246 157.426C113.25 157.396 113.248 157.365 113.24 157.335L113.234 157.359Z" fill="#4444AD"/>
<path d="M111.633 137.995C111.341 135.306 110.03 132.831 107.968 131.073C105.659 129.051 102.018 128.891 100.12 126.495C99.9237 126.246 99.5251 126.566 99.6857 126.827C100.965 128.932 103.607 129.104 105.636 130.19C108.712 131.862 110.443 134.756 111.348 138.036C111.395 138.196 111.669 138.173 111.651 137.995H111.633Z" fill="#4444AD"/>
<path opacity="0.39" d="M109.033 155.165C108.855 155.611 108.589 156.018 108.252 156.362C107.915 156.707 107.514 156.981 107.07 157.169C106.172 157.576 105.153 157.627 104.22 157.312C101.995 156.719 100.59 154.75 101.072 152.84C101.554 150.93 103.75 149.874 105.975 150.408C107.079 150.745 108.036 151.446 108.688 152.395C108.961 152.797 109.135 153.257 109.195 153.738C109.255 154.22 109.2 154.709 109.033 155.165Z" fill="#F18474"/>
<path d="M41.9945 109.817C31.5344 120.789 22.2881 133.161 16.719 147.235C11.1498 161.309 9.51949 177.251 14.1129 191.664C19.5869 208.739 33.4206 222.243 49.307 230.642C65.1935 239.04 83.091 242.865 100.875 245.498C102.524 245.742 104.326 245.949 105.749 245.077C108.688 243.298 107.385 238.352 104.41 236.62C101.435 234.888 97.7517 235.173 94.2948 234.894C89.9463 234.509 85.7396 233.158 81.9836 230.94C78.2275 228.722 75.0175 225.694 72.5893 222.077C70.2093 218.519 68.3529 214.106 64.3843 212.451C59.7611 210.518 54.5311 213.246 49.5093 213.045C41.1198 212.665 35.5507 204.51 31.3738 197.245C27.542 190.531 23.6209 183.633 22.5083 176C21.6396 170.069 22.5083 164.008 23.4246 158.059C25.8819 141.707 31.5344 122.96 41.9945 109.817Z" fill="#EDEDEB"/>
<path d="M88.339 243.316C78.8191 242.13 68.9837 246.584 60.7549 242.082C58.0477 240.606 56.0782 237.99 53.3055 236.656C48.8609 234.509 43.613 236.098 38.6745 236.092C34.4025 236.022 30.2383 234.743 26.6665 232.406C23.0947 230.069 20.2621 226.769 18.4982 222.89C17.5045 220.612 16.9452 217.849 18.2542 215.731C19.7239 213.359 23.0915 212.766 25.7274 213.691C28.3632 214.616 30.416 216.656 32.2724 218.726C34.1288 220.796 35.997 222.979 38.4663 224.272C44.1069 227.237 51.5562 224.912 56.9886 228.234C60.9156 230.642 62.8493 235.481 66.8179 237.83C71.6434 240.677 88.2676 237.438 88.3271 243.316" fill="#F08299"/>
<path d="M28.4109 120.303C28.036 123.381 24.7992 125.172 21.8659 126.281C18.9326 127.39 15.6363 128.654 14.5415 131.548C13.8453 133.375 14.2202 135.51 13.3515 137.242C12.1198 139.614 8.82948 140.598 7.99649 143.172C7.22299 145.545 9.26978 148.196 11.7331 148.617C14.1964 149.038 16.7073 147.656 18.2781 145.699C19.8488 143.742 20.5866 141.286 21.1876 138.867C21.7885 136.447 22.2467 134.08 23.4783 131.987C24.3768 130.457 25.6501 129.17 26.5485 127.645C27.447 126.121 29.2201 121.904 28.4287 120.321" fill="#FDE17E"/>
<path d="M1.18976 165.935C0.939864 166.178 -0.678531 168.669 0.368666 170.621C0.641755 171.097 1.00684 171.515 1.44283 171.849C1.87882 172.184 2.37705 172.43 2.90875 172.571C3.44044 172.713 3.99504 172.748 4.54049 172.675C5.08595 172.602 5.61144 172.422 6.0866 172.145C6.53649 171.829 6.91909 171.427 7.21227 170.963C7.50546 170.498 7.70342 169.981 7.79471 169.44C7.886 168.899 7.86881 168.345 7.74413 167.811C7.61946 167.276 7.38977 166.772 7.06834 166.327C6.71093 165.912 6.27421 165.572 5.78369 165.328C5.29317 165.083 4.75867 164.938 4.21141 164.902C3.66415 164.866 3.11509 164.938 2.59629 165.116C2.07749 165.293 1.59934 165.572 1.18976 165.935Z" fill="#FDE17E"/>
<path d="M22.8475 160.129C24.4897 159.174 26.358 160.313 27.1256 162.045C27.8931 163.776 27.5599 165.787 27.0244 167.608C26.4889 169.429 25.7571 171.226 25.7511 173.118C25.7511 178.058 30.4397 181.605 32.4151 186.136C33.1053 187.72 33.4742 189.451 34.4083 190.881C35.6697 192.838 37.7939 194.036 39.5789 195.536C41.3639 197.037 42.9346 199.273 42.411 201.539C41.816 204.142 38.5733 205.429 35.9732 204.795C33.373 204.16 31.3381 202.167 29.6245 200.115C24.9263 194.651 21.694 188.088 20.2295 181.041C18.867 174.007 19.6345 166.511 22.8356 160.105" fill="#59D2E5"/>
<path d="M50.789 215.369C50.271 215.764 49.8512 216.272 49.5623 216.854C49.2733 217.436 49.123 218.077 49.123 218.726C49.1414 219.244 49.2767 219.75 49.5188 220.208C49.7609 220.666 50.1036 221.064 50.5213 221.372C51.3644 221.98 52.3673 222.33 53.407 222.38C54.8707 222.481 56.4832 222.066 57.3459 220.885C57.7518 220.271 57.9612 219.549 57.9463 218.814C57.9314 218.079 57.693 217.366 57.2626 216.769C56.8165 216.185 56.2477 215.705 55.5961 215.363C54.9446 215.021 54.2259 214.825 53.4903 214.788C52.6394 214.71 51.7832 214.866 51.0151 215.239C50.634 215.427 50.2954 215.691 50.0202 216.014C49.745 216.338 49.5389 216.714 49.4146 217.119" fill="#F08299"/>
<path d="M139.081 226.306C142.466 228.678 157.347 217.564 163.154 208.952C168.962 200.34 170.651 188.443 165.296 179.547C164.106 177.53 162.542 175.686 161.691 173.497C160.84 171.309 160.846 168.557 162.5 166.878C164.285 165.052 167.462 165.218 169.64 166.564C171.818 167.91 173.311 170.122 174.709 172.299C177.774 177.044 180.873 181.824 182.581 187.186C184.289 192.547 184.479 198.638 181.82 203.608C179.309 208.3 174.68 211.402 170.901 215.18C167.682 218.418 165.064 222.208 161.899 225.499C158.734 228.791 154.795 231.644 150.261 232.249C145.727 232.854 140.592 230.606 139.063 226.318" fill="#3C34B7"/>
<path d="M129.668 147.235C131.584 146.15 134.017 146.772 135.975 147.787C137.932 148.801 139.717 150.2 141.859 150.722C144.001 151.244 146.697 150.515 147.422 148.445C147.946 146.95 147.244 145.248 146.113 144.145C144.911 143.104 143.522 142.299 142.02 141.773C139.604 140.758 137.052 139.726 134.44 139.993C131.828 140.26 129.215 142.366 129.352 144.981" fill="#3C34B7"/>
<path d="M161.429 148.913C161.033 150.152 161.104 151.492 161.628 152.683C162.153 153.873 163.096 154.831 164.279 155.378C165.491 155.848 166.837 155.847 168.048 155.376C169.26 154.905 170.251 153.998 170.824 152.834C171.309 151.631 171.31 150.287 170.826 149.084C170.341 147.88 169.409 146.91 168.224 146.375C165.808 145.414 162.167 146.428 161.423 148.913" fill="#3C34B7"/>
<path d="M51.8121 192.085C53.3888 188.372 55.1322 184.908 56.3697 181.053C57.649 177.056 58.6069 172.969 60.1658 169.055C62.8255 162.383 67.0262 156.731 73.5949 153.54C75.0884 152.816 74.0412 150.29 72.4585 150.847C65.6636 153.219 60.9155 159.423 57.9465 165.722C56.2922 169.419 54.9217 173.235 53.847 177.139C53.1865 179.369 52.657 181.635 52.062 183.894C51.467 186.326 51.1457 188.793 50.152 191.118C49.676 192.239 51.342 193.212 51.8121 192.085Z" fill="#3C34B7"/>
<path d="M59.303 86.8583C56.3057 84.4673 52.8374 82.7316 49.1233 81.7639C45.4093 80.7962 41.5325 80.6181 37.7448 81.2412C33.9572 81.8643 30.3434 83.2747 27.1383 85.3807C23.9331 87.4867 21.2082 90.2412 19.1406 93.4653L26.3758 92.8248C24.3647 94.871 22.2941 97.012 21.354 99.7165C20.4139 102.421 20.9494 105.867 23.3592 107.427C25.2929 108.69 27.8395 108.429 30.0886 107.895C32.3377 107.361 34.6463 106.602 36.9251 107.023C39.204 107.445 41.3638 109.615 40.7747 111.845C39.8049 115.54 33.0755 115.404 32.5757 119.176C32.2841 121.358 34.4975 123.072 36.6098 123.719C44.1543 126.044 52.4308 120.914 56.1435 113.963C59.8563 107.012 60.0289 98.7616 59.7135 90.8913" fill="#FCBC00"/>
<path d="M27.3165 122.278C28.203 120.783 26.3109 119.117 24.9841 118.873C24.5483 118.795 24.1011 118.805 23.6692 118.903C23.2374 119 22.8298 119.184 22.4709 119.443C22.112 119.701 21.8091 120.03 21.5805 120.408C21.3519 120.786 21.2022 121.206 21.1404 121.643C21.1077 122.094 21.1743 122.546 21.3355 122.968C21.4967 123.39 21.7485 123.772 22.0733 124.086C22.3982 124.401 22.7882 124.641 23.216 124.79C23.6438 124.938 24.099 124.992 24.5497 124.947C25.0167 124.893 25.4664 124.739 25.8677 124.495C26.2691 124.251 26.6126 123.923 26.8745 123.534C27.1364 123.145 27.3105 122.704 27.3848 122.241C27.459 121.779 27.4317 121.305 27.3046 120.854C27.2034 120.6 27.036 120.376 26.8195 120.207C26.6031 120.038 26.3454 119.93 26.0729 119.894C25.8402 119.874 25.6059 119.904 25.3857 119.982C25.1654 120.059 24.9643 120.183 24.7955 120.343C24.6267 120.504 24.4942 120.699 24.4067 120.915C24.3192 121.131 24.2787 121.363 24.2879 121.596C24.2879 121.596 24.1511 121.874 24.2879 121.738C24.3006 121.731 24.315 121.727 24.3296 121.727C24.3442 121.727 24.3586 121.731 24.3712 121.738C24.4486 121.785 24.3712 121.738 24.2225 121.679C24.2225 121.679 24.3058 121.732 24.2998 121.744C24.3696 121.675 24.4564 121.625 24.5514 121.6C24.6465 121.575 24.7465 121.576 24.8413 121.602C25.4363 121.75 25.8409 122.385 26.424 122.622C26.5984 122.69 26.792 122.689 26.9662 122.621C27.1405 122.553 27.2826 122.422 27.3641 122.254L27.3165 122.278Z" fill="#FCBC00"/>
<path d="M34.4204 129.857C34.4359 129.987 34.4937 130.107 34.5849 130.201C34.6761 130.294 34.7956 130.355 34.9249 130.374C35.0542 130.393 35.1862 130.369 35.3004 130.305C35.4146 130.242 35.5047 130.143 35.5569 130.024C35.5413 129.894 35.4835 129.774 35.3923 129.68C35.3012 129.587 35.1817 129.526 35.0524 129.507C34.9231 129.488 34.7911 129.512 34.6769 129.576C34.5627 129.639 34.4725 129.738 34.4204 129.857Z" fill="#FCBC00"/>
<path d="M93.1348 93.762C93.1348 93.762 100.822 136.844 54.9121 133.802C54.9121 133.802 76.927 124.128 73.952 110.001L93.1348 93.762Z" fill="#FCBC00"/>
<path d="M146.518 13.0243C146.518 13.0243 98.9595 5.48614 36.7822 63.8938L75.0525 110.861C75.0525 110.861 145.935 63.2355 146.518 13.0243Z" fill="#EDEDEB"/>
<path d="M75.0531 110.861L35.8427 62.7432L32.7368 64.6173L72.9111 113.613L75.0531 110.861Z" fill="#39297F"/>
<path d="M72.7799 71.005L54.8051 81.5205L29.3213 107.273C29.3213 107.273 49.8844 97.1366 59.3746 88.8867C62.3318 86.3483 70.2096 77.79 72.7799 71.005Z" fill="#5A39B5"/>
<path d="M54.198 48.853C54.198 48.853 11.2154 36.0304 9.93018 81.8764C9.93018 81.8764 21.6695 60.958 35.5151 65.2698L54.198 48.853Z" fill="#FCBC00"/>
<g opacity="0.1">
<path opacity="0.1" d="M72.7799 71.005C72.7799 71.005 47.5401 71.4735 44.458 73.3181L54.2457 85.3282L72.7799 71.005Z" fill="#9797DB"/>
</g>
<path d="M112.627 16.4702C112.627 16.4702 123.688 38.9365 136.427 47.2042C136.427 47.2042 149.642 16.9031 146.369 13.048C143.097 9.19294 112.627 16.4702 112.627 16.4702Z" fill="#FCBC00"/>
<path d="M102.685 35.8406C94.5332 34.8561 89.7435 42.5188 90.035 49.891C90.3206 56.925 97.2821 62.4526 104.172 61.3554C111.39 60.1692 116.453 53.6452 115.245 46.3205C113.996 38.7408 106.046 32.371 98.2341 35.0518C97.803 35.1868 97.4335 35.4693 97.1912 35.8496C96.9488 36.2298 96.849 36.6831 96.9096 37.1296C96.9701 37.576 97.187 37.9867 97.5219 38.2891C97.8568 38.5916 98.2882 38.7663 98.7399 38.7824C103.637 38.9425 107.814 39.8203 110.473 44.3633C113.311 49.2208 110.283 55.383 105.404 57.269C91.9271 62.4882 88.494 37.6258 102.685 37.3352C102.871 37.3186 103.045 37.233 103.171 37.0952C103.298 36.9575 103.368 36.7776 103.368 36.5909C103.368 36.4042 103.298 36.2243 103.171 36.0865C103.045 35.9488 102.871 35.8632 102.685 35.8465V35.8406Z" fill="#3C34B7"/>
<g opacity="0.32">
<path opacity="0.32" d="M102.684 36.5879C98.6027 36.0422 94.6578 38.9958 92.8847 42.7027C91.5857 45.3883 91.2578 48.439 91.9565 51.3381C92.679 54.236 94.5258 56.7297 97.0914 58.2713C101.375 60.7742 107.355 59.7244 110.651 56.0235C113.948 52.3226 114.322 46.4095 111.663 42.2578C110.275 40.1986 108.309 38.5936 106.01 37.644C103.711 36.6944 101.182 36.4426 98.7395 36.92" fill="#3C34B7"/>
</g>
</g>
<defs>
<clipPath id="clip0">
<rect width="183.866" height="250" fill="white"/>
</clipPath>
</defs>
</svg>
