<svg width="140" height="130" viewBox="0 0 140 130" fill="none" xmlns="http://www.w3.org/2000/svg">
<g clip-path="url(#clip0)">
<path d="M47.6996 79.988C50.432 80.2269 53.0528 80.4809 55.6788 80.6559C56.0302 80.6794 56.5434 80.3986 56.7542 80.0988C63.4594 70.5571 70.1367 60.9958 76.8141 51.4346C76.8656 51.3609 76.8612 51.2484 76.9347 50.9284C74.1549 50.6853 71.4039 50.4276 68.6485 50.2333C68.4012 50.2159 68.0543 50.5598 67.8724 50.8191C61.1746 60.3657 54.4906 69.922 47.809 79.4799C47.7581 79.5525 47.766 79.6661 47.6996 79.988Z" fill="#200660"/>
<path d="M44.0601 77.472C48.9669 70.4633 53.735 63.6524 58.5035 56.8421C60.2459 54.3538 61.9484 51.836 63.752 49.3929C64.5383 48.3278 64.845 47.3966 64.0726 46.1834C63.5198 45.3153 63.1742 44.3151 62.6551 43.1992C62.2859 43.6492 61.9982 43.956 61.7593 44.2971C55.3889 53.3924 49.0346 62.4987 42.6393 71.5764C42.0526 72.4092 41.8849 73.0787 42.4081 73.9954C42.995 75.0244 43.435 76.1371 44.0601 77.472Z" fill="#00EDBB"/>
<path d="M77.5259 46.868C76.7611 45.1945 76.1466 43.7998 75.4753 42.4331C75.372 42.2228 75.0173 42.0399 74.7623 42.0152C72.0994 41.7569 69.433 41.5335 66.412 41.2694C67.1842 42.938 67.8123 44.367 68.5209 45.7549C68.6371 45.9824 69.0999 46.1144 69.4165 46.1452C71.9923 46.3948 74.5714 46.6096 77.5259 46.868Z" fill="#EFCA48"/>
<path d="M83.2811 49.3295L82.7529 48.1857C82.2862 47.183 81.8249 46.1807 81.3637 45.1785C80.451 43.1918 79.544 41.2058 78.6547 39.2097C78.2762 38.3618 77.7897 38.0365 76.8796 37.9624C72.3047 37.6076 67.7333 37.2137 63.1668 36.7635C62.2407 36.6769 61.7238 36.9599 61.2063 37.7011C53.3762 48.9498 45.5144 60.1733 37.7059 71.4351C37.3946 71.8888 37.3338 72.7776 37.5546 73.2948C38.9138 76.4522 40.3551 79.577 41.8619 82.6625C42.1123 83.1653 42.8178 83.7024 43.3615 83.7612C47.9766 84.2383 52.5976 84.648 57.2264 84.9678C57.8114 85.0076 58.6623 84.5954 59.0153 84.1171C61.1298 81.2239 63.1641 78.2783 65.2086 75.345L65.8231 74.4651L83.2811 49.3295ZM63.7487 49.3928C61.9449 51.8379 60.2481 54.3546 58.5026 56.8444C53.7372 63.6535 48.966 70.4619 44.0583 77.4735C43.4336 76.1402 42.9935 75.0266 42.4101 73.9967C41.8849 73.0793 42.0509 72.4093 42.6386 71.578C49.0338 62.5011 55.3868 53.3921 61.7611 44.2964C62.0003 43.9552 62.287 43.6521 62.655 43.1977C63.1738 44.318 63.5167 45.3157 64.0744 46.1848C64.8458 47.3952 64.5377 48.3301 63.7487 49.3928ZM77.5267 46.8686C74.5731 46.6104 71.9946 46.3963 69.4139 46.1423C69.0995 46.1148 68.6356 45.9838 68.52 45.7529C67.8094 44.3668 67.1818 42.9368 66.4112 41.2682C69.4322 41.5324 72.1005 41.7544 74.7599 42.0152C75.0181 42.0377 75.3699 42.2213 75.4758 42.4343C76.1485 43.8002 76.7621 45.1949 77.5267 46.8686ZM61.3477 73.5533C59.816 75.7336 58.2839 77.9196 56.7522 80.0998C56.5451 80.3986 56.028 80.6816 55.6794 80.6567C53.0526 80.478 50.4321 80.2262 47.6975 79.987C47.7653 79.6648 47.7583 79.551 47.8095 79.482C54.4905 69.9208 61.1766 60.3657 67.8735 50.8172C68.0544 50.5614 68.4011 50.2183 68.6487 50.2342C71.4043 50.4299 74.1542 50.6873 76.9339 50.9303C76.8609 51.2465 76.868 51.3603 76.8162 51.435C71.6618 58.8099 66.513 66.1851 61.3477 73.5533Z" fill="black"/>
<path d="M72.1682 72.6368L73.2647 75.8835L74.3645 72.6136C74.4216 72.442 74.4645 72.3225 74.4933 72.2552C74.522 72.188 74.5693 72.1276 74.6354 72.0736C74.7014 72.0196 74.7916 71.9927 74.9062 71.9927C74.9899 71.9927 75.0675 72.0137 75.139 72.0554C75.2106 72.0973 75.2667 72.1529 75.3075 72.2223C75.3482 72.2915 75.3687 72.3615 75.3687 72.4319C75.3687 72.4804 75.362 72.5326 75.3489 72.5889C75.3357 72.645 75.3192 72.6999 75.2994 72.7539C75.2795 72.8079 75.2597 72.8635 75.2399 72.9207L74.0674 76.0847C74.0255 76.2059 73.9836 76.3209 73.9419 76.4299C73.9 76.5389 73.8515 76.6346 73.7966 76.7173C73.7415 76.7999 73.6682 76.8675 73.577 76.9203C73.4856 76.9732 73.3738 76.9995 73.2416 76.9995C73.1095 76.9995 72.9978 76.9737 72.9064 76.9219C72.815 76.8703 72.7414 76.8018 72.6851 76.7172C72.629 76.6324 72.5799 76.5361 72.5381 76.4282C72.4964 76.3204 72.4544 76.2058 72.4126 76.0847L71.2598 72.947C71.2401 72.8899 71.2197 72.8337 71.1988 72.7786C71.1778 72.7235 71.1602 72.6642 71.1459 72.6003C71.1316 72.5365 71.1245 72.4826 71.1245 72.4384C71.1245 72.3261 71.1696 72.2238 71.2598 72.1313C71.3501 72.0388 71.4635 71.9926 71.6001 71.9926C71.7673 71.9926 71.8857 72.0439 71.955 72.1462C72.0244 72.2487 72.0954 72.4123 72.1682 72.6368Z" fill="white"/>
<path d="M79.2956 72.8317H77.0859V74.0207H79.1204C79.2702 74.0207 79.3819 74.0543 79.4557 74.1215C79.5294 74.1886 79.5664 74.2772 79.5664 74.3873C79.5664 74.4975 79.5301 74.5871 79.4574 74.6565C79.3846 74.7258 79.2724 74.7605 79.1204 74.7605H77.0859V76.1379H79.3715C79.5255 76.1379 79.6418 76.1736 79.72 76.2452C79.7983 76.3167 79.8373 76.4119 79.8373 76.5308C79.8373 76.6453 79.7982 76.7384 79.72 76.8098C79.6418 76.8814 79.5257 76.9172 79.3715 76.9172H76.7061C76.4926 76.9172 76.3388 76.8699 76.2452 76.7751C76.1517 76.6803 76.1049 76.5274 76.1049 76.3161V72.6765C76.1049 72.5356 76.1259 72.4205 76.1676 72.3314C76.2093 72.2422 76.2749 72.1773 76.3643 72.1365C76.4534 72.0959 76.5672 72.0754 76.7061 72.0754H79.2956C79.4519 72.0754 79.5681 72.11 79.644 72.1794C79.72 72.2487 79.758 72.3396 79.758 72.452C79.758 72.5664 79.72 72.6583 79.644 72.7277C79.5681 72.7971 79.4519 72.8317 79.2956 72.8317Z" fill="white"/>
<path d="M81.8949 72.5807L83.7809 75.4343V72.5544C83.7809 72.3672 83.8211 72.2269 83.9014 72.1332C83.9818 72.0396 84.0903 71.9928 84.2268 71.9928C84.3677 71.9928 84.4789 72.0396 84.5603 72.1332C84.6419 72.2269 84.6826 72.3672 84.6826 72.5544V76.3625C84.6826 76.7874 84.5064 76.9999 84.1541 76.9999C84.0659 76.9999 83.9867 76.9871 83.9163 76.9619C83.8458 76.9366 83.7797 76.8964 83.7181 76.8413C83.6566 76.7862 83.5993 76.7219 83.5465 76.6482C83.4936 76.5744 83.4409 76.499 83.3879 76.4218L81.5483 73.6012V76.4384C81.5483 76.6234 81.5054 76.7633 81.4194 76.8578C81.3336 76.9524 81.2234 76.9999 81.0891 76.9999C80.9506 76.9999 80.8392 76.952 80.7556 76.8562C80.6719 76.7606 80.6301 76.6212 80.6301 76.4384V72.703C80.6301 72.5444 80.6478 72.4201 80.6829 72.3297C80.7246 72.2307 80.794 72.1498 80.8909 72.087C80.9878 72.0243 81.0924 71.9928 81.2048 71.9928C81.2928 71.9928 81.3682 72.0072 81.431 72.0357C81.4936 72.0645 81.5487 72.103 81.596 72.1515C81.6433 72.1998 81.6918 72.2626 81.7413 72.3397C81.791 72.4167 81.8422 72.4971 81.8949 72.5807Z" fill="white"/>
<path d="M88.9002 72.8847H87.8301V76.4022C87.8301 76.6048 87.785 76.755 87.6947 76.853C87.6044 76.951 87.4876 77 87.3446 77C87.1993 77 87.0809 76.9505 86.9896 76.8515C86.8982 76.7524 86.8524 76.6027 86.8524 76.4023V72.8848H85.7823C85.615 72.8848 85.4905 72.848 85.4091 72.7741C85.3276 72.7003 85.287 72.6028 85.287 72.4818C85.287 72.3562 85.3293 72.2571 85.414 72.1845C85.4987 72.1118 85.6216 72.0755 85.7823 72.0755H88.9002C89.0699 72.0755 89.1959 72.1128 89.2784 72.1878C89.361 72.2626 89.4022 72.3606 89.4022 72.4818C89.4022 72.6028 89.3605 72.7003 89.2767 72.7741C89.193 72.8478 89.0675 72.8847 88.9002 72.8847Z" fill="white"/>
<path d="M89.9901 74.9157V72.5873C89.9901 72.3891 90.0347 72.2404 90.1238 72.1414C90.2129 72.0423 90.3303 71.9928 90.4756 71.9928C90.6275 71.9928 90.7481 72.0424 90.8372 72.1414C90.9264 72.2405 90.9709 72.3891 90.9709 72.5873V74.9686C90.9709 75.2394 91.0011 75.4656 91.0618 75.6472C91.1223 75.8288 91.2296 75.9698 91.3838 76.07C91.5378 76.1702 91.7537 76.2203 92.031 76.2203C92.4142 76.2203 92.685 76.1185 92.8436 75.9149C93.0022 75.7112 93.0814 75.4023 93.0814 74.9884V72.5874C93.0814 72.387 93.1255 72.2378 93.2136 72.1398C93.3016 72.0419 93.4195 71.9928 93.5671 71.9928C93.7146 71.9928 93.834 72.0419 93.9254 72.1398C94.0168 72.2378 94.0625 72.387 94.0625 72.5874V74.9158C94.0625 75.2946 94.0257 75.6105 93.9518 75.8638C93.8781 76.1171 93.7387 76.3394 93.5341 76.5309C93.3579 76.6939 93.1531 76.8128 92.9197 76.8876C92.6863 76.9624 92.4133 76.9999 92.1006 76.9999C91.7286 76.9999 91.4081 76.9597 91.1395 76.8793C90.8709 76.7989 90.6517 76.6745 90.4823 76.5061C90.3128 76.3376 90.1883 76.1219 90.1091 75.8587C90.0298 75.5957 89.9901 75.2814 89.9901 74.9157Z" fill="white"/>
<path d="M96.4406 74.8464H96.0971V76.402C96.0971 76.6068 96.0519 76.7576 95.9617 76.8544C95.8714 76.9513 95.7537 76.9997 95.6083 76.9997C95.452 76.9997 95.3308 76.9491 95.2449 76.8478C95.159 76.7466 95.1161 76.5979 95.1161 76.402V72.6765C95.1161 72.4651 95.1634 72.312 95.2582 72.2173C95.3528 72.1228 95.5059 72.0754 95.7173 72.0754H97.3125C97.5326 72.0754 97.721 72.0847 97.8773 72.1034C98.0337 72.1222 98.1746 72.1602 98.3 72.2173C98.4521 72.2813 98.5863 72.3726 98.7029 72.4915C98.8196 72.6104 98.9083 72.7486 98.9689 72.9059C99.0295 73.0634 99.0597 73.2303 99.0597 73.4063C99.0597 73.7675 98.9578 74.0559 98.7543 74.2717C98.5506 74.4874 98.2417 74.6405 97.8278 74.7307C98.0018 74.8233 98.1681 74.9598 98.3266 75.1402C98.4852 75.3209 98.6266 75.513 98.751 75.7166C98.8753 75.9202 98.9723 76.1041 99.0417 76.2681C99.111 76.4322 99.1457 76.5451 99.1457 76.6067C99.1457 76.6705 99.1253 76.7337 99.0846 76.7966C99.0439 76.8592 98.9882 76.9089 98.9177 76.9452C98.8472 76.9815 98.7658 76.9996 98.6734 76.9996C98.5632 76.9996 98.4708 76.9738 98.3958 76.922C98.3209 76.8704 98.2566 76.8048 98.2027 76.7255C98.1486 76.6463 98.0755 76.5295 97.9831 76.3753L97.5901 75.7213C97.4492 75.4814 97.323 75.2986 97.2119 75.1731C97.1007 75.0477 96.9878 74.9619 96.8733 74.9156C96.7588 74.8696 96.6145 74.8464 96.4406 74.8464ZM97.0021 72.812H96.0971V74.143H96.9756C97.2112 74.143 97.4095 74.1226 97.5701 74.0818C97.7308 74.0412 97.8537 73.9717 97.9384 73.8739C98.0232 73.7759 98.0655 73.6409 98.0655 73.4693C98.0655 73.335 98.0313 73.2167 97.9631 73.1143C97.895 73.0118 97.8002 72.9354 97.6791 72.8847C97.5647 72.8361 97.3388 72.812 97.0021 72.812Z" fill="white"/>
<path d="M103.178 72.8317H100.969V74.0207H103.003C103.153 74.0207 103.265 74.0543 103.338 74.1215C103.412 74.1886 103.449 74.2772 103.449 74.3873C103.449 74.4975 103.413 74.5871 103.34 74.6565C103.267 74.7258 103.155 74.7605 103.003 74.7605H100.969V76.1379H103.254C103.408 76.1379 103.525 76.1736 103.603 76.2452C103.681 76.3167 103.72 76.4119 103.72 76.5308C103.72 76.6453 103.681 76.7384 103.603 76.8098C103.525 76.8814 103.408 76.9172 103.254 76.9172H100.589C100.375 76.9172 100.222 76.8699 100.128 76.7751C100.034 76.6803 99.9875 76.5274 99.9875 76.3161V72.6765C99.9875 72.5356 100.009 72.4205 100.05 72.3314C100.092 72.2422 100.158 72.1773 100.247 72.1365C100.336 72.0959 100.45 72.0754 100.589 72.0754H103.178C103.335 72.0754 103.451 72.11 103.527 72.1794C103.603 72.2487 103.641 72.3396 103.641 72.452C103.641 72.5664 103.603 72.6583 103.527 72.7277C103.451 72.7971 103.335 72.8317 103.178 72.8317Z" fill="white"/>
<path d="M109.084 72.8316H107.152V74.0702H108.767C108.916 74.0702 109.028 74.1038 109.102 74.171C109.176 74.2381 109.213 74.3278 109.213 74.4401C109.213 74.5523 109.175 74.6416 109.1 74.7076C109.025 74.7736 108.914 74.8067 108.767 74.8067H107.152V76.402C107.152 76.6046 107.106 76.7549 107.015 76.8529C106.923 76.9509 106.806 76.9999 106.663 76.9999C106.517 76.9999 106.399 76.9503 106.308 76.8513C106.216 76.7521 106.171 76.6025 106.171 76.4021V72.6766C106.171 72.5357 106.192 72.4206 106.233 72.3315C106.275 72.2423 106.341 72.1774 106.43 72.1366C106.519 72.096 106.633 72.0755 106.772 72.0755H109.084C109.24 72.0755 109.356 72.1101 109.432 72.1795C109.508 72.2488 109.546 72.3397 109.546 72.4521C109.546 72.5665 109.508 72.6584 109.432 72.7278C109.356 72.7971 109.24 72.8316 109.084 72.8316Z" fill="white"/>
<path d="M112.406 71.9928C112.908 71.9928 113.339 72.0947 113.699 72.2983C114.06 72.502 114.332 72.7916 114.517 73.1668C114.702 73.5423 114.794 73.9833 114.794 74.4897C114.794 74.8641 114.744 75.2042 114.642 75.5103C114.541 75.8162 114.389 76.0816 114.187 76.3062C113.984 76.5307 113.735 76.7026 113.44 76.8215C113.145 76.9405 112.807 76.9999 112.426 76.9999C112.047 76.9999 111.708 76.9388 111.409 76.8166C111.109 76.6944 110.859 76.5222 110.659 76.2997C110.459 76.0773 110.307 75.8099 110.205 75.4972C110.103 75.1847 110.051 74.8465 110.051 74.4832C110.051 74.1112 110.105 73.7699 110.212 73.4594C110.318 73.149 110.473 72.8848 110.676 72.6669C110.878 72.449 111.125 72.282 111.415 72.1665C111.706 72.051 112.036 71.9928 112.406 71.9928ZM113.8 74.4831C113.8 74.1287 113.743 73.8215 113.628 73.5617C113.514 73.3019 113.35 73.1054 113.138 72.9721C112.925 72.839 112.682 72.7724 112.406 72.7724C112.21 72.7724 112.029 72.8092 111.863 72.8831C111.697 72.9568 111.554 73.0642 111.434 73.205C111.314 73.346 111.219 73.5261 111.15 73.745C111.08 73.9641 111.046 74.2102 111.046 74.4831C111.046 74.7584 111.08 75.0072 111.15 75.2296C111.219 75.4521 111.317 75.6364 111.444 75.7829C111.57 75.9294 111.716 76.0389 111.88 76.1115C112.044 76.1841 112.224 76.2205 112.42 76.2205C112.671 76.2205 112.901 76.1578 113.112 76.0323C113.322 75.9067 113.489 75.713 113.614 75.451C113.738 75.1888 113.8 74.8663 113.8 74.4831Z" fill="white"/>
<path d="M116.951 74.8464H116.608V76.402C116.608 76.6068 116.562 76.7576 116.472 76.8544C116.382 76.9513 116.264 76.9997 116.119 76.9997C115.962 76.9997 115.841 76.9491 115.755 76.8478C115.669 76.7466 115.626 76.5979 115.626 76.402V72.6765C115.626 72.4651 115.674 72.312 115.769 72.2173C115.863 72.1228 116.016 72.0754 116.228 72.0754H117.823C118.043 72.0754 118.231 72.0847 118.388 72.1034C118.544 72.1222 118.685 72.1602 118.81 72.2173C118.962 72.2813 119.097 72.3726 119.213 72.4915C119.33 72.6104 119.419 72.7486 119.479 72.9059C119.54 73.0634 119.57 73.2303 119.57 73.4063C119.57 73.7675 119.468 74.0559 119.265 74.2717C119.061 74.4874 118.752 74.6405 118.338 74.7307C118.512 74.8233 118.678 74.9598 118.837 75.1402C118.996 75.3209 119.137 75.513 119.261 75.7166C119.386 75.9202 119.483 76.1041 119.552 76.2681C119.621 76.4322 119.656 76.5451 119.656 76.6067C119.656 76.6705 119.636 76.7337 119.595 76.7966C119.554 76.8592 119.499 76.9089 119.428 76.9452C119.358 76.9815 119.276 76.9996 119.184 76.9996C119.074 76.9996 118.981 76.9738 118.906 76.922C118.831 76.8704 118.767 76.8048 118.713 76.7255C118.659 76.6463 118.586 76.5295 118.493 76.3753L118.1 75.7213C117.96 75.4814 117.833 75.2986 117.722 75.1731C117.611 75.0477 117.498 74.9619 117.384 74.9156C117.269 74.8696 117.125 74.8464 116.951 74.8464ZM117.512 72.812H116.608V74.143H117.486C117.722 74.143 117.92 74.1226 118.08 74.0818C118.241 74.0412 118.364 73.9717 118.449 73.8739C118.534 73.7759 118.576 73.6409 118.576 73.4693C118.576 73.335 118.542 73.2167 118.474 73.1143C118.405 73.0118 118.311 72.9354 118.19 72.8847C118.075 72.8361 117.849 72.812 117.512 72.812Z" fill="white"/>
<path d="M73.3307 83.1484H72.4322V84.5191C72.4322 84.7151 72.3861 84.8636 72.2936 84.9648C72.2011 85.0661 72.0844 85.1168 71.9435 85.1168C71.7958 85.1168 71.677 85.0666 71.5868 84.9665C71.4965 84.8665 71.4513 84.7195 71.4513 84.5257V80.7935C71.4513 80.5778 71.5009 80.4235 71.6 80.3311C71.699 80.2387 71.8565 80.1925 72.0722 80.1925H73.3307C73.7027 80.1925 73.9889 80.2212 74.1893 80.2783C74.3875 80.3334 74.5588 80.4248 74.7029 80.5524C74.8471 80.6801 74.9567 80.8364 75.0315 81.0214C75.1065 81.2064 75.1438 81.4144 75.1438 81.6456C75.1438 82.1389 74.9919 82.5125 74.688 82.7669C74.3842 83.0212 73.9318 83.1484 73.3307 83.1484ZM73.0928 80.929H72.4322V82.4086H73.0928C73.3241 82.4086 73.5172 82.3843 73.6725 82.3358C73.8277 82.2875 73.946 82.2083 74.0276 82.0981C74.109 81.9879 74.1497 81.8438 74.1497 81.6654C74.1497 81.4519 74.0871 81.2779 73.9614 81.1436C73.8207 81.0005 73.5309 80.929 73.0928 80.929Z" fill="white"/>
<path d="M78.4665 84.4861L78.2354 83.8784H76.2668L76.0357 84.4993C75.9453 84.7416 75.8683 84.9051 75.8044 84.9898C75.7406 85.0745 75.636 85.1169 75.4907 85.1169C75.3673 85.1169 75.2584 85.0718 75.1638 84.9816C75.0692 84.8913 75.0217 84.7889 75.0217 84.6743C75.0217 84.6082 75.0327 84.54 75.0548 84.4696C75.0768 84.3991 75.1131 84.3011 75.1638 84.1756L76.4024 81.0312C76.4375 80.941 76.4801 80.8326 76.5294 80.706C76.5791 80.5793 76.6319 80.4742 76.6881 80.3905C76.7442 80.3067 76.818 80.2391 76.9094 80.1873C77.0007 80.1357 77.1136 80.1097 77.2478 80.1097C77.3843 80.1097 77.4983 80.1356 77.5897 80.1873C77.6811 80.2391 77.7548 80.3058 77.811 80.3872C77.8672 80.4688 77.9145 80.5562 77.953 80.6497C77.9915 80.7434 78.0407 80.8683 78.1 81.0246L79.3651 84.1492C79.4643 84.3869 79.5136 84.5599 79.5136 84.6677C79.5136 84.78 79.4668 84.8829 79.3733 84.9765C79.2797 85.0702 79.1668 85.1169 79.0348 85.1169C78.9577 85.1169 78.8917 85.1031 78.8366 85.0757C78.7815 85.048 78.7353 85.0107 78.698 84.9634C78.6606 84.9161 78.6202 84.8434 78.5773 84.7454C78.5344 84.6474 78.4975 84.561 78.4665 84.4861ZM76.5245 83.1417H77.9712L77.2412 81.1436L76.5245 83.1417Z" fill="white"/>
<path d="M81.2211 80.7044V82.4021L83.1466 80.394C83.2392 80.2971 83.3178 80.2255 83.3828 80.1793C83.4477 80.1332 83.5341 80.11 83.6421 80.11C83.783 80.11 83.8969 80.1512 83.9839 80.2339C84.0709 80.3165 84.1145 80.4172 84.1145 80.5361C84.1145 80.6792 84.0407 80.8212 83.8932 80.9621L82.7009 82.0916L84.0749 84.0602C84.1718 84.1968 84.2445 84.3162 84.293 84.4186C84.3413 84.521 84.3657 84.6207 84.3657 84.7175C84.3657 84.8255 84.3232 84.9191 84.2385 84.9983C84.1538 85.0775 84.0388 85.1172 83.8934 85.1172C83.7568 85.1172 83.6457 85.088 83.5598 85.0297C83.474 84.9713 83.4012 84.8937 83.3417 84.7967C83.2824 84.6999 83.2295 84.6117 83.1832 84.5325L82.0239 82.749L81.2214 83.5187V84.5194C81.2214 84.7221 81.1752 84.8723 81.0828 84.9703C80.9902 85.0683 80.8714 85.1173 80.7261 85.1173C80.6423 85.1173 80.5619 85.0953 80.4849 85.0512C80.4078 85.0072 80.3484 84.9477 80.3066 84.8729C80.2759 84.8112 80.2571 84.7397 80.2505 84.6583C80.2438 84.5767 80.2406 84.459 80.2406 84.3048V80.7044C80.2406 80.5062 80.284 80.3576 80.371 80.2585C80.458 80.1595 80.5763 80.11 80.7261 80.11C80.8736 80.11 80.9931 80.1591 81.0845 80.257C81.1754 80.3547 81.2211 80.504 81.2211 80.7044Z" fill="white"/>
<path d="M85.2803 84.5191V80.7044C85.2803 80.5062 85.3254 80.3576 85.4156 80.2585C85.5058 80.1595 85.6226 80.11 85.7657 80.11C85.9133 80.11 86.0328 80.1591 86.1242 80.257C86.2154 80.355 86.2612 80.5042 86.2612 80.7046V84.5193C86.2612 84.7197 86.2154 84.8693 86.1242 84.9685C86.0328 85.0677 85.9133 85.117 85.7657 85.117C85.6248 85.117 85.5087 85.0669 85.4173 84.9668C85.3259 84.8667 85.2803 84.7173 85.2803 84.5191Z" fill="white"/>
<path d="M91.037 83.581C91.037 83.874 90.9616 84.137 90.8108 84.3705C90.6599 84.6039 90.4393 84.7866 90.1486 84.9187C89.858 85.0508 89.5133 85.1168 89.1149 85.1168C88.6369 85.1168 88.2428 85.0265 87.9324 84.846C87.7123 84.7161 87.5332 84.5426 87.3956 84.3258C87.2579 84.1089 87.1892 83.898 87.1892 83.6932C87.1892 83.5743 87.2304 83.4725 87.313 83.3878C87.3956 83.3031 87.5007 83.2606 87.6285 83.2606C87.732 83.2606 87.8196 83.2936 87.891 83.3598C87.9624 83.4259 88.0236 83.5239 88.0743 83.6538C88.136 83.8079 88.2025 83.9367 88.2742 84.0402C88.3458 84.1438 88.4464 84.2289 88.5764 84.2962C88.7063 84.3635 88.8768 84.3969 89.0883 84.3969C89.3789 84.3969 89.615 84.3293 89.7967 84.1938C89.9784 84.0583 90.0693 83.8894 90.0693 83.6868C90.0693 83.5262 90.0202 83.3957 89.9223 83.2953C89.8242 83.1953 89.6977 83.1188 89.5424 83.0658C89.3872 83.013 89.1795 82.9567 88.9198 82.8974C88.5718 82.8158 88.2807 82.7207 88.0462 82.6117C87.8117 82.5026 87.6257 82.3541 87.488 82.1659C87.3503 81.9775 87.2815 81.7435 87.2815 81.4639C87.2815 81.1975 87.3542 80.9608 87.4995 80.7538C87.6449 80.5468 87.8551 80.3877 88.1304 80.2765C88.4056 80.1654 88.7293 80.1097 89.1014 80.1097C89.3986 80.1097 89.6557 80.1466 89.8725 80.2204C90.0894 80.2941 90.2695 80.3921 90.4126 80.5144C90.5557 80.6366 90.6603 80.765 90.7264 80.8993C90.7924 81.0336 90.8254 81.1646 90.8254 81.2923C90.8254 81.409 90.7842 81.5141 90.7016 81.6077C90.6191 81.7014 90.516 81.7481 90.3929 81.7481C90.2805 81.7481 90.1952 81.7199 90.1367 81.6639C90.0784 81.6077 90.0151 81.5158 89.9468 81.3881C89.8587 81.2054 89.7531 81.0627 89.6299 80.9604C89.5065 80.858 89.3084 80.8067 89.0353 80.8067C88.7821 80.8067 88.5779 80.8624 88.4226 80.9735C88.2673 81.0846 88.1897 81.2185 88.1897 81.3749C88.1897 81.4717 88.2161 81.5554 88.2689 81.626C88.3218 81.6965 88.3945 81.757 88.4869 81.8076C88.5795 81.8583 88.6731 81.8978 88.7677 81.9264C88.8623 81.9551 89.0188 81.997 89.2367 82.0519C89.5096 82.1158 89.7569 82.1863 89.9782 82.2633C90.1995 82.3405 90.3877 82.4339 90.543 82.5441C90.6981 82.6543 90.8192 82.7935 90.9063 82.9619C90.9934 83.1303 91.037 83.3367 91.037 83.581Z" fill="white"/>
<path d="M95.0137 81.0017H93.9436V84.5192C93.9436 84.7218 93.8985 84.872 93.8083 84.97C93.7179 85.068 93.6011 85.117 93.4581 85.117C93.3128 85.117 93.1945 85.0675 93.1031 84.9685C93.0117 84.8695 92.9659 84.7197 92.9659 84.5193V81.0018H91.8958C91.7285 81.0018 91.604 80.965 91.5226 80.8911C91.4411 80.8173 91.4005 80.7199 91.4005 80.5988C91.4005 80.4732 91.4428 80.3741 91.5275 80.3016C91.6122 80.2288 91.7351 80.1925 91.8958 80.1925H95.0137C95.1834 80.1925 95.3094 80.2299 95.3919 80.3048C95.4745 80.3796 95.5157 80.4776 95.5157 80.5988C95.5157 80.7199 95.474 80.8173 95.3903 80.8911C95.3065 80.9649 95.181 81.0017 95.0137 81.0017Z" fill="white"/>
<path d="M98.7691 84.4861L98.538 83.8784H96.5694L96.3383 84.4993C96.248 84.7416 96.1709 84.9051 96.107 84.9898C96.0433 85.0745 95.9387 85.1169 95.7933 85.1169C95.6699 85.1169 95.561 85.0718 95.4664 84.9816C95.3718 84.8913 95.3243 84.7889 95.3243 84.6743C95.3243 84.6082 95.3354 84.54 95.3574 84.4696C95.3794 84.3991 95.4157 84.3011 95.4664 84.1756L96.705 81.0312C96.7402 80.941 96.7827 80.8326 96.8321 80.706C96.8817 80.5793 96.9345 80.4742 96.9907 80.3905C97.0469 80.3067 97.1206 80.2391 97.212 80.1873C97.3033 80.1357 97.4162 80.1097 97.5505 80.1097C97.687 80.1097 97.8009 80.1356 97.8923 80.1873C97.9837 80.2391 98.0574 80.3058 98.1136 80.3872C98.1698 80.4688 98.2172 80.5562 98.2557 80.6497C98.2942 80.7434 98.3433 80.8683 98.4027 81.0246L99.6677 84.1492C99.7669 84.3869 99.8163 84.5599 99.8163 84.6677C99.8163 84.78 99.7695 84.8829 99.6759 84.9765C99.5823 85.0702 99.4694 85.1169 99.3374 85.1169C99.2603 85.1169 99.1943 85.1031 99.1392 85.0757C99.0841 85.048 99.038 85.0107 99.0006 84.9634C98.9632 84.9161 98.9229 84.8434 98.88 84.7454C98.837 84.6474 98.8 84.561 98.7691 84.4861ZM96.827 83.1417H98.2737L97.5437 81.1436L96.827 83.1417Z" fill="white"/>
<path d="M101.814 80.6977L103.7 83.5514V80.6714C103.7 80.4842 103.74 80.3439 103.821 80.2502C103.901 80.1566 104.01 80.1098 104.146 80.1098C104.287 80.1098 104.398 80.1566 104.48 80.2502C104.561 80.3439 104.602 80.4842 104.602 80.6714V84.4795C104.602 84.9044 104.426 85.1169 104.073 85.1169C103.985 85.1169 103.906 85.1042 103.836 85.0789C103.765 85.0537 103.699 85.0135 103.637 84.9584C103.576 84.9033 103.519 84.839 103.466 84.7652C103.413 84.6915 103.36 84.616 103.307 84.5389L101.468 81.7183V84.5555C101.468 84.7405 101.425 84.8803 101.339 84.9748C101.253 85.0695 101.143 85.1169 101.008 85.1169C100.87 85.1169 100.759 85.0691 100.675 84.9733C100.591 84.8776 100.549 84.7383 100.549 84.5555V80.8201C100.549 80.6614 100.567 80.5371 100.602 80.4467C100.644 80.3477 100.713 80.2668 100.81 80.2041C100.907 80.1413 101.012 80.1098 101.124 80.1098C101.212 80.1098 101.288 80.1242 101.35 80.1527C101.413 80.1815 101.468 80.22 101.515 80.2685C101.563 80.3169 101.611 80.3796 101.661 80.4567C101.71 80.5337 101.761 80.6141 101.814 80.6977Z" fill="white"/>
<path d="M108.698 84.9713H106.92C106.889 84.9713 106.863 84.9455 106.863 84.9137V83.1361C106.863 83.1042 106.889 83.0784 106.92 83.0784H108.698C108.73 83.0784 108.756 83.1042 108.756 83.1361V84.9137C108.756 84.9455 108.73 84.9713 108.698 84.9713Z" fill="#00EDBB"/>
<path d="M31.613 40.5631C34.3559 40.5631 36.9888 40.5383 39.6201 40.5926C39.9722 40.5999 40.4591 40.9243 40.6429 41.2413C46.4915 51.3307 52.3106 61.4373 58.1298 71.5438C58.1747 71.6215 58.1604 71.7334 58.2058 72.0585C55.4155 72.0585 52.6524 72.0756 49.8906 72.0292C49.6427 72.0251 49.3271 71.6523 49.1684 71.378C43.3275 61.2842 37.5013 51.1821 31.6776 41.0785C31.6334 41.0019 31.6511 40.8895 31.613 40.5631Z" fill="white"/>
<path d="M27.7682 42.7525C32.046 50.162 36.2026 57.3622 40.3599 64.562C41.8789 67.1926 43.3557 69.8491 44.9396 72.44C45.6301 73.5696 45.8547 74.524 44.9794 75.6652C44.353 76.4819 43.9218 77.4481 43.3073 78.5146C42.9787 78.0342 42.7188 77.7035 42.5106 77.3429C36.9568 67.7273 31.4196 58.102 25.8393 48.5017C25.3274 47.6211 25.2187 46.9394 25.8196 46.0717C26.4941 45.098 27.0292 44.0278 27.7682 42.7525Z" fill="white"/>
<path d="M58.4412 76.1551C57.5335 77.7556 56.7999 79.0914 56.0122 80.3945C55.891 80.5949 55.5216 80.7463 55.2655 80.7486C52.5902 80.7739 49.9145 80.7643 46.882 80.7643C47.7965 79.1693 48.5467 77.8005 49.3736 76.4797C49.5092 76.2632 49.9817 76.1718 50.2998 76.1688C52.8873 76.1445 55.4754 76.1551 58.4412 76.1551Z" fill="#00EDBB"/>
<path d="M49.1865 47.6436L48.651 46.7135C46.8698 43.6133 45.0998 40.5018 43.2453 37.4354C42.9353 36.928 42.1236 36.4433 41.5373 36.432C36.8983 36.3475 32.2592 36.3531 27.62 36.4263C27.0733 36.4376 26.3236 36.9111 26.0305 37.3903C24.2606 40.3326 22.5526 43.3202 20.9236 46.3472C20.6587 46.8431 20.6418 47.7338 20.9124 48.2129C27.7104 60.1123 34.5647 71.9776 41.3853 83.8657C41.8363 84.6492 42.3266 84.9761 43.2566 84.9706C47.845 84.9199 52.4333 84.9254 57.0217 84.9706C57.9348 84.9763 58.4478 84.6943 58.8988 83.8827C59.9585 81.9718 61.0352 80.0722 62.1173 78.1727C62.6641 77.2144 63.2109 76.2562 63.7632 75.2979L64.389 74.2043L49.1865 47.6436ZM44.9813 75.6641C44.35 76.4814 43.9216 77.4453 43.3072 78.5163C42.9802 78.0315 42.721 77.7046 42.5124 77.3439C36.9545 67.7275 31.4191 58.0999 25.8387 48.5003C25.3257 47.621 25.2186 46.9389 25.8217 46.0708C26.4925 45.0956 27.028 44.0246 27.7664 42.7507C32.0447 50.1631 36.2048 57.3613 40.359 64.5595C41.8808 67.1919 43.3521 69.8468 44.9361 72.4397C45.6296 73.5672 45.8552 74.5255 44.9813 75.6641ZM56.0127 80.3933C55.8886 80.5962 55.5223 80.7485 55.263 80.7485C52.5911 80.7766 49.9137 80.7655 46.8811 80.7655C47.7942 79.1703 48.5439 77.8005 49.3725 76.4815C49.5079 76.2617 49.9813 76.1714 50.2969 76.1714C52.8899 76.1433 55.4772 76.1544 58.4421 76.1544C57.5345 77.7554 56.8017 79.0912 56.0127 80.3933ZM58.1321 71.5435C58.1772 71.6225 58.1603 71.7352 58.2054 72.0565C55.4151 72.0565 52.6531 72.0733 49.8911 72.0283C49.6431 72.0226 49.3274 71.6506 49.1695 71.3801C43.3297 61.2845 37.5013 51.1834 31.6785 41.0765C31.6334 41.0033 31.6504 40.8905 31.6108 40.5636C34.356 40.5636 36.9884 40.541 39.6208 40.5917C39.9702 40.5974 40.4606 40.9242 40.6411 41.24C41.977 43.5455 43.3129 45.8565 44.6488 48.162C49.1527 55.9522 53.6395 63.7479 58.1321 71.5435Z" fill="black"/>
</g>
<defs>
<clipPath id="clip0">
<rect width="140" height="140" fill="white" transform="translate(0 -10)"/>
</clipPath>
</defs>
</svg>
